<svg xmlns="http://www.w3.org/2000/svg" viewBox="0 0 400 300" width="406" height="306" class="illustration styles_illustrationTablet__1DWOa"><g id="_349_product_manager_flatline" data-name="#349_product_manager_flatline"><ellipse cx="298.71" cy="254.6" rx="5.04" ry="13.36" transform="translate(1.52 510.97) rotate(-81.23)" fill="#d1d3d4"></ellipse><ellipse cx="136.79" cy="236.92" rx="24.05" ry="80.18" transform="translate(-121.66 326.63) rotate(-79.14)" fill="#d1d3d4"></ellipse><path d="M342.28,241.08h-.09L57.63,188.22a.49.49,0,0,1-.4-.58.5.5,0,0,1,.58-.4l284.56,52.85a.5.5,0,0,1-.09,1Z" fill="#d1d3d4"></path><polygon points="186.13 28.94 322.85 55.17 322.85 214.29 186.13 188.06 186.13 28.94" fill="#fff"></polygon><path d="M322.84,214.79h-.09L186,188.55a.5.5,0,0,1-.4-.49V28.94a.5.5,0,0,1,.18-.39.54.54,0,0,1,.41-.11L322.94,54.67a.51.51,0,0,1,.4.5V214.29a.46.46,0,0,1-.18.38A.47.47,0,0,1,322.84,214.79ZM186.63,187.64l135.71,26V55.58l-135.71-26Z" fill="#d1d3d4"></path><path d="M246.64,182.09a.51.51,0,0,1-.49-.4c-.78-3.86-.18-7.6.5-11.11,1-5.35,2.45-11.43,6.1-15.93a14.42,14.42,0,0,1,15.87-4.88.5.5,0,1,1-.33.95,13.42,13.42,0,0,0-14.77,4.56c-3.5,4.32-4.87,10.26-5.89,15.49-.66,3.41-1.24,7-.5,10.72a.5.5,0,0,1-.39.59Z" fill="#d1d3d4"></path><path d="M275.18,151.61a23.87,23.87,0,0,1-4.46-.53,36.49,36.49,0,0,1-8.83-2.63,28.5,28.5,0,0,1-13.64-15.17c-2.38-6-2.74-12.09-3.08-17.94a.52.52,0,0,1,.47-.53.51.51,0,0,1,.53.47c.34,5.78.69,11.75,3,17.63a27.44,27.44,0,0,0,13.14,14.63,35.34,35.34,0,0,0,8.59,2.56,16.94,16.94,0,0,0,5.93.37.5.5,0,1,1,.17,1A11.11,11.11,0,0,1,275.18,151.61Z" fill="#d1d3d4"></path><path d="M253.82,87.67h0a.5.5,0,0,1-.49-.5,58.4,58.4,0,0,1,1.7-14c.64-2.6,1.59-5.51,3.71-7.39,3.69-3.27,9.51-2.56,15.15-1.54,1.07.19,2.54.59,3.11,1.83a.5.5,0,0,1-.25.66.5.5,0,0,1-.66-.24c-.37-.82-1.53-1.12-2.37-1.27-5.41-1-11-1.67-14.32,1.31-1.92,1.7-2.8,4.43-3.4,6.88a57.54,57.54,0,0,0-1.67,13.79A.5.5,0,0,1,253.82,87.67Z" fill="#d1d3d4"></path><path d="M249.4,89.52h0a.5.5,0,0,1-.47-.53v-.12c.48-9,1.2-22.66-9.85-27.26a34.2,34.2,0,0,0-9.13-2,.5.5,0,0,1,.12-1,34.64,34.64,0,0,1,9.39,2.06c11.7,4.88,11,18.94,10.47,28.24V89A.5.5,0,0,1,249.4,89.52Z" fill="#d1d3d4"></path><polygon points="294.79 132.03 218.7 117.44 218.7 75.72 294.79 90.32 294.79 132.03" fill="#fff"></polygon><path d="M294.79,132.53h-.09l-76.09-14.59a.51.51,0,0,1-.41-.5V75.72a.49.49,0,0,1,.18-.38.53.53,0,0,1,.42-.11l76.08,14.6a.5.5,0,0,1,.41.49V132a.53.53,0,0,1-.18.39A.52.52,0,0,1,294.79,132.53ZM219.2,117l75.09,14.41V90.73L219.2,76.33Z" fill="#d1d3d4"></path><path d="M280.93,101.81l-48.37-9.28a4.2,4.2,0,0,1-3.32-4h0a2.66,2.66,0,0,1,3.32-2.68l48.37,9.28a4.21,4.21,0,0,1,3.33,4h0A2.67,2.67,0,0,1,280.93,101.81Z" fill="#fff"></path><path d="M281.57,102.38a3.71,3.71,0,0,1-.73-.08h0L232.47,93a4.74,4.74,0,0,1-3.73-4.45A3.2,3.2,0,0,1,229.87,86a3.34,3.34,0,0,1,2.78-.65L281,94.68a4.75,4.75,0,0,1,3.73,4.45,3.22,3.22,0,0,1-1.14,2.53A3.18,3.18,0,0,1,281.57,102.38Zm-.54-1.06a2.33,2.33,0,0,0,2-.43,2.25,2.25,0,0,0,.77-1.76,3.7,3.7,0,0,0-2.92-3.47l-48.37-9.28a2.31,2.31,0,0,0-2,.43,2.22,2.22,0,0,0-.77,1.76A3.69,3.69,0,0,0,232.65,92Z" fill="#d1d3d4"></path><path d="M280.93,111.84l-48.37-9.28a4.2,4.2,0,0,1-3.32-4h0a2.66,2.66,0,0,1,3.32-2.69l48.37,9.29a4.21,4.21,0,0,1,3.33,4h0A2.67,2.67,0,0,1,280.93,111.84Z" fill="#fff"></path><path d="M281.57,112.4a3.68,3.68,0,0,1-.73-.07h0l-48.37-9.28a4.74,4.74,0,0,1-3.73-4.45,3.2,3.2,0,0,1,1.13-2.53,3.3,3.3,0,0,1,2.78-.65L281,104.7a4.77,4.77,0,0,1,3.73,4.46,3.23,3.23,0,0,1-1.14,2.53A3.17,3.17,0,0,1,281.57,112.4Zm-.54-1.05a2.33,2.33,0,0,0,2-.43,2.27,2.27,0,0,0,.77-1.76,3.69,3.69,0,0,0-2.92-3.47l-48.37-9.28a2.31,2.31,0,0,0-2,.43,2.22,2.22,0,0,0-.77,1.76,3.69,3.69,0,0,0,2.91,3.47Z" fill="#d1d3d4"></path><path d="M280.93,121.87l-48.37-9.28a4.21,4.21,0,0,1-3.32-4h0a2.66,2.66,0,0,1,3.32-2.69l48.37,9.28a4.23,4.23,0,0,1,3.33,4h0A2.67,2.67,0,0,1,280.93,121.87Z" fill="#fff"></path><path d="M281.57,122.43a3.68,3.68,0,0,1-.73-.07h0l-48.37-9.28a4.74,4.74,0,0,1-3.73-4.45,3.2,3.2,0,0,1,1.13-2.53,3.3,3.3,0,0,1,2.78-.65L281,114.73a4.76,4.76,0,0,1,3.73,4.45,3.2,3.2,0,0,1-1.14,2.53A3.13,3.13,0,0,1,281.57,122.43Zm-.54-1.05a2.33,2.33,0,0,0,2-.44,2.24,2.24,0,0,0,.77-1.76,3.71,3.71,0,0,0-2.92-3.47l-48.37-9.28a2.31,2.31,0,0,0-2,.44,2.21,2.21,0,0,0-.77,1.76,3.7,3.7,0,0,0,2.91,3.47Z" fill="#d1d3d4"></path><polygon points="312 166.01 267.2 157.42 267.2 135.34 312 143.94 312 166.01" fill="#fff"></polygon><path d="M312,166.51h-.1l-44.79-8.59a.49.49,0,0,1-.41-.49V135.34a.49.49,0,0,1,.18-.38.48.48,0,0,1,.41-.11l44.8,8.6a.49.49,0,0,1,.41.49V166a.53.53,0,0,1-.18.39A.54.54,0,0,1,312,166.51ZM267.7,157l43.8,8.4V144.35L267.7,136Z" fill="#d1d3d4"></path><polygon points="229.92 70.46 196.97 64.14 196.97 45.95 229.92 52.27 229.92 70.46" fill="#fff"></polygon><path d="M229.92,71h-.1l-32.94-6.32a.49.49,0,0,1-.41-.49V46a.47.47,0,0,1,.19-.38.47.47,0,0,1,.41-.11L230,51.78a.5.5,0,0,1,.41.49V70.46a.5.5,0,0,1-.5.5Zm-32.45-7.23,31.95,6.13V52.69l-31.95-6.13Z" fill="#d1d3d4"></path><path d="M285.11,157H285l-13.36-2.56a.5.5,0,0,1-.41-.49V140.61a.51.51,0,0,1,.19-.39.49.49,0,0,1,.41-.1l13.36,2.56a.49.49,0,0,1,.4.49v13.36a.5.5,0,0,1-.18.39A.52.52,0,0,1,285.11,157Zm-12.86-3.48,12.36,2.37V143.58l-12.36-2.37Z" fill="#d1d3d4"></path><ellipse cx="278.43" cy="147.31" rx="2.86" ry="3.46" transform="translate(-26.7 225.53) rotate(-42.26)" fill="#fff"></ellipse><path d="M279,151a4.23,4.23,0,0,1-.7-.06,4.52,4.52,0,0,1-3.55-4.25,3,3,0,0,1,1.08-2.41,3.16,3.16,0,0,1,2.66-.62,4.52,4.52,0,0,1,3.55,4.24,3.1,3.1,0,0,1-1.08,2.42A3.05,3.05,0,0,1,279,151Zm-1.21-6.41a2,2,0,0,0-2,2.1,3.48,3.48,0,0,0,2.74,3.26,2.14,2.14,0,0,0,1.83-.4,2.11,2.11,0,0,0,.72-1.65,3.49,3.49,0,0,0-2.74-3.26A2.94,2.94,0,0,0,277.83,144.6Z" fill="#d1d3d4"></path><path d="M276.55,150.09l3.77.73a6.07,6.07,0,0,1,4.79,5.71h0L271.75,154h0A3.85,3.85,0,0,1,276.55,150.09Z" fill="#fff"></path><path d="M285.11,157H285l-13.36-2.56a.5.5,0,0,1-.41-.49,4.4,4.4,0,0,1,1.56-3.48,4.56,4.56,0,0,1,3.83-.89l3.77.73a6.61,6.61,0,0,1,5.2,6.2.5.5,0,0,1-.18.39A.52.52,0,0,1,285.11,157Zm-12.84-3.47,12.3,2.36a5.62,5.62,0,0,0-4.34-4.61l-3.78-.73h0a3.53,3.53,0,0,0-3,.68A3.34,3.34,0,0,0,272.27,153.56Z" fill="#d1d3d4"></path><path d="M225.89,66.71h-.1l-25.25-4.84a.51.51,0,0,1-.41-.5V49.69a.53.53,0,0,1,.18-.39.51.51,0,0,1,.41-.1L226,54a.5.5,0,0,1,.41.49V66.21a.53.53,0,0,1-.18.39A.54.54,0,0,1,225.89,66.71ZM201.13,61l24.26,4.65V55l-24.26-4.66Z" fill="#d1d3d4"></path><path d="M200.63,61.86a.49.49,0,0,1-.48-.36.5.5,0,0,1,.35-.62l25.26-6.83a.5.5,0,0,1,.61.35A.49.49,0,0,1,226,55l-25.26,6.84Z" fill="#d1d3d4"></path><path d="M225.89,66.71a.5.5,0,0,1-.27-.08L200.36,50.1a.5.5,0,1,1,.54-.83l25.26,16.52a.5.5,0,0,1,.15.69A.51.51,0,0,1,225.89,66.71Z" fill="#d1d3d4"></path><polygon points="306.86 84.22 272.33 77.6 272.33 50.99 306.86 57.61 306.86 84.22" fill="#fff"></polygon><path d="M306.86,84.72h-.09l-34.53-6.62a.49.49,0,0,1-.41-.49V51a.51.51,0,0,1,.19-.39.49.49,0,0,1,.41-.1L307,57.12a.5.5,0,0,1,.4.49V84.22a.53.53,0,0,1-.18.39A.52.52,0,0,1,306.86,84.72Zm-34-7.53,33.53,6.43V58l-33.53-6.44Z" fill="#d1d3d4"></path><path d="M298.16,77.49,281,74.21a3.5,3.5,0,0,1-2.76-3.29h0A2.21,2.21,0,0,1,281,68.7L298.16,72a3.49,3.49,0,0,1,2.75,3.29h0A2.2,2.2,0,0,1,298.16,77.49Z" fill="#fff"></path><path d="M298.68,78a3.34,3.34,0,0,1-.62-.06L281,74.7a4,4,0,0,1-3.16-3.78,2.72,2.72,0,0,1,1-2.16,2.81,2.81,0,0,1,2.37-.55l17.12,3.28a4,4,0,0,1,3.16,3.78A2.67,2.67,0,0,1,298.68,78Zm-18.16-8.89a1.66,1.66,0,0,0-1.73,1.77,3,3,0,0,0,2.34,2.8L298.25,77h0a1.83,1.83,0,0,0,1.55-.34,1.75,1.75,0,0,0,.61-1.39,3,3,0,0,0-2.35-2.8L281,69.19A2.15,2.15,0,0,0,280.52,69.15Z" fill="#d1d3d4"></path><line x1="291.63" y1="145.82" x2="305.27" y2="148.44" fill="#fff"></line><path d="M305.27,148.94h-.09l-13.65-2.62a.48.48,0,0,1-.39-.58.5.5,0,0,1,.58-.4L305.36,148a.5.5,0,0,1-.09,1Z" fill="#d1d3d4"></path><line x1="291.63" y1="151.1" x2="305.27" y2="153.72" fill="#fff"></line><path d="M305.27,154.22h-.09l-13.65-2.62a.48.48,0,0,1-.39-.58.5.5,0,0,1,.58-.4l13.64,2.62a.5.5,0,0,1-.09,1Z" fill="#d1d3d4"></path><line x1="291.63" y1="156.38" x2="305.27" y2="159" fill="#fff"></line><path d="M305.27,159.5h-.09l-13.65-2.62a.48.48,0,0,1-.39-.58.5.5,0,0,1,.58-.4l13.64,2.62a.5.5,0,0,1-.09,1Z" fill="#d1d3d4"></path><line x1="280.8" y1="57.76" x2="298.4" y2="61.14" fill="#fff"></line><path d="M298.4,61.64h-.1l-17.6-3.38a.48.48,0,0,1-.39-.58.5.5,0,0,1,.58-.4l17.6,3.38a.5.5,0,0,1,.4.58A.51.51,0,0,1,298.4,61.64Z" fill="#d1d3d4"></path><polygon points="262.9 195 236.37 189.91 236.37 162.53 262.9 167.62 262.9 195" fill="#fff"></polygon><path d="M262.9,195.5h-.1l-26.52-5.09a.5.5,0,0,1-.41-.49V162.53a.49.49,0,0,1,.18-.38.48.48,0,0,1,.41-.11L263,167.13a.5.5,0,0,1,.41.49V195a.5.5,0,0,1-.5.5Zm-26-6,25.53,4.9V168l-25.53-4.9Z" fill="#d1d3d4"></path><line x1="240.87" y1="170.64" x2="258.4" y2="174" fill="#fff"></line><path d="M258.4,174.5h-.09l-17.54-3.36a.5.5,0,0,1-.39-.59.49.49,0,0,1,.58-.39l17.53,3.36a.5.5,0,0,1,.4.58A.51.51,0,0,1,258.4,174.5Z" fill="#d1d3d4"></path><line x1="240.87" y1="177.09" x2="258.4" y2="180.45" fill="#fff"></line><path d="M258.4,181h-.09l-17.54-3.36a.5.5,0,0,1-.39-.59.49.49,0,0,1,.58-.39L258.49,180a.5.5,0,0,1,.4.58A.51.51,0,0,1,258.4,181Z" fill="#d1d3d4"></path><line x1="240.87" y1="183.54" x2="253.26" y2="185.91" fill="#fff"></line><path d="M253.26,186.41h-.09L240.77,184a.5.5,0,0,1,.19-1l12.4,2.38a.49.49,0,0,1,.39.59A.49.49,0,0,1,253.26,186.41Z" fill="#d1d3d4"></path><path d="M220.64,147h-.1l-19.24-3.69a.51.51,0,0,1-.4-.59.5.5,0,0,1,.59-.39L220.73,146a.5.5,0,0,1,.4.58A.51.51,0,0,1,220.64,147Z" fill="#d1d3d4"></path><path d="M220.64,153.73h-.1L201.3,150a.5.5,0,0,1-.4-.58.51.51,0,0,1,.59-.4l19.24,3.69a.5.5,0,0,1,.4.58A.51.51,0,0,1,220.64,153.73Z" fill="#d1d3d4"></path><path d="M220.64,160.45h-.1l-19.24-3.69a.5.5,0,0,1-.4-.58.51.51,0,0,1,.59-.4l19.24,3.69a.51.51,0,0,1,.4.59A.5.5,0,0,1,220.64,160.45Z" fill="#d1d3d4"></path><path d="M220.64,167.18h-.1l-19.24-3.69a.5.5,0,1,1,.19-1l19.24,3.7a.5.5,0,0,1,.4.58A.51.51,0,0,1,220.64,167.18Z" fill="#d1d3d4"></path><path d="M220.64,173.9h-.1L201.3,170.2a.5.5,0,1,1,.19-1l19.24,3.69a.5.5,0,0,1,.4.58A.51.51,0,0,1,220.64,173.9Z" fill="#d1d3d4"></path><path d="M213.26,179.21h-.09l-11.87-2.28a.5.5,0,0,1-.4-.58.51.51,0,0,1,.59-.4l11.86,2.28a.5.5,0,0,1-.09,1Z" fill="#d1d3d4"></path><path d="M258.4,51.66h-.09L247,49.47a.5.5,0,0,1-.4-.58.51.51,0,0,1,.59-.4l11.33,2.18a.5.5,0,0,1,.4.58A.51.51,0,0,1,258.4,51.66Z" fill="#d1d3d4"></path><path d="M258.4,55.89h-.09L247,53.71a.5.5,0,1,1,.19-1l11.33,2.18a.5.5,0,0,1,.4.58A.51.51,0,0,1,258.4,55.89Z" fill="#d1d3d4"></path><path d="M303,195.47a10.11,10.11,0,0,1,1.16-5.45c.73-1.21,1.85-2.18,2.45-3.46,1-2.21.3-4.82.55-7.25a9,9,0,0,1,2.55-5.41c1.27-1.29,2.91-2.17,4.12-3.51,2-2.2,2.57-5.3,3.7-8a20,20,0,0,1,8-9.37c-2.18,4.37,2.77,9.92.53,14.26-.71,1.37-2.07,2.37-2.59,3.83-1.26,3.52,2.94,7.33,1.59,10.81-.67,1.74-2.53,2.75-3.4,4.4-1.17,2.23-.25,4.93-.34,7.45-.14,3.46-2.25,6.57-4.75,9-1.57,1.49-3.3,2.79-5,4.14-2,1.61-2.87,3.31-4.65.72A22.44,22.44,0,0,1,303,195.47Z" fill="#d1d3d4"></path><path d="M300.75,197.45c.65-2.68,1.11-5.59,0-8.12-1.24-2.86-4.32-4.89-4.69-8-.23-2,.8-4.08.4-6.09s-2.05-3.37-3.4-4.84a20.26,20.26,0,0,1-5.23-12.4,30.61,30.61,0,0,0-5,8.25c-1.06,3-1.09,6.63.72,9.3a7.76,7.76,0,0,1,1.26,2.07c.62,2-1.08,3.82-1.95,5.69a6.54,6.54,0,0,0,.62,6.73c1.77,2.21,5.19,3.07,6.06,5.76a13,13,0,0,1,.3,3.06,9,9,0,0,0,6.46,7.7c2.1.51,2.06-.32,2.43-2.09C299.27,202.11,300.18,199.82,300.75,197.45Z" fill="#d1d3d4"></path><path d="M307.42,178.16c1.49-5.16,2.09-10.54,3.66-15.67A85.86,85.86,0,0,1,316,150.8l-6.4,2.7c-2.05.86-4.26,1.88-5.23,3.88-1.69,3.49,1.34,8-.43,11.41a28.45,28.45,0,0,1-2.53,3.18c-1.88,2.65-1.6,6.28-.56,9.36.44,1.32,2.38,8.16,4.11,6.26.69-.76.75-3.6,1-4.64C306.41,181.34,307,179.76,307.42,178.16Z" fill="#d1d3d4"></path><path d="M303.93,246.64c1.27-8.43,5.27-38.12,5.31-38.42l-1.1-.15c0,.3-4,30-5.3,38.4Z" fill="#d1d3d4"></path><path d="M302.43,254.6h1.11c-.08-10-4.25-48.24-6.65-50.87l-.82.75C297.66,206.21,302.33,240.89,302.43,254.6Z" fill="#d1d3d4"></path><path d="M300.26,252.69l1.11-.05c-1-21.57,3.62-66.87,3.66-67.32l-1.1-.11C303.89,185.66,299.3,231,300.26,252.69Z" fill="#d1d3d4"></path><path d="M314.88,226.33h-23.8l1.67,24.1a8,8,0,0,0,7.93,7.4h4.6a8,8,0,0,0,7.94-7.4Z" fill="#fff"></path><path d="M305.28,258.33h-4.6a8.47,8.47,0,0,1-8.43-7.87l-1.67-24.09a.49.49,0,0,1,.14-.38.48.48,0,0,1,.36-.16h23.8a.5.5,0,0,1,.5.54l-1.66,24.09A8.48,8.48,0,0,1,305.28,258.33Zm-13.66-31.5,1.63,23.56a7.47,7.47,0,0,0,7.43,6.94h4.6a7.48,7.48,0,0,0,7.44-6.94l1.63-23.56Z" fill="#d1d3d4"></path><path d="M151,108.79s26.45,6.06,31.35,5.08c6.58-1.32,13.16-5.75,19-8.89,6.08-3.28,12-6.77,18.07-10.15,3.56-2,7.18-3.93,10.77-5.9a3.69,3.69,0,0,1,1.21-.48,2.75,2.75,0,0,1,1.06.12,3.21,3.21,0,0,1,2.17,1.9c.54,1.59-1,3-2.07,4q-4.69,4.36-9.66,8.44l5.66-.47a.7.7,0,0,1,.43,0c.39.2.2.79-.07,1.12a9.37,9.37,0,0,1-3.78,2.38c-4.52,1.87-8.15,3.07-12,5.93-3.44,2.52-6.94,5-10.52,7.27-5.54,3.57-14.49,10.31-21.58,9.12l-33-5.56" fill="#fff"></path><path d="M182.65,128.9a11,11,0,0,1-1.82-.15l-33-5.55.17-1,33,5.55c6.05,1,13.58-4,19.08-7.63l2.14-1.41c3.34-2.14,6.77-4.51,10.5-7.25a41.39,41.39,0,0,1,9.94-5.09l2.22-.9a9,9,0,0,0,3.58-2.24.8.8,0,0,0,.18-.38s-.08,0-.11,0l-5.66.48a.5.5,0,0,1-.36-.89c3.29-2.69,6.53-5.53,9.64-8.42l.1-.09c.95-.89,2.26-2.1,1.83-3.34a2.68,2.68,0,0,0-1.84-1.58,1.85,1.85,0,0,0-.84-.1,3.39,3.39,0,0,0-1,.42l-3.43,1.87c-2.46,1.33-4.91,2.66-7.34,4l-6.08,3.45c-3.91,2.23-8,4.54-12,6.71-1.25.68-2.53,1.41-3.85,2.16-4.92,2.82-10,5.73-15.26,6.78-4.94,1-30.48-4.83-31.56-5.08a.5.5,0,0,1,.22-1c.27.06,26.39,6,31.15,5.08,5.07-1,10.1-3.89,15-6.67,1.32-.75,2.61-1.49,3.86-2.17,4-2.17,8.07-4.47,12-6.7l6.08-3.45q3.66-2,7.35-4l3.43-1.86a3.92,3.92,0,0,1,1.39-.54,3,3,0,0,1,1.26.13,3.67,3.67,0,0,1,2.5,2.22c.63,1.85-1,3.38-2.1,4.39l-.1.09c-2.73,2.55-5.57,5-8.46,7.45l4.08-.34a1.15,1.15,0,0,1,.7.1.86.86,0,0,1,.47.62,1.64,1.64,0,0,1-.39,1.26,9.81,9.81,0,0,1-4,2.52l-2.23.91a41.13,41.13,0,0,0-9.72,5c-3.74,2.75-7.19,5.14-10.54,7.3-.67.42-1.38.9-2.14,1.4C195.51,124.36,188.68,128.9,182.65,128.9Z" fill="#231f20"></path><path d="M91.56,123.46c-15.21,11.06-17.19,34.1-17.6,51.41-.4,16.28,3.24,31.8,6.63,47.68,3.32,15.53,12.79,19.54,27.83,23,22.32,5.18,49.16,4,71.84,1.47s24.07-18.61,21.78-36.92c-.63-5-4.19-8.23-8-11a48,48,0,0,1-12.28-11.85c-10.75-15.65-11.39-34.15-18.57-51.12-5.68-13.43-18.35-22.79-33-22.31S101.65,116.12,91.56,123.46Z" fill="#fff"></path><path d="M144.75,249.71c-13.91,0-26-1.21-36.45-3.64-13.83-3.21-24.68-7-28.2-23.42l-.72-3.34c-3.23-15.05-6.29-29.26-5.92-44.45.84-35.05,10-46.1,17.8-51.8h0c10.69-7.77,25.67-9.25,38.91-9.68,14.32-.47,27.43,8.41,33.44,22.62A149.15,149.15,0,0,1,170,156.35c2.75,10.42,5.59,21.2,12.1,30.68,2.88,4.19,6.52,7.7,12.16,11.72,3.9,2.78,7.6,6.07,8.25,11.32,1.26,10.12,1.75,21.49-4.19,29-3.77,4.78-9.66,7.55-18,8.47A325.41,325.41,0,0,1,144.75,249.71ZM91.56,123.46l.29.41c-14.58,10.6-17,32.83-17.39,51-.37,15.08,2.68,29.23,5.9,44.22l.72,3.35c3.11,14.57,11.33,18.91,27.45,22.65,18.43,4.27,41.88,4.75,71.68,1.46,8.09-.9,13.76-3.54,17.36-8.09,5.71-7.24,5.22-18.36,4-28.28-.61-4.86-4.13-8-7.84-10.63-5.75-4.09-9.46-7.67-12.41-12-6.6-9.62-9.47-20.48-12.23-31a149.69,149.69,0,0,0-6.38-20.22c-5.85-13.82-18.57-22.48-32.48-22-13.1.42-27.89,1.88-38.36,9.49Z" fill="#231f20"></path><path d="M131.41,209.39a72.17,72.17,0,0,1-8.1-.47h0a77,77,0,0,1-15.2-3.3c-6.75-2.19-11.28-4.68-14.69-8.08-5.18-5.18-7.15-12.16-7.9-17.11-1.73-11.43,0-24.06,1.26-30.56A31,31,0,0,1,102,128.46c5.47-3.19,12-5.24,19.93-6.28,8.33-1.09,14.33-.2,18.88,2.81,7.42,4.9,9.53,14.32,11.06,23.55l2.59,15.67c.63,3.89,1.51,9.23,4.57,11.75a18.77,18.77,0,0,0,3.47,2.08c2.14,1.09,4.35,2.21,5.59,4.66,1.54,3,2.19,8.14.61,11.47-1.74,3.68-5.3,6.1-7.83,7.6A57.27,57.27,0,0,1,131.41,209.39Zm-3.2-86.65a48.1,48.1,0,0,0-6.18.43c-7.81,1-14.21,3-19.56,6.15a30.08,30.08,0,0,0-14.71,20.73c-1.2,6.45-3,18.94-1.25,30.23.72,4.8,2.63,11.56,7.62,16.55,3.29,3.28,7.69,5.7,14.29,7.84a75.74,75.74,0,0,0,15,3.26h0c13.79,1.56,26.55-.88,36.91-7,2.41-1.43,5.81-3.74,7.44-7.17,1.45-3.05.83-7.77-.6-10.58-1.1-2.16-3.07-3.16-5.15-4.23a19.57,19.57,0,0,1-3.65-2.2c-3.36-2.76-4.27-8.31-4.93-12.36l-2.59-15.66c-1.49-9-3.54-18.21-10.62-22.89C137.09,123.75,133.19,122.74,128.21,122.74Z" fill="#d1d3d4"></path><path d="M94,193.49a.5.5,0,0,1-.46-.31.49.49,0,0,1,.27-.65c6.53-2.7,10.88-2.07,11.06-2a.5.5,0,0,1-.15,1s-4.28-.61-10.53,2A.43.43,0,0,1,94,193.49Z" fill="#d1d3d4"></path><path d="M188.72,227.65s5,25.73,6.37,27.09,23,.37,22.7-2S206.16,247,206.16,247l-3.47-21.21" fill="#fff"></path><path d="M201,255.88c-3.2,0-5.74-.24-6.29-.79-1.4-1.39-5.66-23-6.5-27.34a.5.5,0,0,1,.4-.59.5.5,0,0,1,.58.39c1.91,9.81,5.28,25.77,6.23,26.84,1.06.82,14.07.62,19.91-.86,1.76-.45,1.94-.82,2-.82-.15-1.26-5.85-3.65-11.27-5.21a.51.51,0,0,1-.36-.4l-3.48-21.22a.5.5,0,0,1,1-.16l3.43,20.9c3,.89,11.4,3.56,11.68,6q.08.77-1,1.29C214.86,255.09,206.84,255.88,201,255.88Z" fill="#231f20"></path><path d="M142.79,239s-3.15,23.07-1.52,23.73,23.75,1.72,23.4-.22-11.27-5.65-11.27-5.65l3.95-22.5" fill="#fff"></path><path d="M155.92,264.09c-6.35,0-13.85-.54-14.84-.94-1.64-.67-.25-13.57,1.21-24.27a.5.5,0,0,1,1,.14c-1.43,10.5-2.47,22-1.76,23.22a86.28,86.28,0,0,0,11.4.79c7.72.18,10.61-.27,11.21-.61-.57-1.09-6-3.47-10.89-5.13a.49.49,0,0,1-.33-.57l4-22.49a.5.5,0,1,1,1,.17L154,256.48c3,1,10.85,3.91,11.2,5.89a.79.79,0,0,1-.32.77C164,263.84,160.21,264.09,155.92,264.09Zm-14.37-1.81h0Z" fill="#231f20"></path><path d="M168.94,187.84c7.51-1.12,20.69,46.47,20.69,46.47l15.08-1.75s-2.73-43.07-5.61-55.09c-2-8.28-11-12.33-20.11-9.64-13.62-.54-27.61-2.27-27.61-2.27Z" fill="#231f20"></path><path d="M189.63,234.81a.49.49,0,0,1-.48-.36c0-.12-3.34-12-7.52-23.63-7.24-20.12-11-22.72-12.61-22.48a.5.5,0,0,1-.47-.19L151,165.87a.5.5,0,0,1-.05-.56.49.49,0,0,1,.5-.25c.14,0,14.08,1.73,27.49,2.27a18.25,18.25,0,0,1,14.17,1.36,13.6,13.6,0,0,1,6.49,8.66c2.85,11.92,5.59,54.74,5.62,55.18a.49.49,0,0,1-.44.52l-15.08,1.76Zm-20.45-47.49c7.55,0,19,40,20.82,46.45l14.18-1.65c-.31-4.74-2.89-43.37-5.56-54.54a12.48,12.48,0,0,0-6-8,17.3,17.3,0,0,0-13.47-1.24l-.16,0c-11.19-.44-22.77-1.71-26.45-2.13l16.65,21.12Z" fill="#231f20"></path><path d="M133.78,105.21s-23.33-1.26-27.5,4.58c-4.5,6.3-4.17,8.75-10.26,23.29,2,20.1,13.93,48.16,13.93,48.16l50.27-10.38s-1.95-54.18-6.37-61.7S133.78,105.21,133.78,105.21Z" fill="#7cee32"></path><polygon points="125.55 109.31 139.64 183.11 154.07 182.83 143.49 110.13 125.55 109.31" fill="#231f20"></polygon><path d="M139.64,183.61a.5.5,0,0,1-.49-.41l-14.09-73.8a.49.49,0,0,1,.11-.42.47.47,0,0,1,.4-.17l18,.82a.5.5,0,0,1,.47.43l10.57,72.7a.5.5,0,0,1-.48.57l-14.43.28Zm-13.48-73.78,13.89,72.77,13.44-.26-10.43-71.73Z" fill="#231f20"></path><path d="M115.78,173s-13.35,14.11-4.1,25.31,35.62-.58,35.62-.58l-6.58,43.81,19.32-.2s20.14-59.64,17.82-65.81-18.82-9-18.82-9Z" fill="#231f20"></path><path d="M140.72,242.05a.52.52,0,0,1-.38-.17.54.54,0,0,1-.11-.41l6.45-42.92a78.22,78.22,0,0,1-13.62,4.17c-10.33,2.05-17.86.64-21.76-4.08-9.43-11.41,4-25.83,4.11-26a.54.54,0,0,1,.29-.15L159,166h.16c.68.12,16.8,3,19.2,9.33s-17,63.71-17.82,66.15a.49.49,0,0,1-.47.34l-19.31.2Zm6.58-44.81a.5.5,0,0,1,.31.1.52.52,0,0,1,.19.47L141.3,241l18.38-.19c7-20.67,19.49-60.41,17.71-65.14-2.11-5.62-17.13-8.46-18.35-8.68l-43,6.45c-1.27,1.41-12.37,14.34-4,24.52,8.9,10.77,34.77-.6,35-.72A.45.45,0,0,1,147.3,197.24Z" fill="#231f20"></path><path d="M120.81,59.05a17,17,0,0,0-19.94,3.11c-3.83,4-5.37,10.18-3.33,15.3a13.1,13.1,0,0,0,13.2,7.87c5.32-.44,10.29-5.71,12.55-10.23C126,69.64,127.38,62.39,120.81,59.05Z" fill="#fff"></path><path d="M109.64,85.87a13.48,13.48,0,0,1-12.57-8.22,15.37,15.37,0,0,1,3.44-15.84A17.42,17.42,0,0,1,121,58.61c2.65,1.34,8.22,5.67,2.7,16.71-2.37,4.74-7.43,10.05-13,10.5C110.4,85.85,110,85.87,109.64,85.87Zm3.2-28.25a16.09,16.09,0,0,0-11.61,4.89A14.33,14.33,0,0,0,98,77.28a12.56,12.56,0,0,0,12.7,7.55c4.91-.4,9.83-5.31,12.15-10,1.7-3.41,4.89-11.74-2.26-15.37h0A17.15,17.15,0,0,0,112.84,57.62Z" fill="#231f20"></path><path d="M111.34,69.23a15,15,0,0,0-3,14.31,6,6,0,0,0,2.3,3.39c2.26,1.38,5.21,0,7.21-1.74a28.11,28.11,0,0,0,7.25-10.66c1.18-2.87,2.69-9.2-1.65-10.13S114,66.21,111.34,69.23Z" fill="#231f20"></path><path d="M112.7,88a4.36,4.36,0,0,1-2.33-.64,6.3,6.3,0,0,1-2.52-3.66A15.49,15.49,0,0,1,111,68.9h0c2.79-3.13,8.15-5.94,12.57-5a3.81,3.81,0,0,1,2.68,2c1.62,3.08-.43,8.26-.67,8.84a28.52,28.52,0,0,1-7.38,10.85A9,9,0,0,1,112.7,88Zm9-23.26c-3.6,0-7.73,2.27-10,4.84h0a14.43,14.43,0,0,0-2.92,13.81,5.34,5.34,0,0,0,2.09,3.12c2,1.24,4.75-.06,6.63-1.69a27.3,27.3,0,0,0,7.1-10.47c.81-1.94,1.85-5.82.71-8a2.78,2.78,0,0,0-2-1.46A7.52,7.52,0,0,0,121.74,64.73Zm-10.4,4.51h0Z" fill="#231f20"></path><path d="M137,99.09a35.83,35.83,0,0,1-2.54,2.86A13.74,13.74,0,0,1,121.36,104c-10.4-3.71-11.68-15.13-10.91-24.65.32-3.87,2-12.09,7.64-8.85-1.64-1,4-5.58,4.82-6,6.13-3.5,13.51-.69,18,4.13a51.65,51.65,0,0,1,6.94,8.93c2,3.58,1.06,9-.64,12.48a16.74,16.74,0,0,1-5.94,6.66c-1.18.76-2.77,1.12-3.83,2A5.76,5.76,0,0,0,137,99.09Z" fill="#fff"></path><path d="M126.07,105.33a14.63,14.63,0,0,1-4.88-.83C112.62,101.44,108.84,93,110,79.34c.15-1.84.88-8,4.08-9.64a3.85,3.85,0,0,1,3.31-.08c.55-2,4.78-5.27,5.32-5.58,6.57-3.75,14.26-.44,18.61,4.23a51.07,51.07,0,0,1,7,9c2.08,3.73,1.13,9.32-.63,12.95a17.19,17.19,0,0,1-6.12,6.86,12.68,12.68,0,0,1-1.77.88,7.84,7.84,0,0,0-2,1.09,4.72,4.72,0,0,0-.41.37c-.33.35-.64.73-1,1.14a10.62,10.62,0,0,1-1.61,1.75A13.75,13.75,0,0,1,126.07,105.33Zm-10.36-35a2.54,2.54,0,0,0-1.21.29c-2.18,1.14-3.27,5.48-3.55,8.84-1.07,13.13,2.49,21.25,10.58,24.13a13.21,13.21,0,0,0,12.63-2,10.73,10.73,0,0,0,1.46-1.6,14.77,14.77,0,0,1,1-1.22h0c.15-.15.31-.3.48-.44a8.86,8.86,0,0,1,2.26-1.24,11.11,11.11,0,0,0,1.62-.8,16.13,16.13,0,0,0,5.76-6.46c1.65-3.4,2.56-8.6.65-12A49.59,49.59,0,0,0,140.55,69c-4.1-4.39-11.28-7.53-17.39-4-.84.48-4.87,3.94-4.87,5.1l0,0,.07,0a.5.5,0,1,1-.5.86h0A4.33,4.33,0,0,0,115.71,70.29Z" fill="#231f20"></path><path d="M141.34,76.3s4.93,7.8,4.89,14.56a9.69,9.69,0,0,1-5.62,9l2.54,11.4s1.35,5.82-6,6.51A12.58,12.58,0,0,1,126,112.82L120.5,92s7.06-6.47,4.68-13.84C125.18,78.2,135.84,80.72,141.34,76.3Z" fill="#fff"></path><path d="M135.9,118.31a13,13,0,0,1-10.33-5.21.41.41,0,0,1-.07-.15L120,92.16a.48.48,0,0,1,.15-.49c.06-.06,6.79-6.34,4.54-13.31a.5.5,0,0,1,.1-.5.5.5,0,0,1,.49-.14c.1,0,10.49,2.4,15.73-1.81a.5.5,0,0,1,.39-.11.51.51,0,0,1,.34.23c.21.32,5,8,5,14.84a10.27,10.27,0,0,1-5.55,9.25l2.46,11a6,6,0,0,1-.91,4.49c-1.08,1.5-2.94,2.38-5.53,2.63C136.75,118.29,136.32,118.31,135.9,118.31Zm-9.46-5.7a12.22,12.22,0,0,0,10.67,4.64c2.28-.21,3.9-1,4.8-2.21a5,5,0,0,0,.75-3.69L140.12,100a.52.52,0,0,1,.31-.58,9.1,9.1,0,0,0,5.3-8.51c0-5.62-3.5-12.06-4.53-13.83-4.84,3.43-12.75,2.31-15.32,1.83,1.58,6.58-3.64,12.17-4.82,13.33Z" fill="#231f20"></path><path d="M124.12,89.68s-5.29-7.13-8.14-1.25,4.15,10,7.56,8.8" fill="#fff"></path><path d="M122.17,98a8.08,8.08,0,0,1-5.68-2.66,6.07,6.07,0,0,1-1-7.08c.78-1.6,1.81-2.47,3.08-2.59,2.88-.27,5.79,3.6,5.91,3.76a.5.5,0,0,1-.1.7.51.51,0,0,1-.7-.1c-.74-1-3.09-3.55-5-3.36-.9.08-1.67.76-2.28,2a5.11,5.11,0,0,0,.8,6c1.65,1.82,4.4,2.78,6.14,2.14a.5.5,0,0,1,.34.94A4.52,4.52,0,0,1,122.17,98Z" fill="#231f20"></path><path d="M138.41,92.78h-.3a.5.5,0,0,1,0-1,6,6,0,0,0,3.29-.71c.06-.51-2.06-2.88-4.56-5a.5.5,0,0,1,.65-.77c1.15,1,4.88,4.28,4.88,5.81a.9.9,0,0,1-.32.72A6.35,6.35,0,0,1,138.41,92.78Z" fill="#231f20"></path><path d="M136.76,96.91h-.1A8.51,8.51,0,0,1,131,94.68a.5.5,0,0,1,.11-.7.48.48,0,0,1,.69.1,7.92,7.92,0,0,0,4.93,1.83h.07c2.34,0,4.47-1.24,6.34-3.62a.5.5,0,0,1,.79.62C141.86,95.56,139.44,96.91,136.76,96.91Z" fill="#231f20"></path><path d="M140.61,99.84s-5.92,2.12-9.62,2c0,0,5.83,8.13,11.6,6.79Z" fill="#231f20"></path><path d="M141.27,109.29c-5.49,0-10.46-6.83-10.68-7.15a.51.51,0,0,1,0-.53.55.55,0,0,1,.46-.26c3.55.1,9.37-2,9.43-2a.5.5,0,0,1,.66.36l2,8.8a.5.5,0,0,1-.37.6A6.42,6.42,0,0,1,141.27,109.29Zm-9.26-7c1.54,1.88,5.77,6.48,10,5.91l-1.74-7.75A36.12,36.12,0,0,1,132,102.33Z" fill="#231f20"></path><ellipse cx="132.97" cy="85.36" rx="0.92" ry="1.61" transform="translate(-18.13 39.13) rotate(-15.68)" fill="#231f20"></ellipse><ellipse cx="141.11" cy="83.07" rx="0.92" ry="1.61" transform="translate(-17.2 41.24) rotate(-15.68)" fill="#231f20"></ellipse><polygon points="144.87 168.65 154.85 136.36 201.36 136.36 190.24 168.65 144.87 168.65" fill="#fff"></polygon><path d="M190.24,169.15H144.87a.51.51,0,0,1-.4-.2.49.49,0,0,1-.08-.45l10-32.29a.5.5,0,0,1,.48-.35h46.51a.49.49,0,0,1,.4.21.5.5,0,0,1,.07.46l-11.12,32.28A.51.51,0,0,1,190.24,169.15Zm-44.69-1h44.33l10.78-31.29H155.22Z" fill="#231f20"></path><path d="M97.93,128.28s-17.05,38.4-9,47.17,51-8.38,51-8.38c7.36-1.47,15.29-4.06,17.36-12.35.26-1.06.28-2.41-.64-3a2.71,2.71,0,0,0-1.62-.28,18,18,0,0,0-5.42,1.13l.05-3.34c-4.08,3.44-8.89,7.24-14.22,8.15-3.51.59-7.21.65-10.76.93q-9.28.74-18.57,1.35s4.09-14.86,7.07-23.3" fill="#fff"></path><path d="M97.64,178.43c-4,0-7.3-.74-9-2.64-8.22-8.91,8.17-46.14,8.88-47.72a.5.5,0,0,1,.91.41c-.17.38-16.83,38.2-9.06,46.63,3.17,3.44,12.87,3.08,28-1a236.4,236.4,0,0,0,22.43-7.47c7.37-1.47,15.07-4,17.06-12,.11-.44.41-1.92-.42-2.45a2.2,2.2,0,0,0-1.32-.2,17.27,17.27,0,0,0-5.27,1.1.49.49,0,0,1-.47-.06.51.51,0,0,1-.21-.42l0-2.25c-4,3.31-8.56,6.7-13.62,7.56a70.32,70.32,0,0,1-7.67.73c-1.05.07-2.09.13-3.13.21-5.74.45-11.82.89-18.58,1.35a.49.49,0,0,1-.42-.18.53.53,0,0,1-.1-.45c0-.15,4.14-15,7.09-23.33a.5.5,0,0,1,.63-.31.51.51,0,0,1,.31.64c-2.58,7.3-6,19.58-6.87,22.58,6.47-.44,12.33-.86,17.86-1.3,1-.08,2.1-.14,3.15-.2a70.53,70.53,0,0,0,7.57-.73c5.17-.88,9.92-4.61,14-8a.53.53,0,0,1,.54-.07.52.52,0,0,1,.29.46l0,2.63a18.07,18.07,0,0,1,4.88-.92,3.19,3.19,0,0,1,1.92.36c.95.6,1.26,1.89.85,3.54-2.12,8.52-10.16,11.21-17.74,12.72C138.75,168.09,112.67,178.43,97.64,178.43Z" fill="#231f20"></path><path d="M140,258.34s11.5,1.63,12.7,1.63l5.94-3.1s12.15,5.07,10.41,6.7-26.92,2-29.05.82S140,258.34,140,258.34Z" fill="#231f20"></path><path d="M151.3,265.56c-5.64,0-10.62-.26-11.5-.73-2.45-1.33-.45-6.15-.22-6.69a.5.5,0,0,1,.53-.3c3.09.44,11.13,1.56,12.51,1.63l5.83-3.05a.51.51,0,0,1,.42,0c2.46,1,10.5,4.53,10.87,6.61a1,1,0,0,1-.31.92C168.23,265.06,159.13,265.56,151.3,265.56Zm-10.94-6.67c-.54,1.39-1.36,4.37-.08,5.06,2.3,1.23,27,.59,28.47-.74.05-.83-4.62-3.51-10-5.79l-5.74,3a.59.59,0,0,1-.23.05C151.63,260.47,142.41,259.18,140.36,258.89Z" fill="#231f20"></path><path d="M193.13,249.23s11.49,1.64,12.69,1.64l6-3.11s12.15,5.07,10.41,6.71-26.93,2-29.05.81S193.13,249.23,193.13,249.23Z" fill="#231f20"></path><path d="M204.39,256.45c-5.64,0-10.62-.26-11.5-.73-2.46-1.32-.46-6.14-.22-6.69a.5.5,0,0,1,.53-.29c3.08.44,11.12,1.55,12.51,1.62l5.83-3a.48.48,0,0,1,.42,0c2.46,1,10.49,4.53,10.87,6.6a1,1,0,0,1-.31.93C221.32,256,212.21,256.45,204.39,256.45Zm-10.95-6.67c-.53,1.4-1.36,4.37-.07,5.06,2.29,1.24,27,.6,28.46-.74.06-.82-4.61-3.5-10-5.79l-5.74,3a.46.46,0,0,1-.23.06C204.71,251.37,195.49,250.07,193.44,249.78Z" fill="#231f20"></path><polygon points="147.43 104.96 169.96 110.2 169.09 129.33 149.73 129.33 147.43 104.96" fill="#7cee32"></polygon><path d="M158,134.74a.5.5,0,0,1-.49-.43l-3.17-22.58a.5.5,0,1,1,1-.13l3.17,22.57a.49.49,0,0,1-.43.56Z" fill="#231f20"></path><path d="M113.23,136.86a.47.47,0,0,1-.17,0,.49.49,0,0,1-.3-.64l4.66-13a.5.5,0,1,1,.94.34l-4.66,13A.5.5,0,0,1,113.23,136.86Z" fill="#231f20"></path><path d="M174.75,194.05l-.16,0a.51.51,0,0,1-.31-.64c.05-.15,5.26-15.6,2.08-19.78-2.11-2.76-9.58-4.46-9.66-4.47a.5.5,0,0,1,.22-1c.32.07,7.91,1.79,10.23,4.84,3.51,4.61-1.7,20.06-1.93,20.71A.49.49,0,0,1,174.75,194.05Z" fill="#fff"></path></g></svg>