<svg width="16" height="16" viewBox="0 0 16 16" fill="none" xmlns="http://www.w3.org/2000/svg"><g id="lock"><path id="Glyph" fill-rule="evenodd" clip-rule="evenodd" d="M3 7V5C3 2.23858 5.23858 0 8 0C10.7614 0 13 2.23858 13 5V7H13.5C14.0523 7 14.5 7.44772 14.5 8V14C14.5 15.1046 13.6046 16 12.5 16H3.5C2.39543 16 1.5 15.1046 1.5 14V8C1.5 7.44772 1.94772 7 2.5 7H3ZM8 9.5C7.44772 9.5 7 9.94771 7 10.5V12.5C7 13.0523 7.44772 13.5 8 13.5C8.55228 13.5 9 13.0523 9 12.5V10.5C9 9.94771 8.55228 9.5 8 9.5ZM11 7V5C11 3.34315 9.65685 2 8 2C6.34315 2 5 3.34315 5 5V7H11Z" fill="#bcc4cd"/></g></svg>