<svg width="3604" height="700" viewBox="0 0 3604 700" fill="none" xmlns="http://www.w3.org/2000/svg">
<path d="M350 700C543.3 700 700 543.3 700 350C700 156.7 543.3 0 350 0C156.7 0 0 156.7 0 350C0 543.3 156.7 700 350 700Z" fill="#7AF546"/>
<path d="M771.285 60.6396H827.993L882.612 163.773H884.861L939.48 60.6396H996.188L908.958 215.501V300H858.676V215.501L771.285 60.6396ZM1055.27 303.534C1037.17 303.534 1021.48 299.679 1008.2 291.968C995.026 284.15 984.851 273.333 977.676 259.518C970.608 245.595 967.073 229.424 967.073 211.003C967.073 192.368 970.608 176.143 977.676 162.328C984.851 148.405 995.026 137.588 1008.2 129.877C1021.48 122.059 1037.17 118.15 1055.27 118.15C1073.47 118.15 1089.16 122.059 1102.34 129.877C1115.62 137.588 1125.79 148.405 1132.86 162.328C1140.03 176.143 1143.62 192.368 1143.62 211.003C1143.62 229.424 1140.03 245.595 1132.86 259.518C1125.79 273.333 1115.62 284.15 1102.34 291.968C1089.16 299.679 1073.47 303.534 1055.27 303.534ZM1055.59 264.658C1063.83 264.658 1070.74 262.356 1076.31 257.75C1081.88 253.038 1086.06 246.612 1088.84 238.473C1091.73 230.334 1093.18 221.07 1093.18 210.682C1093.18 200.186 1091.73 190.922 1088.84 182.89C1086.06 174.858 1081.88 168.539 1076.31 163.934C1070.74 159.329 1063.83 157.026 1055.59 157.026C1047.24 157.026 1040.22 159.329 1034.54 163.934C1028.98 168.539 1024.74 174.858 1021.85 182.89C1019.07 190.922 1017.68 200.186 1017.68 210.682C1017.68 221.07 1019.07 230.334 1021.85 238.473C1024.74 246.612 1028.98 253.038 1034.54 257.75C1040.22 262.356 1047.24 264.658 1055.59 264.658ZM1279.97 223.694V120.399H1329.61V300H1281.9V267.389H1279.97C1275.9 277.778 1269.21 286.238 1259.89 292.771C1250.57 299.197 1239.17 302.356 1225.67 302.249C1213.68 302.249 1203.08 299.572 1193.87 294.217C1184.76 288.755 1177.64 280.99 1172.5 270.923C1167.47 260.856 1164.95 248.808 1164.95 234.778V120.399H1214.59V226.104C1214.59 236.599 1217.43 244.952 1223.1 251.164C1228.78 257.269 1236.33 260.267 1245.75 260.16C1251.75 260.16 1257.32 258.821 1262.46 256.144C1267.6 253.36 1271.78 249.236 1274.99 243.774C1278.31 238.312 1279.97 231.619 1279.97 223.694ZM1333.27 102.407V60.6396H1529.9V102.407H1456.64V300H1406.68V102.407H1333.27ZM1640.7 223.694V120.399H1690.34V300H1642.63V267.389H1640.7C1636.63 277.778 1629.94 286.238 1620.62 292.771C1611.31 299.197 1599.9 302.356 1586.41 302.249C1574.41 302.249 1563.81 299.572 1554.6 294.217C1545.5 288.755 1538.37 280.99 1533.23 270.923C1528.2 260.856 1525.68 248.808 1525.68 234.778V120.399H1575.32V226.104C1575.32 236.599 1578.16 244.952 1583.84 251.164C1589.51 257.269 1597.06 260.267 1606.49 260.16C1612.48 260.16 1618.05 258.821 1623.19 256.144C1628.33 253.36 1632.51 249.236 1635.72 243.774C1639.04 238.312 1640.7 231.619 1640.7 223.694ZM1821.07 302.892C1811.43 302.892 1803.24 301.285 1796.49 298.072C1789.74 294.859 1784.23 290.843 1779.95 286.024C1775.77 281.097 1772.5 276.171 1770.15 271.245H1767.9V300H1719.06V60.6396H1768.7V150.761H1770.15C1772.4 145.835 1775.61 140.855 1779.79 135.821C1783.96 130.788 1789.42 126.611 1796.17 123.291C1802.92 119.864 1811.27 118.15 1821.23 118.15C1834.4 118.15 1846.45 121.577 1857.38 128.432C1868.41 135.179 1877.24 145.406 1883.88 159.115C1890.52 172.823 1893.84 189.958 1893.84 210.521C1893.84 230.441 1890.63 247.309 1884.2 261.124C1877.78 274.832 1869.05 285.221 1858.02 292.289C1847.1 299.357 1834.78 302.892 1821.07 302.892ZM1805.33 263.373C1813.47 263.373 1820.32 261.124 1825.89 256.626C1831.46 252.128 1835.69 245.916 1838.58 237.991C1841.47 229.959 1842.92 220.749 1842.92 210.36C1842.92 199.972 1841.47 190.869 1838.58 183.051C1835.8 175.126 1831.62 168.914 1826.05 164.416C1820.48 159.918 1813.57 157.669 1805.33 157.669C1797.3 157.669 1790.44 159.864 1784.77 164.255C1779.2 168.539 1774.91 174.644 1771.91 182.569C1769.02 190.387 1767.58 199.651 1767.58 210.36C1767.58 220.963 1769.08 230.227 1772.07 238.152C1775.07 246.077 1779.36 252.289 1784.93 256.787C1790.6 261.178 1797.4 263.373 1805.33 263.373ZM1996.78 303.534C1978.36 303.534 1962.45 299.786 1949.07 292.289C1935.68 284.792 1925.4 274.136 1918.22 260.321C1911.15 246.398 1907.62 229.959 1907.62 211.003C1907.62 192.582 1911.15 176.411 1918.22 162.488C1925.4 148.566 1935.47 137.695 1948.42 129.877C1961.49 122.059 1976.8 118.15 1994.37 118.15C2006.26 118.15 2017.34 120.078 2027.62 123.934C2037.9 127.682 2046.9 133.358 2054.61 140.962C2062.32 148.459 2068.32 157.937 2072.6 169.396C2076.89 180.748 2079.03 194.082 2079.03 209.396V222.891H1927.38V192.208H2054.93L2031.8 200.24C2031.8 191.137 2030.41 183.211 2027.62 176.464C2024.84 169.717 2020.66 164.523 2015.09 160.882C2009.63 157.133 2002.83 155.259 1994.69 155.259C1986.55 155.259 1979.64 157.133 1973.97 160.882C1968.4 164.63 1964.11 169.717 1961.12 176.143C1958.12 182.569 1956.62 189.958 1956.62 198.312V219.999C1956.62 229.745 1958.33 238.098 1961.76 245.06C1965.19 251.914 1969.95 257.215 1976.06 260.963C1982.27 264.605 1989.39 266.425 1997.42 266.425C2002.99 266.425 2008.02 265.622 2012.52 264.016C2017.02 262.409 2020.88 260.053 2024.09 256.947C2027.41 253.841 2029.87 250.093 2031.48 245.702L2077.42 248.754C2075.17 259.785 2070.46 269.424 2063.29 277.67C2056.22 285.81 2047.06 292.182 2035.82 296.787C2024.57 301.285 2011.56 303.534 1996.78 303.534ZM2272.53 303.213C2251.33 303.213 2232.32 298.394 2215.5 288.755C2198.69 279.116 2185.41 265.14 2175.66 246.827C2165.92 228.513 2161.04 206.398 2161.04 180.48C2161.04 154.349 2165.92 132.126 2175.66 113.813C2185.51 95.3924 2198.85 81.4163 2215.66 71.8848C2232.58 62.2461 2251.54 57.4268 2272.53 57.4268C2286.45 57.4268 2299.36 59.408 2311.25 63.3706C2323.13 67.2261 2333.63 72.9022 2342.73 80.3989C2351.94 87.7886 2359.44 96.8918 2365.22 107.708C2371.01 118.418 2374.7 130.681 2376.31 144.496H2325.22C2324.26 137.963 2322.33 132.073 2319.44 126.825C2316.65 121.577 2312.96 117.133 2308.35 113.492C2303.86 109.85 2298.66 107.066 2292.77 105.138C2286.99 103.103 2280.62 102.086 2273.65 102.086C2261.45 102.086 2250.68 105.192 2241.37 111.403C2232.15 117.508 2224.98 126.397 2219.84 138.07C2214.81 149.637 2212.29 163.773 2212.29 180.48C2212.29 197.509 2214.86 211.86 2220 223.533C2225.14 235.1 2232.32 243.828 2241.53 249.718C2250.74 255.609 2261.39 258.554 2273.49 258.554C2280.24 258.554 2286.51 257.643 2292.29 255.823C2298.07 254.002 2303.21 251.378 2307.71 247.951C2312.21 244.524 2315.96 240.347 2318.96 235.421C2322.06 230.387 2324.15 224.658 2325.22 218.232H2376.31C2375.02 229.263 2371.76 239.865 2366.51 250.04C2361.37 260.214 2354.35 269.317 2345.46 277.349C2336.57 285.274 2326.02 291.593 2313.82 296.305C2301.61 300.91 2287.85 303.213 2272.53 303.213ZM2481.49 303.534C2463.39 303.534 2447.7 299.679 2434.42 291.968C2421.25 284.15 2411.08 273.333 2403.9 259.518C2396.83 245.595 2393.3 229.424 2393.3 211.003C2393.3 192.368 2396.83 176.143 2403.9 162.328C2411.08 148.405 2421.25 137.588 2434.42 129.877C2447.7 122.059 2463.39 118.15 2481.49 118.15C2499.7 118.15 2515.39 122.059 2528.56 129.877C2541.84 137.588 2552.01 148.405 2559.08 162.328C2566.26 176.143 2569.85 192.368 2569.85 211.003C2569.85 229.424 2566.26 245.595 2559.08 259.518C2552.01 273.333 2541.84 284.15 2528.56 291.968C2515.39 299.679 2499.7 303.534 2481.49 303.534ZM2481.81 264.658C2490.06 264.658 2496.97 262.356 2502.54 257.75C2508.1 253.038 2512.28 246.612 2515.07 238.473C2517.96 230.334 2519.4 221.07 2519.4 210.682C2519.4 200.186 2517.96 190.922 2515.07 182.89C2512.28 174.858 2508.1 168.539 2502.54 163.934C2496.97 159.329 2490.06 157.026 2481.81 157.026C2473.46 157.026 2466.44 159.329 2460.77 163.934C2455.2 168.539 2450.97 174.858 2448.08 182.89C2445.29 190.922 2443.9 200.186 2443.9 210.682C2443.9 221.07 2445.29 230.334 2448.08 238.473C2450.97 246.612 2455.2 253.038 2460.77 257.75C2466.44 262.356 2473.46 264.658 2481.81 264.658ZM2642.26 303.374C2630.91 303.374 2620.68 301.392 2611.58 297.43C2602.58 293.36 2595.51 287.363 2590.37 279.438C2585.23 271.512 2582.66 261.66 2582.66 249.879C2582.66 239.812 2584.48 231.458 2588.12 224.818C2591.76 218.071 2596.74 212.609 2603.06 208.433C2609.38 204.256 2616.56 201.097 2624.59 198.955C2632.62 196.813 2641.13 195.313 2650.13 194.457C2660.52 193.493 2668.87 192.529 2675.19 191.565C2681.51 190.601 2686.11 189.155 2689.01 187.228C2692.01 185.193 2693.5 182.301 2693.5 178.553V177.75C2693.5 170.36 2691.15 164.63 2686.44 160.561C2681.83 156.491 2675.3 154.456 2666.84 154.456C2657.95 154.456 2650.83 156.437 2645.47 160.4C2640.22 164.255 2636.74 169.182 2635.03 175.179L2588.93 171.484C2591.28 160.561 2595.89 151.136 2602.74 143.211C2609.59 135.179 2618.43 129.021 2629.25 124.737C2640.17 120.346 2652.81 118.15 2667.16 118.15C2677.12 118.15 2686.65 119.328 2695.75 121.685C2704.86 124.041 2712.94 127.682 2720.01 132.608C2727.19 137.428 2732.86 143.693 2737.04 151.404C2741.22 159.115 2743.3 168.271 2743.3 178.874V300H2695.91V274.939H2694.63C2691.74 280.616 2687.88 285.596 2683.06 289.879C2678.24 294.056 2672.46 297.376 2665.71 299.839C2658.97 302.195 2651.15 303.374 2642.26 303.374ZM2656.56 268.996C2663.84 268.996 2670.26 267.55 2675.83 264.658C2681.51 261.66 2685.9 257.697 2689.01 252.771C2692.22 247.737 2693.83 242.114 2693.83 235.903V216.786C2692.33 217.75 2690.18 218.66 2687.4 219.517C2684.72 220.374 2681.72 221.124 2678.4 221.766C2675.08 222.409 2671.76 222.998 2668.44 223.533C2665.12 223.962 2662.13 224.39 2659.45 224.818C2653.56 225.675 2648.42 227.067 2644.03 228.995C2639.64 230.816 2636.21 233.333 2633.74 236.545C2631.39 239.651 2630.21 243.56 2630.21 248.272C2630.21 255.02 2632.67 260.16 2637.6 263.694C2642.53 267.229 2648.85 268.996 2656.56 268.996ZM2852.51 303.534C2834.19 303.534 2818.45 299.625 2805.28 291.807C2792.1 283.882 2781.98 273.012 2774.91 259.196C2767.85 245.274 2764.31 229.209 2764.31 211.003C2764.31 192.582 2767.85 176.411 2774.91 162.488C2782.09 148.566 2792.26 137.695 2805.44 129.877C2818.61 122.059 2834.3 118.15 2852.51 118.15C2868.14 118.15 2881.8 120.988 2893.47 126.665C2905.25 132.341 2914.57 140.319 2921.42 150.601C2928.28 160.882 2932.02 172.984 2932.67 186.906H2885.76C2884.9 180.909 2883.08 175.661 2880.3 171.163C2877.51 166.665 2873.82 163.184 2869.21 160.721C2864.61 158.258 2859.25 157.026 2853.15 157.026C2845.44 157.026 2838.69 159.115 2832.91 163.292C2827.23 167.361 2822.79 173.412 2819.57 181.444C2816.47 189.369 2814.91 199.008 2814.91 210.36C2814.91 221.713 2816.47 231.458 2819.57 239.598C2822.79 247.737 2827.23 253.949 2832.91 258.232C2838.69 262.516 2845.44 264.658 2853.15 264.658C2861.72 264.658 2868.94 261.981 2874.83 256.626C2880.73 251.164 2884.37 243.667 2885.76 234.136H2932.67C2931.92 247.844 2928.22 259.946 2921.58 270.441C2914.94 280.83 2905.79 288.969 2894.11 294.859C2882.44 300.643 2868.57 303.534 2852.51 303.534ZM3003.15 196.224V300H2953.51V60.6396H3001.55V152.368H3003.8C3007.86 141.765 3014.4 133.412 3023.39 127.307C3032.5 121.203 3043.85 118.15 3057.45 118.15C3069.87 118.15 3080.74 120.881 3090.06 126.343C3099.38 131.698 3106.61 139.409 3111.75 149.476C3117 159.543 3119.62 171.645 3119.62 185.782V300H3069.82V194.617C3069.82 183.586 3066.98 174.965 3061.31 168.753C3055.74 162.542 3047.87 159.436 3037.69 159.436C3030.84 159.436 3024.84 160.935 3019.7 163.934C3014.56 166.826 3010.49 171.002 3007.49 176.464C3004.6 181.926 3003.15 188.513 3003.15 196.224ZM3148.18 300V120.399H3197.82V300H3148.18ZM3172.92 97.4272C3165.53 97.4272 3159.21 94.964 3153.96 90.0376C3148.71 85.1112 3146.09 79.1673 3146.09 72.2061C3146.09 65.2448 3148.71 59.3545 3153.96 54.5352C3159.21 49.6087 3165.53 47.1455 3172.92 47.1455C3180.41 47.1455 3186.79 49.6087 3192.03 54.5352C3197.28 59.3545 3199.9 65.2448 3199.9 72.2061C3199.9 79.1673 3197.28 85.1112 3192.03 90.0376C3186.79 94.964 3180.41 97.4272 3172.92 97.4272ZM3276.17 196.224V300H3226.53V120.399H3275.37V152.368H3277.14C3281.21 141.765 3287.69 133.412 3296.58 127.307C3305.46 121.203 3316.6 118.15 3329.99 118.15C3342.41 118.15 3353.23 120.881 3362.44 126.343C3371.76 131.805 3378.99 139.57 3384.13 149.637C3389.27 159.704 3391.84 171.752 3391.84 185.782V300H3342.2V194.617C3342.2 183.693 3339.36 175.126 3333.68 168.914C3328.01 162.595 3320.19 159.436 3310.23 159.436C3303.59 159.436 3297.7 160.935 3292.56 163.934C3287.42 166.826 3283.4 171.002 3280.51 176.464C3277.62 181.926 3276.17 188.513 3276.17 196.224ZM3500.88 371.005C3476.67 371.005 3457.72 366.186 3444.01 356.547C3430.3 347.015 3421.95 335.128 3418.95 320.884L3464.89 314.779C3466.29 318.421 3468.48 321.794 3471.48 324.9C3474.48 328.006 3478.49 330.469 3483.53 332.29C3488.56 334.217 3494.72 335.181 3502 335.181C3512.82 335.181 3521.76 332.557 3528.83 327.31C3535.9 322.169 3539.43 313.441 3539.43 301.125V268.192H3537.34C3535.2 273.119 3531.94 277.831 3527.54 282.329C3523.15 286.827 3517.53 290.468 3510.68 293.253C3503.82 296.037 3495.63 297.43 3486.1 297.43C3472.6 297.43 3460.34 294.324 3449.31 288.112C3438.39 281.794 3429.61 272.155 3422.97 259.196C3416.43 246.238 3413.17 229.852 3413.17 210.039C3413.17 189.584 3416.49 172.555 3423.13 158.954C3429.87 145.353 3438.76 135.179 3449.79 128.432C3460.82 121.577 3472.93 118.15 3486.1 118.15C3496.17 118.15 3504.57 119.864 3511.32 123.291C3518.17 126.611 3523.74 130.788 3528.03 135.821C3532.31 140.855 3535.52 145.835 3537.67 150.761H3539.59V120.399H3588.59V301.928C3588.59 317.135 3584.84 329.88 3577.34 340.161C3569.85 350.442 3559.51 358.153 3546.34 363.294C3533.17 368.435 3518.01 371.005 3500.88 371.005ZM3501.84 260C3513.84 260 3523.1 255.555 3529.63 246.666C3536.27 237.777 3539.59 225.461 3539.59 209.718C3539.59 199.222 3538.09 190.119 3535.09 182.408C3532.2 174.59 3527.97 168.539 3522.4 164.255C3516.84 159.864 3509.98 157.669 3501.84 157.669C3493.7 157.669 3486.79 159.918 3481.12 164.416C3475.55 168.807 3471.32 174.911 3468.43 182.729C3465.54 190.548 3464.09 199.544 3464.09 209.718C3464.09 219.999 3465.54 228.942 3468.43 236.545C3471.32 244.042 3475.55 249.825 3481.12 253.895C3486.79 257.965 3493.7 260 3501.84 260ZM832.169 640L777.872 460.399H799.88L842.451 608.514H844.057L886.467 460.399H908.636L950.404 608.353H952.01L994.742 460.399H1016.59L962.452 640H941.086L898.355 493.01H896.267L853.535 640H832.169ZM1046.43 640V460.399H1067.15V640H1046.43ZM1056.87 429.716C1052.59 429.716 1048.9 428.271 1045.79 425.379C1042.79 422.38 1041.29 418.792 1041.29 414.616C1041.29 410.546 1042.79 407.065 1045.79 404.174C1048.9 401.282 1052.59 399.836 1056.87 399.836C1061.16 399.836 1064.8 401.282 1067.8 404.174C1070.8 407.065 1072.3 410.546 1072.3 414.616C1072.3 418.792 1070.8 422.38 1067.8 425.379C1064.8 428.271 1061.16 429.716 1056.87 429.716ZM1181.82 460.399V478.552H1096.19V460.399H1181.82ZM1123.02 417.668H1143.74V593.092C1143.74 602.838 1146.15 610.174 1150.97 615.1C1155.79 619.919 1162.49 622.329 1171.05 622.329C1172.98 622.329 1174.91 622.222 1176.84 622.008C1178.87 621.687 1181.01 621.258 1183.26 620.723L1187.76 639.518C1185.3 640.482 1182.46 641.232 1179.25 641.767C1176.03 642.303 1172.71 642.57 1169.29 642.57C1156.01 642.57 1144.98 638.501 1136.19 630.361C1127.41 622.115 1123.02 611.352 1123.02 598.072V417.668ZM1242.83 527.87V640H1222.1V400.64H1242.83V488.833H1244.91C1249.09 479.516 1255.57 472.073 1264.35 466.504C1273.13 460.935 1284.33 458.15 1297.93 458.15C1310.03 458.15 1320.68 460.667 1329.89 465.701C1339.1 470.627 1346.28 477.963 1351.42 487.709C1356.67 497.455 1359.29 509.503 1359.29 523.854V640H1338.41V525.139C1338.41 510.253 1334.23 498.526 1325.88 489.958C1317.63 481.39 1306.49 477.106 1292.46 477.106C1282.93 477.106 1274.42 479.195 1266.92 483.372C1259.53 487.441 1253.64 493.278 1249.25 500.882C1244.97 508.379 1242.83 517.375 1242.83 527.87ZM1559.22 640H1501.23V620.401H1557.93C1578.5 620.401 1595.69 616.385 1609.5 608.353C1623.42 600.214 1633.87 588.647 1640.83 573.654C1647.79 558.553 1651.27 540.561 1651.27 519.677C1651.27 499.115 1647.84 481.444 1640.99 466.665C1634.24 451.778 1624.23 440.372 1610.95 432.447C1597.77 424.415 1581.5 420.399 1562.11 420.399H1500.42V400.64H1563.4C1586.21 400.64 1605.75 405.405 1622.03 414.937C1638.31 424.469 1650.73 438.123 1659.3 455.901C1667.98 473.679 1672.31 494.938 1672.31 519.677C1672.31 544.845 1667.87 566.425 1658.98 584.417C1650.2 602.302 1637.35 616.064 1620.43 625.703C1603.61 635.234 1583.21 640 1559.22 640ZM1510.87 400.64V640H1489.02V400.64H1510.87ZM1760.15 644.016C1749.33 644.016 1739.43 641.928 1730.43 637.751C1721.43 633.467 1714.26 627.309 1708.9 619.277C1703.66 611.138 1701.03 601.285 1701.03 589.718C1701.03 580.829 1702.69 573.386 1706.01 567.389C1709.33 561.391 1714.1 556.465 1720.31 552.609C1726.52 548.647 1733.8 545.541 1742.16 543.292C1750.62 540.936 1759.93 539.169 1770.11 537.991C1780.18 536.706 1788.69 535.635 1795.65 534.778C1802.61 533.814 1807.91 532.315 1811.56 530.28C1815.2 528.245 1817.02 524.979 1817.02 520.48V516.304C1817.02 503.988 1813.38 494.349 1806.09 487.388C1798.81 480.319 1788.37 476.785 1774.77 476.785C1761.81 476.785 1751.26 479.623 1743.12 485.299C1734.98 490.975 1729.31 497.669 1726.09 505.38L1706.17 498.151C1710.24 488.405 1715.86 480.587 1723.04 474.697C1730.22 468.806 1738.25 464.576 1747.14 462.006C1756.03 459.328 1765.02 457.99 1774.13 457.99C1780.98 457.99 1788.1 458.9 1795.49 460.721C1802.88 462.541 1809.79 465.647 1816.21 470.038C1822.64 474.429 1827.83 480.587 1831.8 488.512C1835.87 496.33 1837.9 506.237 1837.9 518.231V640H1817.02V611.566H1815.73C1813.38 616.814 1809.73 621.954 1804.81 626.988C1799.88 631.914 1793.72 635.984 1786.33 639.197C1778.94 642.41 1770.22 644.016 1760.15 644.016ZM1763.04 625.06C1774.07 625.06 1783.6 622.65 1791.64 617.831C1799.77 612.905 1806.04 606.318 1810.43 598.072C1814.82 589.825 1817.02 580.829 1817.02 571.083V545.22C1815.41 546.719 1812.79 548.058 1809.15 549.236C1805.61 550.414 1801.49 551.431 1796.78 552.288C1792.17 553.145 1787.46 553.895 1782.64 554.537C1777.93 555.18 1773.75 555.715 1770.11 556.144C1760.04 557.429 1751.37 559.41 1744.08 562.087C1736.91 564.765 1731.39 568.406 1727.54 573.011C1723.79 577.616 1721.92 583.56 1721.92 590.843C1721.92 601.66 1725.77 610.067 1733.48 616.064C1741.3 622.061 1751.15 625.06 1763.04 625.06ZM2014.25 460.399L1948.87 640H1926.54L1861 460.399H1883.65L1936.82 612.69H1938.43L1991.76 460.399H2014.25ZM2110.28 643.855C2093.57 643.855 2079.06 639.946 2066.74 632.128C2054.43 624.203 2044.95 613.279 2038.31 599.357C2031.67 585.434 2028.35 569.424 2028.35 551.324C2028.35 533.225 2031.62 517.16 2038.15 503.131C2044.79 489.101 2054 478.07 2065.78 470.038C2077.56 462.006 2091.22 457.99 2106.75 457.99C2116.38 457.99 2125.75 459.81 2134.86 463.452C2143.96 466.986 2152.15 472.394 2159.44 479.677C2166.72 486.959 2172.45 496.223 2176.63 507.468C2180.8 518.606 2182.89 531.886 2182.89 547.308V556.625H2042.65V538.312H2171.65L2162.17 545.38C2162.17 532.315 2159.92 520.641 2155.42 510.36C2151.03 500.079 2144.71 491.939 2136.46 485.942C2128.22 479.944 2118.31 476.946 2106.75 476.946C2095.29 476.946 2085.22 479.998 2076.54 486.103C2067.87 492.1 2061.12 500.132 2056.3 510.199C2051.59 520.159 2049.23 531.083 2049.23 542.971V553.734C2049.23 568.085 2051.7 580.615 2056.62 591.325C2061.66 601.927 2068.73 610.174 2077.83 616.064C2087.04 621.954 2097.86 624.899 2110.28 624.899C2118.74 624.899 2126.18 623.561 2132.61 620.883C2139.03 618.206 2144.44 614.618 2148.83 610.12C2153.22 605.515 2156.54 600.535 2158.79 595.18L2178.55 601.767C2175.77 609.263 2171.27 616.225 2165.06 622.65C2158.95 628.969 2151.24 634.11 2141.93 638.072C2132.72 641.928 2122.17 643.855 2110.28 643.855ZM2489.33 400.64V640H2467.8L2326.59 439.676H2324.5V640H2302.66V400.64H2323.86L2465.87 601.285H2467.64V400.64H2489.33ZM2537.8 640V460.399H2558.53V640H2537.8ZM2548.24 429.716C2543.96 429.716 2540.27 428.271 2537.16 425.379C2534.16 422.38 2532.66 418.792 2532.66 414.616C2532.66 410.546 2534.16 407.065 2537.16 404.174C2540.27 401.282 2543.96 399.836 2548.24 399.836C2552.53 399.836 2556.17 401.282 2559.17 404.174C2562.17 407.065 2563.67 410.546 2563.67 414.616C2563.67 418.792 2562.17 422.38 2559.17 425.379C2556.17 428.271 2552.53 429.716 2548.24 429.716ZM2672.71 643.855C2656.64 643.855 2642.67 639.839 2630.78 631.807C2618.89 623.775 2609.68 612.798 2603.15 598.875C2596.61 584.845 2593.35 568.942 2593.35 551.164C2593.35 533.064 2596.67 517.053 2603.31 503.131C2609.95 489.101 2619.21 478.07 2631.1 470.038C2642.99 462.006 2656.75 457.99 2672.39 457.99C2684.38 457.99 2695.25 460.346 2705 465.058C2714.74 469.663 2722.77 476.196 2729.09 484.657C2735.52 493.01 2739.53 502.756 2741.14 513.894H2720.26C2718.76 507.147 2715.87 500.989 2711.58 495.42C2707.41 489.851 2702 485.406 2695.36 482.086C2688.82 478.659 2681.27 476.946 2672.71 476.946C2661.25 476.946 2651.13 480.052 2642.34 486.263C2633.56 492.475 2626.66 501.096 2621.62 512.127C2616.7 523.158 2614.23 535.956 2614.23 550.521C2614.23 564.979 2616.64 577.831 2621.46 589.076C2626.28 600.321 2633.08 609.103 2641.86 615.421C2650.75 621.74 2661.03 624.899 2672.71 624.899C2684.59 624.899 2694.88 621.526 2703.55 614.779C2712.23 608.032 2717.79 598.982 2720.26 587.63H2741.14C2739.64 598.447 2735.79 608.085 2729.57 616.546C2723.47 625.007 2715.55 631.7 2705.8 636.626C2696.16 641.446 2685.13 643.855 2672.71 643.855ZM2794.12 572.208L2793.8 544.898H2798.61L2882.63 460.399H2908.82L2825.92 543.774L2824 544.095L2794.12 572.208ZM2775.16 640V400.64H2795.88V640H2775.16ZM2886.81 640L2814.04 547.951L2828.98 533.493L2913.64 640H2886.81Z" fill="white"/>
</svg>
