<svg width="3159" height="711" viewBox="0 0 3159 711" fill="none" xmlns="http://www.w3.org/2000/svg">
<path d="M350 700C543.3 700 700 543.3 700 350C700 156.7 543.3 0 350 0C156.7 0 0 156.7 0 350C0 543.3 156.7 700 350 700Z" fill="#7AF546"/>
<path d="M617.773 351.579L203.449 111.875V591.283L617.773 351.579Z" fill="black"/>
<path d="M771.285 60.6396H827.993L882.612 163.773H884.861L939.48 60.6396H996.188L908.958 215.501V300H858.676V215.501L771.285 60.6396ZM1055.27 303.534C1037.17 303.534 1021.48 299.679 1008.2 291.968C995.026 284.15 984.851 273.333 977.676 259.518C970.608 245.595 967.073 229.424 967.073 211.003C967.073 192.368 970.608 176.143 977.676 162.328C984.851 148.405 995.026 137.588 1008.2 129.877C1021.48 122.059 1037.17 118.15 1055.27 118.15C1073.47 118.15 1089.16 122.059 1102.34 129.877C1115.62 137.588 1125.79 148.405 1132.86 162.328C1140.03 176.143 1143.62 192.368 1143.62 211.003C1143.62 229.424 1140.03 245.595 1132.86 259.518C1125.79 273.333 1115.62 284.15 1102.34 291.968C1089.16 299.679 1073.47 303.534 1055.27 303.534ZM1055.59 264.658C1063.83 264.658 1070.74 262.356 1076.31 257.75C1081.88 253.038 1086.06 246.612 1088.84 238.473C1091.73 230.334 1093.18 221.07 1093.18 210.682C1093.18 200.186 1091.73 190.922 1088.84 182.89C1086.06 174.858 1081.88 168.539 1076.31 163.934C1070.74 159.329 1063.83 157.026 1055.59 157.026C1047.24 157.026 1040.22 159.329 1034.54 163.934C1028.98 168.539 1024.74 174.858 1021.85 182.89C1019.07 190.922 1017.68 200.186 1017.68 210.682C1017.68 221.07 1019.07 230.334 1021.85 238.473C1024.74 246.612 1028.98 253.038 1034.54 257.75C1040.22 262.356 1047.24 264.658 1055.59 264.658ZM1279.97 223.694V120.399H1329.61V300H1281.9V267.389H1279.97C1275.9 277.778 1269.21 286.238 1259.89 292.771C1250.57 299.197 1239.17 302.356 1225.67 302.249C1213.68 302.249 1203.08 299.572 1193.87 294.217C1184.76 288.755 1177.64 280.99 1172.5 270.923C1167.47 260.856 1164.95 248.808 1164.95 234.778V120.399H1214.59V226.104C1214.59 236.599 1217.43 244.952 1223.1 251.164C1228.78 257.269 1236.33 260.267 1245.75 260.16C1251.75 260.16 1257.32 258.821 1262.46 256.144C1267.6 253.36 1271.78 249.236 1274.99 243.774C1278.31 238.312 1279.97 231.619 1279.97 223.694ZM1333.27 102.407V60.6396H1529.9V102.407H1456.64V300H1406.68V102.407H1333.27ZM1640.7 223.694V120.399H1690.34V300H1642.63V267.389H1640.7C1636.63 277.778 1629.94 286.238 1620.62 292.771C1611.31 299.197 1599.9 302.356 1586.41 302.249C1574.41 302.249 1563.81 299.572 1554.6 294.217C1545.5 288.755 1538.37 280.99 1533.23 270.923C1528.2 260.856 1525.68 248.808 1525.68 234.778V120.399H1575.32V226.104C1575.32 236.599 1578.16 244.952 1583.84 251.164C1589.51 257.269 1597.06 260.267 1606.49 260.16C1612.48 260.16 1618.05 258.821 1623.19 256.144C1628.33 253.36 1632.51 249.236 1635.72 243.774C1639.04 238.312 1640.7 231.619 1640.7 223.694ZM1821.07 302.892C1811.43 302.892 1803.24 301.285 1796.49 298.072C1789.74 294.859 1784.23 290.843 1779.95 286.024C1775.77 281.097 1772.5 276.171 1770.15 271.245H1767.9V300H1719.06V60.6396H1768.7V150.761H1770.15C1772.4 145.835 1775.61 140.855 1779.79 135.821C1783.96 130.788 1789.42 126.611 1796.17 123.291C1802.92 119.864 1811.27 118.15 1821.23 118.15C1834.4 118.15 1846.45 121.577 1857.38 128.432C1868.41 135.179 1877.24 145.406 1883.88 159.115C1890.52 172.823 1893.84 189.958 1893.84 210.521C1893.84 230.441 1890.63 247.309 1884.2 261.124C1877.78 274.832 1869.05 285.221 1858.02 292.289C1847.1 299.357 1834.78 302.892 1821.07 302.892ZM1805.33 263.373C1813.47 263.373 1820.32 261.124 1825.89 256.626C1831.46 252.128 1835.69 245.916 1838.58 237.991C1841.47 229.959 1842.92 220.749 1842.92 210.36C1842.92 199.972 1841.47 190.869 1838.58 183.051C1835.8 175.126 1831.62 168.914 1826.05 164.416C1820.48 159.918 1813.57 157.669 1805.33 157.669C1797.3 157.669 1790.44 159.864 1784.77 164.255C1779.2 168.539 1774.91 174.644 1771.91 182.569C1769.02 190.387 1767.58 199.651 1767.58 210.36C1767.58 220.963 1769.08 230.227 1772.07 238.152C1775.07 246.077 1779.36 252.289 1784.93 256.787C1790.6 261.178 1797.4 263.373 1805.33 263.373ZM1996.78 303.534C1978.36 303.534 1962.45 299.786 1949.07 292.289C1935.68 284.792 1925.4 274.136 1918.22 260.321C1911.15 246.398 1907.62 229.959 1907.62 211.003C1907.62 192.582 1911.15 176.411 1918.22 162.488C1925.4 148.566 1935.47 137.695 1948.42 129.877C1961.49 122.059 1976.8 118.15 1994.37 118.15C2006.26 118.15 2017.34 120.078 2027.62 123.934C2037.9 127.682 2046.9 133.358 2054.61 140.962C2062.32 148.459 2068.32 157.937 2072.6 169.396C2076.89 180.748 2079.03 194.082 2079.03 209.396V222.891H1927.38V192.208H2054.93L2031.8 200.24C2031.8 191.137 2030.41 183.211 2027.62 176.464C2024.84 169.717 2020.66 164.523 2015.09 160.882C2009.63 157.133 2002.83 155.259 1994.69 155.259C1986.55 155.259 1979.64 157.133 1973.97 160.882C1968.4 164.63 1964.11 169.717 1961.12 176.143C1958.12 182.569 1956.62 189.958 1956.62 198.312V219.999C1956.62 229.745 1958.33 238.098 1961.76 245.06C1965.19 251.914 1969.95 257.215 1976.06 260.963C1982.27 264.605 1989.39 266.425 1997.42 266.425C2002.99 266.425 2008.02 265.622 2012.52 264.016C2017.02 262.409 2020.88 260.053 2024.09 256.947C2027.41 253.841 2029.87 250.093 2031.48 245.702L2077.42 248.754C2075.17 259.785 2070.46 269.424 2063.29 277.67C2056.22 285.81 2047.06 292.182 2035.82 296.787C2024.57 301.285 2011.56 303.534 1996.78 303.534ZM2254.06 303.374C2234.78 303.374 2217.96 300.428 2203.61 294.538C2189.37 288.648 2178.23 279.866 2170.2 268.192C2162.27 256.519 2158.1 242.061 2157.67 224.818H2206.51C2207.15 232.743 2209.5 239.437 2213.57 244.899C2217.64 250.254 2223.11 254.27 2229.96 256.947C2236.81 259.625 2244.69 260.963 2253.57 260.963C2262.14 260.963 2269.59 259.732 2275.9 257.269C2282.33 254.805 2287.26 251.378 2290.68 246.987C2294.22 242.489 2295.98 237.295 2295.98 231.405C2295.98 226.05 2294.38 221.552 2291.17 217.911C2288.06 214.269 2283.45 211.164 2277.35 208.593C2271.35 206.023 2264.02 203.72 2255.34 201.686L2229.16 195.26C2209.02 190.44 2193.12 182.783 2181.44 172.288C2169.77 161.685 2163.93 147.548 2163.93 129.877C2163.93 115.419 2167.84 102.782 2175.66 91.9653C2183.59 81.0415 2194.35 72.5809 2207.95 66.5835C2221.66 60.479 2237.24 57.4268 2254.7 57.4268C2272.48 57.4268 2287.95 60.479 2301.12 66.5835C2314.4 72.688 2324.74 81.1486 2332.13 91.9653C2339.63 102.782 2343.48 115.259 2343.7 129.396H2295.02C2294.16 120.078 2290.15 112.796 2282.97 107.548C2275.9 102.3 2266.32 99.6763 2254.22 99.6763C2246.08 99.6763 2239.12 100.854 2233.33 103.21C2227.66 105.459 2223.32 108.619 2220.32 112.688C2217.32 116.758 2215.82 121.417 2215.82 126.665C2215.82 132.234 2217.54 136.946 2220.96 140.801C2224.39 144.55 2228.94 147.655 2234.62 150.119C2240.4 152.475 2246.72 154.456 2253.57 156.062L2274.94 161.364C2285.33 163.72 2294.91 166.879 2303.7 170.842C2312.48 174.697 2320.08 179.463 2326.51 185.139C2333.04 190.815 2338.07 197.509 2341.61 205.22C2345.14 212.824 2346.91 221.605 2346.91 231.565C2346.91 246.238 2343.21 258.982 2335.82 269.799C2328.54 280.508 2317.99 288.808 2304.18 294.699C2290.36 300.482 2273.65 303.374 2254.06 303.374ZM2418.2 196.224V300H2368.56V60.6396H2416.59V152.368H2418.84C2422.91 141.765 2429.44 133.412 2438.44 127.307C2447.54 121.203 2458.89 118.15 2472.5 118.15C2484.92 118.15 2495.79 120.881 2505.11 126.343C2514.42 131.698 2521.65 139.409 2526.79 149.476C2532.04 159.543 2534.66 171.645 2534.66 185.782V300H2484.86V194.617C2484.86 183.586 2482.03 174.965 2476.35 168.753C2470.78 162.542 2462.91 159.436 2452.74 159.436C2445.88 159.436 2439.88 160.935 2434.74 163.934C2429.6 166.826 2425.53 171.002 2422.53 176.464C2419.64 181.926 2418.2 188.513 2418.2 196.224ZM2644.03 303.534C2625.93 303.534 2610.24 299.679 2596.96 291.968C2583.78 284.15 2573.61 273.333 2566.43 259.518C2559.37 245.595 2555.83 229.424 2555.83 211.003C2555.83 192.368 2559.37 176.143 2566.43 162.328C2573.61 148.405 2583.78 137.588 2596.96 129.877C2610.24 122.059 2625.93 118.15 2644.03 118.15C2662.23 118.15 2677.92 122.059 2691.09 129.877C2704.37 137.588 2714.55 148.405 2721.62 162.328C2728.79 176.143 2732.38 192.368 2732.38 211.003C2732.38 229.424 2728.79 245.595 2721.62 259.518C2714.55 273.333 2704.37 284.15 2691.09 291.968C2677.92 299.679 2662.23 303.534 2644.03 303.534ZM2644.35 264.658C2652.59 264.658 2659.5 262.356 2665.07 257.75C2670.64 253.038 2674.82 246.612 2677.6 238.473C2680.49 230.334 2681.94 221.07 2681.94 210.682C2681.94 200.186 2680.49 190.922 2677.6 182.89C2674.82 174.858 2670.64 168.539 2665.07 163.934C2659.5 159.329 2652.59 157.026 2644.35 157.026C2635.99 157.026 2628.98 159.329 2623.3 163.934C2617.73 168.539 2613.5 174.858 2610.61 182.89C2607.83 190.922 2606.44 200.186 2606.44 210.682C2606.44 221.07 2607.83 230.334 2610.61 238.473C2613.5 246.612 2617.73 253.038 2623.3 257.75C2628.98 262.356 2635.99 264.658 2644.35 264.658ZM2753.71 300V120.399H2801.74V151.886H2803.67C2806.99 140.748 2812.5 132.341 2820.22 126.665C2827.93 120.881 2836.76 117.99 2846.72 117.99C2849.29 117.99 2851.97 118.15 2854.75 118.472C2857.65 118.686 2860.22 119.114 2862.47 119.757V163.773C2860.11 163.024 2856.84 162.435 2852.67 162.006C2848.6 161.471 2844.79 161.203 2841.26 161.203C2834.08 161.203 2827.61 162.81 2821.82 166.022C2816.04 169.128 2811.49 173.519 2808.17 179.195C2804.95 184.764 2803.35 191.19 2803.35 198.473V300H2753.71ZM2980.98 120.399V157.99H2872.87V120.399H2980.98ZM2897.45 77.668H2947.09V244.738C2947.09 250.736 2948.43 255.18 2951.1 258.072C2953.78 260.856 2958.07 262.249 2963.96 262.249C2965.88 262.249 2968.02 262.088 2970.38 261.767C2972.74 261.445 2974.77 261.07 2976.49 260.642L2984.36 297.912C2978.9 299.518 2973.59 300.696 2968.45 301.446C2963.42 302.195 2958.44 302.57 2953.51 302.57C2935.63 302.57 2921.81 298.126 2912.07 289.237C2902.32 280.241 2897.45 267.603 2897.45 251.325V77.668ZM3148.5 171.645L3103.04 174.376C3101.86 168.7 3098.7 163.827 3093.56 159.757C3088.42 155.581 3081.51 153.492 3072.83 153.492C3065.12 153.492 3058.64 155.099 3053.4 158.312C3048.26 161.524 3045.69 165.808 3045.69 171.163C3045.69 175.447 3047.35 179.142 3050.67 182.248C3054.09 185.246 3059.93 187.602 3068.18 189.316L3100.79 195.742C3118.24 199.276 3131.26 205.006 3139.82 212.931C3148.39 220.856 3152.68 231.298 3152.68 244.256C3152.68 256.144 3149.25 266.532 3142.39 275.421C3135.54 284.203 3126.12 291.111 3114.12 296.145C3102.13 301.071 3088.36 303.534 3072.83 303.534C3049.06 303.534 3030.1 298.554 3015.97 288.594C3001.94 278.634 2993.74 265.14 2991.39 248.112L3040.06 245.542C3041.67 252.824 3045.31 258.34 3050.99 262.088C3056.66 265.836 3063.95 267.71 3072.83 267.71C3081.51 267.71 3088.52 265.997 3093.88 262.57C3099.34 259.143 3102.07 254.805 3102.07 249.558C3102.07 240.669 3094.36 234.671 3078.94 231.565L3047.93 225.14C3030.48 221.605 3017.47 215.555 3008.9 206.987C3000.33 198.419 2996.05 187.442 2996.05 174.055C2996.05 162.488 2999.21 152.528 3005.52 144.175C3011.84 135.821 3020.68 129.396 3032.03 124.897C3043.49 120.399 3056.88 118.15 3072.19 118.15C3094.9 118.15 3112.73 122.97 3125.69 132.608C3138.75 142.14 3146.36 155.152 3148.5 171.645ZM796.506 640V400.64H873.937C890.965 400.64 905.156 403.906 916.508 410.439C927.86 416.865 936.428 425.7 942.211 436.945C948.101 448.083 951.046 460.614 951.046 474.536C951.046 488.459 948.155 501.042 942.372 512.288C936.588 523.426 927.967 532.261 916.508 538.794C905.156 545.327 891.072 548.593 874.258 548.593H813.535V528.995H873.616C886.146 528.995 896.534 526.639 904.781 521.926C913.027 517.214 919.185 510.735 923.255 502.488C927.432 494.242 929.52 484.924 929.52 474.536C929.52 464.041 927.432 454.723 923.255 446.584C919.185 438.445 912.974 432.072 904.62 427.467C896.374 422.755 885.932 420.399 873.294 420.399H818.354V640H796.506ZM1037.44 644.016C1026.62 644.016 1016.71 641.928 1007.72 637.751C998.72 633.467 991.545 627.309 986.19 619.277C980.942 611.138 978.319 601.285 978.319 589.718C978.319 580.829 979.979 573.386 983.299 567.389C986.619 561.391 991.384 556.465 997.596 552.609C1003.81 548.647 1011.09 545.541 1019.44 543.292C1027.9 540.936 1037.22 539.169 1047.4 537.991C1057.46 536.706 1065.98 535.635 1072.94 534.778C1079.9 533.814 1085.2 532.315 1088.84 530.28C1092.48 528.245 1094.3 524.979 1094.3 520.48V516.304C1094.3 503.988 1090.66 494.349 1083.38 487.388C1076.1 480.319 1065.66 476.785 1052.05 476.785C1039.1 476.785 1028.55 479.623 1020.41 485.299C1012.27 490.975 1006.59 497.669 1003.38 505.38L983.459 498.151C987.529 488.405 993.151 480.587 1000.33 474.697C1007.5 468.806 1015.53 464.576 1024.42 462.006C1033.31 459.328 1042.31 457.99 1051.41 457.99C1058.27 457.99 1065.39 458.9 1072.78 460.721C1080.17 462.541 1087.07 465.647 1093.5 470.038C1099.93 474.429 1105.12 480.587 1109.08 488.512C1113.15 496.33 1115.19 506.237 1115.19 518.231V640H1094.3V611.566H1093.02C1090.66 616.814 1087.02 621.954 1082.09 626.988C1077.17 631.914 1071.01 635.984 1063.62 639.197C1056.23 642.41 1047.5 644.016 1037.44 644.016ZM1040.33 625.06C1051.36 625.06 1060.89 622.65 1068.92 617.831C1077.06 612.905 1083.33 606.318 1087.72 598.072C1092.11 589.825 1094.3 580.829 1094.3 571.083V545.22C1092.7 546.719 1090.07 548.058 1086.43 549.236C1082.9 550.414 1078.77 551.431 1074.06 552.288C1069.46 553.145 1064.75 553.895 1059.93 554.537C1055.21 555.18 1051.04 555.715 1047.4 556.144C1037.33 557.429 1028.65 559.41 1021.37 562.087C1014.2 564.765 1008.68 568.406 1004.82 573.011C1001.08 577.616 999.202 583.56 999.202 590.843C999.202 601.66 1003.06 610.067 1010.77 616.064C1018.59 622.061 1028.44 625.06 1040.33 625.06ZM1229.21 643.855C1213.14 643.855 1199.17 639.839 1187.28 631.807C1175.39 623.775 1166.18 612.798 1159.65 598.875C1153.12 584.845 1149.85 568.942 1149.85 551.164C1149.85 533.064 1153.17 517.053 1159.81 503.131C1166.45 489.101 1175.71 478.07 1187.6 470.038C1199.49 462.006 1213.25 457.99 1228.89 457.99C1240.88 457.99 1251.75 460.346 1261.5 465.058C1271.24 469.663 1279.28 476.196 1285.59 484.657C1292.02 493.01 1296.04 502.756 1297.64 513.894H1276.76C1275.26 507.147 1272.37 500.989 1268.08 495.42C1263.91 489.851 1258.5 485.406 1251.86 482.086C1245.33 478.659 1237.78 476.946 1229.21 476.946C1217.75 476.946 1207.63 480.052 1198.85 486.263C1190.06 492.475 1183.16 501.096 1178.12 512.127C1173.2 523.158 1170.73 535.956 1170.73 550.521C1170.73 564.979 1173.14 577.831 1177.96 589.076C1182.78 600.321 1189.58 609.103 1198.36 615.421C1207.25 621.74 1217.53 624.899 1229.21 624.899C1241.1 624.899 1251.38 621.526 1260.05 614.779C1268.73 608.032 1274.3 598.982 1276.76 587.63H1297.64C1296.14 598.447 1292.29 608.085 1286.08 616.546C1279.97 625.007 1272.05 631.7 1262.3 636.626C1252.66 641.446 1241.63 643.855 1229.21 643.855ZM1350.62 572.208L1350.3 544.898H1355.12L1439.13 460.399H1465.32L1382.43 543.774L1380.5 544.095L1350.62 572.208ZM1331.66 640V400.64H1352.38V640H1331.66ZM1443.31 640L1370.54 547.951L1385.48 533.493L1470.14 640H1443.31ZM1543.68 644.016C1532.86 644.016 1522.95 641.928 1513.96 637.751C1504.96 633.467 1497.78 627.309 1492.43 619.277C1487.18 611.138 1484.56 601.285 1484.56 589.718C1484.56 580.829 1486.22 573.386 1489.54 567.389C1492.86 561.391 1497.62 556.465 1503.84 552.609C1510.05 548.647 1517.33 545.541 1525.68 543.292C1534.14 540.936 1543.46 539.169 1553.64 537.991C1563.7 536.706 1572.22 535.635 1579.18 534.778C1586.14 533.814 1591.44 532.315 1595.08 530.28C1598.72 528.245 1600.54 524.979 1600.54 520.48V516.304C1600.54 503.988 1596.9 494.349 1589.62 487.388C1582.34 480.319 1571.89 476.785 1558.29 476.785C1545.34 476.785 1534.79 479.623 1526.65 485.299C1518.51 490.975 1512.83 497.669 1509.62 505.38L1489.7 498.151C1493.77 488.405 1499.39 480.587 1506.57 474.697C1513.74 468.806 1521.77 464.576 1530.66 462.006C1539.55 459.328 1548.55 457.99 1557.65 457.99C1564.51 457.99 1571.63 458.9 1579.02 460.721C1586.41 462.541 1593.31 465.647 1599.74 470.038C1606.17 474.429 1611.36 480.587 1615.32 488.512C1619.39 496.33 1621.43 506.237 1621.43 518.231V640H1600.54V611.566H1599.26C1596.9 616.814 1593.26 621.954 1588.33 626.988C1583.41 631.914 1577.25 635.984 1569.86 639.197C1562.47 642.41 1553.74 644.016 1543.68 644.016ZM1546.57 625.06C1557.6 625.06 1567.13 622.65 1575.16 617.831C1583.3 612.905 1589.57 606.318 1593.96 598.072C1598.35 589.825 1600.54 580.829 1600.54 571.083V545.22C1598.94 546.719 1596.31 548.058 1592.67 549.236C1589.14 550.414 1585.01 551.431 1580.3 552.288C1575.7 553.145 1570.98 553.895 1566.17 554.537C1561.45 555.18 1557.28 555.715 1553.64 556.144C1543.57 557.429 1534.89 559.41 1527.61 562.087C1520.44 564.765 1514.92 568.406 1511.06 573.011C1507.32 577.616 1505.44 583.56 1505.44 590.843C1505.44 601.66 1509.3 610.067 1517.01 616.064C1524.83 622.061 1534.68 625.06 1546.57 625.06ZM1733.84 711.005C1715.53 711.005 1700.59 707.578 1689.02 700.724C1677.45 693.869 1669.05 685.302 1663.8 675.021L1680.83 663.775C1683.29 668.381 1686.72 672.825 1691.11 677.109C1695.5 681.5 1701.18 685.088 1708.14 687.872C1715.1 690.764 1723.67 692.209 1733.84 692.209C1749.8 692.209 1762.65 688.247 1772.4 680.322C1782.25 672.397 1787.17 660.081 1787.17 643.374V602.891H1785.09C1782.73 608.353 1779.3 613.815 1774.81 619.277C1770.31 624.632 1764.42 629.13 1757.13 632.771C1749.85 636.305 1740.8 638.072 1729.99 638.072C1715.63 638.072 1702.89 634.538 1691.75 627.47C1680.72 620.401 1671.99 610.281 1665.57 597.108C1659.25 583.828 1656.09 568.085 1656.09 549.878C1656.09 531.672 1659.19 515.715 1665.41 502.006C1671.62 488.191 1680.29 477.428 1691.43 469.717C1702.57 461.899 1715.53 457.99 1730.31 457.99C1741.34 457.99 1750.49 459.971 1757.78 463.934C1765.06 467.789 1770.9 472.555 1775.29 478.231C1779.68 483.907 1783.11 489.423 1785.57 494.777H1787.82V460.399H1807.74V644.659C1807.74 659.866 1804.52 672.343 1798.1 682.089C1791.78 691.942 1783.05 699.224 1771.91 703.937C1760.78 708.649 1748.08 711.005 1733.84 711.005ZM1732.56 619.116C1749.8 619.116 1763.24 612.905 1772.88 600.481C1782.52 588.058 1787.34 571.03 1787.34 549.396C1787.34 535.367 1785.19 522.944 1780.91 512.127C1776.73 501.203 1770.52 492.635 1762.27 486.424C1754.14 480.105 1744.23 476.946 1732.56 476.946C1720.45 476.946 1710.28 480.212 1702.03 486.745C1693.79 493.171 1687.52 501.846 1683.24 512.77C1679.06 523.693 1676.97 535.902 1676.97 549.396C1676.97 563.105 1679.11 575.207 1683.4 585.702C1687.68 596.198 1693.95 604.39 1702.19 610.281C1710.55 616.171 1720.67 619.116 1732.56 619.116ZM1924.65 643.855C1907.94 643.855 1893.43 639.946 1881.11 632.128C1868.8 624.203 1859.32 613.279 1852.68 599.357C1846.04 585.434 1842.72 569.424 1842.72 551.324C1842.72 533.225 1845.99 517.16 1852.52 503.131C1859.16 489.101 1868.37 478.07 1880.15 470.038C1891.93 462.006 1905.59 457.99 1921.11 457.99C1930.75 457.99 1940.12 459.81 1949.23 463.452C1958.33 466.986 1966.52 472.394 1973.81 479.677C1981.09 486.959 1986.82 496.223 1991 507.468C1995.17 518.606 1997.26 531.886 1997.26 547.308V556.625H1857.02V538.312H1986.02L1976.54 545.38C1976.54 532.315 1974.29 520.641 1969.79 510.36C1965.4 500.079 1959.08 491.939 1950.83 485.942C1942.59 479.944 1932.68 476.946 1921.11 476.946C1909.66 476.946 1899.59 479.998 1890.91 486.103C1882.24 492.1 1875.49 500.132 1870.67 510.199C1865.96 520.159 1863.6 531.083 1863.6 542.971V553.734C1863.6 568.085 1866.07 580.615 1870.99 591.325C1876.03 601.927 1883.1 610.174 1892.2 616.064C1901.41 621.954 1912.23 624.899 1924.65 624.899C1933.11 624.899 1940.55 623.561 1946.98 620.883C1953.4 618.206 1958.81 614.618 1963.2 610.12C1967.59 605.515 1970.91 600.535 1973.16 595.18L1992.92 601.767C1990.14 609.263 1985.64 616.225 1979.43 622.65C1973.32 628.969 1965.61 634.11 1956.3 638.072C1947.09 641.928 1936.54 643.855 1924.65 643.855ZM2206.51 400.64V640H2156.06V448.672H2154.62L2100 483.211V438.23L2159.12 400.64H2206.51ZM2325.02 643.213C2307.03 643.213 2291.07 640.268 2277.15 634.377C2263.23 628.487 2252.25 620.455 2244.22 610.281C2236.29 600.107 2232.33 588.54 2232.33 575.582C2232.33 565.622 2234.58 556.465 2239.08 548.111C2243.68 539.758 2249.9 532.797 2257.71 527.228C2265.64 521.659 2274.47 518.071 2284.22 516.464V515.019C2271.48 512.341 2261.09 506.076 2253.05 496.223C2245.02 486.263 2241.01 474.804 2241.01 461.845C2241.01 449.422 2244.59 438.391 2251.77 428.752C2259.05 419.007 2269.01 411.349 2281.65 405.78C2294.39 400.211 2308.85 397.427 2325.02 397.427C2341.2 397.427 2355.6 400.211 2368.24 405.78C2380.98 411.349 2390.94 419.007 2398.12 428.752C2405.4 438.498 2409.04 449.529 2409.04 461.845C2409.04 474.911 2404.97 486.37 2396.83 496.223C2388.8 506.076 2378.52 512.341 2365.99 515.019V516.464C2375.63 518.071 2384.35 521.659 2392.17 527.228C2399.99 532.797 2406.2 539.758 2410.81 548.111C2415.52 556.465 2417.88 565.622 2417.88 575.582C2417.88 588.54 2413.86 600.107 2405.83 610.281C2397.9 620.455 2386.93 628.487 2372.9 634.377C2358.97 640.268 2343.02 643.213 2325.02 643.213ZM2325.02 606.104C2333.06 606.104 2340.07 604.658 2346.07 601.767C2352.07 598.875 2356.72 594.859 2360.04 589.718C2363.47 584.471 2365.18 578.42 2365.18 571.565C2365.18 564.711 2363.42 558.66 2359.88 553.413C2356.46 548.058 2351.69 543.881 2345.59 540.882C2339.59 537.777 2332.73 536.224 2325.02 536.224C2317.31 536.224 2310.4 537.723 2304.3 540.722C2298.3 543.72 2293.54 547.897 2290 553.252C2286.58 558.607 2284.86 564.711 2284.86 571.565C2284.86 578.42 2286.52 584.417 2289.84 589.558C2293.27 594.698 2297.98 598.768 2303.98 601.767C2310.08 604.658 2317.1 606.104 2325.02 606.104ZM2325.02 499.275C2331.77 499.275 2337.71 497.937 2342.86 495.259C2348.1 492.475 2352.23 488.673 2355.22 483.854C2358.22 479.034 2359.72 473.465 2359.72 467.146C2359.72 460.935 2358.22 455.473 2355.22 450.761C2352.23 446.049 2348.1 442.354 2342.86 439.676C2337.71 436.999 2331.77 435.66 2325.02 435.66C2318.17 435.66 2312.12 436.999 2306.87 439.676C2301.73 442.354 2297.66 446.049 2294.66 450.761C2291.77 455.473 2290.32 460.935 2290.32 467.146C2290.32 473.465 2291.82 479.034 2294.82 483.854C2297.82 488.673 2301.89 492.475 2307.03 495.259C2312.28 497.937 2318.28 499.275 2325.02 499.275ZM2536.23 643.213C2515.89 643.213 2498.48 638.394 2484.02 628.755C2469.67 619.009 2458.64 605.033 2450.93 586.827C2443.33 568.513 2439.53 546.398 2439.53 520.48C2439.53 494.67 2443.38 472.608 2451.09 454.295C2458.8 435.874 2469.83 421.791 2484.18 412.045C2498.64 402.3 2515.99 397.427 2536.23 397.427C2556.58 397.427 2573.93 402.3 2588.28 412.045C2602.74 421.791 2613.77 435.821 2621.38 454.134C2629.09 472.448 2632.94 494.563 2632.94 520.48C2632.94 546.398 2629.14 568.513 2621.54 586.827C2613.93 605.033 2602.9 619.009 2588.44 628.755C2574.09 638.394 2556.69 643.213 2536.23 643.213ZM2536.23 601.445C2545.98 601.445 2554.17 598.34 2560.81 592.128C2567.56 585.809 2572.65 576.599 2576.07 564.497C2579.61 552.395 2581.37 537.723 2581.37 520.48C2581.37 503.131 2579.61 488.405 2576.07 476.303C2572.65 464.201 2567.56 454.991 2560.81 448.672C2554.17 442.247 2545.98 439.034 2536.23 439.034C2521.78 439.034 2510.64 446.156 2502.82 460.399C2495 474.536 2491.09 494.563 2491.09 520.48C2491.09 537.723 2492.81 552.395 2496.23 564.497C2499.77 576.599 2504.91 585.809 2511.66 592.128C2518.4 598.34 2526.59 601.445 2536.23 601.445Z" fill="black"/>
</svg>
