<svg width="2389" height="1558" viewBox="0 0 2389 1558" fill="none" xmlns="http://www.w3.org/2000/svg">
<path d="M1.31506 907.64H58.0226L112.642 1010.77H114.891L169.51 907.64H226.217L138.987 1062.5V1147H88.7057V1062.5L1.31506 907.64ZM285.297 1150.53C267.198 1150.53 251.508 1146.68 238.228 1138.97C225.055 1131.15 214.881 1120.33 207.706 1106.52C200.638 1092.6 197.103 1076.42 197.103 1058C197.103 1039.37 200.638 1023.14 207.706 1009.33C214.881 995.405 225.055 984.588 238.228 976.877C251.508 969.059 267.198 965.15 285.297 965.15C303.504 965.15 319.193 969.059 332.366 976.877C345.646 984.588 355.82 995.405 362.888 1009.33C370.064 1023.14 373.652 1039.37 373.652 1058C373.652 1076.42 370.064 1092.6 362.888 1106.52C355.82 1120.33 345.646 1131.15 332.366 1138.97C319.193 1146.68 303.504 1150.53 285.297 1150.53ZM285.618 1111.66C293.865 1111.66 300.773 1109.36 306.342 1104.75C311.911 1100.04 316.087 1093.61 318.872 1085.47C321.763 1077.33 323.209 1068.07 323.209 1057.68C323.209 1047.19 321.763 1037.92 318.872 1029.89C316.087 1021.86 311.911 1015.54 306.342 1010.93C300.773 1006.33 293.865 1004.03 285.618 1004.03C277.265 1004.03 270.25 1006.33 264.574 1010.93C259.005 1015.54 254.775 1021.86 251.883 1029.89C249.099 1037.92 247.706 1047.19 247.706 1057.68C247.706 1068.07 249.099 1077.33 251.883 1085.47C254.775 1093.61 259.005 1100.04 264.574 1104.75C270.25 1109.36 277.265 1111.66 285.618 1111.66ZM510.001 1070.69V967.399H559.641V1147H511.929V1114.39H510.001C505.932 1124.78 499.238 1133.24 489.921 1139.77C480.604 1146.2 469.198 1149.36 455.704 1149.25C443.709 1149.25 433.106 1146.57 423.896 1141.22C414.793 1135.75 407.671 1127.99 402.53 1117.92C397.497 1107.86 394.98 1095.81 394.98 1081.78V967.399H444.619V1073.1C444.619 1083.6 447.457 1091.95 453.133 1098.16C458.809 1104.27 466.36 1107.27 475.784 1107.16C481.782 1107.16 487.351 1105.82 492.491 1103.14C497.632 1100.36 501.809 1096.24 505.021 1090.77C508.341 1085.31 510.001 1078.62 510.001 1070.69ZM563.298 949.407V907.64H759.927V949.407H686.673V1147H636.713V949.407H563.298ZM870.734 1070.69V967.399H920.373V1147H872.662V1114.39H870.734C866.665 1124.78 859.971 1133.24 850.654 1139.77C841.336 1146.2 829.931 1149.36 816.436 1149.25C804.442 1149.25 793.839 1146.57 784.629 1141.22C775.526 1135.75 768.404 1127.99 763.263 1117.92C758.23 1107.86 755.713 1095.81 755.713 1081.78V967.399H805.352V1073.1C805.352 1083.6 808.19 1091.95 813.866 1098.16C819.542 1104.27 827.092 1107.27 836.517 1107.16C842.514 1107.16 848.083 1105.82 853.224 1103.14C858.365 1100.36 862.541 1096.24 865.754 1090.77C869.074 1085.31 870.734 1078.62 870.734 1070.69ZM1051.1 1149.89C1041.46 1149.89 1033.27 1148.29 1026.52 1145.07C1019.77 1141.86 1014.26 1137.84 1009.98 1133.02C1005.8 1128.1 1002.53 1123.17 1000.18 1118.24H997.927V1147H949.091V907.64H998.73V997.761H1000.18C1002.43 992.835 1005.64 987.855 1009.81 982.821C1013.99 977.788 1019.45 973.611 1026.2 970.291C1032.95 966.864 1041.3 965.15 1051.26 965.15C1064.43 965.15 1076.48 968.577 1087.41 975.432C1098.44 982.179 1107.27 992.406 1113.91 1006.11C1120.55 1019.82 1123.87 1036.96 1123.87 1057.52C1123.87 1077.44 1120.66 1094.31 1114.23 1108.12C1107.81 1121.83 1099.08 1132.22 1088.05 1139.29C1077.12 1146.36 1064.81 1149.89 1051.1 1149.89ZM1035.36 1110.37C1043.5 1110.37 1050.35 1108.12 1055.92 1103.63C1061.49 1099.13 1065.72 1092.92 1068.61 1084.99C1071.5 1076.96 1072.95 1067.75 1072.95 1057.36C1072.95 1046.97 1071.5 1037.87 1068.61 1030.05C1065.83 1022.13 1061.65 1015.91 1056.08 1011.42C1050.51 1006.92 1043.6 1004.67 1035.36 1004.67C1027.33 1004.67 1020.47 1006.86 1014.79 1011.26C1009.23 1015.54 1004.94 1021.64 1001.94 1029.57C999.052 1037.39 997.606 1046.65 997.606 1057.36C997.606 1067.96 999.105 1077.23 1002.1 1085.15C1005.1 1093.08 1009.39 1099.29 1014.96 1103.79C1020.63 1108.18 1027.43 1110.37 1035.36 1110.37ZM1226.81 1150.53C1208.39 1150.53 1192.48 1146.79 1179.1 1139.29C1165.71 1131.79 1155.43 1121.14 1148.25 1107.32C1141.18 1093.4 1137.65 1076.96 1137.65 1058C1137.65 1039.58 1141.18 1023.41 1148.25 1009.49C1155.43 995.566 1165.5 984.695 1178.45 976.877C1191.52 969.059 1206.83 965.15 1224.4 965.15C1236.29 965.15 1247.37 967.078 1257.65 970.934C1267.93 974.682 1276.93 980.358 1284.64 987.962C1292.35 995.459 1298.35 1004.94 1302.63 1016.4C1306.92 1027.75 1309.06 1041.08 1309.06 1056.4V1069.89H1157.41V1039.21H1284.96L1261.83 1047.24C1261.83 1038.14 1260.44 1030.21 1257.65 1023.46C1254.87 1016.72 1250.69 1011.52 1245.12 1007.88C1239.66 1004.13 1232.86 1002.26 1224.72 1002.26C1216.58 1002.26 1209.67 1004.13 1204 1007.88C1198.43 1011.63 1194.14 1016.72 1191.15 1023.14C1188.15 1029.57 1186.65 1036.96 1186.65 1045.31V1067C1186.65 1076.74 1188.36 1085.1 1191.79 1092.06C1195.21 1098.91 1199.98 1104.22 1206.09 1107.96C1212.3 1111.6 1219.42 1113.43 1227.45 1113.43C1233.02 1113.43 1238.05 1112.62 1242.55 1111.02C1247.05 1109.41 1250.91 1107.05 1254.12 1103.95C1257.44 1100.84 1259.9 1097.09 1261.51 1092.7L1307.45 1095.75C1305.2 1106.79 1300.49 1116.42 1293.32 1124.67C1286.25 1132.81 1277.09 1139.18 1265.84 1143.79C1254.6 1148.29 1241.59 1150.53 1226.81 1150.53ZM1484.09 1150.37C1464.81 1150.37 1447.99 1147.43 1433.64 1141.54C1419.4 1135.65 1408.26 1126.87 1400.23 1115.19C1392.3 1103.52 1388.13 1089.06 1387.7 1071.82H1436.54C1437.18 1079.74 1439.53 1086.44 1443.6 1091.9C1447.67 1097.25 1453.14 1101.27 1459.99 1103.95C1466.84 1106.62 1474.72 1107.96 1483.6 1107.96C1492.17 1107.96 1499.62 1106.73 1505.93 1104.27C1512.36 1101.81 1517.29 1098.38 1520.71 1093.99C1524.25 1089.49 1526.01 1084.3 1526.01 1078.4C1526.01 1073.05 1524.41 1068.55 1521.19 1064.91C1518.09 1061.27 1513.48 1058.16 1507.38 1055.59C1501.38 1053.02 1494.05 1050.72 1485.37 1048.69L1459.19 1042.26C1439.05 1037.44 1423.15 1029.78 1411.47 1019.29C1399.8 1008.69 1393.96 994.548 1393.96 976.877C1393.96 962.419 1397.87 949.782 1405.69 938.965C1413.62 928.042 1424.38 919.581 1437.98 913.583C1451.69 907.479 1467.27 904.427 1484.73 904.427C1502.51 904.427 1517.98 907.479 1531.15 913.583C1544.43 919.688 1554.77 928.149 1562.16 938.965C1569.66 949.782 1573.51 962.259 1573.73 976.396H1525.05C1524.19 967.078 1520.18 959.796 1513 954.548C1505.93 949.3 1496.35 946.676 1484.25 946.676C1476.11 946.676 1469.15 947.854 1463.36 950.21C1457.69 952.459 1453.35 955.619 1450.35 959.688C1447.35 963.758 1445.85 968.417 1445.85 973.665C1445.85 979.234 1447.57 983.946 1450.99 987.801C1454.42 991.55 1458.97 994.655 1464.65 997.119C1470.43 999.475 1476.75 1001.46 1483.6 1003.06L1504.97 1008.36C1515.36 1010.72 1524.94 1013.88 1533.73 1017.84C1542.51 1021.7 1550.11 1026.46 1556.54 1032.14C1563.07 1037.82 1568.1 1044.51 1571.64 1052.22C1575.17 1059.82 1576.94 1068.61 1576.94 1078.57C1576.94 1093.24 1573.24 1105.98 1565.85 1116.8C1558.57 1127.51 1548.02 1135.81 1534.21 1141.7C1520.39 1147.48 1503.68 1150.37 1484.09 1150.37ZM1648.23 1043.22V1147H1598.59V907.64H1646.62V999.368H1648.87C1652.94 988.765 1659.47 980.412 1668.47 974.307C1677.57 968.203 1688.92 965.15 1702.53 965.15C1714.95 965.15 1725.82 967.881 1735.14 973.343C1744.45 978.698 1751.68 986.409 1756.82 996.476C1762.07 1006.54 1764.69 1018.65 1764.69 1032.78V1147H1714.89V1041.62C1714.89 1030.59 1712.06 1021.97 1706.38 1015.75C1700.81 1009.54 1692.94 1006.44 1682.77 1006.44C1675.91 1006.44 1669.91 1007.94 1664.77 1010.93C1659.63 1013.83 1655.56 1018 1652.56 1023.46C1649.67 1028.93 1648.23 1035.51 1648.23 1043.22ZM1874.06 1150.53C1855.96 1150.53 1840.27 1146.68 1826.99 1138.97C1813.81 1131.15 1803.64 1120.33 1796.46 1106.52C1789.4 1092.6 1785.86 1076.42 1785.86 1058C1785.86 1039.37 1789.4 1023.14 1796.46 1009.33C1803.64 995.405 1813.81 984.588 1826.99 976.877C1840.27 969.059 1855.96 965.15 1874.06 965.15C1892.26 965.15 1907.95 969.059 1921.12 976.877C1934.4 984.588 1944.58 995.405 1951.65 1009.33C1958.82 1023.14 1962.41 1039.37 1962.41 1058C1962.41 1076.42 1958.82 1092.6 1951.65 1106.52C1944.58 1120.33 1934.4 1131.15 1921.12 1138.97C1907.95 1146.68 1892.26 1150.53 1874.06 1150.53ZM1874.38 1111.66C1882.62 1111.66 1889.53 1109.36 1895.1 1104.75C1900.67 1100.04 1904.85 1093.61 1907.63 1085.47C1910.52 1077.33 1911.97 1068.07 1911.97 1057.68C1911.97 1047.19 1910.52 1037.92 1907.63 1029.89C1904.85 1021.86 1900.67 1015.54 1895.1 1010.93C1889.53 1006.33 1882.62 1004.03 1874.38 1004.03C1866.02 1004.03 1859.01 1006.33 1853.33 1010.93C1847.76 1015.54 1843.53 1021.86 1840.64 1029.89C1837.86 1037.92 1836.47 1047.19 1836.47 1057.68C1836.47 1068.07 1837.86 1077.33 1840.64 1085.47C1843.53 1093.61 1847.76 1100.04 1853.33 1104.75C1859.01 1109.36 1866.02 1111.66 1874.38 1111.66ZM1983.74 1147V967.399H2031.77V998.886H2033.7C2037.02 987.748 2042.53 979.341 2050.25 973.665C2057.96 967.881 2066.79 964.99 2076.75 964.99C2079.32 964.99 2082 965.15 2084.78 965.472C2087.68 965.686 2090.25 966.114 2092.5 966.757V1010.77C2090.14 1010.02 2086.87 1009.43 2082.7 1009.01C2078.63 1008.47 2074.82 1008.2 2071.29 1008.2C2064.11 1008.2 2057.64 1009.81 2051.85 1013.02C2046.07 1016.13 2041.52 1020.52 2038.2 1026.2C2034.98 1031.76 2033.38 1038.19 2033.38 1045.47V1147H1983.74ZM2211.01 967.399V1004.99H2102.9V967.399H2211.01ZM2127.48 924.668H2177.12V1091.74C2177.12 1097.74 2178.46 1102.18 2181.13 1105.07C2183.81 1107.86 2188.1 1109.25 2193.99 1109.25C2195.91 1109.25 2198.06 1109.09 2200.41 1108.77C2202.77 1108.45 2204.8 1108.07 2206.52 1107.64L2214.39 1144.91C2208.93 1146.52 2203.62 1147.7 2198.48 1148.45C2193.45 1149.2 2188.47 1149.57 2183.54 1149.57C2165.66 1149.57 2151.84 1145.13 2142.1 1136.24C2132.35 1127.24 2127.48 1114.6 2127.48 1098.32V924.668ZM2378.53 1018.65L2333.07 1021.38C2331.89 1015.7 2328.73 1010.83 2323.59 1006.76C2318.45 1002.58 2311.54 1000.49 2302.86 1000.49C2295.15 1000.49 2288.67 1002.1 2283.43 1005.31C2278.29 1008.52 2275.72 1012.81 2275.72 1018.16C2275.72 1022.45 2277.38 1026.14 2280.7 1029.25C2284.12 1032.25 2289.96 1034.6 2298.21 1036.32L2330.82 1042.74C2348.27 1046.28 2361.29 1052.01 2369.85 1059.93C2378.42 1067.86 2382.71 1078.3 2382.71 1091.26C2382.71 1103.14 2379.28 1113.53 2372.42 1122.42C2365.57 1131.2 2356.15 1138.11 2344.15 1143.14C2332.16 1148.07 2318.39 1150.53 2302.86 1150.53C2279.09 1150.53 2260.13 1145.55 2246 1135.59C2231.97 1125.63 2223.77 1112.14 2221.42 1095.11L2270.09 1092.54C2271.7 1099.82 2275.34 1105.34 2281.02 1109.09C2286.69 1112.84 2293.98 1114.71 2302.86 1114.71C2311.54 1114.71 2318.55 1113 2323.91 1109.57C2329.37 1106.14 2332.1 1101.81 2332.1 1096.56C2332.1 1087.67 2324.39 1081.67 2308.97 1078.57L2277.96 1072.14C2260.51 1068.61 2247.5 1062.55 2238.93 1053.99C2230.36 1045.42 2226.08 1034.44 2226.08 1021.05C2226.08 1009.49 2229.24 999.528 2235.55 991.175C2241.87 982.821 2250.71 976.396 2262.06 971.897C2273.52 967.399 2286.91 965.15 2302.22 965.15C2324.93 965.15 2342.76 969.97 2355.72 979.608C2368.78 989.14 2376.39 1002.15 2378.53 1018.65ZM601.191 1487V1247.64H678.622C695.65 1247.64 709.841 1250.91 721.193 1257.44C732.545 1263.86 741.113 1272.7 746.896 1283.95C752.786 1295.08 755.731 1307.61 755.731 1321.54C755.731 1335.46 752.84 1348.04 747.057 1359.29C741.273 1370.43 732.652 1379.26 721.193 1385.79C709.841 1392.33 695.757 1395.59 678.943 1395.59H618.22V1375.99H678.301C690.831 1375.99 701.219 1373.64 709.466 1368.93C717.712 1364.21 723.87 1357.73 727.94 1349.49C732.117 1341.24 734.205 1331.92 734.205 1321.54C734.205 1311.04 732.117 1301.72 727.94 1293.58C723.87 1285.44 717.659 1279.07 709.305 1274.47C701.059 1269.76 690.617 1267.4 677.979 1267.4H623.039V1487H601.191ZM842.121 1491.02C831.304 1491.02 821.398 1488.93 812.401 1484.75C803.405 1480.47 796.23 1474.31 790.875 1466.28C785.627 1458.14 783.004 1448.28 783.004 1436.72C783.004 1427.83 784.664 1420.39 787.984 1414.39C791.304 1408.39 796.069 1403.46 802.281 1399.61C808.492 1395.65 815.775 1392.54 824.129 1390.29C832.589 1387.94 841.907 1386.17 852.081 1384.99C862.148 1383.71 870.662 1382.63 877.623 1381.78C884.584 1380.81 889.886 1379.31 893.527 1377.28C897.168 1375.24 898.989 1371.98 898.989 1367.48V1363.3C898.989 1350.99 895.348 1341.35 888.065 1334.39C880.783 1327.32 870.341 1323.79 856.739 1323.79C843.781 1323.79 833.232 1326.62 825.092 1332.3C816.953 1337.98 811.277 1344.67 808.064 1352.38L788.144 1345.15C792.214 1335.41 797.836 1327.59 805.012 1321.7C812.187 1315.81 820.22 1311.58 829.109 1309.01C837.998 1306.33 846.994 1304.99 856.097 1304.99C862.951 1304.99 870.073 1305.9 877.463 1307.72C884.852 1309.54 891.76 1312.65 898.186 1317.04C904.611 1321.43 909.806 1327.59 913.768 1335.51C917.838 1343.33 919.873 1353.24 919.873 1365.23V1487H898.989V1458.57H897.704C895.348 1463.81 891.706 1468.95 886.78 1473.99C881.853 1478.91 875.695 1482.98 868.306 1486.2C860.916 1489.41 852.188 1491.02 842.121 1491.02ZM845.012 1472.06C856.043 1472.06 865.575 1469.65 873.607 1464.83C881.746 1459.9 888.012 1453.32 892.402 1445.07C896.793 1436.83 898.989 1427.83 898.989 1418.08V1392.22C897.382 1393.72 894.759 1395.06 891.117 1396.24C887.583 1397.41 883.46 1398.43 878.748 1399.29C874.143 1400.14 869.43 1400.89 864.611 1401.54C859.899 1402.18 855.722 1402.72 852.081 1403.14C842.014 1404.43 833.339 1406.41 826.056 1409.09C818.881 1411.76 813.365 1415.41 809.51 1420.01C805.762 1424.62 803.887 1430.56 803.887 1437.84C803.887 1448.66 807.743 1457.07 815.454 1463.06C823.272 1469.06 833.125 1472.06 845.012 1472.06ZM1033.89 1490.86C1017.83 1490.86 1003.85 1486.84 991.965 1478.81C980.077 1470.77 970.867 1459.8 964.334 1445.88C957.801 1431.85 954.534 1415.94 954.534 1398.16C954.534 1380.06 957.854 1364.05 964.494 1350.13C971.134 1336.1 980.398 1325.07 992.286 1317.04C1004.17 1309.01 1017.94 1304.99 1033.57 1304.99C1045.57 1304.99 1056.44 1307.35 1066.18 1312.06C1075.93 1316.66 1083.96 1323.2 1090.28 1331.66C1096.7 1340.01 1100.72 1349.76 1102.33 1360.89H1081.44C1079.94 1354.15 1077.05 1347.99 1072.77 1342.42C1068.59 1336.85 1063.18 1332.41 1056.54 1329.09C1050.01 1325.66 1042.46 1323.95 1033.89 1323.95C1022.43 1323.95 1012.31 1327.05 1003.53 1333.26C994.749 1339.47 987.841 1348.1 982.808 1359.13C977.881 1370.16 975.418 1382.96 975.418 1397.52C975.418 1411.98 977.828 1424.83 982.647 1436.08C987.467 1447.32 994.267 1456.1 1003.05 1462.42C1011.94 1468.74 1022.22 1471.9 1033.89 1471.9C1045.78 1471.9 1056.06 1468.53 1064.74 1461.78C1073.41 1455.03 1078.98 1445.98 1081.44 1434.63H1102.33C1100.83 1445.45 1096.97 1455.09 1090.76 1463.55C1084.66 1472.01 1076.73 1478.7 1066.99 1483.63C1057.35 1488.45 1046.32 1490.86 1033.89 1490.86ZM1155.3 1419.21L1154.98 1391.9H1159.8L1243.82 1307.4H1270L1187.11 1390.77L1185.18 1391.1L1155.3 1419.21ZM1136.35 1487V1247.64H1157.07V1487H1136.35ZM1247.99 1487L1175.22 1394.95L1190.16 1380.49L1274.82 1487H1247.99ZM1348.36 1491.02C1337.54 1491.02 1327.64 1488.93 1318.64 1484.75C1309.64 1480.47 1302.47 1474.31 1297.11 1466.28C1291.87 1458.14 1289.24 1448.28 1289.24 1436.72C1289.24 1427.83 1290.9 1420.39 1294.22 1414.39C1297.54 1408.39 1302.31 1403.46 1308.52 1399.61C1314.73 1395.65 1322.01 1392.54 1330.37 1390.29C1338.83 1387.94 1348.15 1386.17 1358.32 1384.99C1368.39 1383.71 1376.9 1382.63 1383.86 1381.78C1390.82 1380.81 1396.13 1379.31 1399.77 1377.28C1403.41 1375.24 1405.23 1371.98 1405.23 1367.48V1363.3C1405.23 1350.99 1401.59 1341.35 1394.3 1334.39C1387.02 1327.32 1376.58 1323.79 1362.98 1323.79C1350.02 1323.79 1339.47 1326.62 1331.33 1332.3C1323.19 1337.98 1317.52 1344.67 1314.3 1352.38L1294.38 1345.15C1298.45 1335.41 1304.08 1327.59 1311.25 1321.7C1318.43 1315.81 1326.46 1311.58 1335.35 1309.01C1344.24 1306.33 1353.23 1304.99 1362.34 1304.99C1369.19 1304.99 1376.31 1305.9 1383.7 1307.72C1391.09 1309.54 1398 1312.65 1404.43 1317.04C1410.85 1321.43 1416.05 1327.59 1420.01 1335.51C1424.08 1343.33 1426.11 1353.24 1426.11 1365.23V1487H1405.23V1458.57H1403.94C1401.59 1463.81 1397.95 1468.95 1393.02 1473.99C1388.09 1478.91 1381.93 1482.98 1374.55 1486.2C1367.16 1489.41 1358.43 1491.02 1348.36 1491.02ZM1351.25 1472.06C1362.28 1472.06 1371.81 1469.65 1379.85 1464.83C1387.99 1459.9 1394.25 1453.32 1398.64 1445.07C1403.03 1436.83 1405.23 1427.83 1405.23 1418.08V1392.22C1403.62 1393.72 1401 1395.06 1397.36 1396.24C1393.82 1397.41 1389.7 1398.43 1384.99 1399.29C1380.38 1400.14 1375.67 1400.89 1370.85 1401.54C1366.14 1402.18 1361.96 1402.72 1358.32 1403.14C1348.25 1404.43 1339.58 1406.41 1332.3 1409.09C1325.12 1411.76 1319.6 1415.41 1315.75 1420.01C1312 1424.62 1310.13 1430.56 1310.13 1437.84C1310.13 1448.66 1313.98 1457.07 1321.69 1463.06C1329.51 1469.06 1339.36 1472.06 1351.25 1472.06ZM1538.53 1558C1520.21 1558 1505.27 1554.58 1493.71 1547.72C1482.14 1540.87 1473.73 1532.3 1468.48 1522.02L1485.51 1510.78C1487.98 1515.38 1491.4 1519.83 1495.79 1524.11C1500.19 1528.5 1505.86 1532.09 1512.82 1534.87C1519.78 1537.76 1528.35 1539.21 1538.53 1539.21C1554.48 1539.21 1567.33 1535.25 1577.08 1527.32C1586.93 1519.4 1591.86 1507.08 1591.86 1490.37V1449.89H1589.77C1587.42 1455.35 1583.99 1460.81 1579.49 1466.28C1574.99 1471.63 1569.1 1476.13 1561.82 1479.77C1554.54 1483.31 1545.49 1485.07 1534.67 1485.07C1520.32 1485.07 1507.57 1481.54 1496.44 1474.47C1485.41 1467.4 1476.68 1457.28 1470.25 1444.11C1463.93 1430.83 1460.77 1415.08 1460.77 1396.88C1460.77 1378.67 1463.88 1362.71 1470.09 1349.01C1476.3 1335.19 1484.98 1324.43 1496.12 1316.72C1507.25 1308.9 1520.21 1304.99 1534.99 1304.99C1546.02 1304.99 1555.18 1306.97 1562.46 1310.93C1569.74 1314.79 1575.58 1319.55 1579.97 1325.23C1584.36 1330.91 1587.79 1336.42 1590.25 1341.78H1592.5V1307.4H1612.42V1491.66C1612.42 1506.87 1609.21 1519.34 1602.78 1529.09C1596.46 1538.94 1587.74 1546.22 1576.6 1550.94C1565.46 1555.65 1552.77 1558 1538.53 1558ZM1537.24 1466.12C1554.48 1466.12 1567.92 1459.9 1577.56 1447.48C1587.2 1435.06 1592.02 1418.03 1592.02 1396.4C1592.02 1382.37 1589.88 1369.94 1585.59 1359.13C1581.42 1348.2 1575.21 1339.64 1566.96 1333.42C1558.82 1327.11 1548.91 1323.95 1537.24 1323.95C1525.14 1323.95 1514.96 1327.21 1506.72 1333.75C1498.47 1340.17 1492.21 1348.85 1487.92 1359.77C1483.75 1370.69 1481.66 1382.9 1481.66 1396.4C1481.66 1410.1 1483.8 1422.21 1488.08 1432.7C1492.37 1443.2 1498.63 1451.39 1506.88 1457.28C1515.23 1463.17 1525.35 1466.12 1537.24 1466.12ZM1729.33 1490.86C1712.63 1490.86 1698.12 1486.95 1685.8 1479.13C1673.48 1471.2 1664.01 1460.28 1657.37 1446.36C1650.73 1432.43 1647.41 1416.42 1647.41 1398.32C1647.41 1380.22 1650.67 1364.16 1657.2 1350.13C1663.84 1336.1 1673.05 1325.07 1684.84 1317.04C1696.62 1309.01 1710.27 1304.99 1725.8 1304.99C1735.44 1304.99 1744.81 1306.81 1753.91 1310.45C1763.02 1313.99 1771.21 1319.39 1778.49 1326.68C1785.77 1333.96 1791.5 1343.22 1795.68 1354.47C1799.86 1365.61 1801.95 1378.89 1801.95 1394.31V1403.63H1661.7V1385.31H1790.7L1781.22 1392.38C1781.22 1379.31 1778.97 1367.64 1774.48 1357.36C1770.08 1347.08 1763.77 1338.94 1755.52 1332.94C1747.27 1326.94 1737.37 1323.95 1725.8 1323.95C1714.34 1323.95 1704.27 1327 1695.6 1333.1C1686.92 1339.1 1680.18 1347.13 1675.36 1357.2C1670.65 1367.16 1668.29 1378.08 1668.29 1389.97V1400.73C1668.29 1415.08 1670.75 1427.62 1675.68 1438.32C1680.71 1448.93 1687.78 1457.17 1696.88 1463.06C1706.09 1468.95 1716.91 1471.9 1729.33 1471.9C1737.79 1471.9 1745.24 1470.56 1751.66 1467.88C1758.09 1465.21 1763.5 1461.62 1767.89 1457.12C1772.28 1452.51 1775.6 1447.53 1777.85 1442.18L1797.61 1448.77C1794.82 1456.26 1790.33 1463.22 1784.11 1469.65C1778.01 1475.97 1770.3 1481.11 1760.98 1485.07C1751.77 1488.93 1741.22 1490.86 1729.33 1490.86Z" fill="white"/>
<path d="M1194 700C1387.3 700 1544 543.3 1544 350C1544 156.7 1387.3 0 1194 0C1000.7 0 844 156.7 844 350C844 543.3 1000.7 700 1194 700Z" fill="#7AF546"/>
<path d="M1461.77 351.579L1047.45 111.875V591.283L1461.77 351.579Z" fill="black"/>
</svg>
