<?xml version="1.0" encoding="UTF-8"?><svg id="a" xmlns="http://www.w3.org/2000/svg" viewBox="0 0 61.74 18.57"><path d="M6.8,18.57c-1.36,0-2.54-.21-3.54-.63-1-.42-1.78-1.04-2.34-1.84-.56-.81-.87-1.8-.91-2.95h3.12c.05.61.23,1.12.56,1.52.33.4.76.7,1.29.9.54.2,1.14.3,1.79.3s1.29-.11,1.82-.32c.52-.21.93-.5,1.23-.88.3-.38.45-.81.45-1.31,0-.45-.13-.82-.4-1.11-.27-.3-.63-.55-1.1-.75s-1.02-.38-1.65-.54l-1.98-.52c-1.44-.37-2.57-.93-3.4-1.68-.83-.76-1.24-1.77-1.24-3.02,0-1.03.28-1.93.83-2.7.55-.77,1.31-1.38,2.27-1.8.97-.43,2.06-.64,3.28-.64s2.33.21,3.27.64c.94.43,1.67,1.02,2.2,1.78.53.76.81,1.63.83,2.61h-3.06c-.08-.75-.41-1.33-1-1.73-.58-.41-1.34-.62-2.29-.62-.66,0-1.22.1-1.7.29-.47.2-.83.46-1.08.81s-.38.73-.38,1.17c0,.48.14.88.43,1.2.3.3.67.55,1.12.74.46.19.93.34,1.41.47l1.63.41c.66.16,1.29.37,1.9.63.61.26,1.16.59,1.64.98.49.39.88.87,1.16,1.43.29.56.43,1.22.43,1.98,0,1.02-.26,1.91-.79,2.7-.52.77-1.28,1.38-2.26,1.82s-2.17.66-3.56.66ZM20.4,18.56c-1.28,0-2.39-.28-3.33-.84s-1.66-1.35-2.18-2.37c-.51-1.02-.76-2.2-.76-3.54s.25-2.54.76-3.55c.52-1.02,1.24-1.82,2.18-2.38s2.05-.84,3.33-.84,2.39.28,3.33.84,1.66,1.36,2.18,2.38c.52,1.02.77,2.2.77,3.55s-.26,2.52-.77,3.54c-.52,1.02-1.24,1.8-2.18,2.37s-2.05.84-3.33.84ZM20.4,16.08c.71,0,1.3-.19,1.76-.56.46-.38.8-.9,1.03-1.55.23-.65.35-1.37.35-2.16s-.12-1.53-.35-2.18c-.23-.65-.57-1.16-1.03-1.54-.46-.38-1.05-.57-1.76-.57s-1.28.19-1.75.57c-.47.38-.82.89-1.05,1.54-.23.65-.34,1.38-.34,2.18s.11,1.51.34,2.16c.23.65.59,1.16,1.05,1.55.47.38,1.05.56,1.75.56ZM30.99.84v17.46h-3.08V.84h3.08ZM37.62,18.54c-1.02,0-1.95-.26-2.77-.79-.81-.53-1.45-1.3-1.92-2.31-.47-1.01-.7-2.23-.7-3.67s.24-2.69.71-3.69c.48-1,1.13-1.76,1.95-2.27.81-.52,1.72-.77,2.73-.77.77,0,1.41.13,1.9.39.49.26.88.57,1.17.94.3.36.52.7.68,1.01h.13V.84h3.07v17.46h-3.01v-2.07h-.19c-.16.32-.39.66-.69,1.02-.3.35-.69.66-1.18.91-.49.25-1.12.38-1.88.38ZM38.47,16.01c.66,0,1.21-.18,1.66-.53.46-.36.81-.86,1.05-1.49.24-.64.36-1.38.36-2.23s-.12-1.59-.36-2.21c-.23-.63-.58-1.12-1.04-1.46-.45-.34-1.01-.52-1.68-.52s-1.25.18-1.71.54c-.46.36-.81.86-1.04,1.49-.23.63-.34,1.36-.34,2.17s.12,1.54.35,2.18c.23.64.58,1.14,1.03,1.51.46.37,1.03.55,1.71.55ZM46.37,18.3V5.2h3.08v13.1h-3.08ZM47.92,3.36c-.49,0-.91-.16-1.27-.49-.35-.33-.53-.72-.53-1.18s.18-.87.53-1.2c.35-.33.77-.49,1.27-.49s.9.16,1.25.49c.35.33.53.72.53,1.18s-.18.87-.53,1.2c-.35.33-.77.49-1.25.49ZM51.82,18.4c-.27,0-.49-.09-.67-.27-.18-.18-.27-.41-.27-.67s.09-.48.27-.66c.18-.18.41-.28.67-.28s.49.09.67.28c.18.18.28.4.28.66s-.09.48-.28.67c-.18.18-.4.27-.67.27ZM55.73,18.44c-.42,0-.79-.07-1.12-.22-.33-.15-.59-.38-.79-.67-.19-.29-.29-.65-.29-1.08,0-.37.07-.67.21-.91.14-.24.32-.44.56-.58.24-.14.51-.25.8-.33.3-.08.6-.13.92-.16.39-.04.7-.08.94-.11.24-.03.41-.08.52-.15.11-.07.16-.18.16-.33v-.03c0-.32-.09-.56-.28-.74-.19-.18-.46-.26-.82-.26-.38,0-.68.08-.9.25-.22.16-.37.36-.45.58l-1.44-.21c.11-.4.3-.73.56-1,.26-.27.58-.47.96-.6.38-.14.8-.21,1.25-.21.31,0,.62.04.94.11.31.07.6.19.86.36s.47.4.63.69c.16.29.23.65.23,1.08v4.38h-1.48v-.9h-.05c-.09.18-.23.35-.4.51-.17.16-.38.28-.63.38-.25.1-.55.15-.89.15ZM56.12,17.3c.31,0,.58-.06.81-.18.23-.12.4-.29.53-.49.12-.21.19-.43.19-.67v-.77c-.05.04-.13.08-.25.11-.11.03-.24.06-.39.09-.14.03-.29.05-.43.07-.14.02-.26.04-.36.05-.23.03-.44.08-.62.16-.18.07-.32.17-.43.29-.11.12-.16.29-.16.49,0,.29.1.5.31.64.21.14.47.22.79.22ZM60.08,18.3v-6.55h1.54v6.55h-1.54ZM60.85,10.83c-.25,0-.46-.08-.63-.25-.18-.16-.26-.36-.26-.59s.09-.43.26-.6c.18-.16.39-.25.63-.25s.45.08.63.25c.18.16.26.36.26.59s-.09.43-.26.6c-.18.16-.38.25-.63.25Z"/></svg>