<?xml version="1.0" encoding="UTF-8"?><svg id="a" xmlns="http://www.w3.org/2000/svg" viewBox="0 0 400 121.35"><path id="b" d="M366.74,58.88h-13.93c-8.99,0-13.93,6.74-13.93,18.43v41.8h-26.97v-60.22h-11.24c-8.99,0-13.93,6.74-13.93,18.43v41.8h-26.97V36.4h26.97v12.58c4.49-9.89,10.34-12.58,19.33-12.58h32.81v12.58c4.49-9.89,10.34-12.58,19.33-12.58h8.99l-.45,22.47ZM253.48,84.04h-55.73c1.35,9.44,7.19,14.38,16.63,14.38,7.19,0,12.13-3.15,13.93-8.09l23.82,6.74c-5.84,14.38-20.22,22.92-37.75,22.92-29.21,0-42.7-22.92-42.7-42.7s11.69-42.25,40.9-42.25c31.01,0,41.35,23.37,41.35,40.9,0,4.04,0,6.29-.45,8.09ZM227.87,68.31c-.45-7.19-5.84-13.48-14.83-13.48s-13.48,3.6-15.28,13.48h30.11ZM124.94,119.1h23.37l29.66-82.25h-26.97l-14.38,48.09-14.38-48.54h-26.97l29.66,82.7ZM15.28,119.1h26.52v-60.22h25.62v60.22h26.52V36.4h-52.13v-4.94c0-5.39,4.04-8.99,9.89-8.99h15.73V0h-19.78C28.31,0,15.28,12.13,15.28,29.66v6.74H0v22.47h15.28v60.22Z" fill="#000000"/><path id="c" d="M383.37,121.35c8.99,0,16.63-7.64,16.63-16.63s-7.64-16.63-16.63-16.63-16.63,7.64-16.63,16.63,7.64,16.63,16.63,16.63Z" fill="#000000"/></svg>