<svg width="2422" height="700" viewBox="0 0 2422 700" fill="none" xmlns="http://www.w3.org/2000/svg">
<path d="M350 700C543.3 700 700 543.3 700 350C700 156.7 543.3 0 350 0C156.7 0 0 156.7 0 350C0 543.3 156.7 700 350 700Z" fill="#7AF546"/>
<path d="M771.285 60.6396H827.993L882.612 163.773H884.861L939.48 60.6396H996.188L908.958 215.501V300H858.676V215.501L771.285 60.6396ZM1055.27 303.534C1037.17 303.534 1021.48 299.679 1008.2 291.968C995.026 284.15 984.851 273.333 977.676 259.518C970.608 245.595 967.073 229.424 967.073 211.003C967.073 192.368 970.608 176.143 977.676 162.328C984.851 148.405 995.026 137.588 1008.2 129.877C1021.48 122.059 1037.17 118.15 1055.27 118.15C1073.47 118.15 1089.16 122.059 1102.34 129.877C1115.62 137.588 1125.79 148.405 1132.86 162.328C1140.03 176.143 1143.62 192.368 1143.62 211.003C1143.62 229.424 1140.03 245.595 1132.86 259.518C1125.79 273.333 1115.62 284.15 1102.34 291.968C1089.16 299.679 1073.47 303.534 1055.27 303.534ZM1055.59 264.658C1063.83 264.658 1070.74 262.356 1076.31 257.75C1081.88 253.038 1086.06 246.612 1088.84 238.473C1091.73 230.334 1093.18 221.07 1093.18 210.682C1093.18 200.186 1091.73 190.922 1088.84 182.89C1086.06 174.858 1081.88 168.539 1076.31 163.934C1070.74 159.329 1063.83 157.026 1055.59 157.026C1047.24 157.026 1040.22 159.329 1034.54 163.934C1028.98 168.539 1024.74 174.858 1021.85 182.89C1019.07 190.922 1017.68 200.186 1017.68 210.682C1017.68 221.07 1019.07 230.334 1021.85 238.473C1024.74 246.612 1028.98 253.038 1034.54 257.75C1040.22 262.356 1047.24 264.658 1055.59 264.658ZM1279.97 223.694V120.399H1329.61V300H1281.9V267.389H1279.97C1275.9 277.778 1269.21 286.238 1259.89 292.771C1250.57 299.197 1239.17 302.356 1225.67 302.249C1213.68 302.249 1203.08 299.572 1193.87 294.217C1184.76 288.755 1177.64 280.99 1172.5 270.923C1167.47 260.856 1164.95 248.808 1164.95 234.778V120.399H1214.59V226.104C1214.59 236.599 1217.43 244.952 1223.1 251.164C1228.78 257.269 1236.33 260.267 1245.75 260.16C1251.75 260.16 1257.32 258.821 1262.46 256.144C1267.6 253.36 1271.78 249.236 1274.99 243.774C1278.31 238.312 1279.97 231.619 1279.97 223.694ZM1333.27 102.407V60.6396H1529.9V102.407H1456.64V300H1406.68V102.407H1333.27ZM1640.7 223.694V120.399H1690.34V300H1642.63V267.389H1640.7C1636.63 277.778 1629.94 286.238 1620.62 292.771C1611.31 299.197 1599.9 302.356 1586.41 302.249C1574.41 302.249 1563.81 299.572 1554.6 294.217C1545.5 288.755 1538.37 280.99 1533.23 270.923C1528.2 260.856 1525.68 248.808 1525.68 234.778V120.399H1575.32V226.104C1575.32 236.599 1578.16 244.952 1583.84 251.164C1589.51 257.269 1597.06 260.267 1606.49 260.16C1612.48 260.16 1618.05 258.821 1623.19 256.144C1628.33 253.36 1632.51 249.236 1635.72 243.774C1639.04 238.312 1640.7 231.619 1640.7 223.694ZM1821.07 302.892C1811.43 302.892 1803.24 301.285 1796.49 298.072C1789.74 294.859 1784.23 290.843 1779.95 286.024C1775.77 281.097 1772.5 276.171 1770.15 271.245H1767.9V300H1719.06V60.6396H1768.7V150.761H1770.15C1772.4 145.835 1775.61 140.855 1779.79 135.821C1783.96 130.788 1789.42 126.611 1796.17 123.291C1802.92 119.864 1811.27 118.15 1821.23 118.15C1834.4 118.15 1846.45 121.577 1857.38 128.432C1868.41 135.179 1877.24 145.406 1883.88 159.115C1890.52 172.823 1893.84 189.958 1893.84 210.521C1893.84 230.441 1890.63 247.309 1884.2 261.124C1877.78 274.832 1869.05 285.221 1858.02 292.289C1847.1 299.357 1834.78 302.892 1821.07 302.892ZM1805.33 263.373C1813.47 263.373 1820.32 261.124 1825.89 256.626C1831.46 252.128 1835.69 245.916 1838.58 237.991C1841.47 229.959 1842.92 220.749 1842.92 210.36C1842.92 199.972 1841.47 190.869 1838.58 183.051C1835.8 175.126 1831.62 168.914 1826.05 164.416C1820.48 159.918 1813.57 157.669 1805.33 157.669C1797.3 157.669 1790.44 159.864 1784.77 164.255C1779.2 168.539 1774.91 174.644 1771.91 182.569C1769.02 190.387 1767.58 199.651 1767.58 210.36C1767.58 220.963 1769.08 230.227 1772.07 238.152C1775.07 246.077 1779.36 252.289 1784.93 256.787C1790.6 261.178 1797.4 263.373 1805.33 263.373ZM1996.78 303.534C1978.36 303.534 1962.45 299.786 1949.07 292.289C1935.68 284.792 1925.4 274.136 1918.22 260.321C1911.15 246.398 1907.62 229.959 1907.62 211.003C1907.62 192.582 1911.15 176.411 1918.22 162.488C1925.4 148.566 1935.47 137.695 1948.42 129.877C1961.49 122.059 1976.8 118.15 1994.37 118.15C2006.26 118.15 2017.34 120.078 2027.62 123.934C2037.9 127.682 2046.9 133.358 2054.61 140.962C2062.32 148.459 2068.32 157.937 2072.6 169.396C2076.89 180.748 2079.03 194.082 2079.03 209.396V222.891H1927.38V192.208H2054.93L2031.8 200.24C2031.8 191.137 2030.41 183.211 2027.62 176.464C2024.84 169.717 2020.66 164.523 2015.09 160.882C2009.63 157.133 2002.83 155.259 1994.69 155.259C1986.55 155.259 1979.64 157.133 1973.97 160.882C1968.4 164.63 1964.11 169.717 1961.12 176.143C1958.12 182.569 1956.62 189.958 1956.62 198.312V219.999C1956.62 229.745 1958.33 238.098 1961.76 245.06C1965.19 251.914 1969.95 257.215 1976.06 260.963C1982.27 264.605 1989.39 266.425 1997.42 266.425C2002.99 266.425 2008.02 265.622 2012.52 264.016C2017.02 262.409 2020.88 260.053 2024.09 256.947C2027.41 253.841 2029.87 250.093 2031.48 245.702L2077.42 248.754C2075.17 259.785 2070.46 269.424 2063.29 277.67C2056.22 285.81 2047.06 292.182 2035.82 296.787C2024.57 301.285 2011.56 303.534 1996.78 303.534ZM796.988 640H774.016L861.246 400.64H884.54L971.609 640H948.797L873.616 429.074H872.009L796.988 640ZM813.535 548.272H932.251V567.871H813.535V548.272ZM1111.33 571.565V460.399H1132.06V640H1111.33V610.12H1109.73C1105.44 619.33 1098.75 627.041 1089.65 633.253C1080.54 639.357 1069.4 642.356 1056.23 642.249C1044.77 642.249 1034.6 639.786 1025.71 634.859C1016.93 629.826 1009.97 622.436 1004.82 612.69C999.791 602.838 997.275 590.843 997.275 576.706V460.399H1018V575.582C1018 589.504 1022.12 600.749 1030.37 609.317C1038.72 617.885 1049.32 622.115 1062.17 622.008C1070.31 622.008 1078.13 620.08 1085.63 616.225C1093.13 612.369 1099.28 606.693 1104.1 599.196C1108.92 591.7 1111.33 582.489 1111.33 571.565ZM1246.72 460.399V478.552H1161.09V460.399H1246.72ZM1187.92 417.668H1208.65V593.092C1208.65 602.838 1211.06 610.174 1215.87 615.1C1220.69 619.919 1227.39 622.329 1235.95 622.329C1237.88 622.329 1239.81 622.222 1241.74 622.008C1243.77 621.687 1245.91 621.258 1248.16 620.723L1252.66 639.518C1250.2 640.482 1247.36 641.232 1244.15 641.767C1240.93 642.303 1237.61 642.57 1234.19 642.57C1220.91 642.57 1209.88 638.501 1201.1 630.361C1192.31 622.115 1187.92 611.352 1187.92 598.072V417.668ZM1350.94 643.855C1335.41 643.855 1321.7 639.946 1309.81 632.128C1297.93 624.203 1288.61 613.279 1281.86 599.357C1275.22 585.327 1271.9 569.263 1271.9 551.164C1271.9 532.743 1275.22 516.571 1281.86 502.649C1288.61 488.619 1297.93 477.695 1309.81 469.877C1321.7 461.952 1335.41 457.99 1350.94 457.99C1366.47 457.99 1380.12 461.952 1391.9 469.877C1403.79 477.695 1413.11 488.619 1419.86 502.649C1426.6 516.571 1429.98 532.743 1429.98 551.164C1429.98 569.263 1426.6 585.327 1419.86 599.357C1413.22 613.279 1403.95 624.203 1392.06 632.128C1380.18 639.946 1366.47 643.855 1350.94 643.855ZM1350.94 624.899C1363.47 624.899 1374.02 621.579 1382.59 614.939C1391.26 608.192 1397.85 599.196 1402.35 587.951C1406.84 576.706 1409.09 564.444 1409.09 551.164C1409.09 537.669 1406.84 525.3 1402.35 514.055C1397.85 502.81 1391.26 493.813 1382.59 487.066C1373.91 480.319 1363.36 476.946 1350.94 476.946C1338.52 476.946 1327.97 480.373 1319.29 487.227C1310.72 493.974 1304.14 502.97 1299.53 514.215C1295.03 525.353 1292.79 537.669 1292.79 551.164C1292.79 564.444 1295.03 576.706 1299.53 587.951C1304.03 599.196 1310.62 608.192 1319.29 614.939C1327.97 621.579 1338.52 624.899 1350.94 624.899ZM1464.64 640V460.399H1484.72V488.191H1486.81C1490.34 478.874 1496.28 471.537 1504.64 466.183C1513.1 460.828 1523.22 458.15 1535 458.15C1547.32 458.15 1557.44 461.096 1565.36 466.986C1573.29 472.769 1579.23 480.694 1583.19 490.761H1584.8C1588.87 480.908 1595.46 473.037 1604.56 467.146C1613.77 461.149 1624.85 458.15 1637.81 458.15C1654.52 458.15 1667.75 463.398 1677.49 473.894C1687.24 484.389 1692.11 499.65 1692.11 519.677V640H1671.23V519.677C1671.23 505.541 1667.59 494.938 1660.3 487.87C1653.13 480.694 1643.6 477.106 1631.71 477.106C1618 477.106 1607.45 481.39 1600.06 489.958C1592.67 498.419 1588.98 509.075 1588.98 521.926V640H1567.61V517.75C1567.61 505.648 1564.24 495.848 1557.49 488.352C1550.74 480.855 1541.21 477.106 1528.9 477.106C1520.65 477.106 1513.21 479.195 1506.57 483.372C1500.03 487.441 1494.84 493.064 1490.98 500.239C1487.24 507.415 1485.36 515.715 1485.36 525.139V640H1464.64ZM1786.21 644.016C1775.39 644.016 1765.49 641.928 1756.49 637.751C1747.5 633.467 1740.32 627.309 1734.97 619.277C1729.72 611.138 1727.09 601.285 1727.09 589.718C1727.09 580.829 1728.75 573.386 1732.07 567.389C1735.39 561.391 1740.16 556.465 1746.37 552.609C1752.58 548.647 1759.87 545.541 1768.22 543.292C1776.68 540.936 1786 539.169 1796.17 537.991C1806.24 536.706 1814.75 535.635 1821.71 534.778C1828.67 533.814 1833.98 532.315 1837.62 530.28C1841.26 528.245 1843.08 524.979 1843.08 520.48V516.304C1843.08 503.988 1839.44 494.349 1832.16 487.388C1824.87 480.319 1814.43 476.785 1800.83 476.785C1787.87 476.785 1777.32 479.623 1769.18 485.299C1761.04 490.975 1755.37 497.669 1752.15 505.38L1732.23 498.151C1736.3 488.405 1741.93 480.587 1749.1 474.697C1756.28 468.806 1764.31 464.576 1773.2 462.006C1782.09 459.328 1791.08 457.99 1800.19 457.99C1807.04 457.99 1814.16 458.9 1821.55 460.721C1828.94 462.541 1835.85 465.647 1842.28 470.038C1848.7 474.429 1853.9 480.587 1857.86 488.512C1861.93 496.33 1863.96 506.237 1863.96 518.231V640H1843.08V611.566H1841.79C1839.44 616.814 1835.8 621.954 1830.87 626.988C1825.94 631.914 1819.79 635.984 1812.4 639.197C1805.01 642.41 1796.28 644.016 1786.21 644.016ZM1789.1 625.06C1800.13 625.06 1809.66 622.65 1817.7 617.831C1825.84 612.905 1832.1 606.318 1836.49 598.072C1840.88 589.825 1843.08 580.829 1843.08 571.083V545.22C1841.47 546.719 1838.85 548.058 1835.21 549.236C1831.67 550.414 1827.55 551.431 1822.84 552.288C1818.23 553.145 1813.52 553.895 1808.7 554.537C1803.99 555.18 1799.81 555.715 1796.17 556.144C1786.1 557.429 1777.43 559.41 1770.15 562.087C1762.97 564.765 1757.46 568.406 1753.6 573.011C1749.85 577.616 1747.98 583.56 1747.98 590.843C1747.98 601.66 1751.83 610.067 1759.54 616.064C1767.36 622.061 1777.21 625.06 1789.1 625.06ZM1978.46 460.399V478.552H1892.84V460.399H1978.46ZM1919.67 417.668H1940.39V593.092C1940.39 602.838 1942.8 610.174 1947.62 615.1C1952.44 619.919 1959.13 622.329 1967.7 622.329C1969.63 622.329 1971.56 622.222 1973.48 622.008C1975.52 621.687 1977.66 621.258 1979.91 620.723L1984.41 639.518C1981.95 640.482 1979.11 641.232 1975.89 641.767C1972.68 642.303 1969.36 642.57 1965.93 642.57C1952.65 642.57 1941.62 638.501 1932.84 630.361C1924.06 622.115 1919.67 611.352 1919.67 598.072V417.668ZM2014.89 640V460.399H2035.62V640H2014.89ZM2025.34 429.716C2021.05 429.716 2017.36 428.271 2014.25 425.379C2011.25 422.38 2009.75 418.792 2009.75 414.616C2009.75 410.546 2011.25 407.065 2014.25 404.174C2017.36 401.282 2021.05 399.836 2025.34 399.836C2029.62 399.836 2033.26 401.282 2036.26 404.174C2039.26 407.065 2040.76 410.546 2040.76 414.616C2040.76 418.792 2039.26 422.38 2036.26 425.379C2033.26 428.271 2029.62 429.716 2025.34 429.716ZM2149.48 643.855C2133.95 643.855 2120.24 639.946 2108.35 632.128C2096.46 624.203 2087.15 613.279 2080.4 599.357C2073.76 585.327 2070.44 569.263 2070.44 551.164C2070.44 532.743 2073.76 516.571 2080.4 502.649C2087.15 488.619 2096.46 477.695 2108.35 469.877C2120.24 461.952 2133.95 457.99 2149.48 457.99C2165.01 457.99 2178.66 461.952 2190.44 469.877C2202.33 477.695 2211.65 488.619 2218.39 502.649C2225.14 516.571 2228.51 532.743 2228.51 551.164C2228.51 569.263 2225.14 585.327 2218.39 599.357C2211.75 613.279 2202.49 624.203 2190.6 632.128C2178.71 639.946 2165.01 643.855 2149.48 643.855ZM2149.48 624.899C2162.01 624.899 2172.56 621.579 2181.12 614.939C2189.8 608.192 2196.38 599.196 2200.88 587.951C2205.38 576.706 2207.63 564.444 2207.63 551.164C2207.63 537.669 2205.38 525.3 2200.88 514.055C2196.38 502.81 2189.8 493.813 2181.12 487.066C2172.45 480.319 2161.9 476.946 2149.48 476.946C2137.05 476.946 2126.5 480.373 2117.83 487.227C2109.26 493.974 2102.68 502.97 2098.07 514.215C2093.57 525.353 2091.32 537.669 2091.32 551.164C2091.32 564.444 2093.57 576.706 2098.07 587.951C2102.57 599.196 2109.15 608.192 2117.83 614.939C2126.5 621.579 2137.05 624.899 2149.48 624.899ZM2283.9 527.87V640H2263.18V460.399H2283.26V488.833H2285.34C2289.52 479.516 2296.05 472.073 2304.94 466.504C2313.83 460.935 2324.86 458.15 2338.04 458.15C2350.14 458.15 2360.74 460.667 2369.84 465.701C2379.05 470.734 2386.23 478.124 2391.37 487.87C2396.51 497.615 2399.08 509.61 2399.08 523.854V640H2378.36V525.139C2378.36 510.467 2374.23 498.793 2365.99 490.119C2357.74 481.444 2346.71 477.106 2332.9 477.106C2323.47 477.106 2315.06 479.195 2307.67 483.372C2300.28 487.441 2294.45 493.278 2290.16 500.882C2285.99 508.379 2283.9 517.375 2283.9 527.87Z" fill="white"/>
</svg>
