<svg width="3283" height="711" viewBox="0 0 3283 711" fill="none" xmlns="http://www.w3.org/2000/svg">
<path d="M350 700C543.3 700 700 543.3 700 350C700 156.7 543.3 0 350 0C156.7 0 0 156.7 0 350C0 543.3 156.7 700 350 700Z" fill="#7AF546"/>
<path d="M826.547 300H772.41L854.981 60.6396H920.203L1002.61 300H948.637L888.556 115.259H886.628L826.547 300ZM823.334 205.862H951.368V245.381H823.334V205.862ZM1019.12 300V120.399H1066.19V152.368H1068.44C1072.19 141.765 1078.45 133.412 1087.24 127.307C1096.02 121.203 1106.46 118.15 1118.56 118.15C1130.88 118.15 1141.32 121.256 1149.89 127.468C1158.56 133.572 1164.34 141.872 1167.24 152.368H1169.16C1172.81 141.979 1179.45 133.679 1189.08 127.468C1198.72 121.256 1210.08 118.15 1223.14 118.15C1239.85 118.15 1253.45 123.452 1263.94 134.054C1274.55 144.657 1279.85 159.704 1279.85 179.195V300H1230.05V189.155C1230.05 179.088 1227.37 171.591 1222.02 166.665C1216.77 161.739 1210.18 159.275 1202.26 159.275C1193.26 159.275 1186.19 162.167 1181.05 167.95C1176.02 173.626 1173.5 181.123 1173.5 190.44V300H1125.31V187.87C1125.31 179.195 1122.79 172.288 1117.76 167.147C1112.72 161.899 1106.14 159.275 1098 159.275C1092.43 159.275 1087.45 160.668 1083.06 163.452C1078.67 166.237 1075.19 170.092 1072.62 175.019C1070.05 179.838 1068.76 185.621 1068.76 192.368V300H1019.12ZM1359.65 303.374C1348.3 303.374 1338.07 301.392 1328.97 297.43C1319.97 293.36 1312.9 287.363 1307.76 279.438C1302.62 271.512 1300.05 261.66 1300.05 249.879C1300.05 239.812 1301.87 231.458 1305.51 224.818C1309.16 218.071 1314.14 212.609 1320.45 208.433C1326.77 204.256 1333.95 201.097 1341.98 198.955C1350.01 196.813 1358.53 195.313 1367.52 194.457C1377.91 193.493 1386.26 192.529 1392.58 191.565C1398.9 190.601 1403.51 189.155 1406.4 187.228C1409.4 185.193 1410.9 182.301 1410.9 178.553V177.75C1410.9 170.36 1408.54 164.63 1403.83 160.561C1399.22 156.491 1392.69 154.456 1384.23 154.456C1375.34 154.456 1368.22 156.437 1362.86 160.4C1357.62 164.255 1354.14 169.182 1352.42 175.179L1306.32 171.484C1308.67 160.561 1313.28 151.136 1320.13 143.211C1326.99 135.179 1335.82 129.021 1346.64 124.737C1357.56 120.346 1370.2 118.15 1384.55 118.15C1394.51 118.15 1404.04 119.328 1413.15 121.685C1422.25 124.041 1430.33 127.682 1437.4 132.608C1444.58 137.428 1450.25 143.693 1454.43 151.404C1458.61 159.115 1460.7 168.271 1460.7 178.874V300H1413.31V274.939H1412.02C1409.13 280.616 1405.27 285.596 1400.45 289.879C1395.64 294.056 1389.85 297.376 1383.11 299.839C1376.36 302.195 1368.54 303.374 1359.65 303.374ZM1373.95 268.996C1381.23 268.996 1387.66 267.55 1393.23 264.658C1398.9 261.66 1403.29 257.697 1406.4 252.771C1409.61 247.737 1411.22 242.114 1411.22 235.903V216.786C1409.72 217.75 1407.58 218.66 1404.79 219.517C1402.11 220.374 1399.12 221.124 1395.8 221.766C1392.48 222.409 1389.16 222.998 1385.84 223.533C1382.52 223.962 1379.52 224.39 1376.84 224.818C1370.95 225.675 1365.81 227.067 1361.42 228.995C1357.03 230.816 1353.6 233.333 1351.14 236.545C1348.78 239.651 1347.6 243.56 1347.6 248.272C1347.6 255.02 1350.07 260.16 1354.99 263.694C1359.92 267.229 1366.24 268.996 1373.95 268.996ZM1488.13 300V270.281L1576 161.524V160.239H1491.02V120.399H1635.76V153.01L1553.35 258.875V260.16H1638.81V300H1488.13ZM1741.43 303.534C1723.33 303.534 1707.64 299.679 1694.36 291.968C1681.19 284.15 1671.01 273.333 1663.84 259.518C1656.77 245.595 1653.23 229.424 1653.23 211.003C1653.23 192.368 1656.77 176.143 1663.84 162.328C1671.01 148.405 1681.19 137.588 1694.36 129.877C1707.64 122.059 1723.33 118.15 1741.43 118.15C1759.63 118.15 1775.32 122.059 1788.5 129.877C1801.78 137.588 1811.95 148.405 1819.02 162.328C1826.2 176.143 1829.78 192.368 1829.78 211.003C1829.78 229.424 1826.2 245.595 1819.02 259.518C1811.95 273.333 1801.78 284.15 1788.5 291.968C1775.32 299.679 1759.63 303.534 1741.43 303.534ZM1741.75 264.658C1750 264.658 1756.9 262.356 1762.47 257.75C1768.04 253.038 1772.22 246.612 1775 238.473C1777.89 230.334 1779.34 221.07 1779.34 210.682C1779.34 200.186 1777.89 190.922 1775 182.89C1772.22 174.858 1768.04 168.539 1762.47 163.934C1756.9 159.329 1750 157.026 1741.75 157.026C1733.4 157.026 1726.38 159.329 1720.71 163.934C1715.14 168.539 1710.91 174.858 1708.01 182.89C1705.23 190.922 1703.84 200.186 1703.84 210.682C1703.84 221.07 1705.23 230.334 1708.01 238.473C1710.91 246.612 1715.14 253.038 1720.71 257.75C1726.38 262.356 1733.4 264.658 1741.75 264.658ZM1900.75 196.224V300H1851.11V120.399H1899.95V152.368H1901.71C1905.78 141.765 1912.26 133.412 1921.15 127.307C1930.04 121.203 1941.18 118.15 1954.57 118.15C1966.99 118.15 1977.81 120.881 1987.02 126.343C1996.33 131.805 2003.56 139.57 2008.7 149.637C2013.84 159.704 2016.41 171.752 2016.41 185.782V300H1966.78V194.617C1966.78 183.693 1963.94 175.126 1958.26 168.914C1952.59 162.595 1944.77 159.436 1934.81 159.436C1928.17 159.436 1922.28 160.935 1917.14 163.934C1912 166.826 1907.98 171.002 1905.09 176.464C1902.2 181.926 1900.75 188.513 1900.75 196.224ZM2151.92 300H2097.79L2180.36 60.6396H2245.58L2327.99 300H2274.01L2213.93 115.259H2212L2151.92 300ZM2148.71 205.862H2276.74V245.381H2148.71V205.862ZM2438.32 120.399V157.99H2327.63V120.399H2438.32ZM2353.01 300V107.387C2353.01 94.4285 2355.53 83.6654 2360.56 75.0977C2365.7 66.5299 2372.67 60.1042 2381.45 55.8203C2390.34 51.5365 2400.4 49.3945 2411.65 49.3945C2419.36 49.3945 2426.37 50.0371 2432.69 51.3223C2439.12 52.5003 2443.83 53.5177 2446.83 54.3745L2438.15 91.644C2436.12 91.1086 2433.71 90.5731 2430.93 90.0376C2428.14 89.5021 2425.2 89.2344 2422.09 89.2344C2414.81 89.2344 2409.72 90.9479 2406.83 94.375C2403.94 97.695 2402.49 102.407 2402.49 108.512V300H2353.01ZM2554.58 120.399V157.99H2443.9V120.399H2554.58ZM2469.28 300V107.387C2469.28 94.4285 2471.8 83.6654 2476.83 75.0977C2481.97 66.5299 2488.93 60.1042 2497.72 55.8203C2506.61 51.5365 2516.67 49.3945 2527.92 49.3945C2535.63 49.3945 2542.64 50.0371 2548.96 51.3223C2555.39 52.5003 2560.1 53.5177 2563.1 54.3745L2554.42 91.644C2552.39 91.1086 2549.98 90.5731 2547.19 90.0376C2544.41 89.5021 2541.47 89.2344 2538.36 89.2344C2531.08 89.2344 2525.99 90.9479 2523.1 94.375C2520.21 97.695 2518.76 102.407 2518.76 108.512V300H2469.28ZM2573.82 300V120.399H2623.46V300H2573.82ZM2598.56 97.4272C2591.17 97.4272 2584.86 94.964 2579.61 90.0376C2574.36 85.1112 2571.74 79.1673 2571.74 72.2061C2571.74 65.2448 2574.36 59.3545 2579.61 54.5352C2584.86 49.6087 2591.17 47.1455 2598.56 47.1455C2606.06 47.1455 2612.43 49.6087 2617.68 54.5352C2622.93 59.3545 2625.55 65.2448 2625.55 72.2061C2625.55 79.1673 2622.93 85.1112 2617.68 90.0376C2612.43 94.964 2606.06 97.4272 2598.56 97.4272ZM2701.82 60.6396V300H2652.18V60.6396H2701.82ZM2730.54 300V120.399H2780.18V300H2730.54ZM2755.28 97.4272C2747.89 97.4272 2741.57 94.964 2736.32 90.0376C2731.07 85.1112 2728.45 79.1673 2728.45 72.2061C2728.45 65.2448 2731.07 59.3545 2736.32 54.5352C2741.57 49.6087 2747.89 47.1455 2755.28 47.1455C2762.77 47.1455 2769.15 49.6087 2774.39 54.5352C2779.64 59.3545 2782.27 65.2448 2782.27 72.2061C2782.27 79.1673 2779.64 85.1112 2774.39 90.0376C2769.15 94.964 2762.77 97.4272 2755.28 97.4272ZM2859.98 303.374C2848.63 303.374 2838.4 301.392 2829.3 297.43C2820.3 293.36 2813.23 287.363 2808.09 279.438C2802.95 271.512 2800.38 261.66 2800.38 249.879C2800.38 239.812 2802.2 231.458 2805.84 224.818C2809.48 218.071 2814.46 212.609 2820.78 208.433C2827.1 204.256 2834.28 201.097 2842.31 198.955C2850.34 196.813 2858.86 195.313 2867.85 194.457C2878.24 193.493 2886.59 192.529 2892.91 191.565C2899.23 190.601 2903.84 189.155 2906.73 187.228C2909.73 185.193 2911.23 182.301 2911.23 178.553V177.75C2911.23 170.36 2908.87 164.63 2904.16 160.561C2899.55 156.491 2893.02 154.456 2884.56 154.456C2875.67 154.456 2868.55 156.437 2863.19 160.4C2857.95 164.255 2854.47 169.182 2852.75 175.179L2806.65 171.484C2809 160.561 2813.61 151.136 2820.46 143.211C2827.32 135.179 2836.15 129.021 2846.97 124.737C2857.89 120.346 2870.53 118.15 2884.88 118.15C2894.84 118.15 2904.37 119.328 2913.48 121.685C2922.58 124.041 2930.66 127.682 2937.73 132.608C2944.91 137.428 2950.58 143.693 2954.76 151.404C2958.94 159.115 2961.03 168.271 2961.03 178.874V300H2913.64V274.939H2912.35C2909.46 280.616 2905.6 285.596 2900.78 289.879C2895.97 294.056 2890.18 297.376 2883.43 299.839C2876.69 302.195 2868.87 303.374 2859.98 303.374ZM2874.28 268.996C2881.56 268.996 2887.99 267.55 2893.56 264.658C2899.23 261.66 2903.62 257.697 2906.73 252.771C2909.94 247.737 2911.55 242.114 2911.55 235.903V216.786C2910.05 217.75 2907.91 218.66 2905.12 219.517C2902.44 220.374 2899.45 221.124 2896.13 221.766C2892.81 222.409 2889.49 222.998 2886.17 223.533C2882.85 223.962 2879.85 224.39 2877.17 224.818C2871.28 225.675 2866.14 227.067 2861.75 228.995C2857.36 230.816 2853.93 233.333 2851.47 236.545C2849.11 239.651 2847.93 243.56 2847.93 248.272C2847.93 255.02 2850.4 260.16 2855.32 263.694C2860.25 267.229 2866.57 268.996 2874.28 268.996ZM3084.69 120.399V157.99H2976.57V120.399H3084.69ZM3001.15 77.668H3050.79V244.738C3050.79 250.736 3052.13 255.18 3054.81 258.072C3057.48 260.856 3061.77 262.249 3067.66 262.249C3069.58 262.249 3071.73 262.088 3074.08 261.767C3076.44 261.445 3078.47 261.07 3080.19 260.642L3088.06 297.912C3082.6 299.518 3077.3 300.696 3072.15 301.446C3067.12 302.195 3062.14 302.57 3057.21 302.57C3039.33 302.57 3025.51 298.126 3015.77 289.237C3006.02 280.241 3001.15 267.603 3001.15 251.325V77.668ZM3185.53 303.534C3167.11 303.534 3151.21 299.786 3137.82 292.289C3124.43 284.792 3114.15 274.136 3106.98 260.321C3099.91 246.398 3096.37 229.959 3096.37 211.003C3096.37 192.582 3099.91 176.411 3106.98 162.488C3114.15 148.566 3124.22 137.695 3137.18 129.877C3150.24 122.059 3165.56 118.15 3183.12 118.15C3195.01 118.15 3206.09 120.078 3216.38 123.934C3226.66 127.682 3235.65 133.358 3243.36 140.962C3251.08 148.459 3257.07 157.937 3261.36 169.396C3265.64 180.748 3267.78 194.082 3267.78 209.396V222.891H3116.13V192.208H3243.69L3220.55 200.24C3220.55 191.137 3219.16 183.211 3216.38 176.464C3213.59 169.717 3209.41 164.523 3203.85 160.882C3198.38 157.133 3191.58 155.259 3183.44 155.259C3175.3 155.259 3168.4 157.133 3162.72 160.882C3157.15 164.63 3152.87 169.717 3149.87 176.143C3146.87 182.569 3145.37 189.958 3145.37 198.312V219.999C3145.37 229.745 3147.08 238.098 3150.51 245.06C3153.94 251.914 3158.7 257.215 3164.81 260.963C3171.02 264.605 3178.14 266.425 3186.18 266.425C3191.74 266.425 3196.78 265.622 3201.28 264.016C3205.77 262.409 3209.63 260.053 3212.84 256.947C3216.16 253.841 3218.63 250.093 3220.23 245.702L3266.18 248.754C3263.93 259.785 3259.21 269.424 3252.04 277.67C3244.97 285.81 3235.81 292.182 3224.57 296.787C3213.32 301.285 3200.31 303.534 3185.53 303.534ZM796.506 640V400.64H877.471C893 400.64 905.959 403.371 916.347 408.833C926.736 414.294 934.5 421.738 939.641 431.162C944.888 440.587 947.512 451.296 947.512 463.291C947.512 473.251 945.799 481.765 942.372 488.833C939.052 495.902 934.5 501.632 928.717 506.022C923.041 510.413 916.668 513.573 909.6 515.5V517.428C917.418 517.964 924.915 520.695 932.09 525.621C939.266 530.44 945.156 537.241 949.761 546.023C954.473 554.698 956.83 565.086 956.83 577.188C956.83 589.29 954.152 600.053 948.797 609.478C943.443 618.902 935.25 626.345 924.219 631.807C913.188 637.269 899.051 640 881.809 640H796.506ZM818.354 620.401H881.809C900.336 620.401 913.991 616.278 922.773 608.032C931.555 599.785 935.946 589.504 935.946 577.188C935.946 568.085 933.75 559.838 929.359 552.449C924.968 544.952 918.757 539.008 910.725 534.617C902.799 530.226 893.536 528.031 882.933 528.031H818.354V620.401ZM818.354 508.914H879.399C888.823 508.914 897.07 506.933 904.138 502.97C911.314 499.008 916.829 493.599 920.685 486.745C924.647 479.891 926.628 472.073 926.628 463.291C926.628 450.654 922.505 440.372 914.259 432.447C906.119 424.415 893.857 420.399 877.471 420.399H818.354V508.914ZM1066.99 643.855C1050.29 643.855 1035.78 639.946 1023.46 632.128C1011.14 624.203 1001.67 613.279 995.026 599.357C988.386 585.434 985.066 569.424 985.066 551.324C985.066 533.225 988.332 517.16 994.865 503.131C1001.5 489.101 1010.72 478.07 1022.5 470.038C1034.28 462.006 1047.93 457.99 1063.46 457.99C1073.1 457.99 1082.47 459.81 1091.57 463.452C1100.68 466.986 1108.87 472.394 1116.15 479.677C1123.43 486.959 1129.16 496.223 1133.34 507.468C1137.52 518.606 1139.61 531.886 1139.61 547.308V556.625H999.363V538.312H1128.36L1118.88 545.38C1118.88 532.315 1116.63 520.641 1112.14 510.36C1107.74 500.079 1101.43 491.939 1093.18 485.942C1084.93 479.944 1075.03 476.946 1063.46 476.946C1052 476.946 1041.93 479.998 1033.26 486.103C1024.58 492.1 1017.84 500.132 1013.02 510.199C1008.31 520.159 1005.95 531.083 1005.95 542.971V553.734C1005.95 568.085 1008.41 580.615 1013.34 591.325C1018.37 601.927 1025.44 610.174 1034.54 616.064C1043.75 621.954 1054.57 624.899 1066.99 624.899C1075.45 624.899 1082.9 623.561 1089.32 620.883C1095.75 618.206 1101.16 614.618 1105.55 610.12C1109.94 605.515 1113.26 600.535 1115.51 595.18L1135.27 601.767C1132.48 609.263 1127.99 616.225 1121.77 622.65C1115.67 628.969 1107.96 634.11 1098.64 638.072C1089.43 641.928 1078.88 643.855 1066.99 643.855ZM1242.06 711.005C1223.75 711.005 1208.81 707.578 1197.24 700.724C1185.67 693.869 1177.27 685.302 1172.02 675.021L1189.05 663.775C1191.51 668.381 1194.94 672.825 1199.33 677.109C1203.72 681.5 1209.4 685.088 1216.36 687.872C1223.32 690.764 1231.89 692.209 1242.06 692.209C1258.02 692.209 1270.87 688.247 1280.61 680.322C1290.47 672.397 1295.39 660.081 1295.39 643.374V602.891H1293.31C1290.95 608.353 1287.52 613.815 1283.02 619.277C1278.53 624.632 1272.64 629.13 1265.35 632.771C1258.07 636.305 1249.02 638.072 1238.2 638.072C1223.85 638.072 1211.11 634.538 1199.97 627.47C1188.94 620.401 1180.21 610.281 1173.79 597.108C1167.47 583.828 1164.31 568.085 1164.31 549.878C1164.31 531.672 1167.41 515.715 1173.62 502.006C1179.84 488.191 1188.51 477.428 1199.65 469.717C1210.79 461.899 1223.75 457.99 1238.53 457.99C1249.56 457.99 1258.71 459.971 1266 463.934C1273.28 467.789 1279.11 472.555 1283.51 478.231C1287.9 483.907 1291.32 489.423 1293.79 494.777H1296.04V460.399H1315.96V644.659C1315.96 659.866 1312.74 672.343 1306.32 682.089C1300 691.942 1291.27 699.224 1280.13 703.937C1268.99 708.649 1256.3 711.005 1242.06 711.005ZM1240.77 619.116C1258.02 619.116 1271.46 612.905 1281.1 600.481C1290.73 588.058 1295.55 571.03 1295.55 549.396C1295.55 535.367 1293.41 522.944 1289.13 512.127C1284.95 501.203 1278.74 492.635 1270.49 486.424C1262.35 480.105 1252.45 476.946 1240.77 476.946C1228.67 476.946 1218.5 480.212 1210.25 486.745C1202.01 493.171 1195.74 501.846 1191.46 512.77C1187.28 523.693 1185.19 535.902 1185.19 549.396C1185.19 563.105 1187.33 575.207 1191.62 585.702C1195.9 596.198 1202.17 604.39 1210.41 610.281C1218.77 616.171 1228.89 619.116 1240.77 619.116ZM1360.26 640V460.399H1380.98V640H1360.26ZM1370.7 429.716C1366.41 429.716 1362.72 428.271 1359.61 425.379C1356.62 422.38 1355.12 418.792 1355.12 414.616C1355.12 410.546 1356.62 407.065 1359.61 404.174C1362.72 401.282 1366.41 399.836 1370.7 399.836C1374.98 399.836 1378.62 401.282 1381.62 404.174C1384.62 407.065 1386.12 410.546 1386.12 414.616C1386.12 418.792 1384.62 422.38 1381.62 425.379C1378.62 428.271 1374.98 429.716 1370.7 429.716ZM1445.84 527.87V640H1425.12V460.399H1445.2V488.833H1447.29C1451.47 479.516 1458 472.073 1466.89 466.504C1475.78 460.935 1486.81 458.15 1499.98 458.15C1512.08 458.15 1522.68 460.667 1531.79 465.701C1541 470.734 1548.17 478.124 1553.31 487.87C1558.45 497.615 1561.02 509.61 1561.02 523.854V640H1540.3V525.139C1540.3 510.467 1536.18 498.793 1527.93 490.119C1519.69 481.444 1508.65 477.106 1494.84 477.106C1485.41 477.106 1477.01 479.195 1469.62 483.372C1462.23 487.441 1456.39 493.278 1452.11 500.882C1447.93 508.379 1445.84 517.375 1445.84 527.87ZM1625.73 527.87V640H1605V460.399H1625.08V488.833H1627.17C1631.35 479.516 1637.88 472.073 1646.77 466.504C1655.66 460.935 1666.69 458.15 1679.86 458.15C1691.97 458.15 1702.57 460.667 1711.67 465.701C1720.88 470.734 1728.06 478.124 1733.2 487.87C1738.34 497.615 1740.91 509.61 1740.91 523.854V640H1720.19V525.139C1720.19 510.467 1716.06 498.793 1707.82 490.119C1699.57 481.444 1688.54 477.106 1674.72 477.106C1665.3 477.106 1656.89 479.195 1649.5 483.372C1642.11 487.441 1636.28 493.278 1631.99 500.882C1627.82 508.379 1625.73 517.375 1625.73 527.87ZM1857.5 643.855C1840.79 643.855 1826.28 639.946 1813.96 632.128C1801.65 624.203 1792.17 613.279 1785.53 599.357C1778.89 585.434 1775.57 569.424 1775.57 551.324C1775.57 533.225 1778.84 517.16 1785.37 503.131C1792.01 489.101 1801.22 478.07 1813 470.038C1824.78 462.006 1838.44 457.99 1853.97 457.99C1863.6 457.99 1872.97 459.81 1882.08 463.452C1891.18 466.986 1899.37 472.394 1906.66 479.677C1913.94 486.959 1919.67 496.223 1923.85 507.468C1928.02 518.606 1930.11 531.886 1930.11 547.308V556.625H1789.87V538.312H1918.87L1909.39 545.38C1909.39 532.315 1907.14 520.641 1902.64 510.36C1898.25 500.079 1891.93 491.939 1883.68 485.942C1875.44 479.944 1865.53 476.946 1853.97 476.946C1842.51 476.946 1832.44 479.998 1823.76 486.103C1815.09 492.1 1808.34 500.132 1803.52 510.199C1798.81 520.159 1796.45 531.083 1796.45 542.971V553.734C1796.45 568.085 1798.92 580.615 1803.84 591.325C1808.88 601.927 1815.95 610.174 1825.05 616.064C1834.26 621.954 1845.08 624.899 1857.5 624.899C1865.96 624.899 1873.4 623.561 1879.83 620.883C1886.25 618.206 1891.66 614.618 1896.05 610.12C1900.45 605.515 1903.77 600.535 1906.01 595.18L1925.77 601.767C1922.99 609.263 1918.49 616.225 1912.28 622.65C1906.17 628.969 1898.46 634.11 1889.15 638.072C1879.94 641.928 1869.39 643.855 1857.5 643.855ZM1964.13 640V460.399H1984.21V488.191H1985.82C1989.46 479.088 1995.72 471.805 2004.61 466.343C2013.61 460.774 2023.73 457.99 2034.97 457.99C2036.69 457.99 2038.56 457.99 2040.6 457.99C2042.74 457.99 2044.51 458.043 2045.9 458.15V479.195C2045.04 479.088 2043.43 478.927 2041.08 478.713C2038.72 478.392 2036.1 478.231 2033.21 478.231C2024 478.231 2015.7 480.212 2008.31 484.175C2001.02 488.137 1995.3 493.599 1991.12 500.561C1986.94 507.415 1984.85 515.286 1984.85 524.175V640H1964.13ZM2198.28 640L2132.89 400.64H2155.06L2209.36 606.586H2211.13L2265.42 400.64H2290.81L2344.78 606.586H2346.87L2401.01 400.64H2423.18L2357.63 640H2334.18L2278.92 437.106H2277.31L2221.89 640H2198.28ZM2504.1 643.855C2487.4 643.855 2472.89 639.946 2460.57 632.128C2448.25 624.203 2438.78 613.279 2432.14 599.357C2425.5 585.434 2422.18 569.424 2422.18 551.324C2422.18 533.225 2425.44 517.16 2431.98 503.131C2438.62 489.101 2447.83 478.07 2459.61 470.038C2471.39 462.006 2485.04 457.99 2500.57 457.99C2510.21 457.99 2519.58 459.81 2528.68 463.452C2537.79 466.986 2545.98 472.394 2553.26 479.677C2560.54 486.959 2566.27 496.223 2570.45 507.468C2574.63 518.606 2576.72 531.886 2576.72 547.308V556.625H2436.47V538.312H2565.47L2555.99 545.38C2555.99 532.315 2553.74 520.641 2549.25 510.36C2544.85 500.079 2538.54 491.939 2530.29 485.942C2522.04 479.944 2512.14 476.946 2500.57 476.946C2489.11 476.946 2479.04 479.998 2470.37 486.103C2461.69 492.1 2454.95 500.132 2450.13 510.199C2445.42 520.159 2443.06 531.083 2443.06 542.971V553.734C2443.06 568.085 2445.52 580.615 2450.45 591.325C2455.48 601.927 2462.55 610.174 2471.65 616.064C2480.86 621.954 2491.68 624.899 2504.1 624.899C2512.57 624.899 2520.01 623.561 2526.43 620.883C2532.86 618.206 2538.27 614.618 2542.66 610.12C2547.05 605.515 2550.37 600.535 2552.62 595.18L2572.38 601.767C2569.59 609.263 2565.1 616.225 2558.88 622.65C2552.78 628.969 2545.07 634.11 2535.75 638.072C2526.54 641.928 2515.99 643.855 2504.1 643.855ZM2688.49 643.855C2677.67 643.855 2668.57 641.928 2661.18 638.072C2653.9 634.11 2648 629.237 2643.51 623.454C2639.12 617.67 2635.69 612.048 2633.23 606.586H2630.82V640H2610.74V400.64H2631.46V494.777H2633.23C2635.69 489.423 2639.12 483.907 2643.51 478.231C2647.9 472.555 2653.73 467.789 2661.02 463.934C2668.3 459.971 2677.4 457.99 2688.33 457.99C2703.11 457.99 2716.01 461.899 2727.04 469.717C2738.18 477.428 2746.85 488.244 2753.07 502.167C2759.28 516.09 2762.38 532.261 2762.38 550.682C2762.38 569.209 2759.28 585.488 2753.07 599.518C2746.96 613.547 2738.34 624.471 2727.2 632.289C2716.17 640 2703.27 643.855 2688.49 643.855ZM2686.24 624.899C2698.02 624.899 2708.03 621.579 2716.28 614.939C2724.53 608.299 2730.79 599.357 2735.07 588.112C2739.36 576.867 2741.5 564.336 2741.5 550.521C2741.5 536.706 2739.36 524.282 2735.07 513.251C2730.79 502.113 2724.58 493.278 2716.44 486.745C2708.3 480.212 2698.23 476.946 2686.24 476.946C2674.46 476.946 2664.5 480.105 2656.36 486.424C2648.22 492.635 2642.01 501.257 2637.72 512.288C2633.44 523.319 2631.3 536.063 2631.3 550.521C2631.3 564.872 2633.44 577.67 2637.72 588.915C2642.01 600.053 2648.22 608.835 2656.36 615.261C2664.6 621.687 2674.56 624.899 2686.24 624.899ZM2917.53 500.079L2898.57 505.219C2895.79 497.187 2891.13 490.386 2884.6 484.817C2878.17 479.141 2868.91 476.303 2856.81 476.303C2844.7 476.303 2834.74 479.248 2826.93 485.139C2819.11 490.922 2815.2 498.365 2815.2 507.468C2815.2 515.072 2817.82 521.337 2823.07 526.264C2828.42 531.083 2836.67 534.885 2847.81 537.669L2874.96 544.256C2889.95 548.004 2901.2 553.841 2908.69 561.766C2916.3 569.584 2920.1 579.491 2920.1 591.485C2920.1 601.552 2917.26 610.549 2911.59 618.474C2906.02 626.399 2898.25 632.61 2888.29 637.108C2878.33 641.606 2866.77 643.855 2853.59 643.855C2836.03 643.855 2821.57 639.893 2810.22 631.968C2798.87 623.936 2791.58 612.476 2788.37 597.59L2808.29 592.771C2810.75 603.373 2815.79 611.405 2823.39 616.867C2831 622.329 2840.96 625.06 2853.27 625.06C2866.98 625.06 2878.01 621.954 2886.36 615.743C2894.72 609.531 2898.89 601.82 2898.89 592.61C2898.89 577.831 2889.09 568.031 2869.5 563.212L2840.26 556.144C2824.62 552.395 2813.06 546.505 2805.56 538.473C2798.06 530.44 2794.31 520.427 2794.31 508.432C2794.31 498.579 2796.99 489.851 2802.35 482.247C2807.81 474.643 2815.25 468.699 2824.68 464.416C2834.1 460.132 2844.81 457.99 2856.81 457.99C2873.3 457.99 2886.47 461.792 2896.32 469.396C2906.18 476.892 2913.25 487.12 2917.53 500.079ZM2954.76 640V460.399H2975.48V640H2954.76ZM2965.2 429.716C2960.92 429.716 2957.22 428.271 2954.12 425.379C2951.12 422.38 2949.62 418.792 2949.62 414.616C2949.62 410.546 2951.12 407.065 2954.12 404.174C2957.22 401.282 2960.92 399.836 2965.2 399.836C2969.49 399.836 2973.13 401.282 2976.13 404.174C2979.13 407.065 2980.62 410.546 2980.62 414.616C2980.62 418.792 2979.13 422.38 2976.13 425.379C2973.13 428.271 2969.49 429.716 2965.2 429.716ZM3090.15 460.399V478.552H3004.52V460.399H3090.15ZM3031.35 417.668H3052.07V593.092C3052.07 602.838 3054.48 610.174 3059.3 615.1C3064.12 619.919 3070.82 622.329 3079.38 622.329C3081.31 622.329 3083.24 622.222 3085.17 622.008C3087.2 621.687 3089.34 621.258 3091.59 620.723L3096.09 639.518C3093.63 640.482 3090.79 641.232 3087.58 641.767C3084.36 642.303 3081.04 642.57 3077.62 642.57C3064.34 642.57 3053.31 638.501 3044.52 630.361C3035.74 622.115 3031.35 611.352 3031.35 598.072V417.668ZM3197.26 643.855C3180.55 643.855 3166.04 639.946 3153.72 632.128C3141.41 624.203 3131.93 613.279 3125.29 599.357C3118.65 585.434 3115.33 569.424 3115.33 551.324C3115.33 533.225 3118.6 517.16 3125.13 503.131C3131.77 489.101 3140.98 478.07 3152.76 470.038C3164.54 462.006 3178.2 457.99 3193.73 457.99C3203.36 457.99 3212.73 459.81 3221.84 463.452C3230.94 466.986 3239.13 472.394 3246.42 479.677C3253.7 486.959 3259.43 496.223 3263.61 507.468C3267.78 518.606 3269.87 531.886 3269.87 547.308V556.625H3129.63V538.312H3258.63L3249.15 545.38C3249.15 532.315 3246.9 520.641 3242.4 510.36C3238.01 500.079 3231.69 491.939 3223.44 485.942C3215.2 479.944 3205.29 476.946 3193.73 476.946C3182.27 476.946 3172.2 479.998 3163.52 486.103C3154.85 492.1 3148.1 500.132 3143.28 510.199C3138.57 520.159 3136.21 531.083 3136.21 542.971V553.734C3136.21 568.085 3138.68 580.615 3143.6 591.325C3148.64 601.927 3155.71 610.174 3164.81 616.064C3174.02 621.954 3184.84 624.899 3197.26 624.899C3205.72 624.899 3213.16 623.561 3219.59 620.883C3226.01 618.206 3231.42 614.618 3235.81 610.12C3240.21 605.515 3243.53 600.535 3245.77 595.18L3265.53 601.767C3262.75 609.263 3258.25 616.225 3252.04 622.65C3245.93 628.969 3238.22 634.11 3228.91 638.072C3219.7 641.928 3209.15 643.855 3197.26 643.855Z" fill="black"/>
<g clip-path="url(#clip0_1249_48)">
<path d="M530.439 503.675C328.04 600 202.429 519.407 122.021 470.457C117.045 467.372 108.589 471.178 115.926 479.606C142.714 512.087 230.503 590.375 345.094 590.375C459.763 590.375 527.981 527.806 536.515 516.892C544.991 506.069 539.003 500.099 530.437 503.675H530.439ZM587.282 472.282C581.847 465.205 554.232 463.885 536.853 466.02C519.447 468.094 493.321 478.731 495.592 485.119C496.758 487.511 499.137 486.438 511.094 485.363C523.084 484.167 556.673 479.928 563.672 489.077C570.703 498.289 552.959 542.175 549.718 549.253C546.587 556.331 550.914 558.156 556.796 553.442C562.597 548.73 573.098 536.527 580.145 519.257C587.144 501.894 591.413 477.672 587.282 472.282Z" fill="black"/>
<path fill-rule="evenodd" clip-rule="evenodd" d="M394.348 307.125C394.348 332.399 394.986 353.476 382.212 375.921C371.901 394.172 355.568 405.394 337.32 405.394C312.409 405.394 297.901 386.415 297.901 358.404C297.901 303.109 347.446 293.073 394.348 293.073V307.125ZM459.769 465.251C455.48 469.082 449.275 469.357 444.44 466.801C422.907 448.919 419.074 440.616 407.213 423.552C371.628 459.868 346.444 470.725 300.275 470.725C245.711 470.725 203.19 437.056 203.19 369.626C203.19 316.98 231.751 281.12 272.352 263.602C307.574 248.089 356.755 245.352 394.348 241.065V232.67C394.348 217.249 395.532 199 386.5 185.679C378.561 173.726 363.415 168.799 350.092 168.799C325.366 168.799 303.285 181.481 297.901 207.759C296.805 213.6 292.518 219.349 286.679 219.622L223.72 212.871C218.429 211.683 212.589 207.395 214.049 199.273C228.557 122.995 297.444 100 359.124 100C390.695 100 431.937 108.395 456.847 132.302C488.418 161.773 485.407 201.099 485.407 243.892V344.991C485.407 375.375 497.998 388.696 509.859 405.121C514.056 410.96 514.97 417.988 509.677 422.365C496.446 433.405 472.905 453.936 459.95 465.434L459.767 465.251" fill="black"/>
<path d="M530.439 503.675C328.04 600 202.429 519.407 122.021 470.457C117.045 467.372 108.589 471.178 115.926 479.606C142.714 512.087 230.503 590.375 345.094 590.375C459.763 590.375 527.981 527.806 536.515 516.892C544.991 506.069 539.003 500.099 530.437 503.675H530.439ZM587.282 472.282C581.847 465.205 554.232 463.885 536.853 466.02C519.447 468.094 493.321 478.731 495.592 485.119C496.758 487.511 499.137 486.438 511.094 485.363C523.084 484.167 556.673 479.928 563.672 489.077C570.703 498.289 552.959 542.175 549.718 549.253C546.587 556.331 550.914 558.156 556.796 553.442C562.597 548.73 573.098 536.527 580.145 519.257C587.144 501.894 591.413 477.672 587.282 472.282Z" fill="black"/>
<path fill-rule="evenodd" clip-rule="evenodd" d="M394.348 307.125C394.348 332.399 394.986 353.476 382.212 375.921C371.901 394.172 355.568 405.394 337.32 405.394C312.409 405.394 297.901 386.415 297.901 358.404C297.901 303.109 347.446 293.073 394.348 293.073V307.125ZM459.769 465.251C455.48 469.082 449.275 469.357 444.44 466.801C422.907 448.919 419.074 440.616 407.213 423.552C371.628 459.868 346.444 470.725 300.275 470.725C245.711 470.725 203.19 437.056 203.19 369.626C203.19 316.98 231.751 281.12 272.352 263.602C307.574 248.089 356.755 245.352 394.348 241.065V232.67C394.348 217.249 395.532 199 386.5 185.679C378.561 173.726 363.415 168.799 350.092 168.799C325.366 168.799 303.285 181.481 297.901 207.759C296.805 213.6 292.518 219.349 286.679 219.622L223.72 212.871C218.429 211.683 212.589 207.395 214.049 199.273C228.557 122.995 297.444 100 359.124 100C390.695 100 431.937 108.395 456.847 132.302C488.418 161.773 485.407 201.099 485.407 243.892V344.991C485.407 375.375 497.998 388.696 509.859 405.121C514.056 410.96 514.97 417.988 509.677 422.365C496.446 433.405 472.905 453.936 459.95 465.434L459.767 465.251" fill="black"/>
</g>
<defs>
<clipPath id="clip0_1249_48">
<rect width="500" height="500" fill="white" transform="translate(100 100)"/>
</clipPath>
</defs>
</svg>
