<svg width="2686" height="700" viewBox="0 0 2686 700" fill="none" xmlns="http://www.w3.org/2000/svg">
<path d="M350 700C543.3 700 700 543.3 700 350C700 156.7 543.3 0 350 0C156.7 0 0 156.7 0 350C0 543.3 156.7 700 350 700Z" fill="#7AF546"/>
<path d="M336.257 622.545V77.0908H364.169V622.545H336.257ZM456.214 240.727C453.8 216.437 443.075 197.119 424.041 182.773C405.007 168.426 381.072 161.253 352.237 161.253C331.925 161.253 314.027 164.733 298.544 171.693C283.203 178.653 271.129 188.312 262.322 200.67C253.658 212.886 249.325 226.807 249.325 242.432C249.325 253.938 251.811 264.023 256.783 272.688C261.754 281.352 268.43 288.81 276.811 295.06C285.334 301.168 294.709 306.423 304.936 310.827C315.305 315.23 325.746 318.923 336.257 321.906L382.28 335.116C396.2 338.952 410.121 343.852 424.041 349.818C437.962 355.784 450.675 363.312 462.18 372.403C473.828 381.352 483.132 392.361 490.092 405.429C497.195 418.355 500.746 433.909 500.746 452.091C500.746 475.386 494.709 496.338 482.635 514.946C470.561 533.554 453.232 548.327 430.646 559.264C408.061 570.06 381.001 575.457 349.467 575.457C319.78 575.457 293.999 570.557 272.124 560.756C250.249 550.812 233.061 537.105 220.561 519.634C208.061 502.162 201.03 481.92 199.467 458.909H240.376C241.797 476.097 247.479 490.656 257.422 502.588C267.365 514.52 280.291 523.611 296.2 529.861C312.109 535.969 329.865 539.023 349.467 539.023C371.2 539.023 390.518 535.401 407.422 528.156C424.467 520.77 437.82 510.543 447.479 497.474C457.28 484.264 462.18 468.923 462.18 451.452C462.18 436.679 458.345 424.321 450.675 414.378C443.004 404.293 432.28 395.841 418.501 389.023C404.865 382.205 389.027 376.168 370.987 370.912L318.786 355.571C284.553 345.344 257.99 331.21 239.098 313.17C220.206 295.131 210.76 272.119 210.76 244.136C210.76 220.699 217.01 200.102 229.51 182.347C242.152 164.449 259.197 150.528 280.646 140.585C302.237 130.5 326.456 125.457 353.303 125.457C380.433 125.457 404.439 130.429 425.32 140.372C446.2 150.315 462.749 164.023 474.965 181.494C487.322 198.824 493.928 218.568 494.78 240.727H456.214Z" fill="black"/>
<path d="M771.285 60.6396H827.993L882.612 163.773H884.861L939.48 60.6396H996.188L908.958 215.501V300H858.676V215.501L771.285 60.6396ZM1055.27 303.534C1037.17 303.534 1021.48 299.679 1008.2 291.968C995.026 284.15 984.851 273.333 977.676 259.518C970.608 245.595 967.073 229.424 967.073 211.003C967.073 192.368 970.608 176.143 977.676 162.328C984.851 148.405 995.026 137.588 1008.2 129.877C1021.48 122.059 1037.17 118.15 1055.27 118.15C1073.47 118.15 1089.16 122.059 1102.34 129.877C1115.62 137.588 1125.79 148.405 1132.86 162.328C1140.03 176.143 1143.62 192.368 1143.62 211.003C1143.62 229.424 1140.03 245.595 1132.86 259.518C1125.79 273.333 1115.62 284.15 1102.34 291.968C1089.16 299.679 1073.47 303.534 1055.27 303.534ZM1055.59 264.658C1063.83 264.658 1070.74 262.356 1076.31 257.75C1081.88 253.038 1086.06 246.612 1088.84 238.473C1091.73 230.334 1093.18 221.07 1093.18 210.682C1093.18 200.186 1091.73 190.922 1088.84 182.89C1086.06 174.858 1081.88 168.539 1076.31 163.934C1070.74 159.329 1063.83 157.026 1055.59 157.026C1047.24 157.026 1040.22 159.329 1034.54 163.934C1028.98 168.539 1024.74 174.858 1021.85 182.89C1019.07 190.922 1017.68 200.186 1017.68 210.682C1017.68 221.07 1019.07 230.334 1021.85 238.473C1024.74 246.612 1028.98 253.038 1034.54 257.75C1040.22 262.356 1047.24 264.658 1055.59 264.658ZM1279.97 223.694V120.399H1329.61V300H1281.9V267.389H1279.97C1275.9 277.778 1269.21 286.238 1259.89 292.771C1250.57 299.197 1239.17 302.356 1225.67 302.249C1213.68 302.249 1203.08 299.572 1193.87 294.217C1184.76 288.755 1177.64 280.99 1172.5 270.923C1167.47 260.856 1164.95 248.808 1164.95 234.778V120.399H1214.59V226.104C1214.59 236.599 1217.43 244.952 1223.1 251.164C1228.78 257.269 1236.33 260.267 1245.75 260.16C1251.75 260.16 1257.32 258.821 1262.46 256.144C1267.6 253.36 1271.78 249.236 1274.99 243.774C1278.31 238.312 1279.97 231.619 1279.97 223.694ZM1333.27 102.407V60.6396H1529.9V102.407H1456.64V300H1406.68V102.407H1333.27ZM1640.7 223.694V120.399H1690.34V300H1642.63V267.389H1640.7C1636.63 277.778 1629.94 286.238 1620.62 292.771C1611.31 299.197 1599.9 302.356 1586.41 302.249C1574.41 302.249 1563.81 299.572 1554.6 294.217C1545.5 288.755 1538.37 280.99 1533.23 270.923C1528.2 260.856 1525.68 248.808 1525.68 234.778V120.399H1575.32V226.104C1575.32 236.599 1578.16 244.952 1583.84 251.164C1589.51 257.269 1597.06 260.267 1606.49 260.16C1612.48 260.16 1618.05 258.821 1623.19 256.144C1628.33 253.36 1632.51 249.236 1635.72 243.774C1639.04 238.312 1640.7 231.619 1640.7 223.694ZM1821.07 302.892C1811.43 302.892 1803.24 301.285 1796.49 298.072C1789.74 294.859 1784.23 290.843 1779.95 286.024C1775.77 281.097 1772.5 276.171 1770.15 271.245H1767.9V300H1719.06V60.6396H1768.7V150.761H1770.15C1772.4 145.835 1775.61 140.855 1779.79 135.821C1783.96 130.788 1789.42 126.611 1796.17 123.291C1802.92 119.864 1811.27 118.15 1821.23 118.15C1834.4 118.15 1846.45 121.577 1857.38 128.432C1868.41 135.179 1877.24 145.406 1883.88 159.115C1890.52 172.823 1893.84 189.958 1893.84 210.521C1893.84 230.441 1890.63 247.309 1884.2 261.124C1877.78 274.832 1869.05 285.221 1858.02 292.289C1847.1 299.357 1834.78 302.892 1821.07 302.892ZM1805.33 263.373C1813.47 263.373 1820.32 261.124 1825.89 256.626C1831.46 252.128 1835.69 245.916 1838.58 237.991C1841.47 229.959 1842.92 220.749 1842.92 210.36C1842.92 199.972 1841.47 190.869 1838.58 183.051C1835.8 175.126 1831.62 168.914 1826.05 164.416C1820.48 159.918 1813.57 157.669 1805.33 157.669C1797.3 157.669 1790.44 159.864 1784.77 164.255C1779.2 168.539 1774.91 174.644 1771.91 182.569C1769.02 190.387 1767.58 199.651 1767.58 210.36C1767.58 220.963 1769.08 230.227 1772.07 238.152C1775.07 246.077 1779.36 252.289 1784.93 256.787C1790.6 261.178 1797.4 263.373 1805.33 263.373ZM1996.78 303.534C1978.36 303.534 1962.45 299.786 1949.07 292.289C1935.68 284.792 1925.4 274.136 1918.22 260.321C1911.15 246.398 1907.62 229.959 1907.62 211.003C1907.62 192.582 1911.15 176.411 1918.22 162.488C1925.4 148.566 1935.47 137.695 1948.42 129.877C1961.49 122.059 1976.8 118.15 1994.37 118.15C2006.26 118.15 2017.34 120.078 2027.62 123.934C2037.9 127.682 2046.9 133.358 2054.61 140.962C2062.32 148.459 2068.32 157.937 2072.6 169.396C2076.89 180.748 2079.03 194.082 2079.03 209.396V222.891H1927.38V192.208H2054.93L2031.8 200.24C2031.8 191.137 2030.41 183.211 2027.62 176.464C2024.84 169.717 2020.66 164.523 2015.09 160.882C2009.63 157.133 2002.83 155.259 1994.69 155.259C1986.55 155.259 1979.64 157.133 1973.97 160.882C1968.4 164.63 1964.11 169.717 1961.12 176.143C1958.12 182.569 1956.62 189.958 1956.62 198.312V219.999C1956.62 229.745 1958.33 238.098 1961.76 245.06C1965.19 251.914 1969.95 257.215 1976.06 260.963C1982.27 264.605 1989.39 266.425 1997.42 266.425C2002.99 266.425 2008.02 265.622 2012.52 264.016C2017.02 262.409 2020.88 260.053 2024.09 256.947C2027.41 253.841 2029.87 250.093 2031.48 245.702L2077.42 248.754C2075.17 259.785 2070.46 269.424 2063.29 277.67C2056.22 285.81 2047.06 292.182 2035.82 296.787C2024.57 301.285 2011.56 303.534 1996.78 303.534ZM796.506 400.64H821.888L908.636 608.996H910.885L997.633 400.64H1023.66V640H1002.29V446.745H1000.52L919.399 640H899.64L819.157 446.745H817.39V640H796.506V400.64ZM1141.85 643.855C1126.33 643.855 1112.62 639.946 1100.73 632.128C1088.84 624.203 1079.52 613.279 1072.78 599.357C1066.14 585.327 1062.82 569.263 1062.82 551.164C1062.82 532.743 1066.14 516.571 1072.78 502.649C1079.52 488.619 1088.84 477.695 1100.73 469.877C1112.62 461.952 1126.33 457.99 1141.85 457.99C1157.38 457.99 1171.04 461.952 1182.82 469.877C1194.71 477.695 1204.02 488.619 1210.77 502.649C1217.52 516.571 1220.89 532.743 1220.89 551.164C1220.89 569.263 1217.52 585.327 1210.77 599.357C1204.13 613.279 1194.87 624.203 1182.98 632.128C1171.09 639.946 1157.38 643.855 1141.85 643.855ZM1141.85 624.899C1154.38 624.899 1164.93 621.579 1173.5 614.939C1182.18 608.192 1188.76 599.196 1193.26 587.951C1197.76 576.706 1200.01 564.444 1200.01 551.164C1200.01 537.669 1197.76 525.3 1193.26 514.055C1188.76 502.81 1182.18 493.813 1173.5 487.066C1164.83 480.319 1154.28 476.946 1141.85 476.946C1129.43 476.946 1118.88 480.373 1110.21 487.227C1101.64 493.974 1095.05 502.97 1090.45 514.215C1085.95 525.353 1083.7 537.669 1083.7 551.164C1083.7 564.444 1085.95 576.706 1090.45 587.951C1094.95 599.196 1101.53 608.192 1110.21 614.939C1118.88 621.579 1129.43 624.899 1141.85 624.899ZM1276.28 527.87V640H1255.55V460.399H1275.63V488.833H1277.72C1281.9 479.516 1288.43 472.073 1297.32 466.504C1306.21 460.935 1317.24 458.15 1330.41 458.15C1342.52 458.15 1353.12 460.667 1362.22 465.701C1371.43 470.734 1378.61 478.124 1383.75 487.87C1388.89 497.615 1391.46 509.61 1391.46 523.854V640H1370.74V525.139C1370.74 510.467 1366.61 498.793 1358.37 490.119C1350.12 481.444 1339.09 477.106 1325.27 477.106C1315.85 477.106 1307.44 479.195 1300.05 483.372C1292.66 487.441 1286.83 493.278 1282.54 500.882C1278.37 508.379 1276.28 517.375 1276.28 527.87ZM1508.05 643.855C1491.34 643.855 1476.83 639.946 1464.51 632.128C1452.2 624.203 1442.72 613.279 1436.08 599.357C1429.44 585.434 1426.12 569.424 1426.12 551.324C1426.12 533.225 1429.39 517.16 1435.92 503.131C1442.56 489.101 1451.77 478.07 1463.55 470.038C1475.33 462.006 1488.99 457.99 1504.52 457.99C1514.15 457.99 1523.52 459.81 1532.63 463.452C1541.73 466.986 1549.92 472.394 1557.21 479.677C1564.49 486.959 1570.22 496.223 1574.4 507.468C1578.57 518.606 1580.66 531.886 1580.66 547.308V556.625H1440.42V538.312H1569.42L1559.94 545.38C1559.94 532.315 1557.69 520.641 1553.19 510.36C1548.8 500.079 1542.48 491.939 1534.23 485.942C1525.99 479.944 1516.08 476.946 1504.52 476.946C1493.06 476.946 1482.99 479.998 1474.31 486.103C1465.64 492.1 1458.89 500.132 1454.07 510.199C1449.36 520.159 1447 531.083 1447 542.971V553.734C1447 568.085 1449.47 580.615 1454.39 591.325C1459.43 601.927 1466.5 610.174 1475.6 616.064C1484.81 621.954 1495.63 624.899 1508.05 624.899C1516.51 624.899 1523.95 623.561 1530.38 620.883C1536.8 618.206 1542.21 614.618 1546.6 610.12C1551 605.515 1554.32 600.535 1556.56 595.18L1576.32 601.767C1573.54 609.263 1569.04 616.225 1562.83 622.65C1556.72 628.969 1549.01 634.11 1539.7 638.072C1530.49 641.928 1519.94 643.855 1508.05 643.855ZM1685.2 460.399V478.552H1599.58V460.399H1685.2ZM1626.41 417.668H1647.13V593.092C1647.13 602.838 1649.54 610.174 1654.36 615.1C1659.18 619.919 1665.87 622.329 1674.44 622.329C1676.37 622.329 1678.3 622.222 1680.22 622.008C1682.26 621.687 1684.4 621.258 1686.65 620.723L1691.15 639.518C1688.68 640.482 1685.85 641.232 1682.63 641.767C1679.42 642.303 1676.1 642.57 1672.67 642.57C1659.39 642.57 1648.36 638.501 1639.58 630.361C1630.8 622.115 1626.41 611.352 1626.41 598.072V417.668ZM1721.63 640V460.399H1742.35V640H1721.63ZM1732.07 429.716C1727.79 429.716 1724.09 428.271 1720.99 425.379C1717.99 422.38 1716.49 418.792 1716.49 414.616C1716.49 410.546 1717.99 407.065 1720.99 404.174C1724.09 401.282 1727.79 399.836 1732.07 399.836C1736.36 399.836 1740 401.282 1743 404.174C1746 407.065 1747.5 410.546 1747.5 414.616C1747.5 418.792 1746 422.38 1743 425.379C1740 428.271 1736.36 429.716 1732.07 429.716ZM1781.03 640V623.614L1884.65 481.765V480.159H1785.37V460.399H1911.32V477.749L1809.63 618.795V620.401H1915.01V640H1781.03ZM2000.11 644.016C1989.3 644.016 1979.39 641.928 1970.4 637.751C1961.4 633.467 1954.22 627.309 1948.87 619.277C1943.62 611.138 1941 601.285 1941 589.718C1941 580.829 1942.66 573.386 1945.98 567.389C1949.3 561.391 1954.06 556.465 1960.27 552.609C1966.49 548.647 1973.77 545.541 1982.12 543.292C1990.58 540.936 1999.9 539.169 2010.07 537.991C2020.14 536.706 2028.66 535.635 2035.62 534.778C2042.58 533.814 2047.88 532.315 2051.52 530.28C2055.16 528.245 2056.98 524.979 2056.98 520.48V516.304C2056.98 503.988 2053.34 494.349 2046.06 487.388C2038.78 480.319 2028.33 476.785 2014.73 476.785C2001.77 476.785 1991.23 479.623 1983.09 485.299C1974.95 490.975 1969.27 497.669 1966.06 505.38L1946.14 498.151C1950.21 488.405 1955.83 480.587 1963.01 474.697C1970.18 468.806 1978.21 464.576 1987.1 462.006C1995.99 459.328 2004.99 457.99 2014.09 457.99C2020.94 457.99 2028.07 458.9 2035.46 460.721C2042.85 462.541 2049.75 465.647 2056.18 470.038C2062.61 474.429 2067.8 480.587 2071.76 488.512C2075.83 496.33 2077.87 506.237 2077.87 518.231V640H2056.98V611.566H2055.7C2053.34 616.814 2049.7 621.954 2044.77 626.988C2039.85 631.914 2033.69 635.984 2026.3 639.197C2018.91 642.41 2010.18 644.016 2000.11 644.016ZM2003.01 625.06C2014.04 625.06 2023.57 622.65 2031.6 617.831C2039.74 612.905 2046.01 606.318 2050.4 598.072C2054.79 589.825 2056.98 580.829 2056.98 571.083V545.22C2055.38 546.719 2052.75 548.058 2049.11 549.236C2045.58 550.414 2041.45 551.431 2036.74 552.288C2032.14 553.145 2027.42 553.895 2022.6 554.537C2017.89 555.18 2013.72 555.715 2010.07 556.144C2000.01 557.429 1991.33 559.41 1984.05 562.087C1976.87 564.765 1971.36 568.406 1967.5 573.011C1963.76 577.616 1961.88 583.56 1961.88 590.843C1961.88 601.66 1965.74 610.067 1973.45 616.064C1981.27 622.061 1991.12 625.06 2003.01 625.06ZM2192.37 460.399V478.552H2106.75V460.399H2192.37ZM2133.57 417.668H2154.3V593.092C2154.3 602.838 2156.71 610.174 2161.52 615.1C2166.34 619.919 2173.04 622.329 2181.61 622.329C2183.53 622.329 2185.46 622.222 2187.39 622.008C2189.42 621.687 2191.57 621.258 2193.81 620.723L2198.31 639.518C2195.85 640.482 2193.01 641.232 2189.8 641.767C2186.59 642.303 2183.27 642.57 2179.84 642.57C2166.56 642.57 2155.53 638.501 2146.75 630.361C2137.96 622.115 2133.57 611.352 2133.57 598.072V417.668ZM2228.8 640V460.399H2249.52V640H2228.8ZM2239.24 429.716C2234.96 429.716 2231.26 428.271 2228.15 425.379C2225.16 422.38 2223.66 418.792 2223.66 414.616C2223.66 410.546 2225.16 407.065 2228.15 404.174C2231.26 401.282 2234.96 399.836 2239.24 399.836C2243.52 399.836 2247.16 401.282 2250.16 404.174C2253.16 407.065 2254.66 410.546 2254.66 414.616C2254.66 418.792 2253.16 422.38 2250.16 425.379C2247.16 428.271 2243.52 429.716 2239.24 429.716ZM2363.38 643.855C2347.85 643.855 2334.14 639.946 2322.26 632.128C2310.37 624.203 2301.05 613.279 2294.3 599.357C2287.66 585.327 2284.34 569.263 2284.34 551.164C2284.34 532.743 2287.66 516.571 2294.3 502.649C2301.05 488.619 2310.37 477.695 2322.26 469.877C2334.14 461.952 2347.85 457.99 2363.38 457.99C2378.91 457.99 2392.56 461.952 2404.34 469.877C2416.23 477.695 2425.55 488.619 2432.3 502.649C2439.04 516.571 2442.42 532.743 2442.42 551.164C2442.42 569.263 2439.04 585.327 2432.3 599.357C2425.66 613.279 2416.39 624.203 2404.51 632.128C2392.62 639.946 2378.91 643.855 2363.38 643.855ZM2363.38 624.899C2375.91 624.899 2386.46 621.579 2395.03 614.939C2403.7 608.192 2410.29 599.196 2414.79 587.951C2419.28 576.706 2421.53 564.444 2421.53 551.164C2421.53 537.669 2419.28 525.3 2414.79 514.055C2410.29 502.81 2403.7 493.813 2395.03 487.066C2386.35 480.319 2375.8 476.946 2363.38 476.946C2350.96 476.946 2340.41 480.373 2331.73 487.227C2323.17 493.974 2316.58 502.97 2311.97 514.215C2307.48 525.353 2305.23 537.669 2305.23 551.164C2305.23 564.444 2307.48 576.706 2311.97 587.951C2316.47 599.196 2323.06 608.192 2331.73 614.939C2340.41 621.579 2350.96 624.899 2363.38 624.899ZM2497.8 527.87V640H2477.08V460.399H2497.16V488.833H2499.25C2503.42 479.516 2509.96 472.073 2518.85 466.504C2527.74 460.935 2538.77 458.15 2551.94 458.15C2564.04 458.15 2574.64 460.667 2583.75 465.701C2592.96 470.734 2600.13 478.124 2605.27 487.87C2610.41 497.615 2612.98 509.61 2612.98 523.854V640H2592.26V525.139C2592.26 510.467 2588.14 498.793 2579.89 490.119C2571.65 481.444 2560.61 477.106 2546.8 477.106C2537.37 477.106 2528.97 479.195 2521.58 483.372C2514.19 487.441 2508.35 493.278 2504.07 500.882C2499.89 508.379 2497.8 517.375 2497.8 527.87Z" fill="black"/>
</svg>
