<svg width="1335" height="147" viewBox="0 0 1335 147" fill="none" xmlns="http://www.w3.org/2000/svg">
<path d="M637.406 135H604.82V112.324H636.23C644.125 112.324 650.732 110.952 656.051 108.209C661.426 105.41 665.457 101.07 668.145 95.1914C670.888 89.2565 672.26 81.6419 672.26 72.3477C672.26 63.1094 670.888 55.5508 668.145 49.6719C665.457 43.793 661.426 39.4818 656.051 36.7383C650.732 33.9388 644.153 32.5391 636.314 32.5391H604.316V9.86328H637.826C650.424 9.86328 661.258 12.3828 670.328 17.4219C679.398 22.4049 686.369 29.5716 691.24 38.9219C696.111 48.2161 698.547 59.3581 698.547 72.3477C698.547 85.3932 696.083 96.5911 691.156 105.941C686.285 115.292 679.286 122.486 670.16 127.525C661.034 132.508 650.116 135 637.406 135ZM619.434 9.86328V135H593.062V9.86328H619.434ZM711.808 135V9.86328H794.617V31.6992H738.179V66.0488H789.158V87.4648H738.179V135H711.808ZM798.808 9.86328H828.454L857.009 63.7812H858.185L886.74 9.86328H916.386L870.783 90.8242V135H844.495V90.8242L798.808 9.86328ZM1002.71 135H972.387V124.754H1002.03C1012.78 124.754 1021.77 122.654 1028.99 118.455C1036.27 114.2 1041.73 108.153 1045.37 100.314C1049.01 92.4199 1050.83 83.0137 1050.83 72.0957C1050.83 61.3457 1049.04 52.1074 1045.45 44.3809C1041.93 36.5983 1036.69 30.6354 1029.75 26.4922C1022.86 22.293 1014.35 20.1934 1004.22 20.1934H971.967V9.86328H1004.89C1016.82 9.86328 1027.03 12.3548 1035.54 17.3379C1044.05 22.321 1050.55 29.4596 1055.03 38.7539C1059.56 48.0482 1061.83 59.1621 1061.83 72.0957C1061.83 85.2533 1059.51 96.5352 1054.86 105.941C1050.27 115.292 1043.55 122.486 1034.7 127.525C1025.91 132.508 1015.25 135 1002.71 135ZM977.426 9.86328V135H966.005V9.86328H977.426ZM1107.43 137.1C1101.77 137.1 1096.59 136.008 1091.89 133.824C1087.19 131.585 1083.43 128.365 1080.64 124.166C1077.89 119.911 1076.52 114.76 1076.52 108.713C1076.52 104.066 1077.39 100.174 1079.12 97.0391C1080.86 93.9036 1083.35 91.3281 1086.6 89.3125C1089.85 87.2409 1093.65 85.6172 1098.02 84.4414C1102.44 83.2096 1107.31 82.2858 1112.63 81.6699C1117.9 80.998 1122.35 80.4382 1125.99 79.9902C1129.63 79.4863 1132.4 78.7025 1134.3 77.6387C1136.2 76.5749 1137.16 74.8672 1137.16 72.5156V70.332C1137.16 63.8932 1135.25 58.8542 1131.45 55.2148C1127.64 51.5195 1122.18 49.6719 1115.07 49.6719C1108.29 49.6719 1102.78 51.1556 1098.52 54.123C1094.27 57.0905 1091.3 60.5898 1089.62 64.6211L1079.21 60.8418C1081.34 55.7467 1084.27 51.6595 1088.03 48.5801C1091.78 45.5007 1095.98 43.2891 1100.62 41.9453C1105.27 40.5456 1109.97 39.8457 1114.73 39.8457C1118.32 39.8457 1122.04 40.3216 1125.9 41.2734C1129.77 42.2253 1133.38 43.849 1136.74 46.1445C1140.1 48.4401 1142.81 51.6595 1144.88 55.8027C1147.01 59.89 1148.07 65.069 1148.07 71.3398V135H1137.16V120.135H1136.48C1135.25 122.878 1133.35 125.566 1130.77 128.197C1128.2 130.773 1124.98 132.9 1121.12 134.58C1117.25 136.26 1112.69 137.1 1107.43 137.1ZM1108.94 127.189C1114.7 127.189 1119.69 125.93 1123.89 123.41C1128.14 120.835 1131.42 117.391 1133.71 113.08C1136.01 108.769 1137.16 104.066 1137.16 98.9707V85.4492C1136.32 86.2331 1134.95 86.9329 1133.04 87.5488C1131.19 88.1647 1129.04 88.6966 1126.57 89.1445C1124.17 89.5924 1121.7 89.9844 1119.18 90.3203C1116.72 90.6562 1114.54 90.9362 1112.63 91.1602C1107.37 91.832 1102.84 92.8678 1099.03 94.2676C1095.28 95.6673 1092.39 97.571 1090.38 99.9785C1088.42 102.386 1087.44 105.493 1087.44 109.301C1087.44 114.956 1089.45 119.351 1093.48 122.486C1097.57 125.622 1102.72 127.189 1108.94 127.189ZM1239.95 41.1055L1205.76 135H1194.09L1159.82 41.1055H1171.67L1199.46 120.723H1200.3L1228.19 41.1055H1239.95ZM1289.82 137.016C1281.09 137.016 1273.5 134.972 1267.06 130.885C1260.63 126.742 1255.67 121.031 1252.2 113.752C1248.73 106.473 1246.99 98.1029 1246.99 88.6406C1246.99 79.1784 1248.7 70.7799 1252.11 63.4453C1255.59 56.1107 1260.4 50.3438 1266.56 46.1445C1272.72 41.9453 1279.86 39.8457 1287.98 39.8457C1293.02 39.8457 1297.91 40.7975 1302.67 42.7012C1307.43 44.5488 1311.72 47.3763 1315.52 51.1836C1319.33 54.9909 1322.33 59.834 1324.51 65.7129C1326.69 71.5358 1327.78 78.4785 1327.78 86.541V91.4121H1254.47V81.8379H1321.91L1316.95 85.5332C1316.95 78.7025 1315.78 72.5996 1313.42 67.2246C1311.13 61.8496 1307.82 57.5944 1303.51 54.459C1299.2 51.3236 1294.02 49.7559 1287.98 49.7559C1281.99 49.7559 1276.72 51.3516 1272.19 54.543C1267.65 57.6784 1264.12 61.8776 1261.61 67.1406C1259.14 72.3477 1257.91 78.0586 1257.91 84.2734V89.9004C1257.91 97.403 1259.2 103.954 1261.77 109.553C1264.4 115.096 1268.1 119.407 1272.86 122.486C1277.67 125.566 1283.33 127.105 1289.82 127.105C1294.25 127.105 1298.14 126.406 1301.5 125.006C1304.86 123.606 1307.68 121.73 1309.98 119.379C1312.28 116.971 1314.01 114.368 1315.19 111.568L1325.52 115.012C1324.06 118.931 1321.71 122.57 1318.46 125.93C1315.27 129.233 1311.24 131.921 1306.37 133.992C1301.55 136.008 1296.04 137.016 1289.82 137.016Z" fill="white"/>
<circle cx="73.3902" cy="73.3902" r="73.3902" fill="white"/>
<circle cx="264.205" cy="73.3902" r="73.3902" fill="white"/>
<circle cx="455.019" cy="73.3902" r="73.3902" fill="white"/>
</svg>
