<svg width="32" height="32" fill="none" xmlns="http://www.w3.org/2000/svg"><g clip-path="url(#a)"><path d="M0 16C0 7.187 7.125 0 16 0c8.813 0 16 7.188 16 16 0 8.875-7.188 16-16 16-8.875 0-16-7.125-16-16zm10.938-2.938L13.874 16l-2.938 2.938c-.624.625-.624 1.562 0 2.125.563.625 1.5.625 2.063 0l2.938-2.938 3 2.938c.562.625 1.5.625 2.062 0 .625-.563.625-1.5 0-2.125L18.062 16 21 13.062c.625-.562.625-1.5 0-2.124a1.471 1.471 0 0 0-2.063 0l-3 3-2.937-3a1.471 1.471 0 0 0-2.063 0c-.624.624-.624 1.562 0 2.124z" fill="#000"/></g><defs><clipPath id="a"><path fill="#fff" d="M0 0h32v32H0z"/></clipPath></defs></svg>