<svg width="349" height="18" viewBox="0 0 349 18" fill="none" xmlns="http://www.w3.org/2000/svg">
<path d="M1 14.2682C1 14.2682 29.154 7.10643 41.2287 7.03198C53.3033 6.95752 50.2028 13.0175 54.5056 13.938C59.8841 15.0885 77.3401 6.15538 87.5211 5.11195C97.7021 4.06852 120.307 15.0425 127.207 14.9999C134.107 14.9573 152.78 3.07489 164.855 3.00038C176.929 2.92586 194.367 13.9316 199.654 14.5528C204.942 15.1739 232.41 4.21778 244.485 4.14326C256.559 4.06874 260.084 14.5068 267.04 14.7907C273.996 15.0747 308.308 3.74938 316.932 3.69616C325.557 3.64293 335.813 13.0587 348 13.6373" stroke="#FD6D6D" stroke-width="6"/>
</svg>
