<svg width="12" height="12" viewBox="0 0 12 12" fill="none" xmlns="http://www.w3.org/2000/svg">
<g clip-path="url(#clip0_291_2259)">
<g clip-path="url(#clip1_291_2259)">
<path d="M5.60767 1.47195C5.74481 1.11807 6.24553 1.11807 6.38268 1.47195L7.42143 4.15206C7.4804 4.3042 7.62295 4.40776 7.78587 4.41683L10.6558 4.57654C11.0347 4.59763 11.1895 5.07385 10.8953 5.31365L8.66731 7.12974C8.54084 7.23285 8.4864 7.40042 8.52813 7.55814L9.26312 10.337C9.36016 10.7039 8.95507 10.9982 8.6361 10.7925L6.22038 9.23479C6.08328 9.1464 5.90706 9.1464 5.76996 9.23479L3.35425 10.7925C3.03528 10.9982 2.6302 10.7039 2.72724 10.337L3.4622 7.55814C3.50393 7.40042 3.44948 7.23285 3.32301 7.12974L1.09506 5.31365C0.800889 5.07385 0.955619 4.59763 1.33456 4.57654L4.20449 4.41683C4.36741 4.40776 4.50994 4.3042 4.56891 4.15206L5.60767 1.47195Z" fill="#9FE870"/>
</g>
</g>
<defs>
<clipPath id="clip0_291_2259">
<rect width="10.39" height="10.39" fill="white" transform="translate(0.799805 0.679932)"/>
</clipPath>
<clipPath id="clip1_291_2259">
<rect width="10.39" height="9.9744" fill="white" transform="translate(0.799805 0.887695)"/>
</clipPath>
</defs>
</svg>
