<svg width="3448" height="700" viewBox="0 0 3448 700" fill="none" xmlns="http://www.w3.org/2000/svg">
<path d="M350 700C543.3 700 700 543.3 700 350C700 156.7 543.3 0 350 0C156.7 0 0 156.7 0 350C0 543.3 156.7 700 350 700Z" fill="#7AF546"/>
<path d="M826.547 300H772.41L854.981 60.6396H920.203L1002.61 300H948.637L888.556 115.259H886.628L826.547 300ZM823.334 205.862H951.368V245.381H823.334V205.862ZM1019.12 300V120.399H1066.19V152.368H1068.44C1072.19 141.765 1078.45 133.412 1087.24 127.307C1096.02 121.203 1106.46 118.15 1118.56 118.15C1130.88 118.15 1141.32 121.256 1149.89 127.468C1158.56 133.572 1164.34 141.872 1167.24 152.368H1169.16C1172.81 141.979 1179.45 133.679 1189.08 127.468C1198.72 121.256 1210.08 118.15 1223.14 118.15C1239.85 118.15 1253.45 123.452 1263.94 134.054C1274.55 144.657 1279.85 159.704 1279.85 179.195V300H1230.05V189.155C1230.05 179.088 1227.37 171.591 1222.02 166.665C1216.77 161.739 1210.18 159.275 1202.26 159.275C1193.26 159.275 1186.19 162.167 1181.05 167.95C1176.02 173.626 1173.5 181.123 1173.5 190.44V300H1125.31V187.87C1125.31 179.195 1122.79 172.288 1117.76 167.147C1112.72 161.899 1106.14 159.275 1098 159.275C1092.43 159.275 1087.45 160.668 1083.06 163.452C1078.67 166.237 1075.19 170.092 1072.62 175.019C1070.05 179.838 1068.76 185.621 1068.76 192.368V300H1019.12ZM1359.65 303.374C1348.3 303.374 1338.07 301.392 1328.97 297.43C1319.97 293.36 1312.9 287.363 1307.76 279.438C1302.62 271.512 1300.05 261.66 1300.05 249.879C1300.05 239.812 1301.87 231.458 1305.51 224.818C1309.16 218.071 1314.14 212.609 1320.45 208.433C1326.77 204.256 1333.95 201.097 1341.98 198.955C1350.01 196.813 1358.53 195.313 1367.52 194.457C1377.91 193.493 1386.26 192.529 1392.58 191.565C1398.9 190.601 1403.51 189.155 1406.4 187.228C1409.4 185.193 1410.9 182.301 1410.9 178.553V177.75C1410.9 170.36 1408.54 164.63 1403.83 160.561C1399.22 156.491 1392.69 154.456 1384.23 154.456C1375.34 154.456 1368.22 156.437 1362.86 160.4C1357.62 164.255 1354.14 169.182 1352.42 175.179L1306.32 171.484C1308.67 160.561 1313.28 151.136 1320.13 143.211C1326.99 135.179 1335.82 129.021 1346.64 124.737C1357.56 120.346 1370.2 118.15 1384.55 118.15C1394.51 118.15 1404.04 119.328 1413.15 121.685C1422.25 124.041 1430.33 127.682 1437.4 132.608C1444.58 137.428 1450.25 143.693 1454.43 151.404C1458.61 159.115 1460.7 168.271 1460.7 178.874V300H1413.31V274.939H1412.02C1409.13 280.616 1405.27 285.596 1400.45 289.879C1395.64 294.056 1389.85 297.376 1383.11 299.839C1376.36 302.195 1368.54 303.374 1359.65 303.374ZM1373.95 268.996C1381.23 268.996 1387.66 267.55 1393.23 264.658C1398.9 261.66 1403.29 257.697 1406.4 252.771C1409.61 247.737 1411.22 242.114 1411.22 235.903V216.786C1409.72 217.75 1407.58 218.66 1404.79 219.517C1402.11 220.374 1399.12 221.124 1395.8 221.766C1392.48 222.409 1389.16 222.998 1385.84 223.533C1382.52 223.962 1379.52 224.39 1376.84 224.818C1370.95 225.675 1365.81 227.067 1361.42 228.995C1357.03 230.816 1353.6 233.333 1351.14 236.545C1348.78 239.651 1347.6 243.56 1347.6 248.272C1347.6 255.02 1350.07 260.16 1354.99 263.694C1359.92 267.229 1366.24 268.996 1373.95 268.996ZM1488.13 300V270.281L1576 161.524V160.239H1491.02V120.399H1635.76V153.01L1553.35 258.875V260.16H1638.81V300H1488.13ZM1741.43 303.534C1723.33 303.534 1707.64 299.679 1694.36 291.968C1681.19 284.15 1671.01 273.333 1663.84 259.518C1656.77 245.595 1653.23 229.424 1653.23 211.003C1653.23 192.368 1656.77 176.143 1663.84 162.328C1671.01 148.405 1681.19 137.588 1694.36 129.877C1707.64 122.059 1723.33 118.15 1741.43 118.15C1759.63 118.15 1775.32 122.059 1788.5 129.877C1801.78 137.588 1811.95 148.405 1819.02 162.328C1826.2 176.143 1829.78 192.368 1829.78 211.003C1829.78 229.424 1826.2 245.595 1819.02 259.518C1811.95 273.333 1801.78 284.15 1788.5 291.968C1775.32 299.679 1759.63 303.534 1741.43 303.534ZM1741.75 264.658C1750 264.658 1756.9 262.356 1762.47 257.75C1768.04 253.038 1772.22 246.612 1775 238.473C1777.89 230.334 1779.34 221.07 1779.34 210.682C1779.34 200.186 1777.89 190.922 1775 182.89C1772.22 174.858 1768.04 168.539 1762.47 163.934C1756.9 159.329 1750 157.026 1741.75 157.026C1733.4 157.026 1726.38 159.329 1720.71 163.934C1715.14 168.539 1710.91 174.858 1708.01 182.89C1705.23 190.922 1703.84 200.186 1703.84 210.682C1703.84 221.07 1705.23 230.334 1708.01 238.473C1710.91 246.612 1715.14 253.038 1720.71 257.75C1726.38 262.356 1733.4 264.658 1741.75 264.658ZM1900.75 196.224V300H1851.11V120.399H1899.95V152.368H1901.71C1905.78 141.765 1912.26 133.412 1921.15 127.307C1930.04 121.203 1941.18 118.15 1954.57 118.15C1966.99 118.15 1977.81 120.881 1987.02 126.343C1996.33 131.805 2003.56 139.57 2008.7 149.637C2013.84 159.704 2016.41 171.752 2016.41 185.782V300H1966.78V194.617C1966.78 183.693 1963.94 175.126 1958.26 168.914C1952.59 162.595 1944.77 159.436 1934.81 159.436C1928.17 159.436 1922.28 160.935 1917.14 163.934C1912 166.826 1907.98 171.002 1905.09 176.464C1902.2 181.926 1900.75 188.513 1900.75 196.224ZM2151.92 300H2097.79L2180.36 60.6396H2245.58L2327.99 300H2274.01L2213.93 115.259H2212L2151.92 300ZM2148.71 205.862H2276.74V245.381H2148.71V205.862ZM2438.32 120.399V157.99H2327.63V120.399H2438.32ZM2353.01 300V107.387C2353.01 94.4285 2355.53 83.6654 2360.56 75.0977C2365.7 66.5299 2372.67 60.1042 2381.45 55.8203C2390.34 51.5365 2400.4 49.3945 2411.65 49.3945C2419.36 49.3945 2426.37 50.0371 2432.69 51.3223C2439.12 52.5003 2443.83 53.5177 2446.83 54.3745L2438.15 91.644C2436.12 91.1086 2433.71 90.5731 2430.93 90.0376C2428.14 89.5021 2425.2 89.2344 2422.09 89.2344C2414.81 89.2344 2409.72 90.9479 2406.83 94.375C2403.94 97.695 2402.49 102.407 2402.49 108.512V300H2353.01ZM2554.58 120.399V157.99H2443.9V120.399H2554.58ZM2469.28 300V107.387C2469.28 94.4285 2471.8 83.6654 2476.83 75.0977C2481.97 66.5299 2488.93 60.1042 2497.72 55.8203C2506.61 51.5365 2516.67 49.3945 2527.92 49.3945C2535.63 49.3945 2542.64 50.0371 2548.96 51.3223C2555.39 52.5003 2560.1 53.5177 2563.1 54.3745L2554.42 91.644C2552.39 91.1086 2549.98 90.5731 2547.19 90.0376C2544.41 89.5021 2541.47 89.2344 2538.36 89.2344C2531.08 89.2344 2525.99 90.9479 2523.1 94.375C2520.21 97.695 2518.76 102.407 2518.76 108.512V300H2469.28ZM2573.82 300V120.399H2623.46V300H2573.82ZM2598.56 97.4272C2591.17 97.4272 2584.86 94.964 2579.61 90.0376C2574.36 85.1112 2571.74 79.1673 2571.74 72.2061C2571.74 65.2448 2574.36 59.3545 2579.61 54.5352C2584.86 49.6087 2591.17 47.1455 2598.56 47.1455C2606.06 47.1455 2612.43 49.6087 2617.68 54.5352C2622.93 59.3545 2625.55 65.2448 2625.55 72.2061C2625.55 79.1673 2622.93 85.1112 2617.68 90.0376C2612.43 94.964 2606.06 97.4272 2598.56 97.4272ZM2701.82 60.6396V300H2652.18V60.6396H2701.82ZM2730.54 300V120.399H2780.18V300H2730.54ZM2755.28 97.4272C2747.89 97.4272 2741.57 94.964 2736.32 90.0376C2731.07 85.1112 2728.45 79.1673 2728.45 72.2061C2728.45 65.2448 2731.07 59.3545 2736.32 54.5352C2741.57 49.6087 2747.89 47.1455 2755.28 47.1455C2762.77 47.1455 2769.15 49.6087 2774.39 54.5352C2779.64 59.3545 2782.27 65.2448 2782.27 72.2061C2782.27 79.1673 2779.64 85.1112 2774.39 90.0376C2769.15 94.964 2762.77 97.4272 2755.28 97.4272ZM2859.98 303.374C2848.63 303.374 2838.4 301.392 2829.3 297.43C2820.3 293.36 2813.23 287.363 2808.09 279.438C2802.95 271.512 2800.38 261.66 2800.38 249.879C2800.38 239.812 2802.2 231.458 2805.84 224.818C2809.48 218.071 2814.46 212.609 2820.78 208.433C2827.1 204.256 2834.28 201.097 2842.31 198.955C2850.34 196.813 2858.86 195.313 2867.85 194.457C2878.24 193.493 2886.59 192.529 2892.91 191.565C2899.23 190.601 2903.84 189.155 2906.73 187.228C2909.73 185.193 2911.23 182.301 2911.23 178.553V177.75C2911.23 170.36 2908.87 164.63 2904.16 160.561C2899.55 156.491 2893.02 154.456 2884.56 154.456C2875.67 154.456 2868.55 156.437 2863.19 160.4C2857.95 164.255 2854.47 169.182 2852.75 175.179L2806.65 171.484C2809 160.561 2813.61 151.136 2820.46 143.211C2827.32 135.179 2836.15 129.021 2846.97 124.737C2857.89 120.346 2870.53 118.15 2884.88 118.15C2894.84 118.15 2904.37 119.328 2913.48 121.685C2922.58 124.041 2930.66 127.682 2937.73 132.608C2944.91 137.428 2950.58 143.693 2954.76 151.404C2958.94 159.115 2961.03 168.271 2961.03 178.874V300H2913.64V274.939H2912.35C2909.46 280.616 2905.6 285.596 2900.78 289.879C2895.97 294.056 2890.18 297.376 2883.43 299.839C2876.69 302.195 2868.87 303.374 2859.98 303.374ZM2874.28 268.996C2881.56 268.996 2887.99 267.55 2893.56 264.658C2899.23 261.66 2903.62 257.697 2906.73 252.771C2909.94 247.737 2911.55 242.114 2911.55 235.903V216.786C2910.05 217.75 2907.91 218.66 2905.12 219.517C2902.44 220.374 2899.45 221.124 2896.13 221.766C2892.81 222.409 2889.49 222.998 2886.17 223.533C2882.85 223.962 2879.85 224.39 2877.17 224.818C2871.28 225.675 2866.14 227.067 2861.75 228.995C2857.36 230.816 2853.93 233.333 2851.47 236.545C2849.11 239.651 2847.93 243.56 2847.93 248.272C2847.93 255.02 2850.4 260.16 2855.32 263.694C2860.25 267.229 2866.57 268.996 2874.28 268.996ZM3084.69 120.399V157.99H2976.57V120.399H3084.69ZM3001.15 77.668H3050.79V244.738C3050.79 250.736 3052.13 255.18 3054.81 258.072C3057.48 260.856 3061.77 262.249 3067.66 262.249C3069.58 262.249 3071.73 262.088 3074.08 261.767C3076.44 261.445 3078.47 261.07 3080.19 260.642L3088.06 297.912C3082.6 299.518 3077.3 300.696 3072.15 301.446C3067.12 302.195 3062.14 302.57 3057.21 302.57C3039.33 302.57 3025.51 298.126 3015.77 289.237C3006.02 280.241 3001.15 267.603 3001.15 251.325V77.668ZM3185.53 303.534C3167.11 303.534 3151.21 299.786 3137.82 292.289C3124.43 284.792 3114.15 274.136 3106.98 260.321C3099.91 246.398 3096.37 229.959 3096.37 211.003C3096.37 192.582 3099.91 176.411 3106.98 162.488C3114.15 148.566 3124.22 137.695 3137.18 129.877C3150.24 122.059 3165.56 118.15 3183.12 118.15C3195.01 118.15 3206.09 120.078 3216.38 123.934C3226.66 127.682 3235.65 133.358 3243.36 140.962C3251.08 148.459 3257.07 157.937 3261.36 169.396C3265.64 180.748 3267.78 194.082 3267.78 209.396V222.891H3116.13V192.208H3243.69L3220.55 200.24C3220.55 191.137 3219.16 183.211 3216.38 176.464C3213.59 169.717 3209.41 164.523 3203.85 160.882C3198.38 157.133 3191.58 155.259 3183.44 155.259C3175.3 155.259 3168.4 157.133 3162.72 160.882C3157.15 164.63 3152.87 169.717 3149.87 176.143C3146.87 182.569 3145.37 189.958 3145.37 198.312V219.999C3145.37 229.745 3147.08 238.098 3150.51 245.06C3153.94 251.914 3158.7 257.215 3164.81 260.963C3171.02 264.605 3178.14 266.425 3186.18 266.425C3191.74 266.425 3196.78 265.622 3201.28 264.016C3205.77 262.409 3209.63 260.053 3212.84 256.947C3216.16 253.841 3218.63 250.093 3220.23 245.702L3266.18 248.754C3263.93 259.785 3259.21 269.424 3252.04 277.67C3244.97 285.81 3235.81 292.182 3224.57 296.787C3213.32 301.285 3200.31 303.534 3185.53 303.534ZM796.988 640H774.016L861.246 400.64H884.54L971.609 640H948.797L873.616 429.074H872.009L796.988 640ZM813.535 548.272H932.251V567.871H813.535V548.272ZM1061.69 643.855C1047.02 643.855 1034.12 640 1022.98 632.289C1011.95 624.471 1003.33 613.547 997.114 599.518C991.009 585.488 987.957 569.209 987.957 550.682C987.957 532.261 991.063 516.09 997.275 502.167C1003.49 488.244 1012.11 477.428 1023.14 469.717C1034.28 461.899 1047.18 457.99 1061.85 457.99C1072.88 457.99 1081.99 459.971 1089.16 463.934C1096.45 467.789 1102.28 472.555 1106.67 478.231C1111.17 483.907 1114.6 489.423 1116.95 494.777H1118.72V400.64H1139.45V640H1119.36V606.586H1116.95C1114.6 612.048 1111.17 617.67 1106.67 623.454C1102.18 629.237 1096.29 634.11 1089 638.072C1081.72 641.928 1072.62 643.855 1061.69 643.855ZM1064.1 624.899C1075.78 624.899 1085.68 621.687 1093.82 615.261C1101.96 608.835 1108.17 600.053 1112.46 588.915C1116.85 577.67 1119.04 564.872 1119.04 550.521C1119.04 536.063 1116.9 523.319 1112.62 512.288C1108.33 501.257 1102.07 492.635 1093.82 486.424C1085.68 480.105 1075.78 476.946 1064.1 476.946C1052.22 476.946 1042.15 480.212 1033.9 486.745C1025.66 493.278 1019.39 502.113 1015.11 513.251C1010.93 524.282 1008.84 536.706 1008.84 550.521C1008.84 564.336 1010.98 576.867 1015.27 588.112C1019.55 599.357 1025.76 608.299 1033.9 614.939C1042.15 621.579 1052.22 624.899 1064.1 624.899ZM1322.38 460.399L1257 640H1234.67L1169.13 460.399H1191.78L1244.95 612.69H1246.56L1299.89 460.399H1322.38ZM1396.88 644.016C1386.07 644.016 1376.16 641.928 1367.16 637.751C1358.17 633.467 1350.99 627.309 1345.64 619.277C1340.39 611.138 1337.77 601.285 1337.77 589.718C1337.77 580.829 1339.43 573.386 1342.75 567.389C1346.07 561.391 1350.83 556.465 1357.04 552.609C1363.26 548.647 1370.54 545.541 1378.89 543.292C1387.35 540.936 1396.67 539.169 1406.84 537.991C1416.91 536.706 1425.42 535.635 1432.39 534.778C1439.35 533.814 1444.65 532.315 1448.29 530.28C1451.93 528.245 1453.75 524.979 1453.75 520.48V516.304C1453.75 503.988 1450.11 494.349 1442.83 487.388C1435.55 480.319 1425.1 476.785 1411.5 476.785C1398.54 476.785 1387.99 479.623 1379.86 485.299C1371.72 490.975 1366.04 497.669 1362.83 505.38L1342.91 498.151C1346.98 488.405 1352.6 480.587 1359.77 474.697C1366.95 468.806 1374.98 464.576 1383.87 462.006C1392.76 459.328 1401.76 457.99 1410.86 457.99C1417.71 457.99 1424.84 458.9 1432.23 460.721C1439.61 462.541 1446.52 465.647 1452.95 470.038C1459.37 474.429 1464.57 480.587 1468.53 488.512C1472.6 496.33 1474.64 506.237 1474.64 518.231V640H1453.75V611.566H1452.47C1450.11 616.814 1446.47 621.954 1441.54 626.988C1436.62 631.914 1430.46 635.984 1423.07 639.197C1415.68 642.41 1406.95 644.016 1396.88 644.016ZM1399.77 625.06C1410.81 625.06 1420.34 622.65 1428.37 617.831C1436.51 612.905 1442.77 606.318 1447.17 598.072C1451.56 589.825 1453.75 580.829 1453.75 571.083V545.22C1452.15 546.719 1449.52 548.058 1445.88 549.236C1442.35 550.414 1438.22 551.431 1433.51 552.288C1428.91 553.145 1424.19 553.895 1419.37 554.537C1414.66 555.18 1410.48 555.715 1406.84 556.144C1396.78 557.429 1388.1 559.41 1380.82 562.087C1373.64 564.765 1368.13 568.406 1364.27 573.011C1360.52 577.616 1358.65 583.56 1358.65 590.843C1358.65 601.66 1362.51 610.067 1370.22 616.064C1378.03 622.061 1387.89 625.06 1399.77 625.06ZM1539.34 527.87V640H1518.61V460.399H1538.7V488.833H1540.78C1544.96 479.516 1551.49 472.073 1560.38 466.504C1569.27 460.935 1580.3 458.15 1593.47 458.15C1605.58 458.15 1616.18 460.667 1625.28 465.701C1634.49 470.734 1641.67 478.124 1646.81 487.87C1651.95 497.615 1654.52 509.61 1654.52 523.854V640H1633.8V525.139C1633.8 510.467 1629.67 498.793 1621.43 490.119C1613.18 481.444 1602.15 477.106 1588.33 477.106C1578.91 477.106 1570.5 479.195 1563.11 483.372C1555.72 487.441 1549.89 493.278 1545.6 500.882C1541.43 508.379 1539.34 517.375 1539.34 527.87ZM1768.54 643.855C1752.48 643.855 1738.5 639.839 1726.61 631.807C1714.72 623.775 1705.51 612.798 1698.98 598.875C1692.45 584.845 1689.18 568.942 1689.18 551.164C1689.18 533.064 1692.5 517.053 1699.14 503.131C1705.78 489.101 1715.05 478.07 1726.93 470.038C1738.82 462.006 1752.58 457.99 1768.22 457.99C1780.21 457.99 1791.08 460.346 1800.83 465.058C1810.58 469.663 1818.61 476.196 1824.93 484.657C1831.35 493.01 1835.37 502.756 1836.97 513.894H1816.09C1814.59 507.147 1811.7 500.989 1807.42 495.42C1803.24 489.851 1797.83 485.406 1791.19 482.086C1784.66 478.659 1777.11 476.946 1768.54 476.946C1757.08 476.946 1746.96 480.052 1738.18 486.263C1729.4 492.475 1722.49 501.096 1717.45 512.127C1712.53 523.158 1710.07 535.956 1710.07 550.521C1710.07 564.979 1712.47 577.831 1717.29 589.076C1722.11 600.321 1728.91 609.103 1737.7 615.421C1746.59 621.74 1756.87 624.899 1768.54 624.899C1780.43 624.899 1790.71 621.526 1799.38 614.779C1808.06 608.032 1813.63 598.982 1816.09 587.63H1836.97C1835.48 598.447 1831.62 608.085 1825.41 616.546C1819.3 625.007 1811.38 631.7 1801.63 636.626C1791.99 641.446 1780.96 643.855 1768.54 643.855ZM1943.61 643.855C1926.9 643.855 1912.39 639.946 1900.07 632.128C1887.75 624.203 1878.28 613.279 1871.64 599.357C1865 585.434 1861.68 569.424 1861.68 551.324C1861.68 533.225 1864.94 517.16 1871.48 503.131C1878.12 489.101 1887.33 478.07 1899.11 470.038C1910.89 462.006 1924.54 457.99 1940.07 457.99C1949.71 457.99 1959.08 459.81 1968.18 463.452C1977.29 466.986 1985.48 472.394 1992.76 479.677C2000.04 486.959 2005.77 496.223 2009.95 507.468C2014.13 518.606 2016.22 531.886 2016.22 547.308V556.625H1875.97V538.312H2004.97L1995.49 545.38C1995.49 532.315 1993.24 520.641 1988.75 510.36C1984.36 500.079 1978.04 491.939 1969.79 485.942C1961.54 479.944 1951.64 476.946 1940.07 476.946C1928.61 476.946 1918.54 479.998 1909.87 486.103C1901.19 492.1 1894.45 500.132 1889.63 510.199C1884.92 520.159 1882.56 531.083 1882.56 542.971V553.734C1882.56 568.085 1885.02 580.615 1889.95 591.325C1894.98 601.927 1902.05 610.174 1911.15 616.064C1920.37 621.954 1931.18 624.899 1943.61 624.899C1952.07 624.899 1959.51 623.561 1965.93 620.883C1972.36 618.206 1977.77 614.618 1982.16 610.12C1986.55 605.515 1989.87 600.535 1992.12 595.18L2011.88 601.767C2009.09 609.263 2004.6 616.225 1998.38 622.65C1992.28 628.969 1984.57 634.11 1975.25 638.072C1966.04 641.928 1955.49 643.855 1943.61 643.855ZM2114.65 643.855C2099.98 643.855 2087.08 640 2075.94 632.289C2064.91 624.471 2056.29 613.547 2050.07 599.518C2043.97 585.488 2040.92 569.209 2040.92 550.682C2040.92 532.261 2044.02 516.09 2050.24 502.167C2056.45 488.244 2065.07 477.428 2076.1 469.717C2087.24 461.899 2100.14 457.99 2114.81 457.99C2125.85 457.99 2134.95 459.971 2142.12 463.934C2149.41 467.789 2155.24 472.555 2159.63 478.231C2164.13 483.907 2167.56 489.423 2169.92 494.777H2171.68V400.64H2192.41V640H2172.33V606.586H2169.92C2167.56 612.048 2164.13 617.67 2159.63 623.454C2155.14 629.237 2149.25 634.11 2141.96 638.072C2134.68 641.928 2125.58 643.855 2114.65 643.855ZM2117.06 624.899C2128.74 624.899 2138.64 621.687 2146.78 615.261C2154.92 608.835 2161.13 600.053 2165.42 588.915C2169.81 577.67 2172 564.872 2172 550.521C2172 536.063 2169.86 523.319 2165.58 512.288C2161.29 501.257 2155.03 492.635 2146.78 486.424C2138.64 480.105 2128.74 476.946 2117.06 476.946C2105.18 476.946 2095.11 480.212 2086.86 486.745C2078.62 493.278 2072.35 502.113 2068.07 513.251C2063.89 524.282 2061.8 536.706 2061.8 550.521C2061.8 564.336 2063.94 576.867 2068.23 588.112C2072.51 599.357 2078.72 608.299 2086.86 614.939C2095.11 621.579 2105.18 624.899 2117.06 624.899ZM2364.38 640L2299 400.64H2321.17L2375.47 606.586H2377.23L2431.53 400.64H2456.91L2510.89 606.586H2512.98L2567.11 400.64H2589.28L2523.74 640H2500.29L2445.03 437.106H2443.42L2388 640H2364.38ZM2670.21 643.855C2653.5 643.855 2638.99 639.946 2626.68 632.128C2614.36 624.203 2604.88 613.279 2598.24 599.357C2591.6 585.434 2588.28 569.424 2588.28 551.324C2588.28 533.225 2591.55 517.16 2598.08 503.131C2604.72 489.101 2613.93 478.07 2625.71 470.038C2637.49 462.006 2651.15 457.99 2666.68 457.99C2676.32 457.99 2685.69 459.81 2694.79 463.452C2703.89 466.986 2712.09 472.394 2719.37 479.677C2726.65 486.959 2732.38 496.223 2736.56 507.468C2740.73 518.606 2742.82 531.886 2742.82 547.308V556.625H2602.58V538.312H2731.58L2722.1 545.38C2722.1 532.315 2719.85 520.641 2715.35 510.36C2710.96 500.079 2704.64 491.939 2696.4 485.942C2688.15 479.944 2678.24 476.946 2666.68 476.946C2655.22 476.946 2645.15 479.998 2636.48 486.103C2627.8 492.1 2621.05 500.132 2616.23 510.199C2611.52 520.159 2609.17 531.083 2609.17 542.971V553.734C2609.17 568.085 2611.63 580.615 2616.56 591.325C2621.59 601.927 2628.66 610.174 2637.76 616.064C2646.97 621.954 2657.79 624.899 2670.21 624.899C2678.67 624.899 2686.11 623.561 2692.54 620.883C2698.97 618.206 2704.37 614.618 2708.77 610.12C2713.16 605.515 2716.48 600.535 2718.73 595.18L2738.49 601.767C2735.7 609.263 2731.2 616.225 2724.99 622.65C2718.89 628.969 2711.18 634.11 2701.86 638.072C2692.65 641.928 2682.1 643.855 2670.21 643.855ZM2854.59 643.855C2843.78 643.855 2834.67 641.928 2827.28 638.072C2820 634.11 2814.11 629.237 2809.61 623.454C2805.22 617.67 2801.8 612.048 2799.33 606.586H2796.92V640H2776.84V400.64H2797.56V494.777H2799.33C2801.8 489.423 2805.22 483.907 2809.61 478.231C2814 472.555 2819.84 467.789 2827.12 463.934C2834.41 459.971 2843.51 457.99 2854.43 457.99C2869.21 457.99 2882.12 461.899 2893.15 469.717C2904.29 477.428 2912.96 488.244 2919.17 502.167C2925.38 516.09 2928.49 532.261 2928.49 550.682C2928.49 569.209 2925.38 585.488 2919.17 599.518C2913.07 613.547 2904.45 624.471 2893.31 632.289C2882.28 640 2869.37 643.855 2854.59 643.855ZM2852.34 624.899C2864.13 624.899 2874.14 621.579 2882.39 614.939C2890.63 608.299 2896.9 599.357 2901.18 588.112C2905.46 576.867 2907.61 564.336 2907.61 550.521C2907.61 536.706 2905.46 524.282 2901.18 513.251C2896.9 502.113 2890.69 493.278 2882.55 486.745C2874.41 480.212 2864.34 476.946 2852.34 476.946C2840.56 476.946 2830.6 480.105 2822.46 486.424C2814.33 492.635 2808.11 501.257 2803.83 512.288C2799.55 523.319 2797.4 536.063 2797.4 550.521C2797.4 564.872 2799.55 577.67 2803.83 588.915C2808.11 600.053 2814.33 608.835 2822.46 615.261C2830.71 621.687 2840.67 624.899 2852.34 624.899ZM3083.64 500.079L3064.68 505.219C3061.89 497.187 3057.24 490.386 3050.7 484.817C3044.28 479.141 3035.01 476.303 3022.91 476.303C3010.81 476.303 3000.85 479.248 2993.03 485.139C2985.21 490.922 2981.3 498.365 2981.3 507.468C2981.3 515.072 2983.93 521.337 2989.18 526.264C2994.53 531.083 3002.78 534.885 3013.92 537.669L3041.06 544.256C3056.06 548.004 3067.3 553.841 3074.8 561.766C3082.4 569.584 3086.21 579.491 3086.21 591.485C3086.21 601.552 3083.37 610.549 3077.69 618.474C3072.12 626.399 3064.36 632.61 3054.4 637.108C3044.44 641.606 3032.87 643.855 3019.7 643.855C3002.14 643.855 2987.68 639.893 2976.32 631.968C2964.97 623.936 2957.69 612.476 2954.48 597.59L2974.4 592.771C2976.86 603.373 2981.89 611.405 2989.5 616.867C2997.1 622.329 3007.06 625.06 3019.38 625.06C3033.09 625.06 3044.12 621.954 3052.47 615.743C3060.82 609.531 3065 601.82 3065 592.61C3065 577.831 3055.2 568.031 3035.6 563.212L3006.37 556.144C2990.73 552.395 2979.16 546.505 2971.67 538.473C2964.17 530.44 2960.42 520.427 2960.42 508.432C2960.42 498.579 2963.1 489.851 2968.45 482.247C2973.92 474.643 2981.36 468.699 2990.78 464.416C3000.21 460.132 3010.92 457.99 3022.91 457.99C3039.4 457.99 3052.58 461.792 3062.43 469.396C3072.28 476.892 3079.35 487.12 3083.64 500.079ZM3120.87 640V460.399H3141.59V640H3120.87ZM3131.31 429.716C3127.03 429.716 3123.33 428.271 3120.22 425.379C3117.23 422.38 3115.73 418.792 3115.73 414.616C3115.73 410.546 3117.23 407.065 3120.22 404.174C3123.33 401.282 3127.03 399.836 3131.31 399.836C3135.59 399.836 3139.23 401.282 3142.23 404.174C3145.23 407.065 3146.73 410.546 3146.73 414.616C3146.73 418.792 3145.23 422.38 3142.23 425.379C3139.23 428.271 3135.59 429.716 3131.31 429.716ZM3256.25 460.399V478.552H3170.63V460.399H3256.25ZM3197.46 417.668H3218.18V593.092C3218.18 602.838 3220.59 610.174 3225.41 615.1C3230.23 619.919 3236.92 622.329 3245.49 622.329C3247.42 622.329 3249.35 622.222 3251.27 622.008C3253.31 621.687 3255.45 621.258 3257.7 620.723L3262.2 639.518C3259.73 640.482 3256.9 641.232 3253.68 641.767C3250.47 642.303 3247.15 642.57 3243.72 642.57C3230.44 642.57 3219.41 638.501 3210.63 630.361C3201.85 622.115 3197.46 611.352 3197.46 598.072V417.668ZM3363.37 643.855C3346.66 643.855 3332.15 639.946 3319.83 632.128C3307.52 624.203 3298.04 613.279 3291.4 599.357C3284.76 585.434 3281.44 569.424 3281.44 551.324C3281.44 533.225 3284.7 517.16 3291.24 503.131C3297.88 489.101 3307.09 478.07 3318.87 470.038C3330.65 462.006 3344.3 457.99 3359.83 457.99C3369.47 457.99 3378.84 459.81 3387.94 463.452C3397.05 466.986 3405.24 472.394 3412.52 479.677C3419.81 486.959 3425.54 496.223 3429.71 507.468C3433.89 518.606 3435.98 531.886 3435.98 547.308V556.625H3295.73V538.312H3424.73L3415.25 545.38C3415.25 532.315 3413.01 520.641 3408.51 510.36C3404.12 500.079 3397.8 491.939 3389.55 485.942C3381.3 479.944 3371.4 476.946 3359.83 476.946C3348.37 476.946 3338.31 479.998 3329.63 486.103C3320.96 492.1 3314.21 500.132 3309.39 510.199C3304.68 520.159 3302.32 531.083 3302.32 542.971V553.734C3302.32 568.085 3304.78 580.615 3309.71 591.325C3314.74 601.927 3321.81 610.174 3330.92 616.064C3340.13 621.954 3350.94 624.899 3363.37 624.899C3371.83 624.899 3379.27 623.561 3385.7 620.883C3392.12 618.206 3397.53 614.618 3401.92 610.12C3406.31 605.515 3409.63 600.535 3411.88 595.18L3431.64 601.767C3428.86 609.263 3424.36 616.225 3418.15 622.65C3412.04 628.969 3404.33 634.11 3395.01 638.072C3385.8 641.928 3375.25 643.855 3363.37 643.855Z" fill="black"/>
<g clip-path="url(#clip0_1249_39)">
<path d="M530.439 503.675C328.04 600 202.429 519.407 122.021 470.457C117.045 467.372 108.589 471.178 115.926 479.606C142.714 512.087 230.503 590.375 345.094 590.375C459.763 590.375 527.981 527.806 536.515 516.892C544.991 506.069 539.003 500.099 530.437 503.675H530.439ZM587.282 472.282C581.847 465.205 554.232 463.885 536.853 466.02C519.447 468.094 493.321 478.731 495.592 485.119C496.758 487.511 499.137 486.438 511.094 485.363C523.084 484.167 556.673 479.928 563.672 489.077C570.703 498.289 552.959 542.175 549.718 549.253C546.587 556.331 550.914 558.156 556.796 553.442C562.597 548.73 573.098 536.527 580.145 519.257C587.144 501.894 591.413 477.672 587.282 472.282Z" fill="black"/>
<path fill-rule="evenodd" clip-rule="evenodd" d="M394.348 307.125C394.348 332.399 394.986 353.476 382.212 375.921C371.901 394.172 355.568 405.394 337.32 405.394C312.409 405.394 297.901 386.415 297.901 358.404C297.901 303.109 347.446 293.073 394.348 293.073V307.125ZM459.769 465.251C455.48 469.082 449.275 469.357 444.44 466.801C422.907 448.919 419.074 440.616 407.213 423.552C371.628 459.868 346.444 470.725 300.275 470.725C245.711 470.725 203.19 437.056 203.19 369.626C203.19 316.98 231.751 281.12 272.352 263.602C307.574 248.089 356.755 245.352 394.348 241.065V232.67C394.348 217.249 395.532 199 386.5 185.679C378.561 173.726 363.415 168.799 350.092 168.799C325.366 168.799 303.285 181.481 297.901 207.759C296.805 213.6 292.518 219.349 286.679 219.622L223.72 212.871C218.429 211.683 212.589 207.395 214.049 199.273C228.557 122.995 297.444 100 359.124 100C390.695 100 431.937 108.395 456.847 132.302C488.418 161.773 485.407 201.099 485.407 243.892V344.991C485.407 375.375 497.998 388.696 509.859 405.121C514.056 410.96 514.97 417.988 509.677 422.365C496.446 433.405 472.905 453.936 459.95 465.434L459.767 465.251" fill="black"/>
<path d="M530.439 503.675C328.04 600 202.429 519.407 122.021 470.457C117.045 467.372 108.589 471.178 115.926 479.606C142.714 512.087 230.503 590.375 345.094 590.375C459.763 590.375 527.981 527.806 536.515 516.892C544.991 506.069 539.003 500.099 530.437 503.675H530.439ZM587.282 472.282C581.847 465.205 554.232 463.885 536.853 466.02C519.447 468.094 493.321 478.731 495.592 485.119C496.758 487.511 499.137 486.438 511.094 485.363C523.084 484.167 556.673 479.928 563.672 489.077C570.703 498.289 552.959 542.175 549.718 549.253C546.587 556.331 550.914 558.156 556.796 553.442C562.597 548.73 573.098 536.527 580.145 519.257C587.144 501.894 591.413 477.672 587.282 472.282Z" fill="black"/>
<path fill-rule="evenodd" clip-rule="evenodd" d="M394.348 307.125C394.348 332.399 394.986 353.476 382.212 375.921C371.901 394.172 355.568 405.394 337.32 405.394C312.409 405.394 297.901 386.415 297.901 358.404C297.901 303.109 347.446 293.073 394.348 293.073V307.125ZM459.769 465.251C455.48 469.082 449.275 469.357 444.44 466.801C422.907 448.919 419.074 440.616 407.213 423.552C371.628 459.868 346.444 470.725 300.275 470.725C245.711 470.725 203.19 437.056 203.19 369.626C203.19 316.98 231.751 281.12 272.352 263.602C307.574 248.089 356.755 245.352 394.348 241.065V232.67C394.348 217.249 395.532 199 386.5 185.679C378.561 173.726 363.415 168.799 350.092 168.799C325.366 168.799 303.285 181.481 297.901 207.759C296.805 213.6 292.518 219.349 286.679 219.622L223.72 212.871C218.429 211.683 212.589 207.395 214.049 199.273C228.557 122.995 297.444 100 359.124 100C390.695 100 431.937 108.395 456.847 132.302C488.418 161.773 485.407 201.099 485.407 243.892V344.991C485.407 375.375 497.998 388.696 509.859 405.121C514.056 410.96 514.97 417.988 509.677 422.365C496.446 433.405 472.905 453.936 459.95 465.434L459.767 465.251" fill="black"/>
</g>
<defs>
<clipPath id="clip0_1249_39">
<rect width="500" height="500" fill="white" transform="translate(100 100)"/>
</clipPath>
</defs>
</svg>
