<svg width="2636" height="700" viewBox="0 0 2636 700" fill="none" xmlns="http://www.w3.org/2000/svg">
<path d="M350 700C543.3 700 700 543.3 700 350C700 156.7 543.3 0 350 0C156.7 0 0 156.7 0 350C0 543.3 156.7 700 350 700Z" fill="#7AF546"/>
<path d="M776.265 102.407V60.6396H972.894V102.407H899.64V300H849.68V102.407H776.265ZM993.098 300V120.399H1042.74V300H993.098ZM1017.84 97.4272C1010.45 97.4272 1004.13 94.964 998.881 90.0376C993.633 85.1112 991.009 79.1673 991.009 72.2061C991.009 65.2448 993.633 59.3545 998.881 54.5352C1004.13 49.6087 1010.45 47.1455 1017.84 47.1455C1025.33 47.1455 1031.71 49.6087 1036.95 54.5352C1042.2 59.3545 1044.83 65.2448 1044.83 72.2061C1044.83 79.1673 1042.2 85.1112 1036.95 90.0376C1031.71 94.964 1025.33 97.4272 1017.84 97.4272ZM1116.44 248.272L1116.6 188.673H1123.83L1181.18 120.399H1238.36L1161.26 210.842H1149.21L1116.44 248.272ZM1071.45 300V60.6396H1121.09V300H1071.45ZM1183.42 300L1130.73 221.927L1163.83 186.585L1241.74 300H1183.42ZM1224.35 102.407V60.6396H1420.98V102.407H1347.73V300H1297.77V102.407H1224.35ZM1496.28 303.534C1478.19 303.534 1462.5 299.679 1449.22 291.968C1436.04 284.15 1425.87 273.333 1418.69 259.518C1411.63 245.595 1408.09 229.424 1408.09 211.003C1408.09 192.368 1411.63 176.143 1418.69 162.328C1425.87 148.405 1436.04 137.588 1449.22 129.877C1462.5 122.059 1478.19 118.15 1496.28 118.15C1514.49 118.15 1530.18 122.059 1543.35 129.877C1556.63 137.588 1566.81 148.405 1573.88 162.328C1581.05 176.143 1584.64 192.368 1584.64 211.003C1584.64 229.424 1581.05 245.595 1573.88 259.518C1566.81 273.333 1556.63 284.15 1543.35 291.968C1530.18 299.679 1514.49 303.534 1496.28 303.534ZM1496.61 264.658C1504.85 264.658 1511.76 262.356 1517.33 257.75C1522.9 253.038 1527.08 246.612 1529.86 238.473C1532.75 230.334 1534.2 221.07 1534.2 210.682C1534.2 200.186 1532.75 190.922 1529.86 182.89C1527.08 174.858 1522.9 168.539 1517.33 163.934C1511.76 159.329 1504.85 157.026 1496.61 157.026C1488.25 157.026 1481.24 159.329 1475.56 163.934C1469.99 168.539 1465.76 174.858 1462.87 182.89C1460.09 190.922 1458.69 200.186 1458.69 210.682C1458.69 221.07 1460.09 230.334 1462.87 238.473C1465.76 246.612 1469.99 253.038 1475.56 257.75C1481.24 262.356 1488.25 264.658 1496.61 264.658ZM1650.95 248.272L1651.11 188.673H1658.34L1715.69 120.399H1772.88L1695.77 210.842H1683.72L1650.95 248.272ZM1605.97 300V60.6396H1655.61V300H1605.97ZM1717.94 300L1665.25 221.927L1698.34 186.585L1776.25 300H1717.94ZM796.506 400.64H821.888L908.636 608.996H910.885L997.633 400.64H1023.66V640H1002.29V446.745H1000.52L919.399 640H899.64L819.157 446.745H817.39V640H796.506V400.64ZM1141.85 643.855C1126.33 643.855 1112.62 639.946 1100.73 632.128C1088.84 624.203 1079.52 613.279 1072.78 599.357C1066.14 585.327 1062.82 569.263 1062.82 551.164C1062.82 532.743 1066.14 516.571 1072.78 502.649C1079.52 488.619 1088.84 477.695 1100.73 469.877C1112.62 461.952 1126.33 457.99 1141.85 457.99C1157.38 457.99 1171.04 461.952 1182.82 469.877C1194.71 477.695 1204.02 488.619 1210.77 502.649C1217.52 516.571 1220.89 532.743 1220.89 551.164C1220.89 569.263 1217.52 585.327 1210.77 599.357C1204.13 613.279 1194.87 624.203 1182.98 632.128C1171.09 639.946 1157.38 643.855 1141.85 643.855ZM1141.85 624.899C1154.38 624.899 1164.93 621.579 1173.5 614.939C1182.18 608.192 1188.76 599.196 1193.26 587.951C1197.76 576.706 1200.01 564.444 1200.01 551.164C1200.01 537.669 1197.76 525.3 1193.26 514.055C1188.76 502.81 1182.18 493.813 1173.5 487.066C1164.83 480.319 1154.28 476.946 1141.85 476.946C1129.43 476.946 1118.88 480.373 1110.21 487.227C1101.64 493.974 1095.05 502.97 1090.45 514.215C1085.95 525.353 1083.7 537.669 1083.7 551.164C1083.7 564.444 1085.95 576.706 1090.45 587.951C1094.95 599.196 1101.53 608.192 1110.21 614.939C1118.88 621.579 1129.43 624.899 1141.85 624.899ZM1276.28 527.87V640H1255.55V460.399H1275.63V488.833H1277.72C1281.9 479.516 1288.43 472.073 1297.32 466.504C1306.21 460.935 1317.24 458.15 1330.41 458.15C1342.52 458.15 1353.12 460.667 1362.22 465.701C1371.43 470.734 1378.61 478.124 1383.75 487.87C1388.89 497.615 1391.46 509.61 1391.46 523.854V640H1370.74V525.139C1370.74 510.467 1366.61 498.793 1358.37 490.119C1350.12 481.444 1339.09 477.106 1325.27 477.106C1315.85 477.106 1307.44 479.195 1300.05 483.372C1292.66 487.441 1286.83 493.278 1282.54 500.882C1278.37 508.379 1276.28 517.375 1276.28 527.87ZM1508.05 643.855C1491.34 643.855 1476.83 639.946 1464.51 632.128C1452.2 624.203 1442.72 613.279 1436.08 599.357C1429.44 585.434 1426.12 569.424 1426.12 551.324C1426.12 533.225 1429.39 517.16 1435.92 503.131C1442.56 489.101 1451.77 478.07 1463.55 470.038C1475.33 462.006 1488.99 457.99 1504.52 457.99C1514.15 457.99 1523.52 459.81 1532.63 463.452C1541.73 466.986 1549.92 472.394 1557.21 479.677C1564.49 486.959 1570.22 496.223 1574.4 507.468C1578.57 518.606 1580.66 531.886 1580.66 547.308V556.625H1440.42V538.312H1569.42L1559.94 545.38C1559.94 532.315 1557.69 520.641 1553.19 510.36C1548.8 500.079 1542.48 491.939 1534.23 485.942C1525.99 479.944 1516.08 476.946 1504.52 476.946C1493.06 476.946 1482.99 479.998 1474.31 486.103C1465.64 492.1 1458.89 500.132 1454.07 510.199C1449.36 520.159 1447 531.083 1447 542.971V553.734C1447 568.085 1449.47 580.615 1454.39 591.325C1459.43 601.927 1466.5 610.174 1475.6 616.064C1484.81 621.954 1495.63 624.899 1508.05 624.899C1516.51 624.899 1523.95 623.561 1530.38 620.883C1536.8 618.206 1542.21 614.618 1546.6 610.12C1551 605.515 1554.32 600.535 1556.56 595.18L1576.32 601.767C1573.54 609.263 1569.04 616.225 1562.83 622.65C1556.72 628.969 1549.01 634.11 1539.7 638.072C1530.49 641.928 1519.94 643.855 1508.05 643.855ZM1685.2 460.399V478.552H1599.58V460.399H1685.2ZM1626.41 417.668H1647.13V593.092C1647.13 602.838 1649.54 610.174 1654.36 615.1C1659.18 619.919 1665.87 622.329 1674.44 622.329C1676.37 622.329 1678.3 622.222 1680.22 622.008C1682.26 621.687 1684.4 621.258 1686.65 620.723L1691.15 639.518C1688.68 640.482 1685.85 641.232 1682.63 641.767C1679.42 642.303 1676.1 642.57 1672.67 642.57C1659.39 642.57 1648.36 638.501 1639.58 630.361C1630.8 622.115 1626.41 611.352 1626.41 598.072V417.668ZM1721.63 640V460.399H1742.35V640H1721.63ZM1732.07 429.716C1727.79 429.716 1724.09 428.271 1720.99 425.379C1717.99 422.38 1716.49 418.792 1716.49 414.616C1716.49 410.546 1717.99 407.065 1720.99 404.174C1724.09 401.282 1727.79 399.836 1732.07 399.836C1736.36 399.836 1740 401.282 1743 404.174C1746 407.065 1747.5 410.546 1747.5 414.616C1747.5 418.792 1746 422.38 1743 425.379C1740 428.271 1736.36 429.716 1732.07 429.716ZM1781.03 640V623.614L1884.65 481.765V480.159H1785.37V460.399H1911.32V477.749L1809.63 618.795V620.401H1915.01V640H1781.03ZM2000.11 644.016C1989.3 644.016 1979.39 641.928 1970.4 637.751C1961.4 633.467 1954.22 627.309 1948.87 619.277C1943.62 611.138 1941 601.285 1941 589.718C1941 580.829 1942.66 573.386 1945.98 567.389C1949.3 561.391 1954.06 556.465 1960.27 552.609C1966.49 548.647 1973.77 545.541 1982.12 543.292C1990.58 540.936 1999.9 539.169 2010.07 537.991C2020.14 536.706 2028.66 535.635 2035.62 534.778C2042.58 533.814 2047.88 532.315 2051.52 530.28C2055.16 528.245 2056.98 524.979 2056.98 520.48V516.304C2056.98 503.988 2053.34 494.349 2046.06 487.388C2038.78 480.319 2028.33 476.785 2014.73 476.785C2001.77 476.785 1991.23 479.623 1983.09 485.299C1974.95 490.975 1969.27 497.669 1966.06 505.38L1946.14 498.151C1950.21 488.405 1955.83 480.587 1963.01 474.697C1970.18 468.806 1978.21 464.576 1987.1 462.006C1995.99 459.328 2004.99 457.99 2014.09 457.99C2020.94 457.99 2028.07 458.9 2035.46 460.721C2042.85 462.541 2049.75 465.647 2056.18 470.038C2062.61 474.429 2067.8 480.587 2071.76 488.512C2075.83 496.33 2077.87 506.237 2077.87 518.231V640H2056.98V611.566H2055.7C2053.34 616.814 2049.7 621.954 2044.77 626.988C2039.85 631.914 2033.69 635.984 2026.3 639.197C2018.91 642.41 2010.18 644.016 2000.11 644.016ZM2003.01 625.06C2014.04 625.06 2023.57 622.65 2031.6 617.831C2039.74 612.905 2046.01 606.318 2050.4 598.072C2054.79 589.825 2056.98 580.829 2056.98 571.083V545.22C2055.38 546.719 2052.75 548.058 2049.11 549.236C2045.58 550.414 2041.45 551.431 2036.74 552.288C2032.14 553.145 2027.42 553.895 2022.6 554.537C2017.89 555.18 2013.72 555.715 2010.07 556.144C2000.01 557.429 1991.33 559.41 1984.05 562.087C1976.87 564.765 1971.36 568.406 1967.5 573.011C1963.76 577.616 1961.88 583.56 1961.88 590.843C1961.88 601.66 1965.74 610.067 1973.45 616.064C1981.27 622.061 1991.12 625.06 2003.01 625.06ZM2192.37 460.399V478.552H2106.75V460.399H2192.37ZM2133.57 417.668H2154.3V593.092C2154.3 602.838 2156.71 610.174 2161.52 615.1C2166.34 619.919 2173.04 622.329 2181.61 622.329C2183.53 622.329 2185.46 622.222 2187.39 622.008C2189.42 621.687 2191.57 621.258 2193.81 620.723L2198.31 639.518C2195.85 640.482 2193.01 641.232 2189.8 641.767C2186.59 642.303 2183.27 642.57 2179.84 642.57C2166.56 642.57 2155.53 638.501 2146.75 630.361C2137.96 622.115 2133.57 611.352 2133.57 598.072V417.668ZM2228.8 640V460.399H2249.52V640H2228.8ZM2239.24 429.716C2234.96 429.716 2231.26 428.271 2228.15 425.379C2225.16 422.38 2223.66 418.792 2223.66 414.616C2223.66 410.546 2225.16 407.065 2228.15 404.174C2231.26 401.282 2234.96 399.836 2239.24 399.836C2243.52 399.836 2247.16 401.282 2250.16 404.174C2253.16 407.065 2254.66 410.546 2254.66 414.616C2254.66 418.792 2253.16 422.38 2250.16 425.379C2247.16 428.271 2243.52 429.716 2239.24 429.716ZM2363.38 643.855C2347.85 643.855 2334.14 639.946 2322.26 632.128C2310.37 624.203 2301.05 613.279 2294.3 599.357C2287.66 585.327 2284.34 569.263 2284.34 551.164C2284.34 532.743 2287.66 516.571 2294.3 502.649C2301.05 488.619 2310.37 477.695 2322.26 469.877C2334.14 461.952 2347.85 457.99 2363.38 457.99C2378.91 457.99 2392.56 461.952 2404.34 469.877C2416.23 477.695 2425.55 488.619 2432.3 502.649C2439.04 516.571 2442.42 532.743 2442.42 551.164C2442.42 569.263 2439.04 585.327 2432.3 599.357C2425.66 613.279 2416.39 624.203 2404.51 632.128C2392.62 639.946 2378.91 643.855 2363.38 643.855ZM2363.38 624.899C2375.91 624.899 2386.46 621.579 2395.03 614.939C2403.7 608.192 2410.29 599.196 2414.79 587.951C2419.28 576.706 2421.53 564.444 2421.53 551.164C2421.53 537.669 2419.28 525.3 2414.79 514.055C2410.29 502.81 2403.7 493.813 2395.03 487.066C2386.35 480.319 2375.8 476.946 2363.38 476.946C2350.96 476.946 2340.41 480.373 2331.73 487.227C2323.17 493.974 2316.58 502.97 2311.97 514.215C2307.48 525.353 2305.23 537.669 2305.23 551.164C2305.23 564.444 2307.48 576.706 2311.97 587.951C2316.47 599.196 2323.06 608.192 2331.73 614.939C2340.41 621.579 2350.96 624.899 2363.38 624.899ZM2497.8 527.87V640H2477.08V460.399H2497.16V488.833H2499.25C2503.42 479.516 2509.96 472.073 2518.85 466.504C2527.74 460.935 2538.77 458.15 2551.94 458.15C2564.04 458.15 2574.64 460.667 2583.75 465.701C2592.96 470.734 2600.13 478.124 2605.27 487.87C2610.41 497.615 2612.98 509.61 2612.98 523.854V640H2592.26V525.139C2592.26 510.467 2588.14 498.793 2579.89 490.119C2571.65 481.444 2560.61 477.106 2546.8 477.106C2537.37 477.106 2528.97 479.195 2521.58 483.372C2514.19 487.441 2508.35 493.278 2504.07 500.882C2499.89 508.379 2497.8 517.375 2497.8 527.87Z" fill="black"/>
<path d="M361.106 97.4301C388.76 97 416.185 97.2024 443.61 97C444.454 129.896 457.632 161.276 480.532 184.926C505.291 207.15 536.791 220.441 570 222.677V307.642C539.376 306.89 509.224 299.935 481.368 287.197C469.499 281.522 458.07 274.967 447.181 267.588C446.978 329.149 447.409 390.709 446.776 452.067C445.16 481.866 435.297 510.632 418.287 535.16C404.26 555.417 385.665 572.096 364.001 583.854C342.337 595.61 318.211 602.115 293.569 602.844C263.355 604.205 233.409 596.647 207.469 581.109C186.118 568.44 168.03 550.954 154.654 530.049C141.278 509.144 132.983 485.401 130.435 460.721C130.029 450.17 129.801 439.644 130.232 429.295C132.386 407.674 138.96 386.727 149.547 367.747C160.134 348.768 174.508 332.162 191.779 318.959C209.05 305.757 228.85 296.237 249.952 290.992C271.055 285.746 293.011 284.885 314.46 288.463C314.866 319.66 313.599 350.858 313.599 382.081C304.594 378.926 295.056 377.58 285.53 378.121C276.004 378.66 266.678 381.077 258.089 385.229C249.5 389.381 241.817 395.188 235.481 402.315C229.145 409.443 224.281 417.752 221.169 426.765C217.863 437.761 216.863 449.319 218.231 460.721C220.968 478.101 230.004 493.872 243.619 505.03C257.234 516.191 274.479 521.96 292.074 521.244C303.88 520.897 315.413 517.61 325.623 511.68C335.833 505.751 344.4 497.366 350.546 487.288C355.246 480.677 358.214 472.997 359.182 464.946C361.309 427.195 360.448 389.672 360.676 351.921C360.904 266.956 360.473 182.193 361.106 97.4301Z" fill="black"/>
</svg>
