<svg width="706" height="172" viewBox="0 0 706 172" fill="none" xmlns="http://www.w3.org/2000/svg">
<path d="M669.76 157.493C660.89 152.861 659.51 139.771 659.707 107.936L659.904 59.1477L642.951 59.1279L646.894 50.0997H659.904V26.9968L691.05 15.4453V49.3309L705.44 49.3506L701.694 59.3646L691.05 59.3448V143.773C691.641 150.574 694.007 154.575 697.161 157.493H669.76Z" fill="#000000"/>
<path d="M425.326 53.8648C431.043 49.0549 441.096 48.9564 447.601 52.0315C450.361 53.4114 452.924 55.2446 454.698 57.6495L442.082 77.2043C440.505 75.9427 439.322 75.371 437.351 74.346C431.043 71.6454 424.538 73.2224 420.792 76.6326V133.7C420.595 143.576 422.369 152.585 427.495 157.256H398.912C392.801 152.683 391.421 145.37 390.83 138.963L390.632 63.0705C390.83 56.9202 389.253 54.2196 386.887 50.7699L416.456 50.8882C418.821 52.6032 419.018 55.5798 420.201 57.8665L425.326 53.8648Z" fill="#000000"/>
<path d="M461.4 72.631C461.203 65.4163 462.78 56.7822 458.049 50.5531H485.449C487.42 51.933 488.406 54.2196 488.997 56.3879C490.574 58.3198 490.377 61.0795 490.969 63.3661L491.363 144.227C492.348 149.036 494.32 153.886 497.868 157.67L468.496 157.729C458.837 148.425 461.991 133.128 461.203 117.339L461.4 72.631Z" fill="#000000"/>
<path d="M504.964 73.4195C507.921 65.1994 517.186 61.0795 523.888 56.6048C534.139 52.8397 545.572 43.4566 557.005 51.1247C566.664 57.4129 575.141 64.5094 581.251 74.2277C582.631 77.9927 583.42 82.2309 584.406 86.2325C584.406 91.614 585.588 95.6157 585.391 100.997C585.785 106.832 585.785 112.095 585.391 117.812C584.997 127.53 580.463 136.223 572.775 142.965C561.342 153.156 546.952 164.708 531.379 156.803C517.383 150.278 501.022 137.367 502.008 119.625C501.416 107.049 500.825 96.1873 502.599 83.9459C503.19 80.3977 502.993 76.5143 504.964 73.4195ZM533.548 130.605C534.927 135.652 537.49 141.822 543.601 142.512C547.149 142.63 549.712 139.653 551.88 137.13C558.188 124.554 557.202 110.834 557.202 96.5225C555.231 85.8975 557.794 71.3694 546.361 64.8446C542.221 63.3661 539.264 66.1061 536.701 68.6294C532.168 75.371 531.773 83.0983 531.379 91.6732C529.999 105.393 531.576 116.767 533.548 130.605Z" fill="#000000"/>
<path d="M605.695 157.493C596.824 152.861 595.444 139.771 595.642 107.936L595.839 59.1477L579.083 59.1279L582.829 50.0997H595.839V26.9968L627.181 15.4453V49.3309L641.374 49.3506L637.629 59.3646L627.181 59.3448V143.773C627.773 150.574 630.138 154.575 633.292 157.493H605.695Z" fill="#000000"/>
<path d="M320.259 63.0705C320.062 56.9202 318.879 54.2196 316.514 50.7699L346.082 50.8882C348.448 52.6032 348.645 55.5798 349.828 57.8665L354.953 53.8648C360.67 49.0549 370.723 48.9564 377.228 52.0315C379.988 53.4114 382.55 55.2446 384.324 57.6495L371.708 77.2043C370.132 75.9427 368.949 75.371 366.978 74.346C360.67 71.6454 354.164 73.2224 350.419 76.6326V133.7C350.222 143.576 351.996 152.585 357.121 157.256H328.538C322.625 152.683 320.851 145.882 320.456 138.963L320.259 63.0705Z" fill="#000000"/>
<path d="M80.821 77.1544L70.1762 99.3112C62.6855 112.381 52.435 128.407 36.6651 132.389C30.5543 134.518 25.0348 132.586 19.1211 132.172L0 163.416C1.57699 164.954 3.54829 166.235 5.5195 166.984C39.0306 179.797 52.6322 166.018 85.5519 91.2882L116.895 157.857H158.488L138.775 112.932L150.012 89.7112L180.763 156.832L220.582 157.088L150.8 3.96222L118.669 19.9095L143.901 77.0558L132.862 99.5083L86.7347 0L53.0264 17.2286L80.821 77.1544Z" fill="#000000"/>
<path d="M224.063 120.098C224.851 109 230.962 98.5922 241.212 92.9939C251.463 86.6859 263.29 84.1824 273.935 78.6827C275.709 77.2043 277.877 75.371 278.075 72.9661C278.272 69.9895 276.695 67.7028 274.132 66.6778C257.968 63.2479 244.761 73.3012 233.13 83.256C234.51 75.9427 235.693 67.9394 239.241 61.0795C240.818 59.2462 242.001 56.7231 244.169 55.3629C255.602 49.7449 269.795 48.1482 282.411 49.0549C292.859 49.7449 302.518 57.1764 306.066 66.6778C307.84 71.1328 307.643 76.1793 308.037 80.7525L308.235 142.748C308.235 148.11 310.797 153.156 313.951 157.493H284.383C280.834 154.299 279.06 150.278 278.075 145.252C269.795 152.585 252.448 163.446 242.198 156.231C231.553 151.441 221.697 135.297 224.063 120.098ZM276.498 98.5331C276.3 94.2358 273.344 93.7824 271.175 93.7824C264.079 94.8074 257.968 100.741 254.42 106.832C251.463 112.253 250.674 116.826 250.477 121.577C250.477 126.702 250.083 130.507 252.251 134.39C253.434 136.913 255.8 138.056 258.362 138.727C262.896 139.653 267.036 138.392 270.584 135.987C279.06 131.295 277.483 121.912 277.68 113.574L276.498 98.5331Z" fill="#000000"/>
</svg>
