<svg width="1652" height="1492" viewBox="0 0 1652 1492" fill="none" xmlns="http://www.w3.org/2000/svg">
<path d="M169.397 907.64H226.105L280.724 1010.77H282.973L337.592 907.64H394.3L307.07 1062.5V1147H256.788V1062.5L169.397 907.64ZM453.38 1150.53C435.28 1150.53 419.591 1146.68 406.311 1138.97C393.138 1131.15 382.964 1120.33 375.788 1106.52C368.72 1092.6 365.186 1076.42 365.186 1058C365.186 1039.37 368.72 1023.14 375.788 1009.33C382.964 995.405 393.138 984.588 406.311 976.877C419.591 969.059 435.28 965.15 453.38 965.15C471.586 965.15 487.276 969.059 500.448 976.877C513.728 984.588 523.902 995.405 530.971 1009.33C538.146 1023.14 541.734 1039.37 541.734 1058C541.734 1076.42 538.146 1092.6 530.971 1106.52C523.902 1120.33 513.728 1131.15 500.448 1138.97C487.276 1146.68 471.586 1150.53 453.38 1150.53ZM453.701 1111.66C461.947 1111.66 468.855 1109.36 474.424 1104.75C479.993 1100.04 484.17 1093.61 486.954 1085.47C489.846 1077.33 491.292 1068.07 491.292 1057.68C491.292 1047.19 489.846 1037.92 486.954 1029.89C484.17 1021.86 479.993 1015.54 474.424 1010.93C468.855 1006.33 461.947 1004.03 453.701 1004.03C445.347 1004.03 438.332 1006.33 432.656 1010.93C427.087 1015.54 422.857 1021.86 419.965 1029.89C417.181 1037.92 415.789 1047.19 415.789 1057.68C415.789 1068.07 417.181 1077.33 419.965 1085.47C422.857 1093.61 427.087 1100.04 432.656 1104.75C438.332 1109.36 445.347 1111.66 453.701 1111.66ZM678.084 1070.69V967.399H727.723V1147H680.012V1114.39H678.084C674.014 1124.78 667.321 1133.24 658.003 1139.77C648.686 1146.2 637.28 1149.36 623.786 1149.25C611.791 1149.25 601.189 1146.57 591.978 1141.22C582.875 1135.75 575.753 1127.99 570.613 1117.92C565.579 1107.86 563.062 1095.81 563.062 1081.78V967.399H612.701V1073.1C612.701 1083.6 615.54 1091.95 621.216 1098.16C626.892 1104.27 634.442 1107.27 643.867 1107.16C649.864 1107.16 655.433 1105.82 660.574 1103.14C665.714 1100.36 669.891 1096.24 673.104 1090.77C676.424 1085.31 678.084 1078.62 678.084 1070.69ZM731.38 949.407V907.64H928.009V949.407H854.755V1147H804.795V949.407H731.38ZM1038.82 1070.69V967.399H1088.46V1147H1040.74V1114.39H1038.82C1034.75 1124.78 1028.05 1133.24 1018.74 1139.77C1009.42 1146.2 998.013 1149.36 984.519 1149.25C972.524 1149.25 961.921 1146.57 952.711 1141.22C943.608 1135.75 936.486 1127.99 931.345 1117.92C926.312 1107.86 923.795 1095.81 923.795 1081.78V967.399H973.434V1073.1C973.434 1083.6 976.272 1091.95 981.948 1098.16C987.625 1104.27 995.175 1107.27 1004.6 1107.16C1010.6 1107.16 1016.17 1105.82 1021.31 1103.14C1026.45 1100.36 1030.62 1096.24 1033.84 1090.77C1037.16 1085.31 1038.82 1078.62 1038.82 1070.69ZM1219.18 1149.89C1209.54 1149.89 1201.35 1148.29 1194.6 1145.07C1187.86 1141.86 1182.34 1137.84 1178.06 1133.02C1173.88 1128.1 1170.61 1123.17 1168.26 1118.24H1166.01V1147H1117.17V907.64H1166.81V997.761H1168.26C1170.51 992.835 1173.72 987.855 1177.9 982.821C1182.07 977.788 1187.54 973.611 1194.28 970.291C1201.03 966.864 1209.38 965.15 1219.34 965.15C1232.52 965.15 1244.56 968.577 1255.49 975.432C1266.52 982.179 1275.35 992.406 1281.99 1006.11C1288.63 1019.82 1291.95 1036.96 1291.95 1057.52C1291.95 1077.44 1288.74 1094.31 1282.32 1108.12C1275.89 1121.83 1267.16 1132.22 1256.13 1139.29C1245.21 1146.36 1232.89 1149.89 1219.18 1149.89ZM1203.44 1110.37C1211.58 1110.37 1218.43 1108.12 1224 1103.63C1229.57 1099.13 1233.8 1092.92 1236.69 1084.99C1239.58 1076.96 1241.03 1067.75 1241.03 1057.36C1241.03 1046.97 1239.58 1037.87 1236.69 1030.05C1233.91 1022.13 1229.73 1015.91 1224.16 1011.42C1218.59 1006.92 1211.69 1004.67 1203.44 1004.67C1195.41 1004.67 1188.55 1006.86 1182.88 1011.26C1177.31 1015.54 1173.02 1021.64 1170.03 1029.57C1167.13 1037.39 1165.69 1046.65 1165.69 1057.36C1165.69 1067.96 1167.19 1077.23 1170.19 1085.15C1173.18 1093.08 1177.47 1099.29 1183.04 1103.79C1188.71 1108.18 1195.51 1110.37 1203.44 1110.37ZM1394.89 1150.53C1376.47 1150.53 1360.57 1146.79 1347.18 1139.29C1333.79 1131.79 1323.51 1121.14 1316.34 1107.32C1309.27 1093.4 1305.73 1076.96 1305.73 1058C1305.73 1039.58 1309.27 1023.41 1316.34 1009.49C1323.51 995.566 1333.58 984.695 1346.54 976.877C1359.6 969.059 1374.92 965.15 1392.48 965.15C1404.37 965.15 1415.45 967.078 1425.73 970.934C1436.02 974.682 1445.01 980.358 1452.72 987.962C1460.43 995.459 1466.43 1004.94 1470.71 1016.4C1475 1027.75 1477.14 1041.08 1477.14 1056.4V1069.89H1325.49V1039.21H1453.04L1429.91 1047.24C1429.91 1038.14 1428.52 1030.21 1425.73 1023.46C1422.95 1016.72 1418.77 1011.52 1413.2 1007.88C1407.74 1004.13 1400.94 1002.26 1392.8 1002.26C1384.66 1002.26 1377.76 1004.13 1372.08 1007.88C1366.51 1011.63 1362.23 1016.72 1359.23 1023.14C1356.23 1029.57 1354.73 1036.96 1354.73 1045.31V1067C1354.73 1076.74 1356.44 1085.1 1359.87 1092.06C1363.3 1098.91 1368.06 1104.22 1374.17 1107.96C1380.38 1111.6 1387.5 1113.43 1395.53 1113.43C1401.1 1113.43 1406.14 1112.62 1410.63 1111.02C1415.13 1109.41 1418.99 1107.05 1422.2 1103.95C1425.52 1100.84 1427.98 1097.09 1429.59 1092.7L1475.53 1095.75C1473.29 1106.79 1468.57 1116.42 1461.4 1124.67C1454.33 1132.81 1445.17 1139.18 1433.93 1143.79C1422.68 1148.29 1409.67 1150.53 1394.89 1150.53ZM27.2831 1487H4.31097L91.541 1247.64H114.834L201.904 1487H179.092L103.911 1276.07H102.304L27.2831 1487ZM43.8295 1395.27H162.546V1414.87H43.8295V1395.27ZM341.627 1418.57V1307.4H362.35V1487H341.627V1457.12H340.021C335.737 1466.33 329.043 1474.04 319.94 1480.25C310.837 1486.36 299.699 1489.36 286.526 1489.25C275.067 1489.25 264.893 1486.79 256.004 1481.86C247.222 1476.83 240.26 1469.44 235.12 1459.69C230.086 1449.84 227.569 1437.84 227.569 1423.71V1307.4H248.293V1422.58C248.293 1436.5 252.416 1447.75 260.662 1456.32C269.016 1464.88 279.618 1469.11 292.47 1469.01C300.609 1469.01 308.427 1467.08 315.924 1463.22C323.421 1459.37 329.579 1453.69 334.398 1446.2C339.217 1438.7 341.627 1429.49 341.627 1418.57ZM477.013 1307.4V1325.55H391.389V1307.4H477.013ZM418.217 1264.67H438.94V1440.09C438.94 1449.84 441.35 1457.17 446.169 1462.1C450.989 1466.92 457.682 1469.33 466.25 1469.33C468.178 1469.33 470.105 1469.22 472.033 1469.01C474.068 1468.69 476.21 1468.26 478.459 1467.72L482.957 1486.52C480.494 1487.48 477.656 1488.23 474.443 1488.77C471.23 1489.3 467.91 1489.57 464.483 1489.57C451.203 1489.57 440.172 1485.5 431.39 1477.36C422.608 1469.11 418.217 1458.35 418.217 1445.07V1264.67ZM581.234 1490.86C565.705 1490.86 551.997 1486.95 540.109 1479.13C528.221 1471.2 518.904 1460.28 512.157 1446.36C505.517 1432.33 502.197 1416.26 502.197 1398.16C502.197 1379.74 505.517 1363.57 512.157 1349.65C518.904 1335.62 528.221 1324.7 540.109 1316.88C551.997 1308.95 565.705 1304.99 581.234 1304.99C596.763 1304.99 610.418 1308.95 622.198 1316.88C634.086 1324.7 643.403 1335.62 650.15 1349.65C656.897 1363.57 660.271 1379.74 660.271 1398.16C660.271 1416.26 656.897 1432.33 650.15 1446.36C643.51 1460.28 634.247 1471.2 622.359 1479.13C610.471 1486.95 596.763 1490.86 581.234 1490.86ZM581.234 1471.9C593.764 1471.9 604.313 1468.58 612.881 1461.94C621.556 1455.19 628.142 1446.2 632.64 1434.95C637.138 1423.71 639.387 1411.44 639.387 1398.16C639.387 1384.67 637.138 1372.3 632.64 1361.05C628.142 1349.81 621.556 1340.81 612.881 1334.07C604.206 1327.32 593.657 1323.95 581.234 1323.95C568.811 1323.95 558.262 1327.37 549.587 1334.23C541.019 1340.97 534.433 1349.97 529.828 1361.22C525.33 1372.35 523.081 1384.67 523.081 1398.16C523.081 1411.44 525.33 1423.71 529.828 1434.95C534.326 1446.2 540.912 1455.19 549.587 1461.94C558.262 1468.58 568.811 1471.9 581.234 1471.9ZM694.933 1487V1307.4H715.013V1335.19H717.102C720.636 1325.87 726.58 1318.54 734.933 1313.18C743.394 1307.83 753.515 1305.15 765.295 1305.15C777.611 1305.15 787.732 1308.1 795.657 1313.99C803.582 1319.77 809.526 1327.69 813.488 1337.76H815.095C819.165 1327.91 825.751 1320.04 834.854 1314.15C844.064 1308.15 855.149 1305.15 868.108 1305.15C884.815 1305.15 898.041 1310.4 907.787 1320.89C917.533 1331.39 922.405 1346.65 922.405 1366.68V1487H901.522V1366.68C901.522 1352.54 897.88 1341.94 890.598 1334.87C883.422 1327.69 873.891 1324.11 862.003 1324.11C848.295 1324.11 837.746 1328.39 830.356 1336.96C822.966 1345.42 819.272 1356.07 819.272 1368.93V1487H797.906V1364.75C797.906 1352.65 794.532 1342.85 787.785 1335.35C781.038 1327.85 771.507 1324.11 759.191 1324.11C750.944 1324.11 743.501 1326.19 736.861 1330.37C730.328 1334.44 725.134 1340.06 721.279 1347.24C717.53 1354.41 715.656 1362.71 715.656 1372.14V1487H694.933ZM1016.51 1491.02C1005.69 1491.02 995.783 1488.93 986.786 1484.75C977.79 1480.47 970.615 1474.31 965.26 1466.28C960.012 1458.14 957.388 1448.28 957.388 1436.72C957.388 1427.83 959.048 1420.39 962.368 1414.39C965.688 1408.39 970.454 1403.46 976.666 1399.61C982.877 1395.65 990.16 1392.54 998.513 1390.29C1006.97 1387.94 1016.29 1386.17 1026.47 1384.99C1036.53 1383.71 1045.05 1382.63 1052.01 1381.78C1058.97 1380.81 1064.27 1379.31 1067.91 1377.28C1071.55 1375.24 1073.37 1371.98 1073.37 1367.48V1363.3C1073.37 1350.99 1069.73 1341.35 1062.45 1334.39C1055.17 1327.32 1044.73 1323.79 1031.12 1323.79C1018.17 1323.79 1007.62 1326.62 999.477 1332.3C991.338 1337.98 985.662 1344.67 982.449 1352.38L962.529 1345.15C966.599 1335.41 972.221 1327.59 979.397 1321.7C986.572 1315.81 994.604 1311.58 1003.49 1309.01C1012.38 1306.33 1021.38 1304.99 1030.48 1304.99C1037.34 1304.99 1044.46 1305.9 1051.85 1307.72C1059.24 1309.54 1066.14 1312.65 1072.57 1317.04C1079 1321.43 1084.19 1327.59 1088.15 1335.51C1092.22 1343.33 1094.26 1353.24 1094.26 1365.23V1487H1073.37V1458.57H1072.09C1069.73 1463.81 1066.09 1468.95 1061.16 1473.99C1056.24 1478.91 1050.08 1482.98 1042.69 1486.2C1035.3 1489.41 1026.57 1491.02 1016.51 1491.02ZM1019.4 1472.06C1030.43 1472.06 1039.96 1469.65 1047.99 1464.83C1056.13 1459.9 1062.4 1453.32 1066.79 1445.07C1071.18 1436.83 1073.37 1427.83 1073.37 1418.08V1392.22C1071.77 1393.72 1069.14 1395.06 1065.5 1396.24C1061.97 1397.41 1057.84 1398.43 1053.13 1399.29C1048.53 1400.14 1043.82 1400.89 1039 1401.54C1034.28 1402.18 1030.11 1402.72 1026.47 1403.14C1016.4 1404.43 1007.72 1406.41 1000.44 1409.09C993.266 1411.76 987.75 1415.41 983.895 1420.01C980.146 1424.62 978.272 1430.56 978.272 1437.84C978.272 1448.66 982.128 1457.07 989.839 1463.06C997.657 1469.06 1007.51 1472.06 1019.4 1472.06ZM1208.76 1307.4V1325.55H1123.14V1307.4H1208.76ZM1149.96 1264.67H1170.69V1440.09C1170.69 1449.84 1173.1 1457.17 1177.92 1462.1C1182.74 1466.92 1189.43 1469.33 1198 1469.33C1199.92 1469.33 1201.85 1469.22 1203.78 1469.01C1205.81 1468.69 1207.96 1468.26 1210.21 1467.72L1214.7 1486.52C1212.24 1487.48 1209.4 1488.23 1206.19 1488.77C1202.98 1489.3 1199.66 1489.57 1196.23 1489.57C1182.95 1489.57 1171.92 1485.5 1163.14 1477.36C1154.35 1469.11 1149.96 1458.35 1149.96 1445.07V1264.67ZM1245.19 1487V1307.4H1265.91V1487H1245.19ZM1255.63 1276.72C1251.35 1276.72 1247.65 1275.27 1244.55 1272.38C1241.55 1269.38 1240.05 1265.79 1240.05 1261.62C1240.05 1257.55 1241.55 1254.07 1244.55 1251.17C1247.65 1248.28 1251.35 1246.84 1255.63 1246.84C1259.91 1246.84 1263.56 1248.28 1266.55 1251.17C1269.55 1254.07 1271.05 1257.55 1271.05 1261.62C1271.05 1265.79 1269.55 1269.38 1266.55 1272.38C1263.56 1275.27 1259.91 1276.72 1255.63 1276.72ZM1379.77 1490.86C1364.24 1490.86 1350.53 1486.95 1338.65 1479.13C1326.76 1471.2 1317.44 1460.28 1310.69 1446.36C1304.05 1432.33 1300.73 1416.26 1300.73 1398.16C1300.73 1379.74 1304.05 1363.57 1310.69 1349.65C1317.44 1335.62 1326.76 1324.7 1338.65 1316.88C1350.53 1308.95 1364.24 1304.99 1379.77 1304.99C1395.3 1304.99 1408.96 1308.95 1420.74 1316.88C1432.62 1324.7 1441.94 1335.62 1448.69 1349.65C1455.44 1363.57 1458.81 1379.74 1458.81 1398.16C1458.81 1416.26 1455.44 1432.33 1448.69 1446.36C1442.05 1460.28 1432.78 1471.2 1420.9 1479.13C1409.01 1486.95 1395.3 1490.86 1379.77 1490.86ZM1379.77 1471.9C1392.3 1471.9 1402.85 1468.58 1411.42 1461.94C1420.09 1455.19 1426.68 1446.2 1431.18 1434.95C1435.68 1423.71 1437.92 1411.44 1437.92 1398.16C1437.92 1384.67 1435.68 1372.3 1431.18 1361.05C1426.68 1349.81 1420.09 1340.81 1411.42 1334.07C1402.74 1327.32 1392.19 1323.95 1379.77 1323.95C1367.35 1323.95 1356.8 1327.37 1348.12 1334.23C1339.56 1340.97 1332.97 1349.97 1328.37 1361.22C1323.87 1372.35 1321.62 1384.67 1321.62 1398.16C1321.62 1411.44 1323.87 1423.71 1328.37 1434.95C1332.86 1446.2 1339.45 1455.19 1348.12 1461.94C1356.8 1468.58 1367.35 1471.9 1379.77 1471.9ZM1514.19 1374.87V1487H1493.47V1307.4H1513.55V1335.83H1515.64C1519.82 1326.52 1526.35 1319.07 1535.24 1313.5C1544.13 1307.93 1555.16 1305.15 1568.33 1305.15C1580.43 1305.15 1591.03 1307.67 1600.14 1312.7C1609.35 1317.73 1616.52 1325.12 1621.66 1334.87C1626.81 1344.62 1629.38 1356.61 1629.38 1370.85V1487H1608.65V1372.14C1608.65 1357.47 1604.53 1345.79 1596.28 1337.12C1588.04 1328.44 1577.01 1324.11 1563.19 1324.11C1553.77 1324.11 1545.36 1326.19 1537.97 1330.37C1530.58 1334.44 1524.74 1340.28 1520.46 1347.88C1516.28 1355.38 1514.19 1364.37 1514.19 1374.87Z" fill="white"/>
<path d="M826 700C1019.3 700 1176 543.3 1176 350C1176 156.7 1019.3 0 826 0C632.7 0 476 156.7 476 350C476 543.3 632.7 700 826 700Z" fill="#7AF546"/>
</svg>
