<svg width="1264" height="1492" viewBox="0 0 1264 1492" fill="none" xmlns="http://www.w3.org/2000/svg">
<path d="M123.03 1150.21C101.825 1150.21 82.815 1145.39 66.0009 1135.75C49.1868 1126.12 35.9068 1112.14 26.1611 1093.83C16.4153 1075.51 11.5424 1053.4 11.5424 1027.48C11.5424 1001.35 16.4153 979.126 26.1611 960.813C36.0139 942.392 49.3474 928.416 66.1616 918.885C83.0828 909.246 102.039 904.427 123.03 904.427C136.952 904.427 149.857 906.408 161.745 910.371C173.633 914.226 184.128 919.902 193.231 927.399C202.442 934.789 209.938 943.892 215.722 954.708C221.505 965.418 225.2 977.681 226.806 991.496H175.721C174.757 984.963 172.83 979.073 169.938 973.825C167.153 968.577 163.459 964.133 158.853 960.492C154.355 956.85 149.161 954.066 143.271 952.138C137.488 950.103 131.115 949.086 124.154 949.086C111.945 949.086 101.182 952.192 91.8647 958.403C82.6544 964.508 75.4789 973.397 70.3383 985.07C65.3048 996.637 62.788 1010.77 62.788 1027.48C62.788 1044.51 65.3583 1058.86 70.499 1070.53C75.6396 1082.1 82.815 1090.83 92.0253 1096.72C101.236 1102.61 111.892 1105.55 123.994 1105.55C130.741 1105.55 137.006 1104.64 142.789 1102.82C148.572 1101 153.713 1098.38 158.211 1094.95C162.709 1091.52 166.457 1087.35 169.456 1082.42C172.562 1077.39 174.65 1071.66 175.721 1065.23H226.806C225.521 1076.26 222.254 1086.87 217.007 1097.04C211.866 1107.21 204.851 1116.32 195.962 1124.35C187.073 1132.27 176.524 1138.59 164.315 1143.31C152.106 1147.91 138.345 1150.21 123.03 1150.21ZM300.826 1043.22V1147H251.187V907.64H299.219V999.368H301.468C305.538 988.765 312.071 980.412 321.067 974.307C330.17 968.203 341.522 965.15 355.124 965.15C367.547 965.15 378.417 967.881 387.734 973.343C397.052 978.698 404.281 986.409 409.422 996.476C414.669 1006.54 417.293 1018.65 417.293 1032.78V1147H367.493V1041.62C367.493 1030.59 364.655 1021.97 358.979 1015.75C353.41 1009.54 345.539 1006.44 335.364 1006.44C328.51 1006.44 322.513 1007.94 317.372 1010.93C312.232 1013.83 308.162 1018 305.163 1023.46C302.272 1028.93 300.826 1035.51 300.826 1043.22ZM496.935 1150.37C485.583 1150.37 475.355 1148.39 466.252 1144.43C457.256 1140.36 450.188 1134.36 445.047 1126.44C439.907 1118.51 437.336 1108.66 437.336 1096.88C437.336 1086.81 439.157 1078.46 442.798 1071.82C446.439 1065.07 451.419 1059.61 457.738 1055.43C464.057 1051.26 471.232 1048.1 479.264 1045.95C487.297 1043.81 495.811 1042.31 504.807 1041.46C515.195 1040.49 523.549 1039.53 529.867 1038.56C536.186 1037.6 540.791 1036.16 543.683 1034.23C546.682 1032.19 548.181 1029.3 548.181 1025.55V1024.75C548.181 1017.36 545.825 1011.63 541.113 1007.56C536.507 1003.49 529.975 1001.46 521.514 1001.46C512.625 1001.46 505.503 1003.44 500.148 1007.4C494.901 1011.26 491.42 1016.18 489.706 1022.18L443.601 1018.48C445.957 1007.56 450.563 998.136 457.417 990.211C464.271 982.179 473.106 976.021 483.923 971.737C494.847 967.346 507.484 965.15 521.835 965.15C531.795 965.15 541.327 966.328 550.43 968.685C559.533 971.041 567.619 974.682 574.687 979.608C581.863 984.428 587.539 990.693 591.716 998.404C595.892 1006.11 597.981 1015.27 597.981 1025.87V1147H550.591V1121.94H549.305C546.414 1127.62 542.558 1132.6 537.739 1136.88C532.92 1141.06 527.137 1144.38 520.389 1146.84C513.642 1149.2 505.824 1150.37 496.935 1150.37ZM511.233 1116C518.515 1116 524.941 1114.55 530.51 1111.66C536.186 1108.66 540.577 1104.7 543.683 1099.77C546.896 1094.74 548.502 1089.11 548.502 1082.9V1063.79C547.003 1064.75 544.861 1065.66 542.076 1066.52C539.399 1067.37 536.4 1068.12 533.08 1068.77C529.76 1069.41 526.44 1070 523.12 1070.53C519.8 1070.96 516.802 1071.39 514.124 1071.82C508.234 1072.68 503.093 1074.07 498.702 1076C494.312 1077.82 490.884 1080.33 488.421 1083.55C486.065 1086.65 484.887 1090.56 484.887 1095.27C484.887 1102.02 487.35 1107.16 492.277 1110.69C497.203 1114.23 503.522 1116 511.233 1116ZM676.017 1043.22V1147H626.377V967.399H675.213V999.368H676.98C681.05 988.765 687.529 980.412 696.418 974.307C705.307 968.203 716.445 965.15 729.833 965.15C742.256 965.15 753.072 967.881 762.283 973.343C771.6 978.805 778.829 986.57 783.97 996.637C789.11 1006.7 791.681 1018.75 791.681 1032.78V1147H742.042V1041.62C742.042 1030.69 739.203 1022.13 733.527 1015.91C727.851 1009.6 720.033 1006.44 710.073 1006.44C703.433 1006.44 697.543 1007.94 692.402 1010.93C687.262 1013.83 683.246 1018 680.354 1023.46C677.462 1028.93 676.017 1035.51 676.017 1043.22ZM870.038 1043.22V1147H820.399V967.399H869.235V999.368H871.002C875.071 988.765 881.551 980.412 890.44 974.307C899.329 968.203 910.467 965.15 923.854 965.15C936.277 965.15 947.094 967.881 956.304 973.343C965.621 978.805 972.85 986.57 977.991 996.637C983.132 1006.7 985.702 1018.75 985.702 1032.78V1147H936.063V1041.62C936.063 1030.69 933.225 1022.13 927.549 1015.91C921.872 1009.6 914.054 1006.44 904.094 1006.44C897.454 1006.44 891.564 1007.94 886.424 1010.93C881.283 1013.83 877.267 1018 874.375 1023.46C871.484 1028.93 870.038 1035.51 870.038 1043.22ZM1096.19 1150.53C1077.77 1150.53 1061.86 1146.79 1048.48 1139.29C1035.09 1131.79 1024.81 1121.14 1017.63 1107.32C1010.56 1093.4 1007.03 1076.96 1007.03 1058C1007.03 1039.58 1010.56 1023.41 1017.63 1009.49C1024.81 995.566 1034.88 984.695 1047.83 976.877C1060.9 969.059 1076.21 965.15 1093.78 965.15C1105.67 965.15 1116.75 967.078 1127.03 970.934C1137.31 974.682 1146.31 980.358 1154.02 987.962C1161.73 995.459 1167.73 1004.94 1172.01 1016.4C1176.3 1027.75 1178.44 1041.08 1178.44 1056.4V1069.89H1026.79V1039.21H1154.34L1131.21 1047.24C1131.21 1038.14 1129.82 1030.21 1127.03 1023.46C1124.25 1016.72 1120.07 1011.52 1114.5 1007.88C1109.04 1004.13 1102.24 1002.26 1094.1 1002.26C1085.96 1002.26 1079.05 1004.13 1073.38 1007.88C1067.81 1011.63 1063.52 1016.72 1060.52 1023.14C1057.53 1029.57 1056.03 1036.96 1056.03 1045.31V1067C1056.03 1076.74 1057.74 1085.1 1061.17 1092.06C1064.59 1098.91 1069.36 1104.22 1075.46 1107.96C1081.68 1111.6 1088.8 1113.43 1096.83 1113.43C1102.4 1113.43 1107.43 1112.62 1111.93 1111.02C1116.43 1109.41 1120.28 1107.05 1123.5 1103.95C1126.82 1100.84 1129.28 1097.09 1130.89 1092.7L1176.83 1095.75C1174.58 1106.79 1169.87 1116.42 1162.69 1124.67C1155.63 1132.81 1146.47 1139.18 1135.22 1143.79C1123.98 1148.29 1110.97 1150.53 1096.19 1150.53ZM1248.76 907.64V1147H1199.12V907.64H1248.76ZM143.895 1487V1247.64H221.326C238.354 1247.64 252.544 1250.75 263.896 1256.96C275.249 1263.06 283.816 1271.52 289.599 1282.34C295.49 1293.16 298.435 1305.53 298.435 1319.45C298.435 1333.37 295.543 1345.69 289.76 1356.4C283.977 1367 275.356 1375.3 263.896 1381.3C252.544 1387.29 238.461 1390.29 221.647 1390.29H155.943V1370.37H221.004C233.534 1370.37 243.923 1368.28 252.169 1364.11C260.416 1359.93 266.574 1354.04 270.643 1346.44C274.82 1338.83 276.909 1329.84 276.909 1319.45C276.909 1308.95 274.82 1299.8 270.643 1291.98C266.467 1284.16 260.255 1278.11 252.009 1273.82C243.762 1269.54 233.32 1267.4 220.683 1267.4H165.742V1487H143.895ZM283.013 1487L224.86 1378.89H249.599L308.395 1487H283.013ZM407.314 1490.86C390.607 1490.86 376.096 1486.95 363.78 1479.13C351.464 1471.2 341.986 1460.28 335.346 1446.36C328.706 1432.43 325.386 1416.42 325.386 1398.32C325.386 1380.22 328.652 1364.16 335.185 1350.13C341.825 1336.1 351.035 1325.07 362.816 1317.04C374.597 1309.01 388.251 1304.99 403.78 1304.99C413.419 1304.99 422.79 1306.81 431.893 1310.45C440.996 1313.99 449.189 1319.39 456.472 1326.68C463.754 1333.96 469.484 1343.22 473.661 1354.47C477.837 1365.61 479.926 1378.89 479.926 1394.31V1403.63H339.683V1385.31H468.681L459.203 1392.38C459.203 1379.31 456.954 1367.64 452.456 1357.36C448.065 1347.08 441.746 1338.94 433.5 1332.94C425.253 1326.94 415.347 1323.95 403.78 1323.95C392.321 1323.95 382.254 1327 373.579 1333.1C364.904 1339.1 358.157 1347.13 353.338 1357.2C348.626 1367.16 346.27 1378.08 346.27 1389.97V1400.73C346.27 1415.08 348.733 1427.62 353.659 1438.32C358.693 1448.93 365.761 1457.17 374.864 1463.06C384.075 1468.95 394.891 1471.9 407.314 1471.9C415.775 1471.9 423.218 1470.56 429.644 1467.88C436.07 1465.21 441.478 1461.62 445.869 1457.12C450.26 1452.51 453.58 1447.53 455.829 1442.18L475.588 1448.77C472.804 1456.26 468.306 1463.22 462.094 1469.65C455.99 1475.97 448.279 1481.11 438.961 1485.07C429.751 1488.93 419.202 1490.86 407.314 1490.86ZM646.316 1307.4L580.934 1487H558.604L493.061 1307.4H515.712L568.885 1459.69H570.492L623.826 1307.4H646.316ZM676.159 1487V1307.4H696.882V1487H676.159ZM686.6 1276.72C682.317 1276.72 678.622 1275.27 675.516 1272.38C672.517 1269.38 671.018 1265.79 671.018 1261.62C671.018 1257.55 672.517 1254.07 675.516 1251.17C678.622 1248.28 682.317 1246.84 686.6 1246.84C690.884 1246.84 694.526 1248.28 697.524 1251.17C700.523 1254.07 702.022 1257.55 702.022 1261.62C702.022 1265.79 700.523 1269.38 697.524 1272.38C694.526 1275.27 690.884 1276.72 686.6 1276.72ZM813.633 1490.86C796.926 1490.86 782.414 1486.95 770.098 1479.13C757.782 1471.2 748.304 1460.28 741.664 1446.36C735.024 1432.43 731.704 1416.42 731.704 1398.32C731.704 1380.22 734.971 1364.16 741.503 1350.13C748.143 1336.1 757.354 1325.07 769.134 1317.04C780.915 1309.01 794.57 1304.99 810.099 1304.99C819.737 1304.99 829.108 1306.81 838.211 1310.45C847.315 1313.99 855.508 1319.39 862.79 1326.68C870.073 1333.96 875.802 1343.22 879.979 1354.47C884.156 1365.61 886.244 1378.89 886.244 1394.31V1403.63H746.002V1385.31H874.999L865.521 1392.38C865.521 1379.31 863.272 1367.64 858.774 1357.36C854.383 1347.08 848.064 1338.94 839.818 1332.94C831.572 1326.94 821.665 1323.95 810.099 1323.95C798.639 1323.95 788.572 1327 779.898 1333.1C771.223 1339.1 764.476 1347.13 759.656 1357.2C754.944 1367.16 752.588 1378.08 752.588 1389.97V1400.73C752.588 1415.08 755.051 1427.62 759.978 1438.32C765.011 1448.93 772.079 1457.17 781.183 1463.06C790.393 1468.95 801.21 1471.9 813.633 1471.9C822.093 1471.9 829.537 1470.56 835.962 1467.88C842.388 1465.21 847.797 1461.62 852.188 1457.12C856.579 1452.51 859.898 1447.53 862.148 1442.18L881.907 1448.77C879.122 1456.26 874.624 1463.22 868.413 1469.65C862.308 1475.97 854.597 1481.11 845.28 1485.07C836.07 1488.93 825.521 1490.86 813.633 1490.86ZM953.999 1487L899.701 1307.4H921.709L964.28 1455.51H965.886L1008.3 1307.4H1030.47L1072.23 1455.35H1073.84L1116.57 1307.4H1138.42L1084.28 1487H1062.92L1020.18 1340.01H1018.1L975.364 1487H953.999Z" fill="white"/>
<path d="M632 700C825.3 700 982 543.3 982 350C982 156.7 825.3 0 632 0C438.7 0 282 156.7 282 350C282 543.3 438.7 700 632 700Z" fill="#7AF546"/>
<path d="M680.2 265.434L481.4 460.684C478.08 463.95 473.61 465.78 468.953 465.78C464.296 465.78 459.825 463.95 456.506 460.684L371.306 377.015C369.643 375.38 368.319 373.434 367.409 371.288C366.499 369.142 366.02 366.837 366.001 364.506C365.981 362.175 366.421 359.863 367.295 357.701C368.169 355.54 369.46 353.572 371.095 351.91C372.729 350.248 374.675 348.924 376.822 348.013C378.968 347.103 381.272 346.625 383.604 346.605C385.935 346.585 388.247 347.025 390.408 347.899C392.57 348.773 394.538 350.065 396.2 351.699L468.953 423.143L655.328 240.096C658.688 236.795 663.222 234.964 667.932 235.005C670.264 235.026 672.569 235.506 674.716 236.417C676.863 237.329 678.809 238.654 680.444 240.318C682.079 241.982 683.369 243.951 684.243 246.114C685.116 248.276 685.555 250.59 685.535 252.922C685.514 255.254 685.034 257.56 684.123 259.706C683.211 261.853 681.886 263.8 680.222 265.434H680.2ZM893.422 240.318C891.788 238.653 889.842 237.326 887.695 236.414C885.548 235.502 883.242 235.021 880.91 235.001C878.577 234.98 876.263 235.42 874.1 236.294C871.938 237.168 869.969 238.46 868.305 240.096L681.93 423.143L640.151 382.096C636.791 378.798 632.259 376.969 627.551 377.013C622.842 377.057 618.345 378.969 615.046 382.329C611.748 385.689 609.92 390.222 609.963 394.93C610.007 399.638 611.919 404.136 615.279 407.434L669.483 460.684C672.803 463.95 677.274 465.78 681.93 465.78C686.587 465.78 691.058 463.95 694.378 460.684L893.178 265.434C894.844 263.802 896.172 261.857 897.087 259.711C898.001 257.565 898.483 255.259 898.506 252.927C898.529 250.594 898.091 248.28 897.219 246.116C896.346 243.953 895.056 241.982 893.422 240.318Z" fill="black"/>
</svg>
