<svg width="1866" height="1488" viewBox="0 0 1866 1488" fill="none" xmlns="http://www.w3.org/2000/svg">
<path d="M438.308 946.068V904.3H634.937V946.068H561.683V1143.66H511.723V946.068H438.308ZM655.141 1143.66V964.06H704.78V1143.66H655.141ZM679.88 941.088C672.491 941.088 666.172 938.625 660.924 933.698C655.677 928.772 653.053 922.828 653.053 915.867C653.053 908.905 655.677 903.015 660.924 898.196C666.172 893.269 672.491 890.806 679.88 890.806C687.377 890.806 693.749 893.269 698.997 898.196C704.245 903.015 706.869 908.905 706.869 915.867C706.869 922.828 704.245 928.772 698.997 933.698C693.749 938.625 687.377 941.088 679.88 941.088ZM778.479 1091.93L778.639 1032.33H785.868L843.218 964.06H900.408L823.299 1054.5H811.25L778.479 1091.93ZM733.498 1143.66V904.3H783.137V1143.66H733.498ZM845.467 1143.66L792.776 1065.59L825.869 1030.25L903.781 1143.66H845.467ZM886.394 946.068V904.3H1083.02V946.068H1009.77V1143.66H959.809V946.068H886.394ZM1158.33 1147.19C1140.23 1147.19 1124.54 1143.34 1111.26 1135.63C1098.09 1127.81 1087.91 1116.99 1080.74 1103.18C1073.67 1089.26 1070.13 1073.08 1070.13 1054.66C1070.13 1036.03 1073.67 1019.8 1080.74 1005.99C1087.91 992.066 1098.09 981.249 1111.26 973.538C1124.54 965.72 1140.23 961.811 1158.33 961.811C1176.53 961.811 1192.22 965.72 1205.4 973.538C1218.68 981.249 1228.85 992.066 1235.92 1005.99C1243.09 1019.8 1246.68 1036.03 1246.68 1054.66C1246.68 1073.08 1243.09 1089.26 1235.92 1103.18C1228.85 1116.99 1218.68 1127.81 1205.4 1135.63C1192.22 1143.34 1176.53 1147.19 1158.33 1147.19ZM1158.65 1108.32C1166.9 1108.32 1173.8 1106.02 1179.37 1101.41C1184.94 1096.7 1189.12 1090.27 1191.9 1082.13C1194.79 1073.99 1196.24 1064.73 1196.24 1054.34C1196.24 1043.85 1194.79 1034.58 1191.9 1026.55C1189.12 1018.52 1184.94 1012.2 1179.37 1007.59C1173.8 1002.99 1166.9 1000.69 1158.65 1000.69C1150.3 1000.69 1143.28 1002.99 1137.6 1007.59C1132.04 1012.2 1127.81 1018.52 1124.91 1026.55C1122.13 1034.58 1120.74 1043.85 1120.74 1054.34C1120.74 1064.73 1122.13 1073.99 1124.91 1082.13C1127.81 1090.27 1132.04 1096.7 1137.6 1101.41C1143.28 1106.02 1150.3 1108.32 1158.65 1108.32ZM1312.99 1091.93L1313.15 1032.33H1320.38L1377.73 964.06H1434.92L1357.81 1054.5H1345.76L1312.99 1091.93ZM1268.01 1143.66V904.3H1317.65V1143.66H1268.01ZM1379.98 1143.66L1327.29 1065.59L1360.38 1030.25L1438.29 1143.66H1379.98ZM26.8494 1244.3H52.2312L138.979 1452.66H141.228L227.976 1244.3H254.001V1483.66H232.635V1290.41H230.868L149.742 1483.66H129.983L49.5002 1290.41H47.7332V1483.66H26.8494V1244.3ZM372.198 1487.52C356.669 1487.52 342.96 1483.61 331.073 1475.79C319.185 1467.86 309.868 1456.94 303.121 1443.02C296.481 1428.99 293.161 1412.92 293.161 1394.82C293.161 1376.4 296.481 1360.23 303.121 1346.31C309.868 1332.28 319.185 1321.36 331.073 1313.54C342.96 1305.61 356.669 1301.65 372.198 1301.65C387.727 1301.65 401.381 1305.61 413.162 1313.54C425.05 1321.36 434.367 1332.28 441.114 1346.31C447.861 1360.23 451.235 1376.4 451.235 1394.82C451.235 1412.92 447.861 1428.99 441.114 1443.02C434.474 1456.94 425.21 1467.86 413.323 1475.79C401.435 1483.61 387.727 1487.52 372.198 1487.52ZM372.198 1468.56C384.728 1468.56 395.277 1465.24 403.845 1458.6C412.519 1451.85 419.106 1442.86 423.604 1431.61C428.102 1420.37 430.351 1408.1 430.351 1394.82C430.351 1381.33 428.102 1368.96 423.604 1357.72C419.106 1346.47 412.519 1337.47 403.845 1330.73C395.17 1323.98 384.621 1320.61 372.198 1320.61C359.775 1320.61 349.226 1324.03 340.551 1330.89C331.983 1337.63 325.397 1346.63 320.791 1357.88C316.293 1369.01 314.044 1381.33 314.044 1394.82C314.044 1408.1 316.293 1420.37 320.791 1431.61C325.289 1442.86 331.876 1451.85 340.551 1458.6C349.226 1465.24 359.775 1468.56 372.198 1468.56ZM506.62 1371.53V1483.66H485.897V1304.06H505.977V1332.49H508.066C512.242 1323.18 518.775 1315.73 527.664 1310.16C536.553 1304.6 547.584 1301.81 560.757 1301.81C572.859 1301.81 583.461 1304.33 592.565 1309.36C601.775 1314.39 608.95 1321.78 614.091 1331.53C619.232 1341.28 621.802 1353.27 621.802 1367.51V1483.66H601.079V1368.8C601.079 1354.13 596.956 1342.45 588.709 1333.78C580.463 1325.1 569.432 1320.77 555.616 1320.77C546.192 1320.77 537.785 1322.86 530.395 1327.03C523.005 1331.1 517.169 1336.94 512.885 1344.54C508.708 1352.04 506.62 1361.04 506.62 1371.53ZM738.392 1487.52C721.685 1487.52 707.174 1483.61 694.858 1475.79C682.542 1467.86 673.064 1456.94 666.424 1443.02C659.784 1429.1 656.464 1413.08 656.464 1394.98C656.464 1376.89 659.73 1360.82 666.263 1346.79C672.903 1332.76 682.113 1321.73 693.894 1313.7C705.674 1305.67 719.329 1301.65 734.858 1301.65C744.497 1301.65 753.868 1303.47 762.971 1307.11C772.074 1310.65 780.267 1316.05 787.55 1323.34C794.832 1330.62 800.562 1339.88 804.739 1351.13C808.915 1362.27 811.004 1375.55 811.004 1390.97V1400.29H670.761V1381.97H799.759L790.281 1389.04C790.281 1375.98 788.032 1364.3 783.534 1354.02C779.143 1343.74 772.824 1335.6 764.577 1329.6C756.331 1323.61 746.425 1320.61 734.858 1320.61C723.399 1320.61 713.332 1323.66 704.657 1329.76C695.982 1335.76 689.235 1343.79 684.416 1353.86C679.704 1363.82 677.347 1374.74 677.347 1386.63V1397.39C677.347 1411.75 679.811 1424.28 684.737 1434.99C689.771 1445.59 696.839 1453.83 705.942 1459.72C715.152 1465.61 725.969 1468.56 738.392 1468.56C746.853 1468.56 754.296 1467.22 760.722 1464.54C767.148 1461.87 772.556 1458.28 776.947 1453.78C781.338 1449.18 784.658 1444.2 786.907 1438.84L806.666 1445.43C803.882 1452.92 799.384 1459.89 793.172 1466.31C787.068 1472.63 779.357 1477.77 770.039 1481.73C760.829 1485.59 750.28 1487.52 738.392 1487.52ZM915.546 1304.06V1322.21H829.922V1304.06H915.546ZM856.75 1261.33H877.473V1436.75C877.473 1446.5 879.883 1453.83 884.702 1458.76C889.521 1463.58 896.215 1465.99 904.783 1465.99C906.71 1465.99 908.638 1465.88 910.566 1465.67C912.601 1465.35 914.743 1464.92 916.992 1464.38L921.49 1483.18C919.027 1484.14 916.188 1484.89 912.976 1485.43C909.763 1485.96 906.443 1486.23 903.016 1486.23C889.736 1486.23 878.705 1482.16 869.923 1474.02C861.141 1465.78 856.75 1455.01 856.75 1441.73V1261.33ZM951.975 1483.66V1304.06H972.698V1483.66H951.975ZM962.417 1273.38C958.133 1273.38 954.438 1271.93 951.332 1269.04C948.333 1266.04 946.834 1262.45 946.834 1258.28C946.834 1254.21 948.333 1250.73 951.332 1247.83C954.438 1244.94 958.133 1243.5 962.417 1243.5C966.7 1243.5 970.342 1244.94 973.34 1247.83C976.339 1250.73 977.839 1254.21 977.839 1258.28C977.839 1262.45 976.339 1266.04 973.34 1269.04C970.342 1271.93 966.7 1273.38 962.417 1273.38ZM1011.38 1483.66V1467.27L1114.99 1325.43V1323.82H1015.71V1304.06H1141.66V1321.41L1039.97 1462.46V1464.06H1145.35V1483.66H1011.38ZM1230.46 1487.68C1219.64 1487.68 1209.73 1485.59 1200.74 1481.41C1191.74 1477.13 1184.57 1470.97 1179.21 1462.94C1173.96 1454.8 1171.34 1444.95 1171.34 1433.38C1171.34 1424.49 1173 1417.05 1176.32 1411.05C1179.64 1405.05 1184.41 1400.13 1190.62 1396.27C1196.83 1392.31 1204.11 1389.2 1212.47 1386.95C1220.93 1384.6 1230.24 1382.83 1240.42 1381.65C1250.48 1380.37 1259 1379.3 1265.96 1378.44C1272.92 1377.47 1278.22 1375.98 1281.86 1373.94C1285.51 1371.91 1287.33 1368.64 1287.33 1364.14V1359.96C1287.33 1347.65 1283.68 1338.01 1276.4 1331.05C1269.12 1323.98 1258.68 1320.45 1245.08 1320.45C1232.12 1320.45 1221.57 1323.28 1213.43 1328.96C1205.29 1334.64 1199.61 1341.33 1196.4 1349.04L1176.48 1341.81C1180.55 1332.07 1186.17 1324.25 1193.35 1318.36C1200.52 1312.47 1208.56 1308.24 1217.45 1305.67C1226.33 1302.99 1235.33 1301.65 1244.43 1301.65C1251.29 1301.65 1258.41 1302.56 1265.8 1304.38C1273.19 1306.2 1280.1 1309.31 1286.52 1313.7C1292.95 1318.09 1298.14 1324.25 1302.1 1332.17C1306.17 1339.99 1308.21 1349.9 1308.21 1361.89V1483.66H1287.33V1455.23H1286.04C1283.68 1460.47 1280.04 1465.61 1275.12 1470.65C1270.19 1475.57 1264.03 1479.64 1256.64 1482.86C1249.25 1486.07 1240.52 1487.68 1230.46 1487.68ZM1233.35 1468.72C1244.38 1468.72 1253.91 1466.31 1261.94 1461.49C1270.08 1456.57 1276.35 1449.98 1280.74 1441.73C1285.13 1433.49 1287.33 1424.49 1287.33 1414.74V1388.88C1285.72 1390.38 1283.1 1391.72 1279.45 1392.9C1275.92 1394.07 1271.8 1395.09 1267.08 1395.95C1262.48 1396.81 1257.77 1397.56 1252.95 1398.2C1248.24 1398.84 1244.06 1399.38 1240.42 1399.8C1230.35 1401.09 1221.68 1403.07 1214.39 1405.75C1207.22 1408.43 1201.7 1412.07 1197.85 1416.67C1194.1 1421.28 1192.22 1427.22 1192.22 1434.5C1192.22 1445.32 1196.08 1453.73 1203.79 1459.72C1211.61 1465.72 1221.46 1468.72 1233.35 1468.72ZM1422.71 1304.06V1322.21H1337.09V1304.06H1422.71ZM1363.92 1261.33H1384.64V1436.75C1384.64 1446.5 1387.05 1453.83 1391.87 1458.76C1396.69 1463.58 1403.38 1465.99 1411.95 1465.99C1413.88 1465.99 1415.8 1465.88 1417.73 1465.67C1419.77 1465.35 1421.91 1464.92 1424.16 1464.38L1428.66 1483.18C1426.19 1484.14 1423.35 1484.89 1420.14 1485.43C1416.93 1485.96 1413.61 1486.23 1410.18 1486.23C1396.9 1486.23 1385.87 1482.16 1377.09 1474.02C1368.31 1465.78 1363.92 1455.01 1363.92 1441.73V1261.33ZM1459.14 1483.66V1304.06H1479.86V1483.66H1459.14ZM1469.58 1273.38C1465.3 1273.38 1461.6 1271.93 1458.5 1269.04C1455.5 1266.04 1454 1262.45 1454 1258.28C1454 1254.21 1455.5 1250.73 1458.5 1247.83C1461.6 1244.94 1465.3 1243.5 1469.58 1243.5C1473.87 1243.5 1477.51 1244.94 1480.51 1247.83C1483.5 1250.73 1485 1254.21 1485 1258.28C1485 1262.45 1483.5 1266.04 1480.51 1269.04C1477.51 1271.93 1473.87 1273.38 1469.58 1273.38ZM1593.72 1487.52C1578.19 1487.52 1564.49 1483.61 1552.6 1475.79C1540.71 1467.86 1531.39 1456.94 1524.65 1443.02C1518.01 1428.99 1514.69 1412.92 1514.69 1394.82C1514.69 1376.4 1518.01 1360.23 1524.65 1346.31C1531.39 1332.28 1540.71 1321.36 1552.6 1313.54C1564.49 1305.61 1578.19 1301.65 1593.72 1301.65C1609.25 1301.65 1622.91 1305.61 1634.69 1313.54C1646.58 1321.36 1655.89 1332.28 1662.64 1346.31C1669.39 1360.23 1672.76 1376.4 1672.76 1394.82C1672.76 1412.92 1669.39 1428.99 1662.64 1443.02C1656 1456.94 1646.74 1467.86 1634.85 1475.79C1622.96 1483.61 1609.25 1487.52 1593.72 1487.52ZM1593.72 1468.56C1606.25 1468.56 1616.8 1465.24 1625.37 1458.6C1634.04 1451.85 1640.63 1442.86 1645.13 1431.61C1649.63 1420.37 1651.88 1408.1 1651.88 1394.82C1651.88 1381.33 1649.63 1368.96 1645.13 1357.72C1640.63 1346.47 1634.04 1337.47 1625.37 1330.73C1616.7 1323.98 1606.15 1320.61 1593.72 1320.61C1581.3 1320.61 1570.75 1324.03 1562.08 1330.89C1553.51 1337.63 1546.92 1346.63 1542.32 1357.88C1537.82 1369.01 1535.57 1381.33 1535.57 1394.82C1535.57 1408.1 1537.82 1420.37 1542.32 1431.61C1546.81 1442.86 1553.4 1451.85 1562.08 1458.6C1570.75 1465.24 1581.3 1468.56 1593.72 1468.56ZM1728.15 1371.53V1483.66H1707.42V1304.06H1727.5V1332.49H1729.59C1733.77 1323.18 1740.3 1315.73 1749.19 1310.16C1758.08 1304.6 1769.11 1301.81 1782.28 1301.81C1794.38 1301.81 1804.99 1304.33 1814.09 1309.36C1823.3 1314.39 1830.48 1321.78 1835.62 1331.53C1840.76 1341.28 1843.33 1353.27 1843.33 1367.51V1483.66H1822.6V1368.8C1822.6 1354.13 1818.48 1342.45 1810.23 1333.78C1801.99 1325.1 1790.96 1320.77 1777.14 1320.77C1767.72 1320.77 1759.31 1322.86 1751.92 1327.03C1744.53 1331.1 1738.69 1336.94 1734.41 1344.54C1730.23 1352.04 1728.15 1361.04 1728.15 1371.53Z" fill="white"/>
<path d="M933 696.456C1126.3 696.456 1283 540.549 1283 348.228C1283 155.907 1126.3 0 933 0C739.7 0 583 155.907 583 348.228C583 540.549 739.7 696.456 933 696.456Z" fill="#7AF546"/>
<path d="M944.106 96.9367C971.76 96.5088 999.185 96.7102 1026.61 96.5088C1027.45 129.238 1040.63 160.459 1063.53 183.989C1088.29 206.101 1119.79 219.325 1153 221.549V306.084C1122.38 305.336 1092.22 298.416 1064.37 285.743C1052.5 280.097 1041.07 273.575 1030.18 266.233C1029.98 327.482 1030.41 388.731 1029.78 449.778C1028.16 479.426 1018.3 508.046 1001.29 532.45C987.26 552.605 968.665 569.2 947.001 580.898C925.337 592.594 901.211 599.066 876.569 599.791C846.355 601.146 816.409 593.626 790.469 578.167C769.118 565.562 751.03 548.164 737.654 527.365C724.278 506.566 715.983 482.943 713.435 458.388C713.029 447.89 712.801 437.418 713.232 427.122C715.386 405.61 721.96 384.768 732.547 365.885C743.134 347.002 757.508 330.48 774.779 317.344C792.05 304.208 811.85 294.737 832.952 289.518C854.055 284.299 876.011 283.443 897.46 287.002C897.866 318.042 896.599 349.082 896.599 380.146C887.594 377.007 878.056 375.668 868.53 376.207C859.004 376.743 849.678 379.147 841.089 383.278C832.5 387.409 824.817 393.187 818.481 400.278C812.145 407.37 807.281 415.637 804.169 424.604C800.863 435.545 799.863 447.044 801.231 458.388C803.968 475.68 813.004 491.371 826.619 502.473C840.234 513.577 857.479 519.317 875.074 518.605C886.88 518.26 898.413 514.99 908.623 509.089C918.834 503.19 927.4 494.848 933.546 484.821C938.246 478.243 941.214 470.602 942.182 462.592C944.309 425.032 943.448 387.699 943.676 350.139C943.904 265.604 943.473 181.27 944.106 96.9367Z" fill="black"/>
</svg>
