<svg width="2504" height="1491" viewBox="0 0 2504 1491" fill="none" xmlns="http://www.w3.org/2000/svg">
<path d="M56.1221 1147H1.98486L84.5562 907.64H149.778L232.188 1147H178.212L118.131 962.259H116.203L56.1221 1147ZM52.9092 1052.86H180.943V1092.38H52.9092V1052.86ZM248.697 1147V967.399H295.766V999.368H298.015C301.764 988.765 308.029 980.412 316.811 974.307C325.593 968.203 336.035 965.15 348.136 965.15C360.452 965.15 370.894 968.256 379.462 974.468C388.137 980.572 393.92 988.872 396.812 999.368H398.739C402.381 988.979 409.021 980.679 418.659 974.468C428.298 968.256 439.65 965.15 452.716 965.15C469.423 965.15 483.024 970.452 493.52 981.054C504.122 991.657 509.424 1006.7 509.424 1026.2V1147H459.624V1036.16C459.624 1026.09 456.946 1018.59 451.591 1013.67C446.344 1008.74 439.757 1006.28 431.832 1006.28C422.836 1006.28 415.768 1009.17 410.627 1014.95C405.594 1020.63 403.077 1028.12 403.077 1037.44V1147H354.883V1034.87C354.883 1026.2 352.367 1019.29 347.333 1014.15C342.3 1008.9 335.713 1006.28 327.574 1006.28C322.005 1006.28 317.025 1007.67 312.634 1010.45C308.243 1013.24 304.762 1017.09 302.192 1022.02C299.622 1026.84 298.337 1032.62 298.337 1039.37V1147H248.697ZM589.226 1150.37C577.874 1150.37 567.647 1148.39 558.543 1144.43C549.547 1140.36 542.479 1134.36 537.338 1126.44C532.198 1118.51 529.627 1108.66 529.627 1096.88C529.627 1086.81 531.448 1078.46 535.089 1071.82C538.731 1065.07 543.71 1059.61 550.029 1055.43C556.348 1051.26 563.523 1048.1 571.556 1045.95C579.588 1043.81 588.102 1042.31 597.098 1041.46C607.486 1040.49 615.84 1039.53 622.159 1038.56C628.477 1037.6 633.082 1036.16 635.974 1034.23C638.973 1032.19 640.472 1029.3 640.472 1025.55V1024.75C640.472 1017.36 638.116 1011.63 633.404 1007.56C628.799 1003.49 622.266 1001.46 613.805 1001.46C604.916 1001.46 597.794 1003.44 592.439 1007.4C587.192 1011.26 583.711 1016.18 581.997 1022.18L535.892 1018.48C538.249 1007.56 542.854 998.136 549.708 990.211C556.562 982.179 565.398 976.021 576.214 971.737C587.138 967.346 599.775 965.15 614.126 965.15C624.086 965.15 633.618 966.328 642.721 968.685C651.824 971.041 659.91 974.682 666.978 979.608C674.154 984.428 679.83 990.693 684.007 998.404C688.183 1006.11 690.272 1015.27 690.272 1025.87V1147H642.882V1121.94H641.597C638.705 1127.62 634.849 1132.6 630.03 1136.88C625.211 1141.06 619.428 1144.38 612.681 1146.84C605.933 1149.2 598.115 1150.37 589.226 1150.37ZM603.524 1116C610.806 1116 617.232 1114.55 622.801 1111.66C628.477 1108.66 632.868 1104.7 635.974 1099.77C639.187 1094.74 640.793 1089.11 640.793 1082.9V1063.79C639.294 1064.75 637.152 1065.66 634.368 1066.52C631.69 1067.37 628.691 1068.12 625.371 1068.77C622.051 1069.41 618.731 1070 615.411 1070.53C612.092 1070.96 609.093 1071.39 606.415 1071.82C600.525 1072.68 595.384 1074.07 590.994 1076C586.603 1077.82 583.175 1080.33 580.712 1083.55C578.356 1086.65 577.178 1090.56 577.178 1095.27C577.178 1102.02 579.641 1107.16 584.568 1110.69C589.494 1114.23 595.813 1116 603.524 1116ZM717.705 1147V1117.28L805.577 1008.52V1007.24H720.596V967.399H865.337V1000.01L782.926 1105.88V1107.16H868.389V1147H717.705ZM971.004 1150.53C952.904 1150.53 937.215 1146.68 923.935 1138.97C910.762 1131.15 900.588 1120.33 893.412 1106.52C886.344 1092.6 882.81 1076.42 882.81 1058C882.81 1039.37 886.344 1023.14 893.412 1009.33C900.588 995.405 910.762 984.588 923.935 976.877C937.215 969.059 952.904 965.15 971.004 965.15C989.21 965.15 1004.9 969.059 1018.07 976.877C1031.35 984.588 1041.53 995.405 1048.59 1009.33C1055.77 1023.14 1059.36 1039.37 1059.36 1058C1059.36 1076.42 1055.77 1092.6 1048.59 1106.52C1041.53 1120.33 1031.35 1131.15 1018.07 1138.97C1004.9 1146.68 989.21 1150.53 971.004 1150.53ZM971.325 1111.66C979.571 1111.66 986.479 1109.36 992.048 1104.75C997.617 1100.04 1001.79 1093.61 1004.58 1085.47C1007.47 1077.33 1008.92 1068.07 1008.92 1057.68C1008.92 1047.19 1007.47 1037.92 1004.58 1029.89C1001.79 1021.86 997.617 1015.54 992.048 1010.93C986.479 1006.33 979.571 1004.03 971.325 1004.03C962.971 1004.03 955.957 1006.33 950.281 1010.93C944.712 1015.54 940.481 1021.86 937.59 1029.89C934.805 1037.92 933.413 1047.19 933.413 1057.68C933.413 1068.07 934.805 1077.33 937.59 1085.47C940.481 1093.61 944.712 1100.04 950.281 1104.75C955.957 1109.36 962.971 1111.66 971.325 1111.66ZM1130.33 1043.22V1147H1080.69V967.399H1129.52V999.368H1131.29C1135.36 988.765 1141.84 980.412 1150.73 974.307C1159.62 968.203 1170.75 965.15 1184.14 965.15C1196.56 965.15 1207.38 967.881 1216.59 973.343C1225.91 978.805 1233.14 986.57 1238.28 996.637C1243.42 1006.7 1245.99 1018.75 1245.99 1032.78V1147H1196.35V1041.62C1196.35 1030.69 1193.51 1022.13 1187.84 1015.91C1182.16 1009.6 1174.34 1006.44 1164.38 1006.44C1157.74 1006.44 1151.85 1007.94 1146.71 1010.93C1141.57 1013.83 1137.55 1018 1134.66 1023.46C1131.77 1028.93 1130.33 1035.51 1130.33 1043.22ZM1381.5 1147H1327.36L1409.93 907.64H1475.15L1557.57 1147H1503.59L1443.51 962.259H1441.58L1381.5 1147ZM1378.29 1052.86H1506.32V1092.38H1378.29V1052.86ZM1667.89 967.399V1004.99H1557.21V967.399H1667.89ZM1582.59 1147V954.387C1582.59 941.429 1585.11 930.665 1590.14 922.098C1595.28 913.53 1602.24 907.104 1611.02 902.82C1619.91 898.536 1629.98 896.395 1641.22 896.395C1648.93 896.395 1655.95 897.037 1662.27 898.322C1668.69 899.5 1673.41 900.518 1676.4 901.375L1667.73 938.644C1665.7 938.109 1663.29 937.573 1660.5 937.038C1657.72 936.502 1654.77 936.234 1651.67 936.234C1644.38 936.234 1639.3 937.948 1636.4 941.375C1633.51 944.695 1632.07 949.407 1632.07 955.512V1147H1582.59ZM1784.16 967.399V1004.99H1673.48V967.399H1784.16ZM1698.86 1147V954.387C1698.86 941.429 1701.37 930.665 1706.41 922.098C1711.55 913.53 1718.51 907.104 1727.29 902.82C1736.18 898.536 1746.25 896.395 1757.49 896.395C1765.2 896.395 1772.22 897.037 1778.54 898.322C1784.96 899.5 1789.68 900.518 1792.67 901.375L1784 938.644C1781.96 938.109 1779.55 937.573 1776.77 937.038C1773.99 936.502 1771.04 936.234 1767.93 936.234C1760.65 936.234 1755.57 937.948 1752.67 941.375C1749.78 944.695 1748.34 949.407 1748.34 955.512V1147H1698.86ZM1803.4 1147V967.399H1853.04V1147H1803.4ZM1828.14 944.427C1820.75 944.427 1814.43 941.964 1809.18 937.038C1803.94 932.111 1801.31 926.167 1801.31 919.206C1801.31 912.245 1803.94 906.354 1809.18 901.535C1814.43 896.609 1820.75 894.146 1828.14 894.146C1835.64 894.146 1842.01 896.609 1847.26 901.535C1852.5 906.354 1855.13 912.245 1855.13 919.206C1855.13 926.167 1852.5 932.111 1847.26 937.038C1842.01 941.964 1835.64 944.427 1828.14 944.427ZM1931.4 907.64V1147H1881.76V907.64H1931.4ZM1960.11 1147V967.399H2009.75V1147H1960.11ZM1984.85 944.427C1977.46 944.427 1971.14 941.964 1965.9 937.038C1960.65 932.111 1958.03 926.167 1958.03 919.206C1958.03 912.245 1960.65 906.354 1965.9 901.535C1971.14 896.609 1977.46 894.146 1984.85 894.146C1992.35 894.146 1998.72 896.609 2003.97 901.535C2009.22 906.354 2011.84 912.245 2011.84 919.206C2011.84 926.167 2009.22 932.111 2003.97 937.038C1998.72 941.964 1992.35 944.427 1984.85 944.427ZM2089.56 1150.37C2078.2 1150.37 2067.98 1148.39 2058.87 1144.43C2049.88 1140.36 2042.81 1134.36 2037.67 1126.44C2032.53 1118.51 2029.96 1108.66 2029.96 1096.88C2029.96 1086.81 2031.78 1078.46 2035.42 1071.82C2039.06 1065.07 2044.04 1059.61 2050.36 1055.43C2056.68 1051.26 2063.85 1048.1 2071.89 1045.95C2079.92 1043.81 2088.43 1042.31 2097.43 1041.46C2107.82 1040.49 2116.17 1039.53 2122.49 1038.56C2128.81 1037.6 2133.41 1036.16 2136.3 1034.23C2139.3 1032.19 2140.8 1029.3 2140.8 1025.55V1024.75C2140.8 1017.36 2138.45 1011.63 2133.73 1007.56C2129.13 1003.49 2122.6 1001.46 2114.13 1001.46C2105.25 1001.46 2098.12 1003.44 2092.77 1007.4C2087.52 1011.26 2084.04 1016.18 2082.33 1022.18L2036.22 1018.48C2038.58 1007.56 2043.18 998.136 2050.04 990.211C2056.89 982.179 2065.73 976.021 2076.54 971.737C2087.47 967.346 2100.11 965.15 2114.46 965.15C2124.42 965.15 2133.95 966.328 2143.05 968.685C2152.15 971.041 2160.24 974.682 2167.31 979.608C2174.48 984.428 2180.16 990.693 2184.34 998.404C2188.51 1006.11 2190.6 1015.27 2190.6 1025.87V1147H2143.21V1121.94H2141.93C2139.03 1127.62 2135.18 1132.6 2130.36 1136.88C2125.54 1141.06 2119.76 1144.38 2113.01 1146.84C2106.26 1149.2 2098.45 1150.37 2089.56 1150.37ZM2103.85 1116C2111.14 1116 2117.56 1114.55 2123.13 1111.66C2128.81 1108.66 2133.2 1104.7 2136.3 1099.77C2139.52 1094.74 2141.12 1089.11 2141.12 1082.9V1063.79C2139.62 1064.75 2137.48 1065.66 2134.7 1066.52C2132.02 1067.37 2129.02 1068.12 2125.7 1068.77C2122.38 1069.41 2119.06 1070 2115.74 1070.53C2112.42 1070.96 2109.42 1071.39 2106.74 1071.82C2100.85 1072.68 2095.71 1074.07 2091.32 1076C2086.93 1077.82 2083.51 1080.33 2081.04 1083.55C2078.69 1086.65 2077.51 1090.56 2077.51 1095.27C2077.51 1102.02 2079.97 1107.16 2084.9 1110.69C2089.82 1114.23 2096.14 1116 2103.85 1116ZM2314.26 967.399V1004.99H2206.15V967.399H2314.26ZM2230.73 924.668H2280.36V1091.74C2280.36 1097.74 2281.7 1102.18 2284.38 1105.07C2287.06 1107.86 2291.34 1109.25 2297.23 1109.25C2299.16 1109.25 2301.3 1109.09 2303.66 1108.77C2306.01 1108.45 2308.05 1108.07 2309.76 1107.64L2317.63 1144.91C2312.17 1146.52 2306.87 1147.7 2301.73 1148.45C2296.7 1149.2 2291.72 1149.57 2286.79 1149.57C2268.9 1149.57 2255.09 1145.13 2245.34 1136.24C2235.6 1127.24 2230.73 1114.6 2230.73 1098.32V924.668ZM2415.11 1150.53C2396.69 1150.53 2380.78 1146.79 2367.4 1139.29C2354.01 1131.79 2343.73 1121.14 2336.55 1107.32C2329.48 1093.4 2325.95 1076.96 2325.95 1058C2325.95 1039.58 2329.48 1023.41 2336.55 1009.49C2343.73 995.566 2353.8 984.695 2366.75 976.877C2379.82 969.059 2395.13 965.15 2412.7 965.15C2424.59 965.15 2435.67 967.078 2445.95 970.934C2456.23 974.682 2465.23 980.358 2472.94 987.962C2480.65 995.459 2486.65 1004.94 2490.93 1016.4C2495.22 1027.75 2497.36 1041.08 2497.36 1056.4V1069.89H2345.71V1039.21H2473.26L2450.13 1047.24C2450.13 1038.14 2448.74 1030.21 2445.95 1023.46C2443.17 1016.72 2438.99 1011.52 2433.42 1007.88C2427.96 1004.13 2421.16 1002.26 2413.02 1002.26C2404.88 1002.26 2397.97 1004.13 2392.3 1007.88C2386.73 1011.63 2382.44 1016.72 2379.44 1023.14C2376.45 1029.57 2374.95 1036.96 2374.95 1045.31V1067C2374.95 1076.74 2376.66 1085.1 2380.09 1092.06C2383.51 1098.91 2388.28 1104.22 2394.38 1107.96C2400.6 1111.6 2407.72 1113.43 2415.75 1113.43C2421.32 1113.43 2426.35 1112.62 2430.85 1111.02C2435.35 1109.41 2439.2 1107.05 2442.42 1103.95C2445.74 1100.84 2448.2 1097.09 2449.81 1092.7L2495.75 1095.75C2493.5 1106.79 2488.79 1116.42 2481.61 1124.67C2474.55 1132.81 2465.39 1139.18 2454.14 1143.79C2442.9 1148.29 2429.89 1150.53 2415.11 1150.53ZM743.815 1487L678.433 1247.64H700.602L754.899 1453.59H756.666L810.964 1247.64H836.346L890.323 1453.59H892.411L946.548 1247.64H968.717L903.174 1487H879.72L824.458 1284.11H822.852L767.43 1487H743.815ZM1049.64 1490.86C1032.94 1490.86 1018.43 1486.95 1006.11 1479.13C993.794 1471.2 984.316 1460.28 977.676 1446.36C971.036 1432.43 967.716 1416.42 967.716 1398.32C967.716 1380.22 970.982 1364.16 977.515 1350.13C984.155 1336.1 993.366 1325.07 1005.15 1317.04C1016.93 1309.01 1030.58 1304.99 1046.11 1304.99C1055.75 1304.99 1065.12 1306.81 1074.22 1310.45C1083.33 1313.99 1091.52 1319.39 1098.8 1326.68C1106.08 1333.96 1111.81 1343.22 1115.99 1354.47C1120.17 1365.61 1122.26 1378.89 1122.26 1394.31V1403.63H982.013V1385.31H1111.01L1101.53 1392.38C1101.53 1379.31 1099.28 1367.64 1094.79 1357.36C1090.39 1347.08 1084.08 1338.94 1075.83 1332.94C1067.58 1326.94 1057.68 1323.95 1046.11 1323.95C1034.65 1323.95 1024.58 1327 1015.91 1333.1C1007.23 1339.1 1000.49 1347.13 995.668 1357.2C990.956 1367.16 988.6 1378.08 988.6 1389.97V1400.73C988.6 1415.08 991.063 1427.62 995.989 1438.32C1001.02 1448.93 1008.09 1457.17 1017.19 1463.06C1026.4 1468.95 1037.22 1471.9 1049.64 1471.9C1058.11 1471.9 1065.55 1470.56 1071.97 1467.88C1078.4 1465.21 1083.81 1461.62 1088.2 1457.12C1092.59 1452.51 1095.91 1447.53 1098.16 1442.18L1117.92 1448.77C1115.13 1456.26 1110.64 1463.22 1104.42 1469.65C1098.32 1475.97 1090.61 1481.11 1081.29 1485.07C1072.08 1488.93 1061.53 1490.86 1049.64 1490.86ZM1234.03 1490.86C1223.21 1490.86 1214.11 1488.93 1206.72 1485.07C1199.43 1481.11 1193.54 1476.24 1189.05 1470.45C1184.66 1464.67 1181.23 1459.05 1178.77 1453.59H1176.36V1487H1156.28V1247.64H1177V1341.78H1178.77C1181.23 1336.42 1184.66 1330.91 1189.05 1325.23C1193.44 1319.55 1199.27 1314.79 1206.56 1310.93C1213.84 1306.97 1222.94 1304.99 1233.87 1304.99C1248.65 1304.99 1261.55 1308.9 1272.58 1316.72C1283.72 1324.43 1292.39 1335.24 1298.61 1349.17C1304.82 1363.09 1307.92 1379.26 1307.92 1397.68C1307.92 1416.21 1304.82 1432.49 1298.61 1446.52C1292.5 1460.55 1283.88 1471.47 1272.74 1479.29C1261.71 1487 1248.81 1490.86 1234.03 1490.86ZM1231.78 1471.9C1243.56 1471.9 1253.57 1468.58 1261.82 1461.94C1270.07 1455.3 1276.33 1446.36 1280.61 1435.11C1284.9 1423.87 1287.04 1411.34 1287.04 1397.52C1287.04 1383.71 1284.9 1371.28 1280.61 1360.25C1276.33 1349.11 1270.12 1340.28 1261.98 1333.75C1253.84 1327.21 1243.77 1323.95 1231.78 1323.95C1220 1323.95 1210.04 1327.11 1201.9 1333.42C1193.76 1339.64 1187.55 1348.26 1183.26 1359.29C1178.98 1370.32 1176.84 1383.06 1176.84 1397.52C1176.84 1411.87 1178.98 1424.67 1183.26 1435.92C1187.55 1447.05 1193.76 1455.83 1201.9 1462.26C1210.14 1468.69 1220.1 1471.9 1231.78 1471.9ZM1463.07 1347.08L1444.11 1352.22C1441.33 1344.19 1436.67 1337.39 1430.14 1331.82C1423.71 1326.14 1414.45 1323.3 1402.35 1323.3C1390.24 1323.3 1380.28 1326.25 1372.47 1332.14C1364.65 1337.92 1360.74 1345.37 1360.74 1354.47C1360.74 1362.07 1363.36 1368.34 1368.61 1373.26C1373.96 1378.08 1382.21 1381.88 1393.35 1384.67L1420.5 1391.26C1435.49 1395 1446.74 1400.84 1454.23 1408.77C1461.84 1416.58 1465.64 1426.49 1465.64 1438.49C1465.64 1448.55 1462.8 1457.55 1457.12 1465.47C1451.56 1473.4 1443.79 1479.61 1433.83 1484.11C1423.87 1488.61 1412.31 1490.86 1399.13 1490.86C1381.57 1490.86 1367.11 1486.89 1355.76 1478.97C1344.41 1470.94 1337.12 1459.48 1333.91 1444.59L1353.83 1439.77C1356.29 1450.37 1361.33 1458.41 1368.93 1463.87C1376.53 1469.33 1386.49 1472.06 1398.81 1472.06C1412.52 1472.06 1423.55 1468.95 1431.9 1462.74C1440.26 1456.53 1444.43 1448.82 1444.43 1439.61C1444.43 1424.83 1434.63 1415.03 1415.04 1410.21L1385.8 1403.14C1370.16 1399.4 1358.6 1393.5 1351.1 1385.47C1343.6 1377.44 1339.85 1367.43 1339.85 1355.43C1339.85 1345.58 1342.53 1336.85 1347.89 1329.25C1353.35 1321.64 1360.79 1315.7 1370.22 1311.42C1379.64 1307.13 1390.35 1304.99 1402.35 1304.99C1418.84 1304.99 1432.01 1308.79 1441.86 1316.4C1451.72 1323.89 1458.78 1334.12 1463.07 1347.08ZM1500.3 1487V1307.4H1521.02V1487H1500.3ZM1510.74 1276.72C1506.46 1276.72 1502.76 1275.27 1499.66 1272.38C1496.66 1269.38 1495.16 1265.79 1495.16 1261.62C1495.16 1257.55 1496.66 1254.07 1499.66 1251.17C1502.76 1248.28 1506.46 1246.84 1510.74 1246.84C1515.03 1246.84 1518.67 1248.28 1521.67 1251.17C1524.67 1254.07 1526.16 1257.55 1526.16 1261.62C1526.16 1265.79 1524.67 1269.38 1521.67 1272.38C1518.67 1275.27 1515.03 1276.72 1510.74 1276.72ZM1635.69 1307.4V1325.55H1550.06V1307.4H1635.69ZM1576.89 1264.67H1597.61V1440.09C1597.61 1449.84 1600.02 1457.17 1604.84 1462.1C1609.66 1466.92 1616.36 1469.33 1624.92 1469.33C1626.85 1469.33 1628.78 1469.22 1630.71 1469.01C1632.74 1468.69 1634.88 1468.26 1637.13 1467.72L1641.63 1486.52C1639.17 1487.48 1636.33 1488.23 1633.12 1488.77C1629.9 1489.3 1626.58 1489.57 1623.16 1489.57C1609.88 1489.57 1598.85 1485.5 1590.06 1477.36C1581.28 1469.11 1576.89 1458.35 1576.89 1445.07V1264.67ZM1742.8 1490.86C1726.09 1490.86 1711.58 1486.95 1699.26 1479.13C1686.95 1471.2 1677.47 1460.28 1670.83 1446.36C1664.19 1432.43 1660.87 1416.42 1660.87 1398.32C1660.87 1380.22 1664.14 1364.16 1670.67 1350.13C1677.31 1336.1 1686.52 1325.07 1698.3 1317.04C1710.08 1309.01 1723.74 1304.99 1739.27 1304.99C1748.9 1304.99 1758.27 1306.81 1767.38 1310.45C1776.48 1313.99 1784.67 1319.39 1791.96 1326.68C1799.24 1333.96 1804.97 1343.22 1809.15 1354.47C1813.32 1365.61 1815.41 1378.89 1815.41 1394.31V1403.63H1675.17V1385.31H1804.17L1794.69 1392.38C1794.69 1379.31 1792.44 1367.64 1787.94 1357.36C1783.55 1347.08 1777.23 1338.94 1768.98 1332.94C1760.74 1326.94 1750.83 1323.95 1739.27 1323.95C1727.81 1323.95 1717.74 1327 1709.06 1333.1C1700.39 1339.1 1693.64 1347.13 1688.82 1357.2C1684.11 1367.16 1681.75 1378.08 1681.75 1389.97V1400.73C1681.75 1415.08 1684.22 1427.62 1689.14 1438.32C1694.18 1448.93 1701.25 1457.17 1710.35 1463.06C1719.56 1468.95 1730.38 1471.9 1742.8 1471.9C1751.26 1471.9 1758.7 1470.56 1765.13 1467.88C1771.55 1465.21 1776.96 1461.62 1781.35 1457.12C1785.74 1452.51 1789.06 1447.53 1791.31 1442.18L1811.07 1448.77C1808.29 1456.26 1803.79 1463.22 1797.58 1469.65C1791.47 1475.97 1783.76 1481.11 1774.45 1485.07C1765.24 1488.93 1754.69 1490.86 1742.8 1490.86Z" fill="white"/>
<path d="M1251 700C1444.3 700 1601 543.3 1601 350C1601 156.7 1444.3 0 1251 0C1057.7 0 901 156.7 901 350C901 543.3 1057.7 700 1251 700Z" fill="#7AF546"/>
<path d="M1432.44 503.675C1230.04 600 1104.43 519.407 1024.02 470.457C1019.05 467.372 1010.59 471.178 1017.93 479.606C1044.71 512.087 1132.5 590.375 1247.09 590.375C1361.76 590.375 1429.98 527.806 1438.52 516.892C1446.99 506.069 1441 500.099 1432.44 503.675H1432.44ZM1489.28 472.282C1483.85 465.205 1456.23 463.885 1438.85 466.02C1421.45 468.094 1395.32 478.731 1397.59 485.119C1398.76 487.511 1401.14 486.438 1413.09 485.363C1425.08 484.167 1458.67 479.928 1465.67 489.077C1472.7 498.289 1454.96 542.175 1451.72 549.253C1448.59 556.331 1452.91 558.156 1458.8 553.442C1464.6 548.73 1475.1 536.527 1482.15 519.257C1489.14 501.894 1493.41 477.672 1489.28 472.282Z" fill="black"/>
<path fill-rule="evenodd" clip-rule="evenodd" d="M1296.35 307.125C1296.35 332.399 1296.99 353.476 1284.21 375.921C1273.9 394.172 1257.57 405.394 1239.32 405.394C1214.41 405.394 1199.9 386.415 1199.9 358.404C1199.9 303.109 1249.45 293.073 1296.35 293.073V307.125ZM1361.77 465.251C1357.48 469.082 1351.28 469.357 1346.44 466.801C1324.91 448.919 1321.07 440.616 1309.21 423.552C1273.63 459.868 1248.45 470.725 1202.28 470.725C1147.71 470.725 1105.19 437.056 1105.19 369.626C1105.19 316.98 1133.75 281.12 1174.35 263.602C1209.58 248.089 1258.76 245.352 1296.35 241.065V232.67C1296.35 217.249 1297.53 199 1288.5 185.679C1280.56 173.726 1265.42 168.799 1252.09 168.799C1227.37 168.799 1205.29 181.481 1199.9 207.759C1198.81 213.6 1194.52 219.349 1188.68 219.622L1125.72 212.871C1120.43 211.683 1114.59 207.395 1116.05 199.273C1130.56 122.995 1199.44 100 1261.13 100C1292.7 100 1333.94 108.395 1358.85 132.302C1390.42 161.773 1387.41 201.099 1387.41 243.892V344.991C1387.41 375.375 1400 388.696 1411.86 405.121C1416.06 410.96 1416.97 417.988 1411.68 422.365C1398.45 433.405 1374.91 453.936 1361.95 465.434L1361.77 465.251" fill="black"/>
<path d="M1432.44 503.675C1230.04 600 1104.43 519.407 1024.02 470.457C1019.05 467.372 1010.59 471.178 1017.93 479.606C1044.71 512.087 1132.5 590.375 1247.09 590.375C1361.76 590.375 1429.98 527.806 1438.52 516.892C1446.99 506.069 1441 500.099 1432.44 503.675H1432.44ZM1489.28 472.282C1483.85 465.205 1456.23 463.885 1438.85 466.02C1421.45 468.094 1395.32 478.731 1397.59 485.119C1398.76 487.511 1401.14 486.438 1413.09 485.363C1425.08 484.167 1458.67 479.928 1465.67 489.077C1472.7 498.289 1454.96 542.175 1451.72 549.253C1448.59 556.331 1452.91 558.156 1458.8 553.442C1464.6 548.73 1475.1 536.527 1482.15 519.257C1489.14 501.894 1493.41 477.672 1489.28 472.282Z" fill="black"/>
<path fill-rule="evenodd" clip-rule="evenodd" d="M1296.35 307.125C1296.35 332.399 1296.99 353.476 1284.21 375.921C1273.9 394.172 1257.57 405.394 1239.32 405.394C1214.41 405.394 1199.9 386.415 1199.9 358.404C1199.9 303.109 1249.45 293.073 1296.35 293.073V307.125ZM1361.77 465.251C1357.48 469.082 1351.28 469.357 1346.44 466.801C1324.91 448.919 1321.07 440.616 1309.21 423.552C1273.63 459.868 1248.45 470.725 1202.28 470.725C1147.71 470.725 1105.19 437.056 1105.19 369.626C1105.19 316.98 1133.75 281.12 1174.35 263.602C1209.58 248.089 1258.76 245.352 1296.35 241.065V232.67C1296.35 217.249 1297.53 199 1288.5 185.679C1280.56 173.726 1265.42 168.799 1252.09 168.799C1227.37 168.799 1205.29 181.481 1199.9 207.759C1198.81 213.6 1194.52 219.349 1188.68 219.622L1125.72 212.871C1120.43 211.683 1114.59 207.395 1116.05 199.273C1130.56 122.995 1199.44 100 1261.13 100C1292.7 100 1333.94 108.395 1358.85 132.302C1390.42 161.773 1387.41 201.099 1387.41 243.892V344.991C1387.41 375.375 1400 388.696 1411.86 405.121C1416.06 410.96 1416.97 417.988 1411.68 422.365C1398.45 433.405 1374.91 453.936 1361.95 465.434L1361.77 465.251" fill="black"/>
</svg>
