<svg width="2265" height="1558" viewBox="0 0 2265 1558" fill="none" xmlns="http://www.w3.org/2000/svg">
<path d="M1.4657 907.64H58.1732L112.792 1010.77H115.041L169.661 907.64H226.368L139.138 1062.5V1147H88.8563V1062.5L1.4657 907.64ZM285.448 1150.53C267.349 1150.53 251.659 1146.68 238.379 1138.97C225.206 1131.15 215.032 1120.33 207.857 1106.52C200.788 1092.6 197.254 1076.42 197.254 1058C197.254 1039.37 200.788 1023.14 207.857 1009.33C215.032 995.405 225.206 984.588 238.379 976.877C251.659 969.059 267.349 965.15 285.448 965.15C303.654 965.15 319.344 969.059 332.517 976.877C345.797 984.588 355.971 995.405 363.039 1009.33C370.215 1023.14 373.802 1039.37 373.802 1058C373.802 1076.42 370.215 1092.6 363.039 1106.52C355.971 1120.33 345.797 1131.15 332.517 1138.97C319.344 1146.68 303.654 1150.53 285.448 1150.53ZM285.769 1111.66C294.016 1111.66 300.923 1109.36 306.492 1104.75C312.061 1100.04 316.238 1093.61 319.023 1085.47C321.914 1077.33 323.36 1068.07 323.36 1057.68C323.36 1047.19 321.914 1037.92 319.023 1029.89C316.238 1021.86 312.061 1015.54 306.492 1010.93C300.923 1006.33 294.016 1004.03 285.769 1004.03C277.416 1004.03 270.401 1006.33 264.725 1010.93C259.156 1015.54 254.925 1021.86 252.034 1029.89C249.249 1037.92 247.857 1047.19 247.857 1057.68C247.857 1068.07 249.249 1077.33 252.034 1085.47C254.925 1093.61 259.156 1100.04 264.725 1104.75C270.401 1109.36 277.416 1111.66 285.769 1111.66ZM510.152 1070.69V967.399H559.791V1147H512.08V1114.39H510.152C506.082 1124.78 499.389 1133.24 490.072 1139.77C480.754 1146.2 469.348 1149.36 455.854 1149.25C443.859 1149.25 433.257 1146.57 424.047 1141.22C414.943 1135.75 407.822 1127.99 402.681 1117.92C397.647 1107.86 395.131 1095.81 395.131 1081.78V967.399H444.77V1073.1C444.77 1083.6 447.608 1091.95 453.284 1098.16C458.96 1104.27 466.51 1107.27 475.935 1107.16C481.932 1107.16 487.501 1105.82 492.642 1103.14C497.782 1100.36 501.959 1096.24 505.172 1090.77C508.492 1085.31 510.152 1078.62 510.152 1070.69ZM563.449 949.407V907.64H760.078V949.407H686.824V1147H636.863V949.407H563.449ZM870.885 1070.69V967.399H920.524V1147H872.813V1114.39H870.885C866.815 1124.78 860.122 1133.24 850.804 1139.77C841.487 1146.2 830.081 1149.36 816.587 1149.25C804.592 1149.25 793.99 1146.57 784.779 1141.22C775.676 1135.75 768.554 1127.99 763.414 1117.92C758.38 1107.86 755.863 1095.81 755.863 1081.78V967.399H805.503V1073.1C805.503 1083.6 808.341 1091.95 814.017 1098.16C819.693 1104.27 827.243 1107.27 836.668 1107.16C842.665 1107.16 848.234 1105.82 853.375 1103.14C858.515 1100.36 862.692 1096.24 865.905 1090.77C869.225 1085.31 870.885 1078.62 870.885 1070.69ZM1051.25 1149.89C1041.61 1149.89 1033.42 1148.29 1026.67 1145.07C1019.93 1141.86 1014.41 1137.84 1010.13 1133.02C1005.95 1128.1 1002.68 1123.17 1000.33 1118.24H998.078V1147H949.242V907.64H998.881V997.761H1000.33C1002.58 992.835 1005.79 987.855 1009.97 982.821C1014.14 977.788 1019.6 973.611 1026.35 970.291C1033.1 966.864 1041.45 965.15 1051.41 965.15C1064.58 965.15 1076.63 968.577 1087.56 975.432C1098.59 982.179 1107.42 992.406 1114.06 1006.11C1120.7 1019.82 1124.02 1036.96 1124.02 1057.52C1124.02 1077.44 1120.81 1094.31 1114.38 1108.12C1107.96 1121.83 1099.23 1132.22 1088.2 1139.29C1077.28 1146.36 1064.96 1149.89 1051.25 1149.89ZM1035.51 1110.37C1043.65 1110.37 1050.5 1108.12 1056.07 1103.63C1061.64 1099.13 1065.87 1092.92 1068.76 1084.99C1071.65 1076.96 1073.1 1067.75 1073.1 1057.36C1073.1 1046.97 1071.65 1037.87 1068.76 1030.05C1065.98 1022.13 1061.8 1015.91 1056.23 1011.42C1050.66 1006.92 1043.75 1004.67 1035.51 1004.67C1027.48 1004.67 1020.62 1006.86 1014.95 1011.26C1009.38 1015.54 1005.09 1021.64 1002.09 1029.57C999.202 1037.39 997.757 1046.65 997.757 1057.36C997.757 1067.96 999.256 1077.23 1002.25 1085.15C1005.25 1093.08 1009.54 1099.29 1015.11 1103.79C1020.78 1108.18 1027.58 1110.37 1035.51 1110.37ZM1226.96 1150.53C1208.54 1150.53 1192.63 1146.79 1179.25 1139.29C1165.86 1131.79 1155.58 1121.14 1148.4 1107.32C1141.34 1093.4 1137.8 1076.96 1137.8 1058C1137.8 1039.58 1141.34 1023.41 1148.4 1009.49C1155.58 995.566 1165.65 984.695 1178.6 976.877C1191.67 969.059 1206.99 965.15 1224.55 965.15C1236.44 965.15 1247.52 967.078 1257.8 970.934C1268.08 974.682 1277.08 980.358 1284.79 987.962C1292.5 995.459 1298.5 1004.94 1302.78 1016.4C1307.07 1027.75 1309.21 1041.08 1309.21 1056.4V1069.89H1157.56V1039.21H1285.11L1261.98 1047.24C1261.98 1038.14 1260.59 1030.21 1257.8 1023.46C1255.02 1016.72 1250.84 1011.52 1245.27 1007.88C1239.81 1004.13 1233.01 1002.26 1224.87 1002.26C1216.73 1002.26 1209.82 1004.13 1204.15 1007.88C1198.58 1011.63 1194.29 1016.72 1191.3 1023.14C1188.3 1029.57 1186.8 1036.96 1186.8 1045.31V1067C1186.8 1076.74 1188.51 1085.1 1191.94 1092.06C1195.37 1098.91 1200.13 1104.22 1206.24 1107.96C1212.45 1111.6 1219.57 1113.43 1227.6 1113.43C1233.17 1113.43 1238.2 1112.62 1242.7 1111.02C1247.2 1109.41 1251.06 1107.05 1254.27 1103.95C1257.59 1100.84 1260.05 1097.09 1261.66 1092.7L1307.6 1095.75C1305.35 1106.79 1300.64 1116.42 1293.47 1124.67C1286.4 1132.81 1277.24 1139.18 1266 1143.79C1254.75 1148.29 1241.74 1150.53 1226.96 1150.53ZM1438.93 907.64L1496.61 1089.49H1498.86L1556.85 907.64H1612.75L1530.34 1147H1465.12L1382.55 907.64H1438.93ZM1629.26 1147V967.399H1678.9V1147H1629.26ZM1654 944.427C1646.61 944.427 1640.29 941.964 1635.04 937.038C1629.8 932.111 1627.17 926.167 1627.17 919.206C1627.17 912.245 1629.8 906.354 1635.04 901.535C1640.29 896.609 1646.61 894.146 1654 894.146C1661.5 894.146 1667.87 896.609 1673.12 901.535C1678.36 906.354 1680.99 912.245 1680.99 919.206C1680.99 926.167 1678.36 932.111 1673.12 937.038C1667.87 941.964 1661.5 944.427 1654 944.427ZM1773.16 1149.89C1759.45 1149.89 1747.08 1146.36 1736.05 1139.29C1725.02 1132.22 1716.29 1121.83 1709.87 1108.12C1703.44 1094.31 1700.23 1077.44 1700.23 1057.52C1700.23 1036.96 1703.55 1019.82 1710.19 1006.11C1716.83 992.406 1725.66 982.179 1736.69 975.432C1747.73 968.577 1759.77 965.15 1772.84 965.15C1782.91 965.15 1791.31 966.864 1798.06 970.291C1804.81 973.611 1810.27 977.788 1814.45 982.821C1818.62 987.855 1821.78 992.835 1823.92 997.761H1825.37V907.64H1875.17V1147H1826.17V1118.24H1823.92C1821.68 1123.17 1818.41 1128.1 1814.13 1133.02C1809.84 1137.84 1804.33 1141.86 1797.58 1145.07C1790.94 1148.29 1782.8 1149.89 1773.16 1149.89ZM1788.74 1110.37C1796.78 1110.37 1803.58 1108.18 1809.15 1103.79C1814.82 1099.29 1819.11 1093.08 1822 1085.15C1825 1077.23 1826.5 1067.96 1826.5 1057.36C1826.5 1046.65 1825.05 1037.39 1822.16 1029.57C1819.27 1021.64 1814.98 1015.54 1809.31 1011.26C1803.63 1006.86 1796.78 1004.67 1788.74 1004.67C1780.6 1004.67 1773.75 1006.92 1768.18 1011.42C1762.61 1015.91 1758.38 1022.13 1755.49 1030.05C1752.6 1037.87 1751.15 1046.97 1751.15 1057.36C1751.15 1067.75 1752.6 1076.96 1755.49 1084.99C1758.38 1092.92 1762.61 1099.13 1768.18 1103.63C1773.86 1108.12 1780.71 1110.37 1788.74 1110.37ZM1985.34 1150.53C1966.91 1150.53 1951.01 1146.79 1937.62 1139.29C1924.24 1131.79 1913.96 1121.14 1906.78 1107.32C1899.71 1093.4 1896.18 1076.96 1896.18 1058C1896.18 1039.58 1899.71 1023.41 1906.78 1009.49C1913.96 995.566 1924.02 984.695 1936.98 976.877C1950.05 969.059 1965.36 965.15 1982.93 965.15C1994.81 965.15 2005.9 967.078 2016.18 970.934C2026.46 974.682 2035.46 980.358 2043.17 987.962C2050.88 995.459 2056.88 1004.94 2061.16 1016.4C2065.44 1027.75 2067.59 1041.08 2067.59 1056.4V1069.89H1915.94V1039.21H2043.49L2020.36 1047.24C2020.36 1038.14 2018.96 1030.21 2016.18 1023.46C2013.39 1016.72 2009.22 1011.52 2003.65 1007.88C1998.19 1004.13 1991.39 1002.26 1983.25 1002.26C1975.11 1002.26 1968.2 1004.13 1962.52 1007.88C1956.95 1011.63 1952.67 1016.72 1949.67 1023.14C1946.67 1029.57 1945.17 1036.96 1945.17 1045.31V1067C1945.17 1076.74 1946.89 1085.1 1950.31 1092.06C1953.74 1098.91 1958.51 1104.22 1964.61 1107.96C1970.82 1111.6 1977.95 1113.43 1985.98 1113.43C1991.55 1113.43 1996.58 1112.62 2001.08 1111.02C2005.58 1109.41 2009.43 1107.05 2012.64 1103.95C2015.96 1100.84 2018.43 1097.09 2020.03 1092.7L2065.98 1095.75C2063.73 1106.79 2059.02 1116.42 2051.84 1124.67C2044.77 1132.81 2035.62 1139.18 2024.37 1143.79C2013.13 1148.29 2000.11 1150.53 1985.34 1150.53ZM2169.08 1150.53C2150.98 1150.53 2135.29 1146.68 2122.01 1138.97C2108.83 1131.15 2098.66 1120.33 2091.48 1106.52C2084.42 1092.6 2080.88 1076.42 2080.88 1058C2080.88 1039.37 2084.42 1023.14 2091.48 1009.33C2098.66 995.405 2108.83 984.588 2122.01 976.877C2135.29 969.059 2150.98 965.15 2169.08 965.15C2187.28 965.15 2202.97 969.059 2216.14 976.877C2229.42 984.588 2239.6 995.405 2246.67 1009.33C2253.84 1023.14 2257.43 1039.37 2257.43 1058C2257.43 1076.42 2253.84 1092.6 2246.67 1106.52C2239.6 1120.33 2229.42 1131.15 2216.14 1138.97C2202.97 1146.68 2187.28 1150.53 2169.08 1150.53ZM2169.4 1111.66C2177.64 1111.66 2184.55 1109.36 2190.12 1104.75C2195.69 1100.04 2199.87 1093.61 2202.65 1085.47C2205.54 1077.33 2206.99 1068.07 2206.99 1057.68C2206.99 1047.19 2205.54 1037.92 2202.65 1029.89C2199.87 1021.86 2195.69 1015.54 2190.12 1010.93C2184.55 1006.33 2177.64 1004.03 2169.4 1004.03C2161.04 1004.03 2154.03 1006.33 2148.35 1010.93C2142.78 1015.54 2138.55 1021.86 2135.66 1029.89C2132.88 1037.92 2131.48 1047.19 2131.48 1057.68C2131.48 1068.07 2132.88 1077.33 2135.66 1085.47C2138.55 1093.61 2142.78 1100.04 2148.35 1104.75C2154.03 1109.36 2161.04 1111.66 2169.4 1111.66ZM539.191 1487V1247.64H616.622C633.65 1247.64 647.841 1250.91 659.193 1257.44C670.545 1263.86 679.113 1272.7 684.896 1283.95C690.786 1295.08 693.731 1307.61 693.731 1321.54C693.731 1335.46 690.84 1348.04 685.057 1359.29C679.273 1370.43 670.652 1379.26 659.193 1385.79C647.841 1392.33 633.757 1395.59 616.943 1395.59H556.22V1375.99H616.301C628.831 1375.99 639.219 1373.64 647.466 1368.93C655.712 1364.21 661.87 1357.73 665.94 1349.49C670.117 1341.24 672.205 1331.92 672.205 1321.54C672.205 1311.04 670.117 1301.72 665.94 1293.58C661.87 1285.44 655.659 1279.07 647.305 1274.47C639.059 1269.76 628.617 1267.4 615.979 1267.4H561.039V1487H539.191ZM780.121 1491.02C769.304 1491.02 759.398 1488.93 750.401 1484.75C741.405 1480.47 734.23 1474.31 728.875 1466.28C723.627 1458.14 721.004 1448.28 721.004 1436.72C721.004 1427.83 722.664 1420.39 725.984 1414.39C729.304 1408.39 734.069 1403.46 740.281 1399.61C746.492 1395.65 753.775 1392.54 762.129 1390.29C770.589 1387.94 779.907 1386.17 790.081 1384.99C800.148 1383.71 808.662 1382.63 815.623 1381.78C822.584 1380.81 827.886 1379.31 831.527 1377.28C835.168 1375.24 836.989 1371.98 836.989 1367.48V1363.3C836.989 1350.99 833.348 1341.35 826.065 1334.39C818.783 1327.32 808.341 1323.79 794.739 1323.79C781.781 1323.79 771.232 1326.62 763.092 1332.3C754.953 1337.98 749.277 1344.67 746.064 1352.38L726.144 1345.15C730.214 1335.41 735.836 1327.59 743.012 1321.7C750.187 1315.81 758.22 1311.58 767.109 1309.01C775.998 1306.33 784.994 1304.99 794.097 1304.99C800.951 1304.99 808.073 1305.9 815.463 1307.72C822.852 1309.54 829.76 1312.65 836.186 1317.04C842.611 1321.43 847.806 1327.59 851.768 1335.51C855.838 1343.33 857.873 1353.24 857.873 1365.23V1487H836.989V1458.57H835.704C833.348 1463.81 829.706 1468.95 824.78 1473.99C819.853 1478.91 813.695 1482.98 806.306 1486.2C798.916 1489.41 790.188 1491.02 780.121 1491.02ZM783.012 1472.06C794.043 1472.06 803.575 1469.65 811.607 1464.83C819.746 1459.9 826.012 1453.32 830.402 1445.07C834.793 1436.83 836.989 1427.83 836.989 1418.08V1392.22C835.382 1393.72 832.759 1395.06 829.117 1396.24C825.583 1397.41 821.46 1398.43 816.748 1399.29C812.143 1400.14 807.43 1400.89 802.611 1401.54C797.899 1402.18 793.722 1402.72 790.081 1403.14C780.014 1404.43 771.339 1406.41 764.056 1409.09C756.881 1411.76 751.365 1415.41 747.51 1420.01C743.762 1424.62 741.887 1430.56 741.887 1437.84C741.887 1448.66 745.743 1457.07 753.454 1463.06C761.272 1469.06 771.125 1472.06 783.012 1472.06ZM971.893 1490.86C955.828 1490.86 941.852 1486.84 929.965 1478.81C918.077 1470.77 908.867 1459.8 902.334 1445.88C895.801 1431.85 892.534 1415.94 892.534 1398.16C892.534 1380.06 895.854 1364.05 902.494 1350.13C909.134 1336.1 918.398 1325.07 930.286 1317.04C942.174 1309.01 955.936 1304.99 971.572 1304.99C983.566 1304.99 994.437 1307.35 1004.18 1312.06C1013.93 1316.66 1021.96 1323.2 1028.28 1331.66C1034.7 1340.01 1038.72 1349.76 1040.33 1360.89H1019.44C1017.94 1354.15 1015.05 1347.99 1010.77 1342.42C1006.59 1336.85 1001.18 1332.41 994.544 1329.09C988.011 1325.66 980.461 1323.95 971.893 1323.95C960.434 1323.95 950.313 1327.05 941.531 1333.26C932.749 1339.47 925.841 1348.1 920.808 1359.13C915.881 1370.16 913.418 1382.96 913.418 1397.52C913.418 1411.98 915.828 1424.83 920.647 1436.08C925.467 1447.32 932.267 1456.1 941.049 1462.42C949.938 1468.74 960.219 1471.9 971.893 1471.9C983.781 1471.9 994.062 1468.53 1002.74 1461.78C1011.41 1455.03 1016.98 1445.98 1019.44 1434.63H1040.33C1038.83 1445.45 1034.97 1455.09 1028.76 1463.55C1022.66 1472.01 1014.73 1478.7 1004.99 1483.63C995.347 1488.45 984.316 1490.86 971.893 1490.86ZM1093.3 1419.21L1092.98 1391.9H1097.8L1181.82 1307.4H1208L1125.11 1390.77L1123.18 1391.1L1093.3 1419.21ZM1074.35 1487V1247.64H1095.07V1487H1074.35ZM1185.99 1487L1113.22 1394.95L1128.16 1380.49L1212.82 1487H1185.99ZM1286.36 1491.02C1275.54 1491.02 1265.64 1488.93 1256.64 1484.75C1247.64 1480.47 1240.47 1474.31 1235.11 1466.28C1229.87 1458.14 1227.24 1448.28 1227.24 1436.72C1227.24 1427.83 1228.9 1420.39 1232.22 1414.39C1235.54 1408.39 1240.31 1403.46 1246.52 1399.61C1252.73 1395.65 1260.01 1392.54 1268.37 1390.29C1276.83 1387.94 1286.15 1386.17 1296.32 1384.99C1306.39 1383.71 1314.9 1382.63 1321.86 1381.78C1328.82 1380.81 1334.13 1379.31 1337.77 1377.28C1341.41 1375.24 1343.23 1371.98 1343.23 1367.48V1363.3C1343.23 1350.99 1339.59 1341.35 1332.3 1334.39C1325.02 1327.32 1314.58 1323.79 1300.98 1323.79C1288.02 1323.79 1277.47 1326.62 1269.33 1332.3C1261.19 1337.98 1255.52 1344.67 1252.3 1352.38L1232.38 1345.15C1236.45 1335.41 1242.08 1327.59 1249.25 1321.7C1256.43 1315.81 1264.46 1311.58 1273.35 1309.01C1282.24 1306.33 1291.23 1304.99 1300.34 1304.99C1307.19 1304.99 1314.31 1305.9 1321.7 1307.72C1329.09 1309.54 1336 1312.65 1342.43 1317.04C1348.85 1321.43 1354.05 1327.59 1358.01 1335.51C1362.08 1343.33 1364.11 1353.24 1364.11 1365.23V1487H1343.23V1458.57H1341.94C1339.59 1463.81 1335.95 1468.95 1331.02 1473.99C1326.09 1478.91 1319.93 1482.98 1312.55 1486.2C1305.16 1489.41 1296.43 1491.02 1286.36 1491.02ZM1289.25 1472.06C1300.28 1472.06 1309.81 1469.65 1317.85 1464.83C1325.99 1459.9 1332.25 1453.32 1336.64 1445.07C1341.03 1436.83 1343.23 1427.83 1343.23 1418.08V1392.22C1341.62 1393.72 1339 1395.06 1335.36 1396.24C1331.82 1397.41 1327.7 1398.43 1322.99 1399.29C1318.38 1400.14 1313.67 1400.89 1308.85 1401.54C1304.14 1402.18 1299.96 1402.72 1296.32 1403.14C1286.25 1404.43 1277.58 1406.41 1270.3 1409.09C1263.12 1411.76 1257.6 1415.41 1253.75 1420.01C1250 1424.62 1248.13 1430.56 1248.13 1437.84C1248.13 1448.66 1251.98 1457.07 1259.69 1463.06C1267.51 1469.06 1277.36 1472.06 1289.25 1472.06ZM1476.53 1558C1458.21 1558 1443.27 1554.58 1431.71 1547.72C1420.14 1540.87 1411.73 1532.3 1406.48 1522.02L1423.51 1510.78C1425.98 1515.38 1429.4 1519.83 1433.79 1524.11C1438.19 1528.5 1443.86 1532.09 1450.82 1534.87C1457.78 1537.76 1466.35 1539.21 1476.53 1539.21C1492.48 1539.21 1505.33 1535.25 1515.08 1527.32C1524.93 1519.4 1529.86 1507.08 1529.86 1490.37V1449.89H1527.77C1525.42 1455.35 1521.99 1460.81 1517.49 1466.28C1512.99 1471.63 1507.1 1476.13 1499.82 1479.77C1492.54 1483.31 1483.49 1485.07 1472.67 1485.07C1458.32 1485.07 1445.57 1481.54 1434.44 1474.47C1423.41 1467.4 1414.68 1457.28 1408.25 1444.11C1401.93 1430.83 1398.77 1415.08 1398.77 1396.88C1398.77 1378.67 1401.88 1362.71 1408.09 1349.01C1414.3 1335.19 1422.98 1324.43 1434.12 1316.72C1445.25 1308.9 1458.21 1304.99 1472.99 1304.99C1484.02 1304.99 1493.18 1306.97 1500.46 1310.93C1507.74 1314.79 1513.58 1319.55 1517.97 1325.23C1522.36 1330.91 1525.79 1336.42 1528.25 1341.78H1530.5V1307.4H1550.42V1491.66C1550.42 1506.87 1547.21 1519.34 1540.78 1529.09C1534.46 1538.94 1525.74 1546.22 1514.6 1550.94C1503.46 1555.65 1490.77 1558 1476.53 1558ZM1475.24 1466.12C1492.48 1466.12 1505.92 1459.9 1515.56 1447.48C1525.2 1435.06 1530.02 1418.03 1530.02 1396.4C1530.02 1382.37 1527.88 1369.94 1523.59 1359.13C1519.42 1348.2 1513.21 1339.64 1504.96 1333.42C1496.82 1327.11 1486.91 1323.95 1475.24 1323.95C1463.14 1323.95 1452.96 1327.21 1444.72 1333.75C1436.47 1340.17 1430.21 1348.85 1425.92 1359.77C1421.75 1370.69 1419.66 1382.9 1419.66 1396.4C1419.66 1410.1 1421.8 1422.21 1426.08 1432.7C1430.37 1443.2 1436.63 1451.39 1444.88 1457.28C1453.23 1463.17 1463.35 1466.12 1475.24 1466.12ZM1667.33 1490.86C1650.63 1490.86 1636.12 1486.95 1623.8 1479.13C1611.48 1471.2 1602.01 1460.28 1595.37 1446.36C1588.73 1432.43 1585.41 1416.42 1585.41 1398.32C1585.41 1380.22 1588.67 1364.16 1595.2 1350.13C1601.84 1336.1 1611.05 1325.07 1622.84 1317.04C1634.62 1309.01 1648.27 1304.99 1663.8 1304.99C1673.44 1304.99 1682.81 1306.81 1691.91 1310.45C1701.02 1313.99 1709.21 1319.39 1716.49 1326.68C1723.77 1333.96 1729.5 1343.22 1733.68 1354.47C1737.86 1365.61 1739.95 1378.89 1739.95 1394.31V1403.63H1599.7V1385.31H1728.7L1719.22 1392.38C1719.22 1379.31 1716.97 1367.64 1712.48 1357.36C1708.08 1347.08 1701.77 1338.94 1693.52 1332.94C1685.27 1326.94 1675.37 1323.95 1663.8 1323.95C1652.34 1323.95 1642.27 1327 1633.6 1333.1C1624.92 1339.1 1618.18 1347.13 1613.36 1357.2C1608.65 1367.16 1606.29 1378.08 1606.29 1389.97V1400.73C1606.29 1415.08 1608.75 1427.62 1613.68 1438.32C1618.71 1448.93 1625.78 1457.17 1634.88 1463.06C1644.09 1468.95 1654.91 1471.9 1667.33 1471.9C1675.79 1471.9 1683.24 1470.56 1689.66 1467.88C1696.09 1465.21 1701.5 1461.62 1705.89 1457.12C1710.28 1452.51 1713.6 1447.53 1715.85 1442.18L1735.61 1448.77C1732.82 1456.26 1728.33 1463.22 1722.11 1469.65C1716.01 1475.97 1708.3 1481.11 1698.98 1485.07C1689.77 1488.93 1679.22 1490.86 1667.33 1490.86Z" fill="white"/>
<path d="M1132 700C1325.3 700 1482 543.3 1482 350C1482 156.7 1325.3 0 1132 0C938.7 0 782 156.7 782 350C782 543.3 938.7 700 1132 700Z" fill="#7AF546"/>
<path d="M1373.55 227.891C1370.65 217.481 1365.13 207.998 1357.5 200.358C1349.88 192.718 1340.42 187.18 1330.03 184.279C1291.06 173.8 1134.23 173.8 1134.23 173.8C1134.23 173.8 977.786 173.585 938.407 184.279C928.023 187.18 918.561 192.718 910.937 200.358C903.313 207.998 897.784 217.481 894.885 227.891C887.492 267.9 883.849 308.513 884.005 349.203C883.866 389.731 887.501 430.185 894.861 470.038C897.755 480.46 903.284 489.953 910.913 497.604C918.543 505.252 928.013 510.797 938.407 513.698C977.334 524.201 1134.23 524.201 1134.23 524.201C1134.23 524.201 1290.65 524.201 1330.03 513.698C1340.42 510.797 1349.88 505.259 1357.5 497.618C1365.13 489.98 1370.65 480.496 1373.55 470.086C1380.76 430.219 1384.25 389.767 1383.98 349.251C1384.28 308.561 1380.79 267.931 1373.55 227.891ZM1084.16 424.23V273.843L1214.7 349.108L1084.16 424.23Z" fill="black"/>
</svg>
