<svg width="2034" height="700" viewBox="0 0 2034 700" fill="none" xmlns="http://www.w3.org/2000/svg">
<path d="M350 700C543.3 700 700 543.3 700 350C700 156.7 543.3 0 350 0C156.7 0 0 156.7 0 350C0 543.3 156.7 700 350 700Z" fill="#7AF546"/>
<path d="M398.2 265.434L199.4 460.684C196.08 463.95 191.61 465.78 186.953 465.78C182.296 465.78 177.825 463.95 174.506 460.684L89.3056 377.015C87.6426 375.38 86.3187 373.434 85.4087 371.288C84.4987 369.142 84.0197 366.837 84.0007 364.506C83.9807 362.175 84.4207 359.863 85.2947 357.701C86.1687 355.54 87.4596 353.572 89.0946 351.91C90.7286 350.248 92.6747 348.924 94.8217 348.013C96.9677 347.103 99.2716 346.625 101.604 346.605C103.935 346.585 106.247 347.025 108.408 347.899C110.57 348.773 112.538 350.065 114.2 351.699L186.953 423.143L373.328 240.096C376.688 236.795 381.222 234.964 385.932 235.005C388.264 235.026 390.569 235.506 392.716 236.417C394.863 237.329 396.809 238.654 398.444 240.318C400.079 241.982 401.369 243.951 402.243 246.114C403.116 248.276 403.555 250.59 403.535 252.922C403.514 255.254 403.034 257.56 402.123 259.706C401.211 261.853 399.886 263.8 398.222 265.434H398.2ZM611.422 240.318C609.788 238.653 607.842 237.326 605.695 236.414C603.548 235.502 601.242 235.021 598.91 235.001C596.577 234.98 594.263 235.42 592.1 236.294C589.938 237.168 587.969 238.46 586.305 240.096L399.93 423.143L358.151 382.096C354.791 378.798 350.259 376.969 345.551 377.013C340.842 377.057 336.345 378.969 333.046 382.329C329.748 385.689 327.92 390.222 327.963 394.93C328.007 399.638 329.919 404.136 333.279 407.434L387.483 460.684C390.803 463.95 395.274 465.78 399.93 465.78C404.587 465.78 409.058 463.95 412.378 460.684L611.178 265.434C612.844 263.802 614.172 261.857 615.087 259.711C616.001 257.565 616.483 255.259 616.506 252.927C616.529 250.594 616.091 248.28 615.219 246.116C614.346 243.953 613.056 241.982 611.422 240.318Z" fill="black"/>
<path d="M892.572 303.213C871.367 303.213 852.357 298.394 835.543 288.755C818.729 279.116 805.449 265.14 795.703 246.827C785.957 228.513 781.084 206.398 781.084 180.48C781.084 154.349 785.957 132.126 795.703 113.813C805.556 95.3924 818.889 81.4163 835.704 71.8848C852.625 62.2461 871.581 57.4268 892.572 57.4268C906.494 57.4268 919.399 59.408 931.287 63.3706C943.175 67.2261 953.67 72.9022 962.773 80.3989C971.984 87.7886 979.48 96.8918 985.264 107.708C991.047 118.418 994.742 130.681 996.348 144.496H945.263C944.299 137.963 942.372 132.073 939.48 126.825C936.695 121.577 933.001 117.133 928.396 113.492C923.897 109.85 918.703 107.066 912.813 105.138C907.03 103.103 900.658 102.086 893.696 102.086C881.487 102.086 870.724 105.192 861.407 111.403C852.196 117.508 845.021 126.397 839.88 138.07C834.847 149.637 832.33 163.773 832.33 180.48C832.33 197.509 834.9 211.86 840.041 223.533C845.182 235.1 852.357 243.828 861.567 249.718C870.778 255.609 881.434 258.554 893.536 258.554C900.283 258.554 906.548 257.643 912.331 255.823C918.114 254.002 923.255 251.378 927.753 247.951C932.251 244.524 935.999 240.347 938.998 235.421C942.104 230.387 944.192 224.658 945.263 218.232H996.348C995.063 229.263 991.797 239.865 986.549 250.04C981.408 260.214 974.393 269.317 965.504 277.349C956.615 285.274 946.066 291.593 933.857 296.305C921.648 300.91 907.887 303.213 892.572 303.213ZM1070.37 196.224V300H1020.73V60.6396H1068.76V152.368H1071.01C1075.08 141.765 1081.61 133.412 1090.61 127.307C1099.71 121.203 1111.06 118.15 1124.67 118.15C1137.09 118.15 1147.96 120.881 1157.28 126.343C1166.59 131.698 1173.82 139.409 1178.96 149.476C1184.21 159.543 1186.84 171.645 1186.84 185.782V300H1137.04V194.617C1137.04 183.586 1134.2 174.965 1128.52 168.753C1122.95 162.542 1115.08 159.436 1104.91 159.436C1098.05 159.436 1092.05 160.935 1086.91 163.934C1081.77 166.826 1077.7 171.002 1074.71 176.464C1071.81 181.926 1070.37 188.513 1070.37 196.224ZM1266.48 303.374C1255.13 303.374 1244.9 301.392 1235.79 297.43C1226.8 293.36 1219.73 287.363 1214.59 279.438C1209.45 271.512 1206.88 261.66 1206.88 249.879C1206.88 239.812 1208.7 231.458 1212.34 224.818C1215.98 218.071 1220.96 212.609 1227.28 208.433C1233.6 204.256 1240.77 201.097 1248.81 198.955C1256.84 196.813 1265.35 195.313 1274.35 194.457C1284.74 193.493 1293.09 192.529 1299.41 191.565C1305.73 190.601 1310.33 189.155 1313.22 187.228C1316.22 185.193 1317.72 182.301 1317.72 178.553V177.75C1317.72 170.36 1315.37 164.63 1310.65 160.561C1306.05 156.491 1299.52 154.456 1291.06 154.456C1282.17 154.456 1275.05 156.437 1269.69 160.4C1264.44 164.255 1260.96 169.182 1259.25 175.179L1213.14 171.484C1215.5 160.561 1220.1 151.136 1226.96 143.211C1233.81 135.179 1242.65 129.021 1253.47 124.737C1264.39 120.346 1277.03 118.15 1291.38 118.15C1301.34 118.15 1310.87 119.328 1319.97 121.685C1329.08 124.041 1337.16 127.682 1344.23 132.608C1351.4 137.428 1357.08 143.693 1361.26 151.404C1365.43 159.115 1367.52 168.271 1367.52 178.874V300H1320.13V274.939H1318.85C1315.96 280.616 1312.1 285.596 1307.28 289.879C1302.46 294.056 1296.68 297.376 1289.93 299.839C1283.18 302.195 1275.37 303.374 1266.48 303.374ZM1280.77 268.996C1288.06 268.996 1294.48 267.55 1300.05 264.658C1305.73 261.66 1310.12 257.697 1313.22 252.771C1316.44 247.737 1318.04 242.114 1318.04 235.903V216.786C1316.54 217.75 1314.4 218.66 1311.62 219.517C1308.94 220.374 1305.94 221.124 1302.62 221.766C1299.3 222.409 1295.98 222.998 1292.66 223.533C1289.34 223.962 1286.34 224.39 1283.67 224.818C1277.78 225.675 1272.64 227.067 1268.24 228.995C1263.85 230.816 1260.43 233.333 1257.96 236.545C1255.61 239.651 1254.43 243.56 1254.43 248.272C1254.43 255.02 1256.89 260.16 1261.82 263.694C1266.75 267.229 1273.06 268.996 1280.77 268.996ZM1445.56 196.224V300H1395.92V120.399H1444.76V152.368H1446.52C1450.59 141.765 1457.07 133.412 1465.96 127.307C1474.85 121.203 1485.99 118.15 1499.37 118.15C1511.8 118.15 1522.61 120.881 1531.82 126.343C1541.14 131.805 1548.37 139.57 1553.51 149.637C1558.65 159.704 1561.22 171.752 1561.22 185.782V300H1511.58V194.617C1511.58 183.693 1508.75 175.126 1503.07 168.914C1497.39 162.595 1489.58 159.436 1479.62 159.436C1472.98 159.436 1467.09 160.935 1461.94 163.934C1456.8 166.826 1452.79 171.002 1449.9 176.464C1447 181.926 1445.56 188.513 1445.56 196.224ZM1639.58 196.224V300H1589.94V120.399H1638.78V152.368H1640.54C1644.61 141.765 1651.09 133.412 1659.98 127.307C1668.87 121.203 1680.01 118.15 1693.4 118.15C1705.82 118.15 1716.64 120.881 1725.85 126.343C1735.16 131.805 1742.39 139.57 1747.53 149.637C1752.67 159.704 1755.24 171.752 1755.24 185.782V300H1705.6V194.617C1705.6 183.693 1702.77 175.126 1697.09 168.914C1691.41 162.595 1683.6 159.436 1673.64 159.436C1667 159.436 1661.11 160.935 1655.97 163.934C1650.82 166.826 1646.81 171.002 1643.92 176.464C1641.03 181.926 1639.58 188.513 1639.58 196.224ZM1865.73 303.534C1847.31 303.534 1831.41 299.786 1818.02 292.289C1804.63 284.792 1794.35 274.136 1787.17 260.321C1780.11 246.398 1776.57 229.959 1776.57 211.003C1776.57 192.582 1780.11 176.411 1787.17 162.488C1794.35 148.566 1804.42 137.695 1817.38 129.877C1830.44 122.059 1845.76 118.15 1863.32 118.15C1875.21 118.15 1886.29 120.078 1896.57 123.934C1906.85 127.682 1915.85 133.358 1923.56 140.962C1931.27 148.459 1937.27 157.937 1941.55 169.396C1945.84 180.748 1947.98 194.082 1947.98 209.396V222.891H1796.33V192.208H1923.88L1900.75 200.24C1900.75 191.137 1899.36 183.211 1896.57 176.464C1893.79 169.717 1889.61 164.523 1884.04 160.882C1878.58 157.133 1871.78 155.259 1863.64 155.259C1855.5 155.259 1848.59 157.133 1842.92 160.882C1837.35 164.63 1833.07 169.717 1830.07 176.143C1827.07 182.569 1825.57 189.958 1825.57 198.312V219.999C1825.57 229.745 1827.28 238.098 1830.71 245.06C1834.14 251.914 1838.9 257.215 1845.01 260.963C1851.22 264.605 1858.34 266.425 1866.37 266.425C1871.94 266.425 1876.97 265.622 1881.47 264.016C1885.97 262.409 1889.83 260.053 1893.04 256.947C1896.36 253.841 1898.82 250.093 1900.43 245.702L1946.37 248.754C1944.12 259.785 1939.41 269.424 1932.24 277.67C1925.17 285.81 1916.01 292.182 1904.77 296.787C1893.52 301.285 1880.51 303.534 1865.73 303.534ZM2018.3 60.6396V300H1968.67V60.6396H2018.3ZM796.506 640V400.64H873.937C890.965 400.64 905.156 403.745 916.508 409.957C927.86 416.062 936.428 424.522 942.211 435.339C948.101 446.156 951.046 458.525 951.046 472.448C951.046 486.37 948.155 498.686 942.372 509.396C936.588 519.999 927.967 528.299 916.508 534.296C905.156 540.293 891.072 543.292 874.258 543.292H808.555V523.372H873.616C886.146 523.372 896.534 521.284 904.781 517.107C913.027 512.93 919.185 507.04 923.255 499.436C927.432 491.832 929.52 482.836 929.52 472.448C929.52 461.952 927.432 452.796 923.255 444.978C919.078 437.16 912.867 431.109 904.62 426.825C896.374 422.541 885.932 420.399 873.294 420.399H818.354V640H796.506ZM935.625 640L877.471 531.886H902.21L961.006 640H935.625ZM1059.93 643.855C1043.22 643.855 1028.71 639.946 1016.39 632.128C1004.08 624.203 994.597 613.279 987.957 599.357C981.317 585.434 977.997 569.424 977.997 551.324C977.997 533.225 981.264 517.16 987.797 503.131C994.437 489.101 1003.65 478.07 1015.43 470.038C1027.21 462.006 1040.86 457.99 1056.39 457.99C1066.03 457.99 1075.4 459.81 1084.5 463.452C1093.61 466.986 1101.8 472.394 1109.08 479.677C1116.37 486.959 1122.1 496.223 1126.27 507.468C1130.45 518.606 1132.54 531.886 1132.54 547.308V556.625H992.295V538.312H1121.29L1111.81 545.38C1111.81 532.315 1109.57 520.641 1105.07 510.36C1100.68 500.079 1094.36 491.939 1086.11 485.942C1077.86 479.944 1067.96 476.946 1056.39 476.946C1044.93 476.946 1034.87 479.998 1026.19 486.103C1017.52 492.1 1010.77 500.132 1005.95 510.199C1001.24 520.159 998.881 531.083 998.881 542.971V553.734C998.881 568.085 1001.34 580.615 1006.27 591.325C1011.3 601.927 1018.37 610.174 1027.48 616.064C1036.69 621.954 1047.5 624.899 1059.93 624.899C1068.39 624.899 1075.83 623.561 1082.26 620.883C1088.68 618.206 1094.09 614.618 1098.48 610.12C1102.87 605.515 1106.19 600.535 1108.44 595.18L1128.2 601.767C1125.42 609.263 1120.92 616.225 1114.71 622.65C1108.6 628.969 1100.89 634.11 1091.57 638.072C1082.36 641.928 1071.81 643.855 1059.93 643.855ZM1298.93 460.399L1233.55 640H1211.22L1145.67 460.399H1168.32L1221.5 612.69H1223.1L1276.44 460.399H1298.93ZM1328.77 640V460.399H1349.49V640H1328.77ZM1339.21 429.716C1334.93 429.716 1331.23 428.271 1328.13 425.379C1325.13 422.38 1323.63 418.792 1323.63 414.616C1323.63 410.546 1325.13 407.065 1328.13 404.174C1331.23 401.282 1334.93 399.836 1339.21 399.836C1343.5 399.836 1347.14 401.282 1350.14 404.174C1353.13 407.065 1354.63 410.546 1354.63 414.616C1354.63 418.792 1353.13 422.38 1350.14 425.379C1347.14 428.271 1343.5 429.716 1339.21 429.716ZM1466.24 643.855C1449.54 643.855 1435.03 639.946 1422.71 632.128C1410.39 624.203 1400.92 613.279 1394.28 599.357C1387.64 585.434 1384.32 569.424 1384.32 551.324C1384.32 533.225 1387.58 517.16 1394.11 503.131C1400.75 489.101 1409.97 478.07 1421.75 470.038C1433.53 462.006 1447.18 457.99 1462.71 457.99C1472.35 457.99 1481.72 459.81 1490.82 463.452C1499.93 466.986 1508.12 472.394 1515.4 479.677C1522.68 486.959 1528.41 496.223 1532.59 507.468C1536.77 518.606 1538.86 531.886 1538.86 547.308V556.625H1398.61V538.312H1527.61L1518.13 545.38C1518.13 532.315 1515.88 520.641 1511.39 510.36C1506.99 500.079 1500.68 491.939 1492.43 485.942C1484.18 479.944 1474.28 476.946 1462.71 476.946C1451.25 476.946 1441.18 479.998 1432.51 486.103C1423.83 492.1 1417.09 500.132 1412.27 510.199C1407.56 520.159 1405.2 531.083 1405.2 542.971V553.734C1405.2 568.085 1407.66 580.615 1412.59 591.325C1417.62 601.927 1424.69 610.174 1433.79 616.064C1443 621.954 1453.82 624.899 1466.24 624.899C1474.7 624.899 1482.15 623.561 1488.57 620.883C1495 618.206 1500.41 614.618 1504.8 610.12C1509.19 605.515 1512.51 600.535 1514.76 595.18L1534.52 601.767C1531.73 609.263 1527.24 616.225 1521.02 622.65C1514.92 628.969 1507.21 634.11 1497.89 638.072C1488.68 641.928 1478.13 643.855 1466.24 643.855ZM1606.61 640L1552.31 460.399H1574.32L1616.89 608.514H1618.5L1660.91 460.399H1683.08L1724.84 608.353H1726.45L1769.18 460.399H1791.03L1736.89 640H1715.53L1672.8 493.01H1670.71L1627.98 640H1606.61Z" fill="white"/>
</svg>
