<svg width="1866" height="1492" viewBox="0 0 1866 1492" fill="none" xmlns="http://www.w3.org/2000/svg">
<path d="M276.397 907.64H333.105L387.724 1010.77H389.973L444.592 907.64H501.3L414.07 1062.5V1147H363.788V1062.5L276.397 907.64ZM560.38 1150.53C542.28 1150.53 526.591 1146.68 513.311 1138.97C500.138 1131.15 489.964 1120.33 482.788 1106.52C475.72 1092.6 472.186 1076.42 472.186 1058C472.186 1039.37 475.72 1023.14 482.788 1009.33C489.964 995.405 500.138 984.588 513.311 976.877C526.591 969.059 542.28 965.15 560.38 965.15C578.586 965.15 594.276 969.059 607.448 976.877C620.728 984.588 630.902 995.405 637.971 1009.33C645.146 1023.14 648.734 1039.37 648.734 1058C648.734 1076.42 645.146 1092.6 637.971 1106.52C630.902 1120.33 620.728 1131.15 607.448 1138.97C594.276 1146.68 578.586 1150.53 560.38 1150.53ZM560.701 1111.66C568.947 1111.66 575.855 1109.36 581.424 1104.75C586.993 1100.04 591.17 1093.61 593.954 1085.47C596.846 1077.33 598.292 1068.07 598.292 1057.68C598.292 1047.19 596.846 1037.92 593.954 1029.89C591.17 1021.86 586.993 1015.54 581.424 1010.93C575.855 1006.33 568.947 1004.03 560.701 1004.03C552.347 1004.03 545.332 1006.33 539.656 1010.93C534.087 1015.54 529.857 1021.86 526.965 1029.89C524.181 1037.92 522.789 1047.19 522.789 1057.68C522.789 1068.07 524.181 1077.33 526.965 1085.47C529.857 1093.61 534.087 1100.04 539.656 1104.75C545.332 1109.36 552.347 1111.66 560.701 1111.66ZM785.084 1070.69V967.399H834.723V1147H787.012V1114.39H785.084C781.014 1124.78 774.321 1133.24 765.003 1139.77C755.686 1146.2 744.28 1149.36 730.786 1149.25C718.791 1149.25 708.189 1146.57 698.978 1141.22C689.875 1135.75 682.753 1127.99 677.613 1117.92C672.579 1107.86 670.062 1095.81 670.062 1081.78V967.399H719.701V1073.1C719.701 1083.6 722.54 1091.95 728.216 1098.16C733.892 1104.27 741.442 1107.27 750.867 1107.16C756.864 1107.16 762.433 1105.82 767.574 1103.14C772.714 1100.36 776.891 1096.24 780.104 1090.77C783.424 1085.31 785.084 1078.62 785.084 1070.69ZM838.38 949.407V907.64H1035.01V949.407H961.755V1147H911.795V949.407H838.38ZM1145.82 1070.69V967.399H1195.46V1147H1147.74V1114.39H1145.82C1141.75 1124.78 1135.05 1133.24 1125.74 1139.77C1116.42 1146.2 1105.01 1149.36 1091.52 1149.25C1079.52 1149.25 1068.92 1146.57 1059.71 1141.22C1050.61 1135.75 1043.49 1127.99 1038.35 1117.92C1033.31 1107.86 1030.8 1095.81 1030.8 1081.78V967.399H1080.43V1073.1C1080.43 1083.6 1083.27 1091.95 1088.95 1098.16C1094.62 1104.27 1102.17 1107.27 1111.6 1107.16C1117.6 1107.16 1123.17 1105.82 1128.31 1103.14C1133.45 1100.36 1137.62 1096.24 1140.84 1090.77C1144.16 1085.31 1145.82 1078.62 1145.82 1070.69ZM1326.18 1149.89C1316.54 1149.89 1308.35 1148.29 1301.6 1145.07C1294.86 1141.86 1289.34 1137.84 1285.06 1133.02C1280.88 1128.1 1277.61 1123.17 1275.26 1118.24H1273.01V1147H1224.17V907.64H1273.81V997.761H1275.26C1277.51 992.835 1280.72 987.855 1284.9 982.821C1289.07 977.788 1294.54 973.611 1301.28 970.291C1308.03 966.864 1316.38 965.15 1326.34 965.15C1339.52 965.15 1351.56 968.577 1362.49 975.432C1373.52 982.179 1382.35 992.406 1388.99 1006.11C1395.63 1019.82 1398.95 1036.96 1398.95 1057.52C1398.95 1077.44 1395.74 1094.31 1389.32 1108.12C1382.89 1121.83 1374.16 1132.22 1363.13 1139.29C1352.21 1146.36 1339.89 1149.89 1326.18 1149.89ZM1310.44 1110.37C1318.58 1110.37 1325.43 1108.12 1331 1103.63C1336.57 1099.13 1340.8 1092.92 1343.69 1084.99C1346.58 1076.96 1348.03 1067.75 1348.03 1057.36C1348.03 1046.97 1346.58 1037.87 1343.69 1030.05C1340.91 1022.13 1336.73 1015.91 1331.16 1011.42C1325.59 1006.92 1318.69 1004.67 1310.44 1004.67C1302.41 1004.67 1295.55 1006.86 1289.88 1011.26C1284.31 1015.54 1280.02 1021.64 1277.03 1029.57C1274.13 1037.39 1272.69 1046.65 1272.69 1057.36C1272.69 1067.96 1274.19 1077.23 1277.19 1085.15C1280.18 1093.08 1284.47 1099.29 1290.04 1103.79C1295.71 1108.18 1302.51 1110.37 1310.44 1110.37ZM1501.89 1150.53C1483.47 1150.53 1467.57 1146.79 1454.18 1139.29C1440.79 1131.79 1430.51 1121.14 1423.34 1107.32C1416.27 1093.4 1412.73 1076.96 1412.73 1058C1412.73 1039.58 1416.27 1023.41 1423.34 1009.49C1430.51 995.566 1440.58 984.695 1453.54 976.877C1466.6 969.059 1481.92 965.15 1499.48 965.15C1511.37 965.15 1522.45 967.078 1532.73 970.934C1543.02 974.682 1552.01 980.358 1559.72 987.962C1567.43 995.459 1573.43 1004.94 1577.71 1016.4C1582 1027.75 1584.14 1041.08 1584.14 1056.4V1069.89H1432.49V1039.21H1560.04L1536.91 1047.24C1536.91 1038.14 1535.52 1030.21 1532.73 1023.46C1529.95 1016.72 1525.77 1011.52 1520.2 1007.88C1514.74 1004.13 1507.94 1002.26 1499.8 1002.26C1491.66 1002.26 1484.76 1004.13 1479.08 1007.88C1473.51 1011.63 1469.23 1016.72 1466.23 1023.14C1463.23 1029.57 1461.73 1036.96 1461.73 1045.31V1067C1461.73 1076.74 1463.44 1085.1 1466.87 1092.06C1470.3 1098.91 1475.06 1104.22 1481.17 1107.96C1487.38 1111.6 1494.5 1113.43 1502.53 1113.43C1508.1 1113.43 1513.14 1112.62 1517.63 1111.02C1522.13 1109.41 1525.99 1107.05 1529.2 1103.95C1532.52 1100.84 1534.98 1097.09 1536.59 1092.7L1582.53 1095.75C1580.29 1106.79 1575.57 1116.42 1568.4 1124.67C1561.33 1132.81 1552.17 1139.18 1540.93 1143.79C1529.68 1148.29 1516.67 1150.53 1501.89 1150.53ZM26.8494 1247.64H52.2312L138.979 1456H141.228L227.976 1247.64H254.001V1487H232.635V1293.74H230.868L149.742 1487H129.983L49.5002 1293.74H47.7332V1487H26.8494V1247.64ZM372.198 1490.86C356.669 1490.86 342.96 1486.95 331.073 1479.13C319.185 1471.2 309.868 1460.28 303.121 1446.36C296.481 1432.33 293.161 1416.26 293.161 1398.16C293.161 1379.74 296.481 1363.57 303.121 1349.65C309.868 1335.62 319.185 1324.7 331.073 1316.88C342.96 1308.95 356.669 1304.99 372.198 1304.99C387.727 1304.99 401.381 1308.95 413.162 1316.88C425.05 1324.7 434.367 1335.62 441.114 1349.65C447.861 1363.57 451.235 1379.74 451.235 1398.16C451.235 1416.26 447.861 1432.33 441.114 1446.36C434.474 1460.28 425.21 1471.2 413.323 1479.13C401.435 1486.95 387.727 1490.86 372.198 1490.86ZM372.198 1471.9C384.728 1471.9 395.277 1468.58 403.845 1461.94C412.519 1455.19 419.106 1446.2 423.604 1434.95C428.102 1423.71 430.351 1411.44 430.351 1398.16C430.351 1384.67 428.102 1372.3 423.604 1361.05C419.106 1349.81 412.519 1340.81 403.845 1334.07C395.17 1327.32 384.621 1323.95 372.198 1323.95C359.775 1323.95 349.226 1327.37 340.551 1334.23C331.983 1340.97 325.397 1349.97 320.791 1361.22C316.293 1372.35 314.044 1384.67 314.044 1398.16C314.044 1411.44 316.293 1423.71 320.791 1434.95C325.289 1446.2 331.876 1455.19 340.551 1461.94C349.226 1468.58 359.775 1471.9 372.198 1471.9ZM506.62 1374.87V1487H485.897V1307.4H505.977V1335.83H508.066C512.242 1326.52 518.775 1319.07 527.664 1313.5C536.553 1307.93 547.584 1305.15 560.757 1305.15C572.859 1305.15 583.461 1307.67 592.565 1312.7C601.775 1317.73 608.95 1325.12 614.091 1334.87C619.232 1344.62 621.802 1356.61 621.802 1370.85V1487H601.079V1372.14C601.079 1357.47 596.956 1345.79 588.709 1337.12C580.463 1328.44 569.432 1324.11 555.616 1324.11C546.192 1324.11 537.785 1326.19 530.395 1330.37C523.005 1334.44 517.169 1340.28 512.885 1347.88C508.708 1355.38 506.62 1364.37 506.62 1374.87ZM738.392 1490.86C721.685 1490.86 707.174 1486.95 694.858 1479.13C682.542 1471.2 673.064 1460.28 666.424 1446.36C659.784 1432.43 656.464 1416.42 656.464 1398.32C656.464 1380.22 659.73 1364.16 666.263 1350.13C672.903 1336.1 682.113 1325.07 693.894 1317.04C705.674 1309.01 719.329 1304.99 734.858 1304.99C744.497 1304.99 753.868 1306.81 762.971 1310.45C772.074 1313.99 780.267 1319.39 787.55 1326.68C794.832 1333.96 800.562 1343.22 804.739 1354.47C808.915 1365.61 811.004 1378.89 811.004 1394.31V1403.63H670.761V1385.31H799.759L790.281 1392.38C790.281 1379.31 788.032 1367.64 783.534 1357.36C779.143 1347.08 772.824 1338.94 764.577 1332.94C756.331 1326.94 746.425 1323.95 734.858 1323.95C723.399 1323.95 713.332 1327 704.657 1333.1C695.982 1339.1 689.235 1347.13 684.416 1357.2C679.704 1367.16 677.347 1378.08 677.347 1389.97V1400.73C677.347 1415.08 679.811 1427.62 684.737 1438.32C689.771 1448.93 696.839 1457.17 705.942 1463.06C715.152 1468.95 725.969 1471.9 738.392 1471.9C746.853 1471.9 754.296 1470.56 760.722 1467.88C767.148 1465.21 772.556 1461.62 776.947 1457.12C781.338 1452.51 784.658 1447.53 786.907 1442.18L806.666 1448.77C803.882 1456.26 799.384 1463.22 793.172 1469.65C787.068 1475.97 779.357 1481.11 770.039 1485.07C760.829 1488.93 750.28 1490.86 738.392 1490.86ZM915.546 1307.4V1325.55H829.922V1307.4H915.546ZM856.75 1264.67H877.473V1440.09C877.473 1449.84 879.883 1457.17 884.702 1462.1C889.521 1466.92 896.215 1469.33 904.783 1469.33C906.71 1469.33 908.638 1469.22 910.566 1469.01C912.601 1468.69 914.743 1468.26 916.992 1467.72L921.49 1486.52C919.027 1487.48 916.188 1488.23 912.976 1488.77C909.763 1489.3 906.443 1489.57 903.016 1489.57C889.736 1489.57 878.705 1485.5 869.923 1477.36C861.141 1469.11 856.75 1458.35 856.75 1445.07V1264.67ZM951.975 1487V1307.4H972.698V1487H951.975ZM962.417 1276.72C958.133 1276.72 954.438 1275.27 951.332 1272.38C948.333 1269.38 946.834 1265.79 946.834 1261.62C946.834 1257.55 948.333 1254.07 951.332 1251.17C954.438 1248.28 958.133 1246.84 962.417 1246.84C966.7 1246.84 970.342 1248.28 973.34 1251.17C976.339 1254.07 977.839 1257.55 977.839 1261.62C977.839 1265.79 976.339 1269.38 973.34 1272.38C970.342 1275.27 966.7 1276.72 962.417 1276.72ZM1011.38 1487V1470.61L1114.99 1328.77V1327.16H1015.71V1307.4H1141.66V1324.75L1039.97 1465.79V1467.4H1145.35V1487H1011.38ZM1230.46 1491.02C1219.64 1491.02 1209.73 1488.93 1200.74 1484.75C1191.74 1480.47 1184.57 1474.31 1179.21 1466.28C1173.96 1458.14 1171.34 1448.28 1171.34 1436.72C1171.34 1427.83 1173 1420.39 1176.32 1414.39C1179.64 1408.39 1184.41 1403.46 1190.62 1399.61C1196.83 1395.65 1204.11 1392.54 1212.47 1390.29C1220.93 1387.94 1230.24 1386.17 1240.42 1384.99C1250.48 1383.71 1259 1382.63 1265.96 1381.78C1272.92 1380.81 1278.22 1379.31 1281.86 1377.28C1285.51 1375.24 1287.33 1371.98 1287.33 1367.48V1363.3C1287.33 1350.99 1283.68 1341.35 1276.4 1334.39C1269.12 1327.32 1258.68 1323.79 1245.08 1323.79C1232.12 1323.79 1221.57 1326.62 1213.43 1332.3C1205.29 1337.98 1199.61 1344.67 1196.4 1352.38L1176.48 1345.15C1180.55 1335.41 1186.17 1327.59 1193.35 1321.7C1200.52 1315.81 1208.56 1311.58 1217.45 1309.01C1226.33 1306.33 1235.33 1304.99 1244.43 1304.99C1251.29 1304.99 1258.41 1305.9 1265.8 1307.72C1273.19 1309.54 1280.1 1312.65 1286.52 1317.04C1292.95 1321.43 1298.14 1327.59 1302.1 1335.51C1306.17 1343.33 1308.21 1353.24 1308.21 1365.23V1487H1287.33V1458.57H1286.04C1283.68 1463.81 1280.04 1468.95 1275.12 1473.99C1270.19 1478.91 1264.03 1482.98 1256.64 1486.2C1249.25 1489.41 1240.52 1491.02 1230.46 1491.02ZM1233.35 1472.06C1244.38 1472.06 1253.91 1469.65 1261.94 1464.83C1270.08 1459.9 1276.35 1453.32 1280.74 1445.07C1285.13 1436.83 1287.33 1427.83 1287.33 1418.08V1392.22C1285.72 1393.72 1283.1 1395.06 1279.45 1396.24C1275.92 1397.41 1271.8 1398.43 1267.08 1399.29C1262.48 1400.14 1257.77 1400.89 1252.95 1401.54C1248.24 1402.18 1244.06 1402.72 1240.42 1403.14C1230.35 1404.43 1221.68 1406.41 1214.39 1409.09C1207.22 1411.76 1201.7 1415.41 1197.85 1420.01C1194.1 1424.62 1192.22 1430.56 1192.22 1437.84C1192.22 1448.66 1196.08 1457.07 1203.79 1463.06C1211.61 1469.06 1221.46 1472.06 1233.35 1472.06ZM1422.71 1307.4V1325.55H1337.09V1307.4H1422.71ZM1363.92 1264.67H1384.64V1440.09C1384.64 1449.84 1387.05 1457.17 1391.87 1462.1C1396.69 1466.92 1403.38 1469.33 1411.95 1469.33C1413.88 1469.33 1415.8 1469.22 1417.73 1469.01C1419.77 1468.69 1421.91 1468.26 1424.16 1467.72L1428.66 1486.52C1426.19 1487.48 1423.35 1488.23 1420.14 1488.77C1416.93 1489.3 1413.61 1489.57 1410.18 1489.57C1396.9 1489.57 1385.87 1485.5 1377.09 1477.36C1368.31 1469.11 1363.92 1458.35 1363.92 1445.07V1264.67ZM1459.14 1487V1307.4H1479.86V1487H1459.14ZM1469.58 1276.72C1465.3 1276.72 1461.6 1275.27 1458.5 1272.38C1455.5 1269.38 1454 1265.79 1454 1261.62C1454 1257.55 1455.5 1254.07 1458.5 1251.17C1461.6 1248.28 1465.3 1246.84 1469.58 1246.84C1473.87 1246.84 1477.51 1248.28 1480.51 1251.17C1483.5 1254.07 1485 1257.55 1485 1261.62C1485 1265.79 1483.5 1269.38 1480.51 1272.38C1477.51 1275.27 1473.87 1276.72 1469.58 1276.72ZM1593.72 1490.86C1578.19 1490.86 1564.49 1486.95 1552.6 1479.13C1540.71 1471.2 1531.39 1460.28 1524.65 1446.36C1518.01 1432.33 1514.69 1416.26 1514.69 1398.16C1514.69 1379.74 1518.01 1363.57 1524.65 1349.65C1531.39 1335.62 1540.71 1324.7 1552.6 1316.88C1564.49 1308.95 1578.19 1304.99 1593.72 1304.99C1609.25 1304.99 1622.91 1308.95 1634.69 1316.88C1646.58 1324.7 1655.89 1335.62 1662.64 1349.65C1669.39 1363.57 1672.76 1379.74 1672.76 1398.16C1672.76 1416.26 1669.39 1432.33 1662.64 1446.36C1656 1460.28 1646.74 1471.2 1634.85 1479.13C1622.96 1486.95 1609.25 1490.86 1593.72 1490.86ZM1593.72 1471.9C1606.25 1471.9 1616.8 1468.58 1625.37 1461.94C1634.04 1455.19 1640.63 1446.2 1645.13 1434.95C1649.63 1423.71 1651.88 1411.44 1651.88 1398.16C1651.88 1384.67 1649.63 1372.3 1645.13 1361.05C1640.63 1349.81 1634.04 1340.81 1625.37 1334.07C1616.7 1327.32 1606.15 1323.95 1593.72 1323.95C1581.3 1323.95 1570.75 1327.37 1562.08 1334.23C1553.51 1340.97 1546.92 1349.97 1542.32 1361.22C1537.82 1372.35 1535.57 1384.67 1535.57 1398.16C1535.57 1411.44 1537.82 1423.71 1542.32 1434.95C1546.81 1446.2 1553.4 1455.19 1562.08 1461.94C1570.75 1468.58 1581.3 1471.9 1593.72 1471.9ZM1728.15 1374.87V1487H1707.42V1307.4H1727.5V1335.83H1729.59C1733.77 1326.52 1740.3 1319.07 1749.19 1313.5C1758.08 1307.93 1769.11 1305.15 1782.28 1305.15C1794.38 1305.15 1804.99 1307.67 1814.09 1312.7C1823.3 1317.73 1830.48 1325.12 1835.62 1334.87C1840.76 1344.62 1843.33 1356.61 1843.33 1370.85V1487H1822.6V1372.14C1822.6 1357.47 1818.48 1345.79 1810.23 1337.12C1801.99 1328.44 1790.96 1324.11 1777.14 1324.11C1767.72 1324.11 1759.31 1326.19 1751.92 1330.37C1744.53 1334.44 1738.69 1340.28 1734.41 1347.88C1730.23 1355.38 1728.15 1364.37 1728.15 1374.87Z" fill="white"/>
<path d="M933 700C1126.3 700 1283 543.3 1283 350C1283 156.7 1126.3 0 933 0C739.7 0 583 156.7 583 350C583 543.3 739.7 700 933 700Z" fill="#7AF546"/>
<path d="M917.466 646V55H947.761V646H917.466ZM1047.66 232.3C1045.04 205.982 1033.41 185.051 1012.74 169.507C992.088 153.962 966.107 146.19 934.81 146.19C912.764 146.19 893.339 149.96 876.534 157.501C859.884 165.043 846.779 175.508 837.22 188.898C827.817 202.134 823.114 217.218 823.114 234.147C823.114 246.614 825.812 257.541 831.208 266.93C836.604 276.317 843.85 284.398 852.946 291.17C862.196 297.788 872.372 303.482 883.472 308.253C894.726 313.024 906.058 317.025 917.466 320.257L967.418 334.57C982.526 338.727 997.634 344.036 1012.74 350.5C1027.85 356.964 1041.65 365.121 1054.14 374.971C1066.78 384.667 1076.88 396.595 1084.43 410.755C1092.14 424.76 1096 441.613 1096 461.313C1096 486.553 1089.44 509.255 1076.33 529.416C1063.23 549.578 1044.42 565.585 1019.92 577.435C995.398 589.132 966.029 594.98 931.804 594.98C899.583 594.98 871.601 589.671 847.859 579.052C824.117 568.277 805.462 553.426 791.895 534.496C778.328 515.565 770.696 493.633 769 468.7H813.401C814.943 487.323 821.11 503.098 831.902 516.027C842.694 528.955 856.723 538.805 873.99 545.577C891.257 552.195 910.529 555.504 931.804 555.504C955.392 555.504 976.361 551.579 994.704 543.729C1013.21 535.727 1027.7 524.646 1038.18 510.485C1048.82 496.172 1054.14 479.55 1054.14 460.621C1054.14 444.614 1049.98 431.224 1041.65 420.451C1033.32 409.524 1021.69 400.366 1006.73 392.979C991.936 385.591 974.744 379.05 955.161 373.355L898.504 356.733C861.349 345.652 832.518 330.338 812.014 310.792C791.509 291.247 781.257 266.313 781.257 235.994C781.257 210.599 788.04 188.283 801.607 169.045C815.329 149.653 833.828 134.569 857.108 123.796C880.542 112.869 906.829 107.405 935.967 107.405C965.413 107.405 991.469 112.792 1014.13 123.565C1036.79 134.338 1054.76 149.191 1068.01 168.121C1081.42 186.898 1088.6 208.291 1089.52 232.3H1047.66Z" fill="black"/>
</svg>
