<svg width="2203" height="1492" viewBox="0 0 2203 1492" fill="none" xmlns="http://www.w3.org/2000/svg">
<path d="M15.5881 1147V907.64H66.0305V1006.44H168.843V907.64H219.285V1147H168.843V1048.04H66.0305V1147H15.5881ZM249.449 1147V907.64H343.747C361.847 907.64 377.269 910.853 390.013 917.278C402.865 923.704 412.664 932.807 419.411 944.588C426.265 956.261 429.692 970.023 429.692 985.874C429.692 1001.72 426.265 1015.38 419.411 1026.84C412.557 1038.3 402.597 1047.08 389.531 1053.18C376.573 1059.18 360.883 1062.18 342.462 1062.18H279.329V1021.54H334.269C344.015 1021.54 352.047 1020.2 358.366 1017.52C364.792 1014.84 369.558 1010.88 372.664 1005.63C375.876 1000.39 377.483 993.799 377.483 985.874C377.483 977.841 375.876 971.148 372.664 965.793C369.558 960.331 364.792 956.208 358.366 953.423C351.94 950.532 343.855 949.086 334.109 949.086H299.892V1147H249.449ZM382.302 1147L323.988 1038.08H378.607L438.206 1147H382.302ZM454.073 1147V907.64H548.371C566.47 907.64 581.892 911.12 594.637 918.082C607.488 924.936 617.288 934.467 624.035 946.676C630.889 958.885 634.316 972.968 634.316 988.926C634.316 1004.78 630.889 1018.75 624.035 1030.85C617.181 1042.96 607.221 1052.43 594.155 1059.29C581.196 1066.04 565.507 1069.41 547.086 1069.41H487.005V1028.93H538.893C548.639 1028.93 556.671 1027.21 562.99 1023.79C569.416 1020.36 574.181 1015.65 577.287 1009.65C580.5 1003.65 582.107 996.744 582.107 988.926C582.107 980.894 580.5 973.932 577.287 968.042C574.181 962.045 569.416 957.386 562.99 954.066C556.564 950.746 548.478 949.086 538.733 949.086H504.515V1147H454.073ZM699.179 907.64L756.85 1089.49H759.099L817.092 907.64H872.996L790.586 1147H725.364L642.793 907.64H699.179ZM1062.32 1150.21C1041.12 1150.21 1022.11 1145.39 1005.29 1135.75C988.478 1126.12 975.199 1112.14 965.453 1093.83C955.707 1075.51 950.834 1053.4 950.834 1027.48C950.834 1001.35 955.707 979.126 965.453 960.813C975.306 942.392 988.639 928.416 1005.45 918.885C1022.37 909.246 1041.33 904.427 1062.32 904.427C1076.24 904.427 1089.15 906.408 1101.04 910.371C1112.92 914.226 1123.42 919.902 1132.52 927.399C1141.73 934.789 1149.23 943.892 1155.01 954.708C1160.8 965.418 1164.49 977.681 1166.1 991.496H1115.01C1114.05 984.963 1112.12 979.073 1109.23 973.825C1106.45 968.577 1102.75 964.133 1098.15 960.492C1093.65 956.85 1088.45 954.066 1082.56 952.138C1076.78 950.103 1070.41 949.086 1063.45 949.086C1051.24 949.086 1040.47 952.192 1031.16 958.403C1021.95 964.508 1014.77 973.397 1009.63 985.07C1004.6 996.637 1002.08 1010.77 1002.08 1027.48C1002.08 1044.51 1004.65 1058.86 1009.79 1070.53C1014.93 1082.1 1022.11 1090.83 1031.32 1096.72C1040.53 1102.61 1051.18 1105.55 1063.29 1105.55C1070.03 1105.55 1076.3 1104.64 1082.08 1102.82C1087.86 1101 1093 1098.38 1097.5 1094.95C1102 1091.52 1105.75 1087.35 1108.75 1082.42C1111.85 1077.39 1113.94 1071.66 1115.01 1065.23H1166.1C1164.81 1076.26 1161.55 1086.87 1156.3 1097.04C1151.16 1107.21 1144.14 1116.32 1135.25 1124.35C1126.37 1132.27 1115.82 1138.59 1103.61 1143.31C1091.4 1147.91 1077.64 1150.21 1062.32 1150.21ZM1240.12 1043.22V1147H1190.48V907.64H1238.51V999.368H1240.76C1244.83 988.765 1251.36 980.412 1260.36 974.307C1269.46 968.203 1280.81 965.15 1294.42 965.15C1306.84 965.15 1317.71 967.881 1327.03 973.343C1336.34 978.698 1343.57 986.409 1348.71 996.476C1353.96 1006.54 1356.58 1018.65 1356.58 1032.78V1147H1306.79V1041.62C1306.79 1030.59 1303.95 1021.97 1298.27 1015.75C1292.7 1009.54 1284.83 1006.44 1274.66 1006.44C1267.8 1006.44 1261.8 1007.94 1256.66 1010.93C1251.52 1013.83 1247.45 1018 1244.45 1023.46C1241.56 1028.93 1240.12 1035.51 1240.12 1043.22ZM1436.23 1150.37C1424.87 1150.37 1414.65 1148.39 1405.54 1144.43C1396.55 1140.36 1389.48 1134.36 1384.34 1126.44C1379.2 1118.51 1376.63 1108.66 1376.63 1096.88C1376.63 1086.81 1378.45 1078.46 1382.09 1071.82C1385.73 1065.07 1390.71 1059.61 1397.03 1055.43C1403.35 1051.26 1410.52 1048.1 1418.56 1045.95C1426.59 1043.81 1435.1 1042.31 1444.1 1041.46C1454.49 1040.49 1462.84 1039.53 1469.16 1038.56C1475.48 1037.6 1480.08 1036.16 1482.97 1034.23C1485.97 1032.19 1487.47 1029.3 1487.47 1025.55V1024.75C1487.47 1017.36 1485.12 1011.63 1480.4 1007.56C1475.8 1003.49 1469.27 1001.46 1460.81 1001.46C1451.92 1001.46 1444.79 1003.44 1439.44 1007.4C1434.19 1011.26 1430.71 1016.18 1429 1022.18L1382.89 1018.48C1385.25 1007.56 1389.85 998.136 1396.71 990.211C1403.56 982.179 1412.4 976.021 1423.21 971.737C1434.14 967.346 1446.78 965.15 1461.13 965.15C1471.09 965.15 1480.62 966.328 1489.72 968.685C1498.82 971.041 1506.91 974.682 1513.98 979.608C1521.15 984.428 1526.83 990.693 1531.01 998.404C1535.18 1006.11 1537.27 1015.27 1537.27 1025.87V1147H1489.88V1121.94H1488.6C1485.71 1127.62 1481.85 1132.6 1477.03 1136.88C1472.21 1141.06 1466.43 1144.38 1459.68 1146.84C1452.93 1149.2 1445.12 1150.37 1436.23 1150.37ZM1450.52 1116C1457.81 1116 1464.23 1114.55 1469.8 1111.66C1475.48 1108.66 1479.87 1104.7 1482.97 1099.77C1486.19 1094.74 1487.79 1089.11 1487.79 1082.9V1063.79C1486.29 1064.75 1484.15 1065.66 1481.37 1066.52C1478.69 1067.37 1475.69 1068.12 1472.37 1068.77C1469.05 1069.41 1465.73 1070 1462.41 1070.53C1459.09 1070.96 1456.09 1071.39 1453.42 1071.82C1447.53 1072.68 1442.39 1074.07 1437.99 1076C1433.6 1077.82 1430.18 1080.33 1427.71 1083.55C1425.36 1086.65 1424.18 1090.56 1424.18 1095.27C1424.18 1102.02 1426.64 1107.16 1431.57 1110.69C1436.49 1114.23 1442.81 1116 1450.52 1116ZM1615.31 1043.22V1147H1565.67V967.399H1614.51V999.368H1616.27C1620.34 988.765 1626.82 980.412 1635.71 974.307C1644.6 968.203 1655.74 965.15 1669.12 965.15C1681.55 965.15 1692.36 967.881 1701.57 973.343C1710.89 978.805 1718.12 986.57 1723.26 996.637C1728.4 1006.7 1730.97 1018.75 1730.97 1032.78V1147H1681.33V1041.62C1681.33 1030.69 1678.5 1022.13 1672.82 1015.91C1667.14 1009.6 1659.32 1006.44 1649.36 1006.44C1642.73 1006.44 1636.83 1007.94 1631.69 1010.93C1626.55 1013.83 1622.54 1018 1619.65 1023.46C1616.75 1028.93 1615.31 1035.51 1615.31 1043.22ZM1809.33 1043.22V1147H1759.69V967.399H1808.53V999.368H1810.29C1814.36 988.765 1820.84 980.412 1829.73 974.307C1838.62 968.203 1849.76 965.15 1863.15 965.15C1875.57 965.15 1886.39 967.881 1895.6 973.343C1904.91 978.805 1912.14 986.57 1917.28 996.637C1922.42 1006.7 1924.99 1018.75 1924.99 1032.78V1147H1875.35V1041.62C1875.35 1030.69 1872.52 1022.13 1866.84 1015.91C1861.16 1009.6 1853.35 1006.44 1843.39 1006.44C1836.75 1006.44 1830.86 1007.94 1825.72 1010.93C1820.57 1013.83 1816.56 1018 1813.67 1023.46C1810.78 1028.93 1809.33 1035.51 1809.33 1043.22ZM2035.48 1150.53C2017.06 1150.53 2001.16 1146.79 1987.77 1139.29C1974.38 1131.79 1964.1 1121.14 1956.92 1107.32C1949.86 1093.4 1946.32 1076.96 1946.32 1058C1946.32 1039.58 1949.86 1023.41 1956.92 1009.49C1964.1 995.566 1974.17 984.695 1987.13 976.877C2000.19 969.059 2015.51 965.15 2033.07 965.15C2044.96 965.15 2056.04 967.078 2066.32 970.934C2076.6 974.682 2085.6 980.358 2093.31 987.962C2101.02 995.459 2107.02 1004.94 2111.3 1016.4C2115.59 1027.75 2117.73 1041.08 2117.73 1056.4V1069.89H1966.08V1039.21H2093.63L2070.5 1047.24C2070.5 1038.14 2069.11 1030.21 2066.32 1023.46C2063.54 1016.72 2059.36 1011.52 2053.79 1007.88C2048.33 1004.13 2041.53 1002.26 2033.39 1002.26C2025.25 1002.26 2018.34 1004.13 2012.67 1007.88C2007.1 1011.63 2002.82 1016.72 1999.82 1023.14C1996.82 1029.57 1995.32 1036.96 1995.32 1045.31V1067C1995.32 1076.74 1997.03 1085.1 2000.46 1092.06C2003.89 1098.91 2008.65 1104.22 2014.76 1107.96C2020.97 1111.6 2028.09 1113.43 2036.12 1113.43C2041.69 1113.43 2046.72 1112.62 2051.22 1111.02C2055.72 1109.41 2059.58 1107.05 2062.79 1103.95C2066.11 1100.84 2068.57 1097.09 2070.18 1092.7L2116.12 1095.75C2113.87 1106.79 2109.16 1116.42 2101.99 1124.67C2094.92 1132.81 2085.76 1139.18 2074.52 1143.79C2063.27 1148.29 2050.26 1150.53 2035.48 1150.53ZM2188.05 907.64V1147H2138.42V907.64H2188.05ZM613.395 1487V1247.64H690.826C707.854 1247.64 722.044 1250.75 733.396 1256.96C744.749 1263.06 753.316 1271.52 759.099 1282.34C764.99 1293.16 767.935 1305.53 767.935 1319.45C767.935 1333.37 765.043 1345.69 759.26 1356.4C753.477 1367 744.856 1375.3 733.396 1381.3C722.044 1387.29 707.961 1390.29 691.147 1390.29H625.443V1370.37H690.504C703.034 1370.37 713.423 1368.28 721.669 1364.11C729.916 1359.93 736.074 1354.04 740.143 1346.44C744.32 1338.83 746.409 1329.84 746.409 1319.45C746.409 1308.95 744.32 1299.8 740.143 1291.98C735.967 1284.16 729.755 1278.11 721.509 1273.82C713.262 1269.54 702.82 1267.4 690.183 1267.4H635.242V1487H613.395ZM752.513 1487L694.36 1378.89H719.099L777.895 1487H752.513ZM876.814 1490.86C860.107 1490.86 845.596 1486.95 833.28 1479.13C820.964 1471.2 811.486 1460.28 804.846 1446.36C798.206 1432.43 794.886 1416.42 794.886 1398.32C794.886 1380.22 798.152 1364.16 804.685 1350.13C811.325 1336.1 820.535 1325.07 832.316 1317.04C844.097 1309.01 857.751 1304.99 873.28 1304.99C882.919 1304.99 892.29 1306.81 901.393 1310.45C910.496 1313.99 918.689 1319.39 925.972 1326.68C933.254 1333.96 938.984 1343.22 943.161 1354.47C947.337 1365.61 949.426 1378.89 949.426 1394.31V1403.63H809.183V1385.31H938.181L928.703 1392.38C928.703 1379.31 926.454 1367.64 921.956 1357.36C917.565 1347.08 911.246 1338.94 903 1332.94C894.753 1326.94 884.847 1323.95 873.28 1323.95C861.821 1323.95 851.754 1327 843.079 1333.1C834.404 1339.1 827.657 1347.13 822.838 1357.2C818.126 1367.16 815.77 1378.08 815.77 1389.97V1400.73C815.77 1415.08 818.233 1427.62 823.159 1438.32C828.193 1448.93 835.261 1457.17 844.364 1463.06C853.575 1468.95 864.391 1471.9 876.814 1471.9C885.275 1471.9 892.718 1470.56 899.144 1467.88C905.57 1465.21 910.978 1461.62 915.369 1457.12C919.76 1452.51 923.08 1447.53 925.329 1442.18L945.088 1448.77C942.304 1456.26 937.806 1463.22 931.594 1469.65C925.49 1475.97 917.779 1481.11 908.461 1485.07C899.251 1488.93 888.702 1490.86 876.814 1490.86ZM1115.82 1307.4L1050.43 1487H1028.1L962.561 1307.4H985.212L1038.39 1459.69H1039.99L1093.33 1307.4H1115.82ZM1145.66 1487V1307.4H1166.38V1487H1145.66ZM1156.1 1276.72C1151.82 1276.72 1148.12 1275.27 1145.02 1272.38C1142.02 1269.38 1140.52 1265.79 1140.52 1261.62C1140.52 1257.55 1142.02 1254.07 1145.02 1251.17C1148.12 1248.28 1151.82 1246.84 1156.1 1246.84C1160.38 1246.84 1164.03 1248.28 1167.02 1251.17C1170.02 1254.07 1171.52 1257.55 1171.52 1261.62C1171.52 1265.79 1170.02 1269.38 1167.02 1272.38C1164.03 1275.27 1160.38 1276.72 1156.1 1276.72ZM1283.13 1490.86C1266.43 1490.86 1251.91 1486.95 1239.6 1479.13C1227.28 1471.2 1217.8 1460.28 1211.16 1446.36C1204.52 1432.43 1201.2 1416.42 1201.2 1398.32C1201.2 1380.22 1204.47 1364.16 1211 1350.13C1217.64 1336.1 1226.85 1325.07 1238.63 1317.04C1250.41 1309.01 1264.07 1304.99 1279.6 1304.99C1289.24 1304.99 1298.61 1306.81 1307.71 1310.45C1316.81 1313.99 1325.01 1319.39 1332.29 1326.68C1339.57 1333.96 1345.3 1343.22 1349.48 1354.47C1353.66 1365.61 1355.74 1378.89 1355.74 1394.31V1403.63H1215.5V1385.31H1344.5L1335.02 1392.38C1335.02 1379.31 1332.77 1367.64 1328.27 1357.36C1323.88 1347.08 1317.56 1338.94 1309.32 1332.94C1301.07 1326.94 1291.17 1323.95 1279.6 1323.95C1268.14 1323.95 1258.07 1327 1249.4 1333.1C1240.72 1339.1 1233.98 1347.13 1229.16 1357.2C1224.44 1367.16 1222.09 1378.08 1222.09 1389.97V1400.73C1222.09 1415.08 1224.55 1427.62 1229.48 1438.32C1234.51 1448.93 1241.58 1457.17 1250.68 1463.06C1259.89 1468.95 1270.71 1471.9 1283.13 1471.9C1291.59 1471.9 1299.04 1470.56 1305.46 1467.88C1311.89 1465.21 1317.3 1461.62 1321.69 1457.12C1326.08 1452.51 1329.4 1447.53 1331.65 1442.18L1351.41 1448.77C1348.62 1456.26 1344.12 1463.22 1337.91 1469.65C1331.81 1475.97 1324.1 1481.11 1314.78 1485.07C1305.57 1488.93 1295.02 1490.86 1283.13 1490.86ZM1423.5 1487L1369.2 1307.4H1391.21L1433.78 1455.51H1435.39L1477.8 1307.4H1499.97L1541.73 1455.35H1543.34L1586.07 1307.4H1607.92L1553.78 1487H1532.42L1489.68 1340.01H1487.6L1444.86 1487H1423.5Z" fill="white"/>
<path d="M1102 700C1295.3 700 1452 543.3 1452 350C1452 156.7 1295.3 0 1102 0C908.7 0 752 156.7 752 350C752 543.3 908.7 700 1102 700Z" fill="#7AF546"/>
<path d="M1150.2 265.434L951.4 460.684C948.08 463.95 943.61 465.78 938.953 465.78C934.296 465.78 929.825 463.95 926.506 460.684L841.306 377.015C839.643 375.38 838.319 373.434 837.409 371.288C836.499 369.142 836.02 366.837 836.001 364.506C835.981 362.175 836.421 359.863 837.295 357.701C838.169 355.54 839.46 353.572 841.095 351.91C842.729 350.248 844.675 348.924 846.822 348.013C848.968 347.103 851.272 346.625 853.604 346.605C855.935 346.585 858.247 347.025 860.408 347.899C862.57 348.773 864.538 350.065 866.2 351.699L938.953 423.143L1125.33 240.096C1128.69 236.795 1133.22 234.964 1137.93 235.005C1140.26 235.026 1142.57 235.506 1144.72 236.417C1146.86 237.329 1148.81 238.654 1150.44 240.318C1152.08 241.982 1153.37 243.951 1154.24 246.114C1155.12 248.276 1155.55 250.59 1155.53 252.922C1155.51 255.254 1155.03 257.56 1154.12 259.706C1153.21 261.853 1151.89 263.8 1150.22 265.434H1150.2ZM1363.42 240.318C1361.79 238.653 1359.84 237.326 1357.69 236.414C1355.55 235.502 1353.24 235.021 1350.91 235.001C1348.58 234.98 1346.26 235.42 1344.1 236.294C1341.94 237.168 1339.97 238.46 1338.3 240.096L1151.93 423.143L1110.15 382.096C1106.79 378.798 1102.26 376.969 1097.55 377.013C1092.84 377.057 1088.34 378.969 1085.05 382.329C1081.75 385.689 1079.92 390.222 1079.96 394.93C1080.01 399.638 1081.92 404.136 1085.28 407.434L1139.48 460.684C1142.8 463.95 1147.27 465.78 1151.93 465.78C1156.59 465.78 1161.06 463.95 1164.38 460.684L1363.18 265.434C1364.84 263.802 1366.17 261.857 1367.09 259.711C1368 257.565 1368.48 255.259 1368.51 252.927C1368.53 250.594 1368.09 248.28 1367.22 246.116C1366.35 243.953 1365.06 241.982 1363.42 240.318Z" fill="black"/>
</svg>
