<svg width="3159" height="710" viewBox="0 0 3159 710" fill="none" xmlns="http://www.w3.org/2000/svg">
<path d="M350 700C543.3 700 700 543.3 700 350C700 156.7 543.3 0 350 0C156.7 0 0 156.7 0 350C0 543.3 156.7 700 350 700Z" fill="#7AF546"/>
<path d="M617.773 351.579L203.449 111.875V591.283L617.773 351.579Z" fill="black"/>
<path d="M771.285 59.6396H827.993L882.612 162.773H884.861L939.48 59.6396H996.188L908.958 214.501V299H858.676V214.501L771.285 59.6396ZM1055.27 302.534C1037.17 302.534 1021.48 298.679 1008.2 290.968C995.026 283.15 984.851 272.333 977.676 258.518C970.608 244.595 967.073 228.424 967.073 210.003C967.073 191.368 970.608 175.143 977.676 161.328C984.851 147.405 995.026 136.588 1008.2 128.877C1021.48 121.059 1037.17 117.15 1055.27 117.15C1073.47 117.15 1089.16 121.059 1102.34 128.877C1115.62 136.588 1125.79 147.405 1132.86 161.328C1140.03 175.143 1143.62 191.368 1143.62 210.003C1143.62 228.424 1140.03 244.595 1132.86 258.518C1125.79 272.333 1115.62 283.15 1102.34 290.968C1089.16 298.679 1073.47 302.534 1055.27 302.534ZM1055.59 263.658C1063.83 263.658 1070.74 261.356 1076.31 256.75C1081.88 252.038 1086.06 245.612 1088.84 237.473C1091.73 229.334 1093.18 220.07 1093.18 209.682C1093.18 199.186 1091.73 189.922 1088.84 181.89C1086.06 173.858 1081.88 167.539 1076.31 162.934C1070.74 158.329 1063.83 156.026 1055.59 156.026C1047.24 156.026 1040.22 158.329 1034.54 162.934C1028.98 167.539 1024.74 173.858 1021.85 181.89C1019.07 189.922 1017.68 199.186 1017.68 209.682C1017.68 220.07 1019.07 229.334 1021.85 237.473C1024.74 245.612 1028.98 252.038 1034.54 256.75C1040.22 261.356 1047.24 263.658 1055.59 263.658ZM1279.97 222.694V119.399H1329.61V299H1281.9V266.389H1279.97C1275.9 276.778 1269.21 285.238 1259.89 291.771C1250.57 298.197 1239.17 301.356 1225.67 301.249C1213.68 301.249 1203.08 298.572 1193.87 293.217C1184.76 287.755 1177.64 279.99 1172.5 269.923C1167.47 259.856 1164.95 247.808 1164.95 233.778V119.399H1214.59V225.104C1214.59 235.599 1217.43 243.952 1223.1 250.164C1228.78 256.269 1236.33 259.267 1245.75 259.16C1251.75 259.16 1257.32 257.821 1262.46 255.144C1267.6 252.36 1271.78 248.236 1274.99 242.774C1278.31 237.312 1279.97 230.619 1279.97 222.694ZM1333.27 101.407V59.6396H1529.9V101.407H1456.64V299H1406.68V101.407H1333.27ZM1640.7 222.694V119.399H1690.34V299H1642.63V266.389H1640.7C1636.63 276.778 1629.94 285.238 1620.62 291.771C1611.31 298.197 1599.9 301.356 1586.41 301.249C1574.41 301.249 1563.81 298.572 1554.6 293.217C1545.5 287.755 1538.37 279.99 1533.23 269.923C1528.2 259.856 1525.68 247.808 1525.68 233.778V119.399H1575.32V225.104C1575.32 235.599 1578.16 243.952 1583.84 250.164C1589.51 256.269 1597.06 259.267 1606.49 259.16C1612.48 259.16 1618.05 257.821 1623.19 255.144C1628.33 252.36 1632.51 248.236 1635.72 242.774C1639.04 237.312 1640.7 230.619 1640.7 222.694ZM1821.07 301.892C1811.43 301.892 1803.24 300.285 1796.49 297.072C1789.74 293.859 1784.23 289.843 1779.95 285.024C1775.77 280.097 1772.5 275.171 1770.15 270.245H1767.9V299H1719.06V59.6396H1768.7V149.761H1770.15C1772.4 144.835 1775.61 139.855 1779.79 134.821C1783.96 129.788 1789.42 125.611 1796.17 122.291C1802.92 118.864 1811.27 117.15 1821.23 117.15C1834.4 117.15 1846.45 120.577 1857.38 127.432C1868.41 134.179 1877.24 144.406 1883.88 158.115C1890.52 171.823 1893.84 188.958 1893.84 209.521C1893.84 229.441 1890.63 246.309 1884.2 260.124C1877.78 273.832 1869.05 284.221 1858.02 291.289C1847.1 298.357 1834.78 301.892 1821.07 301.892ZM1805.33 262.373C1813.47 262.373 1820.32 260.124 1825.89 255.626C1831.46 251.128 1835.69 244.916 1838.58 236.991C1841.47 228.959 1842.92 219.749 1842.92 209.36C1842.92 198.972 1841.47 189.869 1838.58 182.051C1835.8 174.126 1831.62 167.914 1826.05 163.416C1820.48 158.918 1813.57 156.669 1805.33 156.669C1797.3 156.669 1790.44 158.864 1784.77 163.255C1779.2 167.539 1774.91 173.644 1771.91 181.569C1769.02 189.387 1767.58 198.651 1767.58 209.36C1767.58 219.963 1769.08 229.227 1772.07 237.152C1775.07 245.077 1779.36 251.289 1784.93 255.787C1790.6 260.178 1797.4 262.373 1805.33 262.373ZM1996.78 302.534C1978.36 302.534 1962.45 298.786 1949.07 291.289C1935.68 283.792 1925.4 273.136 1918.22 259.321C1911.15 245.398 1907.62 228.959 1907.62 210.003C1907.62 191.582 1911.15 175.411 1918.22 161.488C1925.4 147.566 1935.47 136.695 1948.42 128.877C1961.49 121.059 1976.8 117.15 1994.37 117.15C2006.26 117.15 2017.34 119.078 2027.62 122.934C2037.9 126.682 2046.9 132.358 2054.61 139.962C2062.32 147.459 2068.32 156.937 2072.6 168.396C2076.89 179.748 2079.03 193.082 2079.03 208.396V221.891H1927.38V191.208H2054.93L2031.8 199.24C2031.8 190.137 2030.41 182.211 2027.62 175.464C2024.84 168.717 2020.66 163.523 2015.09 159.882C2009.63 156.133 2002.83 154.259 1994.69 154.259C1986.55 154.259 1979.64 156.133 1973.97 159.882C1968.4 163.63 1964.11 168.717 1961.12 175.143C1958.12 181.569 1956.62 188.958 1956.62 197.312V218.999C1956.62 228.745 1958.33 237.098 1961.76 244.06C1965.19 250.914 1969.95 256.215 1976.06 259.963C1982.27 263.605 1989.39 265.425 1997.42 265.425C2002.99 265.425 2008.02 264.622 2012.52 263.016C2017.02 261.409 2020.88 259.053 2024.09 255.947C2027.41 252.841 2029.87 249.093 2031.48 244.702L2077.42 247.754C2075.17 258.785 2070.46 268.424 2063.29 276.67C2056.22 284.81 2047.06 291.182 2035.82 295.787C2024.57 300.285 2011.56 302.534 1996.78 302.534ZM2254.06 302.374C2234.78 302.374 2217.96 299.428 2203.61 293.538C2189.37 287.648 2178.23 278.866 2170.2 267.192C2162.27 255.519 2158.1 241.061 2157.67 223.818H2206.51C2207.15 231.743 2209.5 238.437 2213.57 243.899C2217.64 249.254 2223.11 253.27 2229.96 255.947C2236.81 258.625 2244.69 259.963 2253.57 259.963C2262.14 259.963 2269.59 258.732 2275.9 256.269C2282.33 253.805 2287.26 250.378 2290.68 245.987C2294.22 241.489 2295.98 236.295 2295.98 230.405C2295.98 225.05 2294.38 220.552 2291.17 216.911C2288.06 213.269 2283.45 210.164 2277.35 207.593C2271.35 205.023 2264.02 202.72 2255.34 200.686L2229.16 194.26C2209.02 189.44 2193.12 181.783 2181.44 171.288C2169.77 160.685 2163.93 146.548 2163.93 128.877C2163.93 114.419 2167.84 101.782 2175.66 90.9653C2183.59 80.0415 2194.35 71.5809 2207.95 65.5835C2221.66 59.479 2237.24 56.4268 2254.7 56.4268C2272.48 56.4268 2287.95 59.479 2301.12 65.5835C2314.4 71.688 2324.74 80.1486 2332.13 90.9653C2339.63 101.782 2343.48 114.259 2343.7 128.396H2295.02C2294.16 119.078 2290.15 111.796 2282.97 106.548C2275.9 101.3 2266.32 98.6763 2254.22 98.6763C2246.08 98.6763 2239.12 99.8543 2233.33 102.21C2227.66 104.459 2223.32 107.619 2220.32 111.688C2217.32 115.758 2215.82 120.417 2215.82 125.665C2215.82 131.234 2217.54 135.946 2220.96 139.801C2224.39 143.55 2228.94 146.655 2234.62 149.119C2240.4 151.475 2246.72 153.456 2253.57 155.062L2274.94 160.364C2285.33 162.72 2294.91 165.879 2303.7 169.842C2312.48 173.697 2320.08 178.463 2326.51 184.139C2333.04 189.815 2338.07 196.509 2341.61 204.22C2345.14 211.824 2346.91 220.605 2346.91 230.565C2346.91 245.238 2343.21 257.982 2335.82 268.799C2328.54 279.508 2317.99 287.808 2304.18 293.699C2290.36 299.482 2273.65 302.374 2254.06 302.374ZM2418.2 195.224V299H2368.56V59.6396H2416.59V151.368H2418.84C2422.91 140.765 2429.44 132.412 2438.44 126.307C2447.54 120.203 2458.89 117.15 2472.5 117.15C2484.92 117.15 2495.79 119.881 2505.11 125.343C2514.42 130.698 2521.65 138.409 2526.79 148.476C2532.04 158.543 2534.66 170.645 2534.66 184.782V299H2484.86V193.617C2484.86 182.586 2482.03 173.965 2476.35 167.753C2470.78 161.542 2462.91 158.436 2452.74 158.436C2445.88 158.436 2439.88 159.935 2434.74 162.934C2429.6 165.826 2425.53 170.002 2422.53 175.464C2419.64 180.926 2418.2 187.513 2418.2 195.224ZM2644.03 302.534C2625.93 302.534 2610.24 298.679 2596.96 290.968C2583.78 283.15 2573.61 272.333 2566.43 258.518C2559.37 244.595 2555.83 228.424 2555.83 210.003C2555.83 191.368 2559.37 175.143 2566.43 161.328C2573.61 147.405 2583.78 136.588 2596.96 128.877C2610.24 121.059 2625.93 117.15 2644.03 117.15C2662.23 117.15 2677.92 121.059 2691.09 128.877C2704.37 136.588 2714.55 147.405 2721.62 161.328C2728.79 175.143 2732.38 191.368 2732.38 210.003C2732.38 228.424 2728.79 244.595 2721.62 258.518C2714.55 272.333 2704.37 283.15 2691.09 290.968C2677.92 298.679 2662.23 302.534 2644.03 302.534ZM2644.35 263.658C2652.59 263.658 2659.5 261.356 2665.07 256.75C2670.64 252.038 2674.82 245.612 2677.6 237.473C2680.49 229.334 2681.94 220.07 2681.94 209.682C2681.94 199.186 2680.49 189.922 2677.6 181.89C2674.82 173.858 2670.64 167.539 2665.07 162.934C2659.5 158.329 2652.59 156.026 2644.35 156.026C2635.99 156.026 2628.98 158.329 2623.3 162.934C2617.73 167.539 2613.5 173.858 2610.61 181.89C2607.83 189.922 2606.44 199.186 2606.44 209.682C2606.44 220.07 2607.83 229.334 2610.61 237.473C2613.5 245.612 2617.73 252.038 2623.3 256.75C2628.98 261.356 2635.99 263.658 2644.35 263.658ZM2753.71 299V119.399H2801.74V150.886H2803.67C2806.99 139.748 2812.5 131.341 2820.22 125.665C2827.93 119.881 2836.76 116.99 2846.72 116.99C2849.29 116.99 2851.97 117.15 2854.75 117.472C2857.65 117.686 2860.22 118.114 2862.47 118.757V162.773C2860.11 162.024 2856.84 161.435 2852.67 161.006C2848.6 160.471 2844.79 160.203 2841.26 160.203C2834.08 160.203 2827.61 161.81 2821.82 165.022C2816.04 168.128 2811.49 172.519 2808.17 178.195C2804.95 183.764 2803.35 190.19 2803.35 197.473V299H2753.71ZM2980.98 119.399V156.99H2872.87V119.399H2980.98ZM2897.45 76.668H2947.09V243.738C2947.09 249.736 2948.43 254.18 2951.1 257.072C2953.78 259.856 2958.07 261.249 2963.96 261.249C2965.88 261.249 2968.02 261.088 2970.38 260.767C2972.74 260.445 2974.77 260.07 2976.49 259.642L2984.36 296.912C2978.9 298.518 2973.59 299.696 2968.45 300.446C2963.42 301.195 2958.44 301.57 2953.51 301.57C2935.63 301.57 2921.81 297.126 2912.07 288.237C2902.32 279.241 2897.45 266.603 2897.45 250.325V76.668ZM3148.5 170.645L3103.04 173.376C3101.86 167.7 3098.7 162.827 3093.56 158.757C3088.42 154.581 3081.51 152.492 3072.83 152.492C3065.12 152.492 3058.64 154.099 3053.4 157.312C3048.26 160.524 3045.69 164.808 3045.69 170.163C3045.69 174.447 3047.35 178.142 3050.67 181.248C3054.09 184.246 3059.93 186.602 3068.18 188.316L3100.79 194.742C3118.24 198.276 3131.26 204.006 3139.82 211.931C3148.39 219.856 3152.68 230.298 3152.68 243.256C3152.68 255.144 3149.25 265.532 3142.39 274.421C3135.54 283.203 3126.12 290.111 3114.12 295.145C3102.13 300.071 3088.36 302.534 3072.83 302.534C3049.06 302.534 3030.1 297.554 3015.97 287.594C3001.94 277.634 2993.74 264.14 2991.39 247.112L3040.06 244.542C3041.67 251.824 3045.31 257.34 3050.99 261.088C3056.66 264.836 3063.95 266.71 3072.83 266.71C3081.51 266.71 3088.52 264.997 3093.88 261.57C3099.34 258.143 3102.07 253.805 3102.07 248.558C3102.07 239.669 3094.36 233.671 3078.94 230.565L3047.93 224.14C3030.48 220.605 3017.47 214.555 3008.9 205.987C3000.33 197.419 2996.05 186.442 2996.05 173.055C2996.05 161.488 2999.21 151.528 3005.52 143.175C3011.84 134.821 3020.68 128.396 3032.03 123.897C3043.49 119.399 3056.88 117.15 3072.19 117.15C3094.9 117.15 3112.73 121.97 3125.69 131.608C3138.75 141.14 3146.36 154.152 3148.5 170.645ZM796.506 639V399.64H873.937C890.965 399.64 905.156 402.906 916.508 409.439C927.86 415.865 936.428 424.7 942.211 435.945C948.101 447.083 951.046 459.614 951.046 473.536C951.046 487.459 948.155 500.042 942.372 511.288C936.588 522.426 927.967 531.261 916.508 537.794C905.156 544.327 891.072 547.593 874.258 547.593H813.535V527.995H873.616C886.146 527.995 896.534 525.639 904.781 520.926C913.027 516.214 919.185 509.735 923.255 501.488C927.432 493.242 929.52 483.924 929.52 473.536C929.52 463.041 927.432 453.723 923.255 445.584C919.185 437.445 912.974 431.072 904.62 426.467C896.374 421.755 885.932 419.399 873.294 419.399H818.354V639H796.506ZM1037.44 643.016C1026.62 643.016 1016.71 640.928 1007.72 636.751C998.72 632.467 991.545 626.309 986.19 618.277C980.942 610.138 978.319 600.285 978.319 588.718C978.319 579.829 979.979 572.386 983.299 566.389C986.619 560.391 991.384 555.465 997.596 551.609C1003.81 547.647 1011.09 544.541 1019.44 542.292C1027.9 539.936 1037.22 538.169 1047.4 536.991C1057.46 535.706 1065.98 534.635 1072.94 533.778C1079.9 532.814 1085.2 531.315 1088.84 529.28C1092.48 527.245 1094.3 523.979 1094.3 519.48V515.304C1094.3 502.988 1090.66 493.349 1083.38 486.388C1076.1 479.319 1065.66 475.785 1052.05 475.785C1039.1 475.785 1028.55 478.623 1020.41 484.299C1012.27 489.975 1006.59 496.669 1003.38 504.38L983.459 497.151C987.529 487.405 993.151 479.587 1000.33 473.697C1007.5 467.806 1015.53 463.576 1024.42 461.006C1033.31 458.328 1042.31 456.99 1051.41 456.99C1058.27 456.99 1065.39 457.9 1072.78 459.721C1080.17 461.541 1087.07 464.647 1093.5 469.038C1099.93 473.429 1105.12 479.587 1109.08 487.512C1113.15 495.33 1115.19 505.237 1115.19 517.231V639H1094.3V610.566H1093.02C1090.66 615.814 1087.02 620.954 1082.09 625.988C1077.17 630.914 1071.01 634.984 1063.62 638.197C1056.23 641.41 1047.5 643.016 1037.44 643.016ZM1040.33 624.06C1051.36 624.06 1060.89 621.65 1068.92 616.831C1077.06 611.905 1083.33 605.318 1087.72 597.072C1092.11 588.825 1094.3 579.829 1094.3 570.083V544.22C1092.7 545.719 1090.07 547.058 1086.43 548.236C1082.9 549.414 1078.77 550.431 1074.06 551.288C1069.46 552.145 1064.75 552.895 1059.93 553.537C1055.21 554.18 1051.04 554.715 1047.4 555.144C1037.33 556.429 1028.65 558.41 1021.37 561.087C1014.2 563.765 1008.68 567.406 1004.82 572.011C1001.08 576.616 999.202 582.56 999.202 589.843C999.202 600.66 1003.06 609.067 1010.77 615.064C1018.59 621.061 1028.44 624.06 1040.33 624.06ZM1229.21 642.855C1213.14 642.855 1199.17 638.839 1187.28 630.807C1175.39 622.775 1166.18 611.798 1159.65 597.875C1153.12 583.845 1149.85 567.942 1149.85 550.164C1149.85 532.064 1153.17 516.053 1159.81 502.131C1166.45 488.101 1175.71 477.07 1187.6 469.038C1199.49 461.006 1213.25 456.99 1228.89 456.99C1240.88 456.99 1251.75 459.346 1261.5 464.058C1271.24 468.663 1279.28 475.196 1285.59 483.657C1292.02 492.01 1296.04 501.756 1297.64 512.894H1276.76C1275.26 506.147 1272.37 499.989 1268.08 494.42C1263.91 488.851 1258.5 484.406 1251.86 481.086C1245.33 477.659 1237.78 475.946 1229.21 475.946C1217.75 475.946 1207.63 479.052 1198.85 485.263C1190.06 491.475 1183.16 500.096 1178.12 511.127C1173.2 522.158 1170.73 534.956 1170.73 549.521C1170.73 563.979 1173.14 576.831 1177.96 588.076C1182.78 599.321 1189.58 608.103 1198.36 614.421C1207.25 620.74 1217.53 623.899 1229.21 623.899C1241.1 623.899 1251.38 620.526 1260.05 613.779C1268.73 607.032 1274.3 597.982 1276.76 586.63H1297.64C1296.14 597.447 1292.29 607.085 1286.08 615.546C1279.97 624.007 1272.05 630.7 1262.3 635.626C1252.66 640.446 1241.63 642.855 1229.21 642.855ZM1350.62 571.208L1350.3 543.898H1355.12L1439.13 459.399H1465.32L1382.43 542.774L1380.5 543.095L1350.62 571.208ZM1331.66 639V399.64H1352.38V639H1331.66ZM1443.31 639L1370.54 546.951L1385.48 532.493L1470.14 639H1443.31ZM1543.68 643.016C1532.86 643.016 1522.95 640.928 1513.96 636.751C1504.96 632.467 1497.78 626.309 1492.43 618.277C1487.18 610.138 1484.56 600.285 1484.56 588.718C1484.56 579.829 1486.22 572.386 1489.54 566.389C1492.86 560.391 1497.62 555.465 1503.84 551.609C1510.05 547.647 1517.33 544.541 1525.68 542.292C1534.14 539.936 1543.46 538.169 1553.64 536.991C1563.7 535.706 1572.22 534.635 1579.18 533.778C1586.14 532.814 1591.44 531.315 1595.08 529.28C1598.72 527.245 1600.54 523.979 1600.54 519.48V515.304C1600.54 502.988 1596.9 493.349 1589.62 486.388C1582.34 479.319 1571.89 475.785 1558.29 475.785C1545.34 475.785 1534.79 478.623 1526.65 484.299C1518.51 489.975 1512.83 496.669 1509.62 504.38L1489.7 497.151C1493.77 487.405 1499.39 479.587 1506.57 473.697C1513.74 467.806 1521.77 463.576 1530.66 461.006C1539.55 458.328 1548.55 456.99 1557.65 456.99C1564.51 456.99 1571.63 457.9 1579.02 459.721C1586.41 461.541 1593.31 464.647 1599.74 469.038C1606.17 473.429 1611.36 479.587 1615.32 487.512C1619.39 495.33 1621.43 505.237 1621.43 517.231V639H1600.54V610.566H1599.26C1596.9 615.814 1593.26 620.954 1588.33 625.988C1583.41 630.914 1577.25 634.984 1569.86 638.197C1562.47 641.41 1553.74 643.016 1543.68 643.016ZM1546.57 624.06C1557.6 624.06 1567.13 621.65 1575.16 616.831C1583.3 611.905 1589.57 605.318 1593.96 597.072C1598.35 588.825 1600.54 579.829 1600.54 570.083V544.22C1598.94 545.719 1596.31 547.058 1592.67 548.236C1589.14 549.414 1585.01 550.431 1580.3 551.288C1575.7 552.145 1570.98 552.895 1566.17 553.537C1561.45 554.18 1557.28 554.715 1553.64 555.144C1543.57 556.429 1534.89 558.41 1527.61 561.087C1520.44 563.765 1514.92 567.406 1511.06 572.011C1507.32 576.616 1505.44 582.56 1505.44 589.843C1505.44 600.66 1509.3 609.067 1517.01 615.064C1524.83 621.061 1534.68 624.06 1546.57 624.06ZM1733.84 710.005C1715.53 710.005 1700.59 706.578 1689.02 699.724C1677.45 692.869 1669.05 684.302 1663.8 674.021L1680.83 662.775C1683.29 667.381 1686.72 671.825 1691.11 676.109C1695.5 680.5 1701.18 684.088 1708.14 686.872C1715.1 689.764 1723.67 691.209 1733.84 691.209C1749.8 691.209 1762.65 687.247 1772.4 679.322C1782.25 671.397 1787.17 659.081 1787.17 642.374V601.891H1785.09C1782.73 607.353 1779.3 612.815 1774.81 618.277C1770.31 623.632 1764.42 628.13 1757.13 631.771C1749.85 635.305 1740.8 637.072 1729.99 637.072C1715.63 637.072 1702.89 633.538 1691.75 626.47C1680.72 619.401 1671.99 609.281 1665.57 596.108C1659.25 582.828 1656.09 567.085 1656.09 548.878C1656.09 530.672 1659.19 514.715 1665.41 501.006C1671.62 487.191 1680.29 476.428 1691.43 468.717C1702.57 460.899 1715.53 456.99 1730.31 456.99C1741.34 456.99 1750.49 458.971 1757.78 462.934C1765.06 466.789 1770.9 471.555 1775.29 477.231C1779.68 482.907 1783.11 488.423 1785.57 493.777H1787.82V459.399H1807.74V643.659C1807.74 658.866 1804.52 671.343 1798.1 681.089C1791.78 690.942 1783.05 698.224 1771.91 702.937C1760.78 707.649 1748.08 710.005 1733.84 710.005ZM1732.56 618.116C1749.8 618.116 1763.24 611.905 1772.88 599.481C1782.52 587.058 1787.34 570.03 1787.34 548.396C1787.34 534.367 1785.19 521.944 1780.91 511.127C1776.73 500.203 1770.52 491.635 1762.27 485.424C1754.14 479.105 1744.23 475.946 1732.56 475.946C1720.45 475.946 1710.28 479.212 1702.03 485.745C1693.79 492.171 1687.52 500.846 1683.24 511.77C1679.06 522.693 1676.97 534.902 1676.97 548.396C1676.97 562.105 1679.11 574.207 1683.4 584.702C1687.68 595.198 1693.95 603.39 1702.19 609.281C1710.55 615.171 1720.67 618.116 1732.56 618.116ZM1924.65 642.855C1907.94 642.855 1893.43 638.946 1881.11 631.128C1868.8 623.203 1859.32 612.279 1852.68 598.357C1846.04 584.434 1842.72 568.424 1842.72 550.324C1842.72 532.225 1845.99 516.16 1852.52 502.131C1859.16 488.101 1868.37 477.07 1880.15 469.038C1891.93 461.006 1905.59 456.99 1921.11 456.99C1930.75 456.99 1940.12 458.81 1949.23 462.452C1958.33 465.986 1966.52 471.394 1973.81 478.677C1981.09 485.959 1986.82 495.223 1991 506.468C1995.17 517.606 1997.26 530.886 1997.26 546.308V555.625H1857.02V537.312H1986.02L1976.54 544.38C1976.54 531.315 1974.29 519.641 1969.79 509.36C1965.4 499.079 1959.08 490.939 1950.83 484.942C1942.59 478.944 1932.68 475.946 1921.11 475.946C1909.66 475.946 1899.59 478.998 1890.91 485.103C1882.24 491.1 1875.49 499.132 1870.67 509.199C1865.96 519.159 1863.6 530.083 1863.6 541.971V552.734C1863.6 567.085 1866.07 579.615 1870.99 590.325C1876.03 600.927 1883.1 609.174 1892.2 615.064C1901.41 620.954 1912.23 623.899 1924.65 623.899C1933.11 623.899 1940.55 622.561 1946.98 619.883C1953.4 617.206 1958.81 613.618 1963.2 609.12C1967.59 604.515 1970.91 599.535 1973.16 594.18L1992.92 600.767C1990.14 608.263 1985.64 615.225 1979.43 621.65C1973.32 627.969 1965.61 633.11 1956.3 637.072C1947.09 640.928 1936.54 642.855 1924.65 642.855ZM2193.01 642.213C2175.45 642.213 2159.86 639.214 2146.26 633.217C2132.77 627.219 2122.11 618.919 2114.3 608.317C2106.48 597.607 2102.46 585.291 2102.25 571.369H2153.01C2153.33 577.152 2155.26 582.239 2158.79 586.63C2162.33 591.021 2167.04 594.448 2172.93 596.911C2178.93 599.267 2185.62 600.445 2193.01 600.445C2200.72 600.445 2207.52 599.107 2213.41 596.429C2219.41 593.752 2224.07 590.003 2227.39 585.184C2230.71 580.365 2232.37 574.796 2232.37 568.477C2232.37 561.944 2230.6 556.268 2227.07 551.449C2223.53 546.522 2218.5 542.667 2211.97 539.882C2205.43 537.098 2197.62 535.706 2188.51 535.706H2166.18V498.436H2188.51C2196.22 498.436 2202.97 497.097 2208.75 494.42C2214.54 491.743 2219.09 488.048 2222.41 483.335C2225.73 478.623 2227.39 473.161 2227.39 466.95C2227.39 460.845 2225.94 455.544 2223.05 451.046C2220.27 446.548 2216.36 443.014 2211.32 440.443C2206.29 437.873 2200.35 436.588 2193.49 436.588C2186.53 436.588 2180.21 437.819 2174.54 440.283C2168.86 442.746 2164.31 446.227 2160.88 450.725C2157.46 455.116 2155.69 460.363 2155.58 466.468H2106.91C2107.12 452.652 2111.03 440.497 2118.63 430.001C2126.24 419.506 2136.52 411.313 2149.48 405.423C2162.54 399.425 2177.27 396.427 2193.65 396.427C2210.25 396.427 2224.71 399.425 2237.03 405.423C2249.45 411.42 2259.09 419.506 2265.94 429.68C2272.8 439.854 2276.23 451.26 2276.23 463.897C2276.23 477.285 2272.05 488.476 2263.69 497.472C2255.34 506.361 2244.47 512.037 2231.08 514.5V516.268C2248.65 518.517 2261.98 524.621 2271.08 534.581C2280.29 544.541 2284.9 556.964 2284.9 571.851C2284.9 585.452 2280.94 597.554 2273.01 608.156C2265.19 618.759 2254.38 627.112 2240.56 633.217C2226.75 639.214 2210.9 642.213 2193.01 642.213ZM2403.9 642.213C2383.55 642.213 2366.15 637.394 2351.69 627.755C2337.34 618.009 2326.31 604.033 2318.6 585.827C2310.99 567.513 2307.19 545.398 2307.19 519.48C2307.19 493.67 2311.05 471.608 2318.76 453.295C2326.47 434.874 2337.5 420.791 2351.85 411.045C2366.31 401.3 2383.66 396.427 2403.9 396.427C2424.25 396.427 2441.6 401.3 2455.95 411.045C2470.41 420.791 2481.44 434.821 2489.04 453.134C2496.75 471.448 2500.61 493.563 2500.61 519.48C2500.61 545.398 2496.81 567.513 2489.2 585.827C2481.6 604.033 2470.57 618.009 2456.11 627.755C2441.76 637.394 2424.36 642.213 2403.9 642.213ZM2403.9 600.445C2413.65 600.445 2421.84 597.34 2428.48 591.128C2435.23 584.809 2440.31 575.599 2443.74 563.497C2447.27 551.395 2449.04 536.723 2449.04 519.48C2449.04 502.131 2447.27 487.405 2443.74 475.303C2440.31 463.201 2435.23 453.991 2428.48 447.672C2421.84 441.247 2413.65 438.034 2403.9 438.034C2389.44 438.034 2378.3 445.156 2370.49 459.399C2362.67 473.536 2358.76 493.563 2358.76 519.48C2358.76 536.723 2360.47 551.395 2363.9 563.497C2367.43 575.599 2372.57 584.809 2379.32 591.128C2386.07 597.34 2394.26 600.445 2403.9 600.445Z" fill="black"/>
</svg>
