<?xml version="1.0" encoding="UTF-8"?><svg id="a" xmlns="http://www.w3.org/2000/svg" viewBox="0 0 450 59.29"><path d="M.01,3.83C-.12,1.55,2.13-.26,4.32.03c26.62,0,53.23-.01,79.85.02,1.35-.13,2.57.45,3.56,1.31-7.1,10.49-15.78,20.39-27.13,26.36-6.76,3.62-14.72,5.2-22.28,3.58-10.32-1.8-19.33-9.43-22.81-19.3-.54-1.3-.65-2.78-1.35-4.01-1.69-.11-3.69-.03-4.81,1.43-1.26,1.42-.92,3.43-.59,5.13,1.78,9.7,7.8,18.58,16.27,23.69,7.56,4.76,16.9,6.72,25.71,4.98,8.25-1.54,15.69-6.02,21.76-11.71,6.46-5.95,11.53-13.21,16-20.73.09,13.69.03,27.38.04,41.08.21,2.14-1.72,4.12-3.87,3.98-26.96.03-53.91-.02-80.87-.05-2.1.12-3.96-1.82-3.79-3.91C.01,35.87,0,19.84.01,3.83H.01Z"/><path d="M114.17,13.38c7.62-7.84,21.32-7.88,29.53-.94-1.41,1.77-2.82,3.55-4.23,5.32-3.21-2.27-7.1-3.72-11.06-3.5-3.91.18-7.7,2.27-9.88,5.53-2.85,4.2-3.04,9.86-1.05,14.45,1.71,3.95,5.57,6.85,9.84,7.41,4.44.7,9.03-.91,12.27-3.96,0-1.39.12-2.8-.35-4.14-1.12-.01-2.24-.04-3.37-.06,0-2.1-.01-4.21,0-6.32,2.72.09,5.48-.22,8.18.21,1.62.25,2.31,1.98,2.25,3.45.05,5.74,0,11.49.02,17.23-2.14,0-4.28.01-6.42,0,0-1.2.03-2.4.06-3.61-6.8,5.81-17.7,5.58-24.46-.17-8.93-7.46-9.6-22.69-1.34-30.9h0Z"/><path d="M183.9,11.52c2.36,0,4.72,0,7.08,0,.02,2.61,0,5.22.02,7.83,1.73.07,3.53-.24,5.2.31,1.95,1.03,1.2,3.61,1.35,5.39-2.18,0-4.37,0-6.55,0,.09,4.43-.24,8.88.17,13.28.64,3.05,4.13,3.95,6.84,3.62,0,2.08,0,4.17,0,6.24-3.79.36-7.99-.03-11.02-2.56-2.3-1.87-3.24-4.93-3.25-7.8-.04-4.26,0-8.52-.01-12.78-1.25,0-2.49,0-3.73,0,0-1.9,0-3.8,0-5.7,1.3,0,2.61,0,3.91,0,0-2.61,0-5.22,0-7.83h0Z"/><path d="M202.03,48.05c.03-13.34-.05-26.68.04-40.02,5.12.09,10.25-.05,15.37.07,4.25.12,8.61,2.4,10.39,6.39,2.65,5.63.88,13.92-5.45,16.18,3.18,2.71,3.9,7.19,6.35,10.47.8.77,2.03.5,3.05.65,0,2.08,0,4.17,0,6.26-2.9-.21-6.68.86-8.79-1.74-2.47-3.92-4.11-8.33-6.6-12.24-1.87-1.6-4.62-.73-6.87-.96,0,4.98,0,9.97,0,14.95-2.5,0-5,.02-7.49-.01h0ZM209.53,26.8c2.62-.1,5.29.26,7.88-.28,5.3-1.38,5.34-10.56.01-11.92-2.6-.48-5.27-.13-7.89-.23-.02,4.15-.01,8.29,0,12.43h0Z"/><path d="M267.91,21.42c2.84-2.45,6.83-2.96,10.45-2.68,2.68.28,5.64.86,7.51,2.98,1.42,1.63.99,3.93,1.05,5.91-2.12,0-4.24,0-6.36,0-.08-.99.1-2.31-1.02-2.79-1.9-.93-4.44-.9-6.2.36-1.27.99-.71,2.95.64,3.57,3.84,2.21,8.63,2.76,11.9,5.95,2.89,2.76,2.75,7.77.04,10.6-2.58,2.73-6.56,3.58-10.18,3.35-4.14-.19-8.1-2.06-10.99-5.02,1.11-1.61,2.28-3.17,3.44-4.75,2.45,2.38,5.67,4.4,9.21,4.17,1.3-.09,2.88-.65,3.24-2.07.47-1.22-.58-2.25-1.57-2.76-3.85-2.09-8.49-2.94-11.63-6.19-2.83-2.86-2.58-8.05.47-10.66h0Z"/><path d="M370.25,24.62c2.87-5.7,10.61-7.53,16.08-4.65,2.88,1.59,4.12,4.99,4.28,8.12.16,4.32-.09,8.66.11,12.99.38,1.47,2.38.72,3.47.95,0,2.01,0,4.02,0,6.02-2.8-.08-5.6.19-8.38-.15-1.48-.2-2.41-1.66-2.36-3.08-.17-4.97.04-9.94-.1-14.91-.08-1.72-.71-3.75-2.51-4.37-3.4-1.06-7.36.65-9,3.79-1.26,2.24-1.34,4.87-1.3,7.38.01,3.77.01,7.56,0,11.34-2.4,0-4.81.04-7.21-.03,0-7.19.09-14.38-.04-21.57-.21-1.61-2.35-.8-3.44-1.02,0-2.03,0-4.05,0-6.08,2.84.13,5.74-.31,8.54.28,2.16.64,2.01,3.2,1.85,5h0Z"/><path d="M400.01,21.23c2.93-2.34,6.89-2.8,10.52-2.47,2.65.3,5.59.94,7.35,3.11,1.31,1.63.84,3.84.93,5.76-2.13,0-4.24,0-6.36,0-.14-.91.15-2.18-.86-2.68-1.85-1.06-4.36-.99-6.17.12-1.35.84-1.06,2.91.3,3.6,3.99,2.42,9.15,2.86,12.42,6.46,3.15,3.49,1.84,9.54-2.21,11.76-6.15,3.51-14.5,1.84-19.29-3.24,1.13-1.59,2.29-3.15,3.44-4.74,2.68,2.64,6.43,4.88,10.32,4,1.41-.26,2.69-1.78,2.09-3.22-.73-1.27-2.2-1.77-3.45-2.36-3.42-1.48-7.23-2.57-9.83-5.4-2.76-2.96-2.37-8.19.81-10.7h0Z"/><path d="M154.33,22.78c3.71-3.76,9.54-4.91,14.56-3.58,3.26.88,6.04,3.27,7.42,6.35,1.4,2.91,1.57,6.24,1.25,9.42-6.68,0-13.36-.02-20.04,0,.43,2.83,2.01,5.62,4.73,6.78,4.04,1.89,8.81.39,12.09-2.33,1.09,1.63,2.06,3.33,3.08,5-5.98,5.17-15.69,5.94-21.96.87-6.69-5.34-7.08-16.5-1.12-22.52h0ZM160.45,25.61c-1.45,1.03-2.18,2.7-2.71,4.33,4.21.04,8.42.04,12.63,0-.28-1.52-.66-3.14-1.85-4.23-2.13-2.15-5.78-1.82-8.08-.11h0Z"/><path d="M237.85,22.63c3.67-3.6,9.29-4.71,14.19-3.5,3.28.82,6.11,3.17,7.55,6.22,1.47,2.96,1.69,6.37,1.34,9.62-6.68.02-13.36-.02-20.04.01.39,3.05,2.28,5.97,5.26,7,3.98,1.56,8.42,0,11.6-2.57,1.01,1.67,2.02,3.33,3.03,5-5.92,5.12-15.47,5.92-21.75,1.05-6.94-5.31-7.37-16.79-1.19-22.83h0ZM243.66,25.75c-1.35,1.03-2.02,2.64-2.54,4.2,4.2.03,8.41.02,12.61,0-.21-1.6-.69-3.25-1.93-4.35-2.21-2.08-5.89-1.68-8.13.14h0Z"/><path d="M427.84,21.69c3.67-2.88,8.74-3.65,13.21-2.54,3.34.87,6.19,3.32,7.59,6.47,1.37,2.9,1.52,6.2,1.23,9.34-6.68.03-13.36,0-20.04.02.38,3.15,2.43,6.17,5.55,7.12,3.92,1.38,8.19-.19,11.29-2.68,1.02,1.66,2.03,3.33,3.04,5-6.12,5.31-16.2,5.96-22.42.48-6.69-5.83-6.45-17.74.55-23.22h0ZM432.55,25.76c-1.33,1.04-1.99,2.63-2.52,4.18,4.21.03,8.41.03,12.62,0-.24-1.48-.61-3.03-1.71-4.11-2.16-2.33-6.07-1.97-8.39-.08h0Z"/><path d="M300.72,22.86c4.25-5.73,13.7-5.42,18.32-.32,3.34,3.61,4.25,8.83,3.74,13.59-.4,3.99-2.15,8.05-5.52,10.41-4.78,3.36-12.27,2.96-15.98-1.82.21,4.85.06,9.7.1,14.55-2.43,0-4.85,0-7.26,0-.04-10.92.05-21.86-.04-32.78-.12-1.66-2.38-.86-3.46-1.07,0-2.03,0-4.05,0-6.08,2.76.11,5.56-.26,8.29.23,1.51.32,1.95,1.92,1.81,3.28h0ZM306.15,25.19c-5.22,2-6.03,9.05-3.93,13.6,1.7,3.99,7.48,5.19,10.63,2.2,3.11-3.02,3.44-8.11,1.8-11.95-1.33-3.21-5.19-5.05-8.5-3.85h0Z"/><path d="M337.47,19.27c5.05-1.35,10.79-.47,14.97,2.78,6.28,4.65,7.43,14.49,2.67,20.61-6.52,8.76-22.11,7.91-27.15-1.96-2.54-4.83-2.21-11.08.95-15.54,2.02-2.92,5.16-4.96,8.57-5.89h0ZM339.57,25.17c-5.62,1.59-7.71,9.09-4.49,13.72,2.46,3.88,8.18,4.87,11.89,2.25,3.92-2.58,4.84-8.36,2.46-12.27-1.92-3.32-6.23-4.87-9.86-3.7h0Z"/></svg>