<svg width="1931" height="1492" viewBox="0 0 1931 1492" fill="none" xmlns="http://www.w3.org/2000/svg">
<path d="M308.897 907.64H365.605L420.224 1010.77H422.473L477.092 907.64H533.8L446.57 1062.5V1147H396.288V1062.5L308.897 907.64ZM592.88 1150.53C574.78 1150.53 559.091 1146.68 545.811 1138.97C532.638 1131.15 522.464 1120.33 515.288 1106.52C508.22 1092.6 504.686 1076.42 504.686 1058C504.686 1039.37 508.22 1023.14 515.288 1009.33C522.464 995.405 532.638 984.588 545.811 976.877C559.091 969.059 574.78 965.15 592.88 965.15C611.086 965.15 626.776 969.059 639.948 976.877C653.228 984.588 663.402 995.405 670.471 1009.33C677.646 1023.14 681.234 1039.37 681.234 1058C681.234 1076.42 677.646 1092.6 670.471 1106.52C663.402 1120.33 653.228 1131.15 639.948 1138.97C626.776 1146.68 611.086 1150.53 592.88 1150.53ZM593.201 1111.66C601.447 1111.66 608.355 1109.36 613.924 1104.75C619.493 1100.04 623.67 1093.61 626.454 1085.47C629.346 1077.33 630.792 1068.07 630.792 1057.68C630.792 1047.19 629.346 1037.92 626.454 1029.89C623.67 1021.86 619.493 1015.54 613.924 1010.93C608.355 1006.33 601.447 1004.03 593.201 1004.03C584.847 1004.03 577.832 1006.33 572.156 1010.93C566.587 1015.54 562.357 1021.86 559.465 1029.89C556.681 1037.92 555.289 1047.19 555.289 1057.68C555.289 1068.07 556.681 1077.33 559.465 1085.47C562.357 1093.61 566.587 1100.04 572.156 1104.75C577.832 1109.36 584.847 1111.66 593.201 1111.66ZM817.584 1070.69V967.399H867.223V1147H819.512V1114.39H817.584C813.514 1124.78 806.821 1133.24 797.503 1139.77C788.186 1146.2 776.78 1149.36 763.286 1149.25C751.291 1149.25 740.689 1146.57 731.478 1141.22C722.375 1135.75 715.253 1127.99 710.113 1117.92C705.079 1107.86 702.562 1095.81 702.562 1081.78V967.399H752.201V1073.1C752.201 1083.6 755.04 1091.95 760.716 1098.16C766.392 1104.27 773.942 1107.27 783.367 1107.16C789.364 1107.16 794.933 1105.82 800.074 1103.14C805.214 1100.36 809.391 1096.24 812.604 1090.77C815.924 1085.31 817.584 1078.62 817.584 1070.69ZM870.88 949.407V907.64H1067.51V949.407H994.255V1147H944.295V949.407H870.88ZM1178.32 1070.69V967.399H1227.96V1147H1180.24V1114.39H1178.32C1174.25 1124.78 1167.55 1133.24 1158.24 1139.77C1148.92 1146.2 1137.51 1149.36 1124.02 1149.25C1112.02 1149.25 1101.42 1146.57 1092.21 1141.22C1083.11 1135.75 1075.99 1127.99 1070.85 1117.92C1065.81 1107.86 1063.3 1095.81 1063.3 1081.78V967.399H1112.93V1073.1C1112.93 1083.6 1115.77 1091.95 1121.45 1098.16C1127.12 1104.27 1134.67 1107.27 1144.1 1107.16C1150.1 1107.16 1155.67 1105.82 1160.81 1103.14C1165.95 1100.36 1170.12 1096.24 1173.34 1090.77C1176.66 1085.31 1178.32 1078.62 1178.32 1070.69ZM1358.68 1149.89C1349.04 1149.89 1340.85 1148.29 1334.1 1145.07C1327.36 1141.86 1321.84 1137.84 1317.56 1133.02C1313.38 1128.1 1310.11 1123.17 1307.76 1118.24H1305.51V1147H1256.67V907.64H1306.31V997.761H1307.76C1310.01 992.835 1313.22 987.855 1317.4 982.821C1321.57 977.788 1327.04 973.611 1333.78 970.291C1340.53 966.864 1348.88 965.15 1358.84 965.15C1372.02 965.15 1384.06 968.577 1394.99 975.432C1406.02 982.179 1414.85 992.406 1421.49 1006.11C1428.13 1019.82 1431.45 1036.96 1431.45 1057.52C1431.45 1077.44 1428.24 1094.31 1421.82 1108.12C1415.39 1121.83 1406.66 1132.22 1395.63 1139.29C1384.71 1146.36 1372.39 1149.89 1358.68 1149.89ZM1342.94 1110.37C1351.08 1110.37 1357.93 1108.12 1363.5 1103.63C1369.07 1099.13 1373.3 1092.92 1376.19 1084.99C1379.08 1076.96 1380.53 1067.75 1380.53 1057.36C1380.53 1046.97 1379.08 1037.87 1376.19 1030.05C1373.41 1022.13 1369.23 1015.91 1363.66 1011.42C1358.09 1006.92 1351.19 1004.67 1342.94 1004.67C1334.91 1004.67 1328.05 1006.86 1322.38 1011.26C1316.81 1015.54 1312.52 1021.64 1309.53 1029.57C1306.63 1037.39 1305.19 1046.65 1305.19 1057.36C1305.19 1067.96 1306.69 1077.23 1309.69 1085.15C1312.68 1093.08 1316.97 1099.29 1322.54 1103.79C1328.21 1108.18 1335.01 1110.37 1342.94 1110.37ZM1534.39 1150.53C1515.97 1150.53 1500.07 1146.79 1486.68 1139.29C1473.29 1131.79 1463.01 1121.14 1455.84 1107.32C1448.77 1093.4 1445.23 1076.96 1445.23 1058C1445.23 1039.58 1448.77 1023.41 1455.84 1009.49C1463.01 995.566 1473.08 984.695 1486.04 976.877C1499.1 969.059 1514.42 965.15 1531.98 965.15C1543.87 965.15 1554.95 967.078 1565.23 970.934C1575.52 974.682 1584.51 980.358 1592.22 987.962C1599.93 995.459 1605.93 1004.94 1610.21 1016.4C1614.5 1027.75 1616.64 1041.08 1616.64 1056.4V1069.89H1464.99V1039.21H1592.54L1569.41 1047.24C1569.41 1038.14 1568.02 1030.21 1565.23 1023.46C1562.45 1016.72 1558.27 1011.52 1552.7 1007.88C1547.24 1004.13 1540.44 1002.26 1532.3 1002.26C1524.16 1002.26 1517.26 1004.13 1511.58 1007.88C1506.01 1011.63 1501.73 1016.72 1498.73 1023.14C1495.73 1029.57 1494.23 1036.96 1494.23 1045.31V1067C1494.23 1076.74 1495.94 1085.1 1499.37 1092.06C1502.8 1098.91 1507.56 1104.22 1513.67 1107.96C1519.88 1111.6 1527 1113.43 1535.03 1113.43C1540.6 1113.43 1545.64 1112.62 1550.13 1111.02C1554.63 1109.41 1558.49 1107.05 1561.7 1103.95C1565.02 1100.84 1567.48 1097.09 1569.09 1092.7L1615.03 1095.75C1612.79 1106.79 1608.07 1116.42 1600.9 1124.67C1593.83 1132.81 1584.67 1139.18 1573.43 1143.79C1562.18 1148.29 1549.17 1150.53 1534.39 1150.53ZM26.5779 1247.64H51.9597L138.708 1456H140.957L227.705 1247.64H253.729V1487H232.364V1293.74H230.596L149.471 1487H129.712L49.2288 1293.74H47.4617V1487H26.5779V1247.64ZM371.926 1490.86C356.397 1490.86 342.689 1486.95 330.801 1479.13C318.914 1471.2 309.596 1460.28 302.849 1446.36C296.209 1432.33 292.889 1416.26 292.889 1398.16C292.889 1379.74 296.209 1363.57 302.849 1349.65C309.596 1335.62 318.914 1324.7 330.801 1316.88C342.689 1308.95 356.397 1304.99 371.926 1304.99C387.455 1304.99 401.11 1308.95 412.891 1316.88C424.778 1324.7 434.096 1335.62 440.843 1349.65C447.59 1363.57 450.963 1379.74 450.963 1398.16C450.963 1416.26 447.59 1432.33 440.843 1446.36C434.203 1460.28 424.939 1471.2 413.051 1479.13C401.164 1486.95 387.455 1490.86 371.926 1490.86ZM371.926 1471.9C384.456 1471.9 395.005 1468.58 403.573 1461.94C412.248 1455.19 418.834 1446.2 423.332 1434.95C427.831 1423.71 430.08 1411.44 430.08 1398.16C430.08 1384.67 427.831 1372.3 423.332 1361.05C418.834 1349.81 412.248 1340.81 403.573 1334.07C394.898 1327.32 384.349 1323.95 371.926 1323.95C359.503 1323.95 348.954 1327.37 340.279 1334.23C331.712 1340.97 325.125 1349.97 320.52 1361.22C316.022 1372.35 313.773 1384.67 313.773 1398.16C313.773 1411.44 316.022 1423.71 320.52 1434.95C325.018 1446.2 331.604 1455.19 340.279 1461.94C348.954 1468.58 359.503 1471.9 371.926 1471.9ZM506.348 1374.87V1487H485.625V1307.4H505.706V1335.83H507.794C511.971 1326.52 518.504 1319.07 527.393 1313.5C536.282 1307.93 547.313 1305.15 560.485 1305.15C572.587 1305.15 583.19 1307.67 592.293 1312.7C601.503 1317.73 608.679 1325.12 613.819 1334.87C618.96 1344.62 621.53 1356.61 621.53 1370.85V1487H600.807V1372.14C600.807 1357.47 596.684 1345.79 588.438 1337.12C580.191 1328.44 569.16 1324.11 555.345 1324.11C545.92 1324.11 537.513 1326.19 530.124 1330.37C522.734 1334.44 516.897 1340.28 512.613 1347.88C508.437 1355.38 506.348 1364.37 506.348 1374.87ZM738.121 1490.86C721.414 1490.86 706.902 1486.95 694.586 1479.13C682.27 1471.2 672.792 1460.28 666.152 1446.36C659.512 1432.43 656.192 1416.42 656.192 1398.32C656.192 1380.22 659.459 1364.16 665.992 1350.13C672.631 1336.1 681.842 1325.07 693.622 1317.04C705.403 1309.01 719.058 1304.99 734.587 1304.99C744.225 1304.99 753.596 1306.81 762.7 1310.45C771.803 1313.99 779.996 1319.39 787.278 1326.68C794.561 1333.96 800.29 1343.22 804.467 1354.47C808.644 1365.61 810.732 1378.89 810.732 1394.31V1403.63H670.49V1385.31H799.487L790.009 1392.38C790.009 1379.31 787.76 1367.64 783.262 1357.36C778.871 1347.08 772.552 1338.94 764.306 1332.94C756.06 1326.94 746.153 1323.95 734.587 1323.95C723.127 1323.95 713.06 1327 704.386 1333.1C695.711 1339.1 688.964 1347.13 684.144 1357.2C679.432 1367.16 677.076 1378.08 677.076 1389.97V1400.73C677.076 1415.08 679.539 1427.62 684.466 1438.32C689.499 1448.93 696.568 1457.17 705.671 1463.06C714.881 1468.95 725.698 1471.9 738.121 1471.9C746.582 1471.9 754.025 1470.56 760.451 1467.88C766.876 1465.21 772.285 1461.62 776.676 1457.12C781.067 1452.51 784.387 1447.53 786.636 1442.18L806.395 1448.77C803.61 1456.26 799.112 1463.22 792.901 1469.65C786.796 1475.97 779.085 1481.11 769.768 1485.07C760.558 1488.93 750.009 1490.86 738.121 1490.86ZM915.274 1307.4V1325.55H829.651V1307.4H915.274ZM856.479 1264.67H877.202V1440.09C877.202 1449.84 879.611 1457.17 884.431 1462.1C889.25 1466.92 895.944 1469.33 904.511 1469.33C906.439 1469.33 908.367 1469.22 910.294 1469.01C912.329 1468.69 914.471 1468.26 916.72 1467.72L921.218 1486.52C918.755 1487.48 915.917 1488.23 912.704 1488.77C909.491 1489.3 906.171 1489.57 902.744 1489.57C889.464 1489.57 878.433 1485.5 869.651 1477.36C860.869 1469.11 856.479 1458.35 856.479 1445.07V1264.67ZM951.703 1487V1307.4H972.426V1487H951.703ZM962.145 1276.72C957.861 1276.72 954.166 1275.27 951.061 1272.38C948.062 1269.38 946.563 1265.79 946.563 1261.62C946.563 1257.55 948.062 1254.07 951.061 1251.17C954.166 1248.28 957.861 1246.84 962.145 1246.84C966.429 1246.84 970.07 1248.28 973.069 1251.17C976.068 1254.07 977.567 1257.55 977.567 1261.62C977.567 1265.79 976.068 1269.38 973.069 1272.38C970.07 1275.27 966.429 1276.72 962.145 1276.72ZM1011.1 1487V1470.61L1114.72 1328.77V1327.16H1015.44V1307.4H1141.39V1324.75L1039.7 1465.79V1467.4H1145.08V1487H1011.1ZM1230.19 1491.02C1219.37 1491.02 1209.46 1488.93 1200.47 1484.75C1191.47 1480.47 1184.3 1474.31 1178.94 1466.28C1173.69 1458.14 1171.07 1448.28 1171.07 1436.72C1171.07 1427.83 1172.73 1420.39 1176.05 1414.39C1179.37 1408.39 1184.13 1403.46 1190.35 1399.61C1196.56 1395.65 1203.84 1392.54 1212.19 1390.29C1220.65 1387.94 1229.97 1386.17 1240.15 1384.99C1250.21 1383.71 1258.73 1382.63 1265.69 1381.78C1272.65 1380.81 1277.95 1379.31 1281.59 1377.28C1285.23 1375.24 1287.05 1371.98 1287.05 1367.48V1363.3C1287.05 1350.99 1283.41 1341.35 1276.13 1334.39C1268.85 1327.32 1258.41 1323.79 1244.8 1323.79C1231.85 1323.79 1221.3 1326.62 1213.16 1332.3C1205.02 1337.98 1199.34 1344.67 1196.13 1352.38L1176.21 1345.15C1180.28 1335.41 1185.9 1327.59 1193.08 1321.7C1200.25 1315.81 1208.28 1311.58 1217.17 1309.01C1226.06 1306.33 1235.06 1304.99 1244.16 1304.99C1251.02 1304.99 1258.14 1305.9 1265.53 1307.72C1272.92 1309.54 1279.83 1312.65 1286.25 1317.04C1292.68 1321.43 1297.87 1327.59 1301.83 1335.51C1305.9 1343.33 1307.94 1353.24 1307.94 1365.23V1487H1287.05V1458.57H1285.77C1283.41 1463.81 1279.77 1468.95 1274.85 1473.99C1269.92 1478.91 1263.76 1482.98 1256.37 1486.2C1248.98 1489.41 1240.25 1491.02 1230.19 1491.02ZM1233.08 1472.06C1244.11 1472.06 1253.64 1469.65 1261.67 1464.83C1269.81 1459.9 1276.08 1453.32 1280.47 1445.07C1284.86 1436.83 1287.05 1427.83 1287.05 1418.08V1392.22C1285.45 1393.72 1282.82 1395.06 1279.18 1396.24C1275.65 1397.41 1271.53 1398.43 1266.81 1399.29C1262.21 1400.14 1257.5 1400.89 1252.68 1401.54C1247.96 1402.18 1243.79 1402.72 1240.15 1403.14C1230.08 1404.43 1221.4 1406.41 1214.12 1409.09C1206.95 1411.76 1201.43 1415.41 1197.58 1420.01C1193.83 1424.62 1191.95 1430.56 1191.95 1437.84C1191.95 1448.66 1195.81 1457.07 1203.52 1463.06C1211.34 1469.06 1221.19 1472.06 1233.08 1472.06ZM1421.96 1490.86C1405.89 1490.86 1391.92 1486.84 1380.03 1478.81C1368.14 1470.77 1358.93 1459.8 1352.4 1445.88C1345.87 1431.85 1342.6 1415.94 1342.6 1398.16C1342.6 1380.06 1345.92 1364.05 1352.56 1350.13C1359.2 1336.1 1368.46 1325.07 1380.35 1317.04C1392.24 1309.01 1406 1304.99 1421.64 1304.99C1433.63 1304.99 1444.5 1307.35 1454.25 1312.06C1463.99 1316.66 1472.03 1323.2 1478.34 1331.66C1484.77 1340.01 1488.79 1349.76 1490.39 1360.89H1469.51C1468.01 1354.15 1465.12 1347.99 1460.83 1342.42C1456.66 1336.85 1451.25 1332.41 1444.61 1329.09C1438.08 1325.66 1430.53 1323.95 1421.96 1323.95C1410.5 1323.95 1400.38 1327.05 1391.6 1333.26C1382.81 1339.47 1375.91 1348.1 1370.87 1359.13C1365.95 1370.16 1363.48 1382.96 1363.48 1397.52C1363.48 1411.98 1365.89 1424.83 1370.71 1436.08C1375.53 1447.32 1382.33 1456.1 1391.11 1462.42C1400 1468.74 1410.28 1471.9 1421.96 1471.9C1433.85 1471.9 1444.13 1468.53 1452.8 1461.78C1461.48 1455.03 1467.05 1445.98 1469.51 1434.63H1490.39C1488.89 1445.45 1485.04 1455.09 1478.83 1463.55C1472.72 1472.01 1464.8 1478.7 1455.05 1483.63C1445.41 1488.45 1434.38 1490.86 1421.96 1490.86ZM1524.41 1487V1307.4H1545.14V1487H1524.41ZM1534.85 1276.72C1530.57 1276.72 1526.88 1275.27 1523.77 1272.38C1520.77 1269.38 1519.27 1265.79 1519.27 1261.62C1519.27 1257.55 1520.77 1254.07 1523.77 1251.17C1526.88 1248.28 1530.57 1246.84 1534.85 1246.84C1539.14 1246.84 1542.78 1248.28 1545.78 1251.17C1548.78 1254.07 1550.28 1257.55 1550.28 1261.62C1550.28 1265.79 1548.78 1269.38 1545.78 1272.38C1542.78 1275.27 1539.14 1276.72 1534.85 1276.72ZM1658.99 1490.86C1643.47 1490.86 1629.76 1486.95 1617.87 1479.13C1605.98 1471.2 1596.66 1460.28 1589.92 1446.36C1583.28 1432.33 1579.96 1416.26 1579.96 1398.16C1579.96 1379.74 1583.28 1363.57 1589.92 1349.65C1596.66 1335.62 1605.98 1324.7 1617.87 1316.88C1629.76 1308.95 1643.47 1304.99 1658.99 1304.99C1674.52 1304.99 1688.18 1308.95 1699.96 1316.88C1711.85 1324.7 1721.16 1335.62 1727.91 1349.65C1734.66 1363.57 1738.03 1379.74 1738.03 1398.16C1738.03 1416.26 1734.66 1432.33 1727.91 1446.36C1721.27 1460.28 1712.01 1471.2 1700.12 1479.13C1688.23 1486.95 1674.52 1490.86 1658.99 1490.86ZM1658.99 1471.9C1671.52 1471.9 1682.07 1468.58 1690.64 1461.94C1699.32 1455.19 1705.9 1446.2 1710.4 1434.95C1714.9 1423.71 1717.15 1411.44 1717.15 1398.16C1717.15 1384.67 1714.9 1372.3 1710.4 1361.05C1705.9 1349.81 1699.32 1340.81 1690.64 1334.07C1681.97 1327.32 1671.42 1323.95 1658.99 1323.95C1646.57 1323.95 1636.02 1327.37 1627.35 1334.23C1618.78 1340.97 1612.19 1349.97 1607.59 1361.22C1603.09 1372.35 1600.84 1384.67 1600.84 1398.16C1600.84 1411.44 1603.09 1423.71 1607.59 1434.95C1612.09 1446.2 1618.67 1455.19 1627.35 1461.94C1636.02 1468.58 1646.57 1471.9 1658.99 1471.9ZM1648.71 1283.78L1674.58 1237.52H1698.51L1666.38 1283.78H1648.71ZM1793.42 1374.87V1487H1772.69V1307.4H1792.77V1335.83H1794.86C1799.04 1326.52 1805.57 1319.07 1814.46 1313.5C1823.35 1307.93 1834.38 1305.15 1847.55 1305.15C1859.66 1305.15 1870.26 1307.67 1879.36 1312.7C1888.57 1317.73 1895.75 1325.12 1900.89 1334.87C1906.03 1344.62 1908.6 1356.61 1908.6 1370.85V1487H1887.88V1372.14C1887.88 1357.47 1883.75 1345.79 1875.51 1337.12C1867.26 1328.44 1856.23 1324.11 1842.41 1324.11C1832.99 1324.11 1824.58 1326.19 1817.19 1330.37C1809.8 1334.44 1803.97 1340.28 1799.68 1347.88C1795.51 1355.38 1793.42 1364.37 1793.42 1374.87Z" fill="white"/>
<path d="M1003 700C1196.3 700 1353 543.3 1353 350C1353 156.7 1196.3 0 1003 0C809.7 0 653 156.7 653 350C653 543.3 809.7 700 1003 700Z" fill="#7AF546"/>
<path d="M987.466 646V55H1017.76V646H987.466ZM1117.66 232.3C1115.04 205.982 1103.41 185.051 1082.74 169.507C1062.09 153.962 1036.11 146.19 1004.81 146.19C982.764 146.19 963.339 149.96 946.534 157.501C929.884 165.043 916.779 175.508 907.22 188.898C897.817 202.134 893.114 217.218 893.114 234.147C893.114 246.614 895.812 257.541 901.208 266.93C906.604 276.317 913.85 284.398 922.946 291.17C932.196 297.788 942.372 303.482 953.472 308.253C964.726 313.024 976.058 317.025 987.466 320.257L1037.42 334.57C1052.53 338.727 1067.63 344.036 1082.74 350.5C1097.85 356.964 1111.65 365.121 1124.14 374.971C1136.78 384.667 1146.88 396.595 1154.43 410.755C1162.14 424.76 1166 441.613 1166 461.313C1166 486.553 1159.44 509.255 1146.33 529.416C1133.23 549.578 1114.42 565.585 1089.92 577.435C1065.4 589.132 1036.03 594.98 1001.8 594.98C969.583 594.98 941.601 589.671 917.859 579.052C894.117 568.277 875.462 553.426 861.895 534.496C848.328 515.565 840.696 493.633 839 468.7H883.401C884.943 487.323 891.11 503.098 901.902 516.027C912.694 528.955 926.723 538.805 943.99 545.577C961.257 552.195 980.529 555.504 1001.8 555.504C1025.39 555.504 1046.36 551.579 1064.7 543.729C1083.21 535.727 1097.7 524.646 1108.18 510.485C1118.82 496.172 1124.14 479.55 1124.14 460.621C1124.14 444.614 1119.98 431.224 1111.65 420.451C1103.32 409.524 1091.69 400.366 1076.73 392.979C1061.94 385.591 1044.74 379.05 1025.16 373.355L968.504 356.733C931.349 345.652 902.518 330.338 882.014 310.792C861.509 291.247 851.257 266.313 851.257 235.994C851.257 210.599 858.04 188.283 871.607 169.045C885.329 149.653 903.828 134.569 927.108 123.796C950.542 112.869 976.829 107.405 1005.97 107.405C1035.41 107.405 1061.47 112.792 1084.13 123.565C1106.79 134.338 1124.76 149.191 1138.01 168.121C1151.42 186.898 1158.6 208.291 1159.52 232.3H1117.66Z" fill="black"/>
</svg>
