<?xml version="1.0" encoding="utf-8"?>
<!-- Generator: Adobe Illustrator 27.5.0, SVG Export Plug-In . SVG Version: 6.00 Build 0)  -->
<svg version="1.1" id="Layer_1" xmlns="http://www.w3.org/2000/svg" xmlns:xlink="http://www.w3.org/1999/xlink" x="0px" y="0px"
	 viewBox="0 0 406 306" style="enable-background:new 0 0 406 306;" xml:space="preserve">
<style type="text/css">
	.st0{fill:#FFFFFF;}
	.st1{fill:#231F20;}
	.st2{fill:#D1D3D4;}
	.st3{fill:#7cee32;}
	.st4{fill:none;}
	.st5{fill:none;stroke:#231F20;stroke-width:1.015;stroke-linecap:round;stroke-linejoin:round;stroke-miterlimit:4.06;}
</style>
<g id="_181_code_javascript_flatline">
	<path class="st0" d="M247.9,121.5c0,0,0.4-6.8-2.9-8.4c-3.3-1.6-16-4.6-16,2s8.1,12.7,9.6,13.6c1.4,0.9,8.2,20.9,8.2,20.9l15-16.9
		L247.9,121.5z"/>
	<path class="st1" d="M246.7,150.1h-0.1c-0.2,0-0.3-0.2-0.4-0.3c-3.2-9.5-7-20-8-20.7c-1.6-0.9-9.8-7.2-9.8-14
		c-0.1-1.4,0.7-2.8,1.9-3.5c3.8-2.4,12.3-0.2,14.8,1.1c3.2,1.6,3.2,7.3,3.2,8.6l13.6,11c0.1,0.1,0.2,0.2,0.2,0.4
		c0,0.1,0,0.3-0.1,0.4l-15,16.9C247,150.1,246.9,150.1,246.7,150.1z M235.1,111.6c-1.5-0.1-2.9,0.2-4.2,0.9
		c-0.9,0.5-1.5,1.6-1.4,2.6c0,6.2,7.9,12.3,9.3,13.2c1.5,0.9,6.3,14.9,8.1,20.4l14-15.9l-13.4-10.9c-0.1-0.1-0.2-0.3-0.2-0.4
		c0-0.1,0.4-6.5-2.6-7.9C241.7,112.3,238.4,111.6,235.1,111.6L235.1,111.6z"/>
	<rect x="60.8" y="194.1" class="st0" width="55.4" height="9.2"/>
	<path class="st2" d="M116.2,203.8H60.8c-0.3,0-0.5-0.2-0.5-0.5v-9.1c0-0.3,0.2-0.5,0.5-0.5h55.4c0.3,0,0.5,0.2,0.5,0.5v9.1
		C116.7,203.6,116.4,203.8,116.2,203.8z M61.3,202.8h54.4v-8.1H61.3L61.3,202.8z"/>
	<rect x="84.3" y="194.1" class="st2" width="31.9" height="9.2"/>
	<path class="st2" d="M116.2,203.8H84.3c-0.3,0-0.5-0.2-0.5-0.5v-9.1c0-0.3,0.2-0.5,0.5-0.5h31.9c0.3,0,0.5,0.2,0.5,0.5v9.1
		C116.7,203.6,116.4,203.8,116.2,203.8L116.2,203.8z M84.8,202.8h30.9v-8.1H84.8L84.8,202.8z"/>
	<rect x="53.8" y="184.6" class="st0" width="55.4" height="9.2"/>
	<path class="st2" d="M109.3,194.3H53.9c-0.3,0-0.5-0.2-0.5-0.5v-9.2c0-0.3,0.2-0.5,0.5-0.5h55.4c0.3,0,0.5,0.2,0.5,0.5v9.2
		C109.8,194.1,109.5,194.3,109.3,194.3z M54.4,193.3h54.4v-8.2H54.4L54.4,193.3z"/>
	<rect x="77.4" y="184.6" class="st2" width="31.9" height="9.2"/>
	<path class="st2" d="M109.3,194.3H77.4c-0.3,0-0.5-0.2-0.5-0.5v-9.2c0-0.3,0.2-0.5,0.5-0.5h31.9c0.3,0,0.5,0.2,0.5,0.5v9.2
		C109.8,194.1,109.5,194.3,109.3,194.3z M77.9,193.3h30.9v-8.2H77.9L77.9,193.3z"/>
	<rect x="60.8" y="175" class="st0" width="55.4" height="9.2"/>
	<path class="st2" d="M116.2,184.7H60.8c-0.3,0-0.5-0.2-0.5-0.5V175c0-0.3,0.2-0.5,0.5-0.5h55.4c0.3,0,0.5,0.2,0.5,0.5v9.2
		C116.7,184.5,116.4,184.7,116.2,184.7z M61.3,183.7h54.4v-8.2H61.3L61.3,183.7z"/>
	<rect x="84.3" y="175" class="st2" width="31.9" height="9.2"/>
	<path class="st2" d="M116.2,184.7H84.3c-0.3,0-0.5-0.2-0.5-0.5V175c0-0.3,0.2-0.5,0.5-0.5h31.9c0.3,0,0.5,0.2,0.5,0.5v9.2
		C116.7,184.5,116.4,184.7,116.2,184.7L116.2,184.7z M84.8,183.7h30.9v-8.2H84.8L84.8,183.7z"/>
	<rect x="173.3" y="214.6" class="st1" width="76.4" height="36"/>
	<path class="st1" d="M249.7,251.1h-76.4c-0.3,0-0.5-0.2-0.5-0.5v-36c0-0.3,0.2-0.5,0.5-0.5h76.4c0.3,0,0.5,0.2,0.5,0.5v36
		C250.2,250.8,250,251.1,249.7,251.1z M173.8,250.1h75.4v-35h-75.4L173.8,250.1z"/>
	<path class="st0" d="M270.7,214.6h-218c-2,0-3.5-1.6-3.5-3.5V207c0-2,1.6-3.5,3.5-3.5h218c2,0,3.5,1.6,3.5,3.5v4.1
		C274.2,213,272.6,214.6,270.7,214.6z"/>
	<path class="st1" d="M270.7,215.1h-218c-2.2,0-4.1-1.8-4.1-4.1V207c0-2.2,1.8-4.1,4.1-4.1h218c2.2,0,4.1,1.8,4.1,4.1v4.1
		C274.7,213.3,272.9,215.1,270.7,215.1z M52.7,203.9c-1.7,0-3,1.4-3,3v4.1c0,1.7,1.4,3,3,3h218c1.7,0,3-1.4,3-3V207c0-1.7-1.4-3-3-3
		H52.7z"/>
	<path class="st0" d="M178,214.6H51.6c-1.4,0-2.5-1.1-2.5-2.5v-6.2c0-1.4,1.1-2.5,2.5-2.5H178c1.4,0,2.5,1.1,2.5,2.5v6.2
		C180.5,213.5,179.4,214.6,178,214.6z"/>
	<path class="st1" d="M178,215.1H51.6c-1.6,0-3-1.3-3-3l0,0v-6.2c0-1.6,1.3-3,3-3l0,0H178c1.6,0,3,1.3,3,3l0,0v6.2
		C181,213.7,179.7,215.1,178,215.1L178,215.1z M51.6,203.9c-1.1,0-2,0.9-2,2l0,0v6.2c0,1.1,0.9,2,2,2l0,0H178c1.1,0,2-0.9,2-2l0,0
		v-6.2c0-1.1-0.9-2-2-2l0,0H51.6z"/>
	<path class="st0" d="M160.4,156.8c0,0-3,31.5,3.7,35.8c6.3,4,13.3,2.8,17.3,2.8c3-0.1,5.7,1.7,6.7,4.5l1,3.4h-48.7
		c-3.7-2.4-6.7-5.6-9-9.3c-3.3-5.8-1.2-35.7-1.2-35.7L160.4,156.8z"/>
	<path class="st1" d="M189,203.8h-48.7c-0.1,0-0.2,0-0.2-0.1c-3.7-2.4-6.9-5.7-9.2-9.5c-3.3-5.8-1.4-34.7-1.3-35.9
		c0-0.3,0.2-0.5,0.5-0.5l30.3-1.5c0.1,0,0.3,0.1,0.4,0.2c0.1,0.1,0.2,0.3,0.1,0.4c0,0.1-0.8,8-0.7,16.2c0.1,10.8,1.6,17.4,4.2,19.1
		c5.1,3.2,10.7,3,14.7,2.8c0.8,0,1.6-0.1,2.2-0.1c3.2-0.1,6.1,1.8,7.2,4.8l1,3.4c0,0.2,0,0.3-0.1,0.4
		C189.3,203.7,189.2,203.8,189,203.8z M140.5,202.8h47.9l-0.8-2.8c-1-2.6-3.5-4.2-6.2-4.1c-0.6,0-1.4,0-2.2,0.1
		c-4,0.2-9.9,0.4-15.3-3c-6.6-4.1-4.4-31.2-4.1-35.7l-29.2,1.4c-0.2,3.8-1.7,29.7,1.2,34.9C133.9,197.4,136.9,200.5,140.5,202.8z"/>
	<path class="st1" d="M132.4,186.8c0,7.8,2.3,10.1,5.5,10.1H150c1.7,0,3.3,1.1,3.9,2.7l1.3,3.7h-18.8c-4.8,0-8.2-7.3-8.4-15.1
		c-0.2-7.8,0-29.9,0-29.9h4.2C132.2,158.4,132.4,179,132.4,186.8z"/>
	<path class="st1" d="M155.3,203.8h-18.9c-5.4,0-8.8-7.9-8.9-15.6s0-29.7,0-29.9c0-0.3,0.2-0.5,0.5-0.5h4.2c0.3,0,0.5,0.2,0.5,0.5
		c0,0.2,0.2,20.8,0.2,28.5c0,9.6,3.7,9.6,4.9,9.6H150c1.9,0,3.7,1.2,4.3,3l1.3,3.7c0.1,0.2,0,0.3-0.1,0.5
		C155.6,203.7,155.4,203.8,155.3,203.8z M128.6,158.8c0,3.3-0.1,22.3,0,29.4c0.2,8,3.7,14.6,7.9,14.6h18.1l-1.1-3
		c-0.5-1.4-1.9-2.4-3.4-2.4h-12.2c-4.1,0-6-3.5-6-10.6c0-7.1-0.1-24.8-0.1-28L128.6,158.8z"/>
	<path class="st1" d="M198.1,71l7.4,84.2c0.5,3.7-2.1,7-5.8,7.5c-0.3,0-0.6,0.1-0.8,0.1H98.5c-4.2-0.2-7.6-3.4-7.9-7.5L83.2,71
		c-0.5-3.7,2.1-7,5.7-7.5c0.3,0,0.6-0.1,0.8-0.1h100.5C194.4,63.7,197.8,66.9,198.1,71z"/>
	<path class="st1" d="M198.9,163.3H98.5c-4.4-0.2-8-3.6-8.4-8l-7.4-84.2c-0.2-2.1,0.5-4.2,1.9-5.8c1.3-1.5,3.2-2.3,5.2-2.3h100.5
		c4.4,0.2,8,3.6,8.4,8l7.4,84.2c0.2,2.1-0.5,4.2-1.9,5.8C202.8,162.5,200.9,163.3,198.9,163.3z M89.8,64c-1.7,0-3.3,0.7-4.5,1.9
		c-1.2,1.4-1.8,3.2-1.6,5.1l7.4,84.2c0.3,3.9,3.5,7,7.4,7.1h100.5c1.7,0,3.3-0.7,4.5-1.9c1.2-1.4,1.8-3.2,1.6-5.1l-7.4-84.2l0,0
		c-0.3-3.9-3.5-7-7.4-7.1L89.8,64z"/>
	<path class="st0" d="M198.5,70.7l7,80.4c0.4,3.5-2,6.7-5.5,7.1c-0.3,0-0.5,0.1-0.8,0.1h-95.9c-4-0.1-7.2-3.2-7.6-7.2l-7-80.4
		c-0.5-3.5,2-6.7,5.5-7.1c0.3,0,0.5-0.1,0.8-0.1h95.9C194.9,63.6,198.1,66.7,198.5,70.7z"/>
	<path class="st1" d="M199.2,158.8h-95.9c-4.2-0.1-7.7-3.4-8.1-7.7l-7-80.4c-0.2-2,0.4-4.1,1.8-5.6c1.3-1.4,3.1-2.2,5-2.2h95.9
		c4.2,0.2,7.7,3.4,8,7.7l7.1,80.4c0.2,2-0.4,4.1-1.8,5.6C202.9,158.1,201.1,158.9,199.2,158.8z M95,64c-1.6,0-3.2,0.6-4.2,1.8
		c-1.2,1.3-1.7,3.1-1.6,4.8l7,80.4c0.3,3.7,3.3,6.6,7,6.7h95.9c1.6,0,3.2-0.6,4.2-1.8c1.2-1.3,1.8-3,1.6-4.8l-7.1-80.4l0,0
		c-0.3-3.7-3.3-6.6-7-6.7H95z"/>
	<path class="st0" d="M204.3,137.6l1.2,13.5c0.4,3.5-2,6.7-5.5,7.1c-0.3,0-0.5,0.1-0.8,0.1h-95.9c-4-0.1-7.2-3.2-7.6-7.2l-1.2-13.5
		H204.3z"/>
	<path class="st1" d="M199.2,158.8h-95.9c-4.2-0.1-7.7-3.4-8.1-7.7L94,137.7c0-0.1,0-0.3,0.1-0.4c0.1-0.1,0.2-0.2,0.4-0.2h109.8
		c0.3,0,0.5,0.2,0.5,0.5l1.2,13.5c0.2,2-0.4,4.1-1.8,5.6C202.9,158.1,201.1,158.9,199.2,158.8z M95.1,138.1l1.1,13
		c0.3,3.7,3.3,6.6,7,6.7h95.9c1.6,0,3.2-0.6,4.2-1.8c1.2-1.3,1.8-3,1.6-4.8l-1.1-13.1H95.1z"/>
	<ellipse transform="matrix(0.8307 -0.5567 0.5567 0.8307 -56.9291 108.7536)" class="st0" cx="150.3" cy="148" rx="4.4" ry="4.8"/>
	<path class="st1" d="M150.7,153.1c-2.8-0.1-5.1-2.3-5.4-5.1c-0.2-1.4,0.3-2.7,1.2-3.8c0.9-0.9,2.1-1.5,3.4-1.5
		c2.8,0.1,5.1,2.3,5.4,5.1l0,0c0.2,1.4-0.3,2.7-1.2,3.8C153.2,152.6,152,153.1,150.7,153.1z M149.9,143.8c-1,0-1.9,0.4-2.6,1.1
		c-0.7,0.8-1.1,1.9-1,3c0.2,2.3,2.1,4.1,4.4,4.2c1,0,1.9-0.4,2.6-1.1c0.7-0.8,1.1-1.9,1-3l0,0C154.1,145.7,152.2,143.9,149.9,143.8z
		"/>
	<rect x="156.4" y="199.4" class="st0" width="73.8" height="4"/>
	<path class="st1" d="M230.2,203.9h-73.9c-0.3,0-0.5-0.2-0.5-0.5v-4.1c0-0.3,0.2-0.5,0.5-0.5h73.8c0.3,0,0.5,0.2,0.5,0.5v4.1
		C230.6,203.7,230.4,203.9,230.2,203.9z M156.9,202.9h72.8v-3h-72.8L156.9,202.9z"/>
	<path class="st0" d="M240.6,219c0,0-34.1,8.6-34.1,31.6h90.1c0,0,14.3-13.8,10.8-35.1C271.1,216.7,240.6,219,240.6,219z"/>
	<path class="st1" d="M296.6,251.1h-90.1c-0.3,0-0.5-0.2-0.5-0.5c0-23.2,34.1-32,34.5-32.1h0.1c0.3,0,30.9-2.2,66.8-3.5
		c0.3,0,0.5,0.2,0.5,0.4c3.5,21.3-10.8,35.4-10.9,35.5C296.9,251,296.7,251.1,296.6,251.1z M207,250.1h89.4
		c1.5-1.5,13.6-14.7,10.6-34.1c-35,1.2-65,3.3-66.3,3.4C239.3,219.8,207.5,228.4,207,250.1L207,250.1z"/>
	<path class="st0" d="M285.2,102.2c0,0,8.1-5.9,10.3-9.5s7.4-29.2-4.5-27.2c-11.7-16.7-35.8-9.6-39.4,0.7
		c-3.2,9.1,8.5,11.2,12.5,12.4c4,1.2,8.4,20.5,13.9,23.7C283.5,105.4,285.2,102.2,285.2,102.2z"/>
	<path class="st1" d="M282.3,104.1c-1.6-0.1-3.2-0.6-4.6-1.5c-3-1.7-5.6-7.7-8-13.5c-2-4.7-4.1-9.6-5.8-10.1
		c-0.4-0.1-0.9-0.3-1.5-0.4c-3.4-1-9.1-2.6-11.2-6.4c-0.9-1.9-1-4.2-0.2-6.2c1.8-5.2,8.7-9.7,16.7-10.8c9.5-1.3,18.1,2.2,23.4,9.7
		c2.3-0.4,4.6,0.6,5.9,2.6c4.3,6.4,0.6,22.7-1.1,25.5c-2.2,3.5-9.5,8.9-10.4,9.6c-0.5,0.7-1.2,1.2-2,1.4
		C283.2,104.1,282.7,104.1,282.3,104.1z M271.6,55.9c-1.2,0-2.5,0.1-3.7,0.3c-7.6,1-14.2,5.2-15.9,10.1c-0.7,1.7-0.7,3.7,0.1,5.4
		c1.8,3.5,7.3,5.1,10.5,5.9l1.5,0.4c2.2,0.7,4.1,5.3,6.4,10.7c2.3,5.4,4.9,11.4,7.6,13c2,1.2,3.8,1.6,5.1,1.2c0.6-0.1,1.1-0.5,1.5-1
		c0-0.1,0.1-0.1,0.2-0.2c0.1-0.1,8-5.9,10.2-9.4c1.6-2.6,5.2-18.4,1.2-24.4c-1.1-1.7-3.2-2.5-5.2-2c-0.2,0-0.4-0.1-0.5-0.2
		C286.3,59.5,279.2,55.8,271.6,55.9z"/>
	<path class="st0" d="M259.9,85.1c0,0-5.8,7.8-4.8,9.5c1,1.7,4.7,0.8,4.7,0.8"/>
	<path class="st1" d="M257.8,96.2c-1.2,0.1-2.4-0.4-3.1-1.3c-1.1-1.9,3.4-8.2,4.8-10.1c0.2-0.2,0.5-0.3,0.7-0.1
		c0.2,0.2,0.3,0.5,0.1,0.7c-2.7,3.6-5.3,8-4.8,8.9c0.7,1.2,3.2,0.8,4.2,0.6c0.3-0.1,0.5,0.1,0.6,0.4c0.1,0.3-0.1,0.5-0.4,0.6
		C259.3,96.1,258.5,96.2,257.8,96.2z"/>
	<path class="st0" d="M261.7,74.5c-3.6,2.6-2.9,8.5-3.1,12.3c-0.3,5.4-0.4,10.7-0.4,16.1c0,3.4,8.8,4,10.4,3l-2.2,13.4l18.9-5.9
		l-0.1-11.2c0,0-6-0.3-9-7.4c-3-7.1-1.7-22.2-1.7-22.2S265.1,72,261.7,74.5z"/>
	<path class="st1" d="M266.3,119.9c-0.1,0-0.2,0-0.3-0.1c-0.1-0.1-0.2-0.3-0.2-0.5l2-12.5c-2.9,0.4-5.9,0-8.5-1.3
		c-1-0.5-1.7-1.4-1.8-2.5c0-5.4,0.2-10.8,0.4-16.1c0-0.6,0-1.3,0.1-2c0.1-3.7,0.1-8.3,3.3-10.6l0,0c3.6-2.6,12.7-2,13.1-2
		c0.1,0,0.3,0.1,0.4,0.2c0.1,0.1,0.1,0.2,0.1,0.4c0,0.2-1.3,15,1.6,21.9c2.9,6.7,8.4,7.1,8.6,7.1c0.3,0,0.5,0.2,0.5,0.5l0.1,11.2
		c0,0.2-0.1,0.4-0.4,0.5l-18.9,6L266.3,119.9z M268.5,105.5c0.1,0,0.2,0,0.3,0.1c0.2,0.1,0.2,0.3,0.2,0.5l-2,12.5l17.8-5.7
		l-0.1-10.3c-1.5-0.2-6.3-1.5-9-7.7c-2.8-6.5-2-19.1-1.7-21.9c-2-0.1-9.1-0.2-11.9,1.8c-2.8,2.1-2.8,6.3-2.9,9.8
		c0,0.7,0,1.5-0.1,2.1c-0.3,5.3-0.4,10.8-0.4,16.1c0,0.6,0.4,1.2,1.2,1.7c2.4,1.4,7.4,1.6,8.4,1
		C268.3,105.5,268.4,105.5,268.5,105.5z"/>
	<path class="st0" d="M258.5,99c2.2-0.2,4.4-0.7,6.4-1.4"/>
	<path class="st1" d="M258.5,99.5c-0.3,0-0.5-0.2-0.5-0.5c0-0.3,0.2-0.5,0.5-0.5c0,0,0,0,0,0c2.2-0.2,4.3-0.7,6.3-1.3
		c0.3-0.1,0.6,0.1,0.7,0.3s-0.1,0.6-0.3,0.7l0,0C263,98.9,260.8,99.3,258.5,99.5L258.5,99.5z"/>
	<path class="st0" d="M270,89.2c0.2-1.3,0.8-2.6,1.7-3.6c0.6-0.9,1.3-1.7,2.1-2.3c0.8-0.7,1.9-0.9,2.9-0.7c0.9,0.3,1.6,0.9,2,1.8
		c0.4,0.8,0.6,1.8,0.5,2.7c-0.1,4.1-2.3,7.9-5.9,9.9l0.3-0.3"/>
	<path class="st1" d="M273.3,97.4c-0.3,0-0.5-0.2-0.5-0.5c0-0.1,0.1-0.3,0.2-0.4l0.3-0.3l0.1,0.1c3.3-2,5.3-5.5,5.4-9.3
		c0-0.9-0.1-1.7-0.5-2.5c-0.3-0.7-0.9-1.3-1.7-1.5c-0.9-0.2-1.8,0.1-2.5,0.6c-0.8,0.6-1.5,1.4-2,2.2c-0.8,0.9-1.4,2.1-1.6,3.3
		c0,0.3-0.3,0.5-0.5,0.5c-0.3,0-0.5-0.3-0.5-0.5c0,0,0,0,0,0c0.2-1.4,0.9-2.8,1.8-3.9c0.6-0.9,1.3-1.7,2.2-2.4
		c0.9-0.8,2.2-1.1,3.4-0.8c1,0.3,1.9,1,2.3,2c0.4,0.9,0.6,1.9,0.6,2.9c-0.1,4.3-2.4,8.2-6.2,10.3C273.5,97.4,273.4,97.4,273.3,97.4z
		"/>
	<ellipse transform="matrix(0.1122 -0.9937 0.9937 0.1122 151.8198 332.0145)" class="st1" cx="261.7" cy="81" rx="1.9" ry="0.8"/>
	<path class="st0" d="M288.8,116.9l-1.2-6h-23.7l-3,8.6C270.2,121.5,280,120.6,288.8,116.9z"/>
	<path class="st1" d="M270.3,121c-3.3,0.1-6.5-0.3-9.7-1c-0.1,0-0.2-0.1-0.3-0.3c-0.1-0.1-0.1-0.3,0-0.4l3-8.6
		c0.1-0.2,0.3-0.3,0.5-0.3h23.7c0.2,0,0.4,0.2,0.5,0.4l1.2,6c0,0.2-0.1,0.5-0.3,0.6C283.1,119.8,276.7,121.1,270.3,121z
		 M261.4,119.1c9,1.8,18.3,0.9,26.8-2.6l-1.1-5.2h-23L261.4,119.1z"/>
	<path class="st3" d="M307.4,215.5c0,0,9-73.6-1.7-88.6c-10.7-15-36.9-17.5-49-7.8c-12.1,9.7-18.2,104.5-18.2,104.5
		S271.2,227.6,307.4,215.5z"/>
	<path class="st0" d="M165.7,179.9c1-2.9,10.9-5.7,14.1-5.7c2,0,7.6,2.4,11.2,4.1l0,0l34.4,3.6l18.6-32.3l16.8,19.1
		c0,0-12.6,30.6-18.3,32.7s-55-11.7-55-11.7l-11.4-3.2c-4.3,1.3-8.2-3-8.2-3.4c0-0.4-1.8,4.6-3.1,4.5
		C163.3,187.4,164.7,182.8,165.7,179.9z"/>
	<path class="st1" d="M240.8,202.1c-10.5,0-51.6-11.4-53.5-11.9l-11.3-3.1c-2.3,0.5-4.8,0-6.6-1.5c-0.6-0.4-1.1-0.9-1.6-1.4
		c-1,2.1-2,4.1-3.3,4c-0.3,0-0.6-0.2-0.8-0.5c-0.8-1.3,0.5-5.5,1.4-7.9l0,0c1.2-3.3,11.5-6,14.6-6c2.1,0,7.3,2.2,11.3,4.1l34,3.6
		l18.4-32c0.1-0.1,0.2-0.2,0.4-0.2c0.2,0,0.3,0,0.4,0.2l16.8,19.1c0.1,0.1,0.2,0.3,0.1,0.5c-0.5,1.3-12.7,30.9-18.6,32.9
		C242,202.1,241.4,202.1,240.8,202.1z M176,186h0.1l11.4,3.1c17,4.7,50.3,13.3,54.7,11.7c4.4-1.6,14.3-23.4,17.9-32.1l-16.1-18.3
		l-18.3,31.7c-0.1,0.2-0.3,0.3-0.5,0.3l-34.4-3.6c-0.1,0-0.1,0-0.2,0c-5.6-2.6-9.5-4.1-11-4.1c-3.3,0-12.7,2.9-13.6,5.3
		c-1.6,4.3-1.8,6.7-1.5,7c0.2,0,0.8-0.3,2.3-3.5c0.4-0.8,0.5-1.1,0.9-1c0.2,0.1,0.4,0.2,0.4,0.4c0.3,0.6,3.8,4.2,7.6,3H176z"/>
	<path class="st3" d="M256.7,119.1l-23.8,39.2l27.8,16.7l18.5-37.4C279.3,137.6,263.3,119.8,256.7,119.1z"/>
	<path class="st1" d="M244.5,226.2h14.2l16.9-76.1c2.6-11.7,13-20.1,25-20.1h30.6c14.1,0,25.6,11.5,25.6,25.6c0,1.7-0.2,3.4-0.5,5.1
		L338,250.6l-84.6-0.6h-28.1v-4.7C225.4,234.7,233.9,226.2,244.5,226.2z"/>
	<path class="st1" d="M338,251.1L338,251.1l-84.5-0.6h-28.1c-0.3,0-0.5-0.2-0.5-0.5v-4.7c0-10.8,8.8-19.6,19.6-19.6h13.8l16.8-75.7
		c2.6-12,13.2-20.5,25.5-20.5h30.6c14.4,0,26.1,11.7,26.1,26.1c0,1.8-0.2,3.5-0.5,5.2l-18.3,89.8C338.4,250.9,338.2,251.1,338,251.1
		z M225.9,249.5h27.5l84.1,0.6l18.3-89.4c2.8-13.6-6-26.9-19.6-29.6c-1.7-0.3-3.3-0.5-5-0.5h-30.7c-11.8,0-22,8.2-24.5,19.7
		l-16.9,76.1c-0.1,0.2-0.3,0.4-0.5,0.4h-14.2c-10.3,0-18.6,8.3-18.6,18.6V249.5z"/>
	<rect x="55.6" y="214.6" class="st0" width="117.5" height="36"/>
	<path class="st1" d="M173.2,251.1H55.6c-0.3,0-0.5-0.2-0.5-0.5v-36c0-0.3,0.2-0.5,0.5-0.5h117.5c0.3,0,0.5,0.2,0.5,0.5v36
		C173.7,250.8,173.4,251.1,173.2,251.1z M56.1,250.1h116.5v-35H56.1L56.1,250.1z"/>
	<rect x="173.2" y="214.6" class="st0" width="9.1" height="36"/>
	<path class="st1" d="M182.2,251.1h-9.1c-0.3,0-0.5-0.2-0.5-0.5v-36c0-0.3,0.2-0.5,0.5-0.5h9.1c0.3,0,0.5,0.2,0.5,0.5v36
		C182.8,250.8,182.5,251.1,182.2,251.1z M173.7,250.1h8.1v-35h-8.1V250.1z"/>
	<line class="st4" x1="109.3" y1="184.6" x2="84.3" y2="184.6"/>
	<path class="st1" d="M109.3,185.1h-25c-0.3,0-0.5-0.2-0.5-0.5c0-0.3,0.2-0.5,0.5-0.5h25c0.3,0,0.5,0.2,0.5,0.5
		C109.8,184.9,109.5,185.1,109.3,185.1z"/>
	<line class="st4" x1="109.3" y1="193.8" x2="77.4" y2="193.8"/>
	<path class="st1" d="M109.3,194.3H77.4c-0.3,0-0.5-0.2-0.5-0.5c0-0.3,0.2-0.5,0.5-0.5h31.9c0.3,0,0.5,0.2,0.5,0.5
		C109.8,194.1,109.5,194.3,109.3,194.3z"/>
	<path class="st1" d="M260.8,169.2c-0.1,0-0.2,0-0.2-0.1c-0.3-0.1-0.4-0.4-0.2-0.7c0,0,0,0,0,0c5.5-11.1,14.1-29.2,14-30.8
		c-0.1-0.3,0.1-0.5,0.4-0.6c0,0,0,0,0,0c0.3-0.1,0.6,0.1,0.6,0.4c0.5,1.8-10.6,24.5-14.1,31.5C261.1,169.1,261,169.2,260.8,169.2z"
		/>
	<path class="st0" d="M274.6,243.2h-0.1c-0.3,0-0.4-0.3-0.4-0.6c0,0,0,0,0,0c0.1-0.6,13.5-65.7,20.3-99.5c0-0.3,0.3-0.5,0.6-0.4
		c0,0,0,0,0,0c0.3,0.1,0.5,0.3,0.4,0.6c-6.8,33.8-20.1,98.9-20.3,99.5C275.1,243.1,274.9,243.2,274.6,243.2z"/>
	<path class="st2" d="M103.7,84c-0.3,0-0.5-0.2-0.5-0.5c0-0.3,0.2-0.5,0.5-0.5H114l0,0c0.3,0,0.5,0.2,0.5,0.5c0,0.3-0.2,0.5-0.5,0.5
		c0,0,0,0,0,0H103.7z"/>
	<path class="st3" d="M115.5,84c-0.3,0-0.5-0.2-0.5-0.5s0.2-0.5,0.5-0.5h30.7l0,0c0.3,0,0.5,0.2,0.5,0.5s-0.2,0.5-0.5,0.5H115.5z"/>
	<path class="st2" d="M101.3,88c-0.3,0-0.5-0.2-0.5-0.5s0.2-0.5,0.5-0.5h10.4l0,0c0.3,0,0.5,0.2,0.5,0.5c0,0.3-0.2,0.5-0.5,0.5
		H101.3L101.3,88z"/>
	<path class="st3" d="M113.7,88c-0.3,0-0.5-0.2-0.5-0.5s0.2-0.5,0.5-0.5h16.7l0,0c0.3,0,0.5,0.2,0.5,0.5c0,0.3-0.2,0.5-0.5,0.5
		C130.4,88,113.7,88,113.7,88z"/>
	<path class="st3" d="M136.8,87.9c-0.3,0-0.5-0.2-0.5-0.5s0.2-0.5,0.5-0.5h16.7l0,0c0.3,0,0.5,0.2,0.5,0.5s-0.2,0.5-0.5,0.5H136.8z"
		/>
	<path class="st2" d="M101.6,91.9c-0.3,0-0.5-0.2-0.5-0.5s0.2-0.5,0.5-0.5h10.4l0,0c0.3,0,0.5,0.2,0.5,0.5s-0.2,0.5-0.5,0.5H101.6z"
		/>
	<path class="st3" d="M116.2,91.9c-0.3,0-0.5-0.2-0.5-0.5s0.2-0.5,0.5-0.5h14.6l0,0c0.3,0,0.5,0.2,0.5,0.5c0,0.3-0.2,0.5-0.5,0.5
		H116.2L116.2,91.9z"/>
	<path class="st2" d="M133.2,91.9c-0.3,0-0.5-0.2-0.5-0.5c0-0.3,0.2-0.5,0.5-0.5h6l0,0c0.3,0,0.5,0.2,0.5,0.5s-0.2,0.5-0.5,0.5
		H133.2L133.2,91.9z"/>
	<path class="st2" d="M101.9,95.9c-0.3,0-0.5-0.2-0.5-0.5c0,0,0,0,0,0c0-0.3,0.2-0.5,0.5-0.5h10.4l0,0c0.3,0,0.5,0.2,0.5,0.5
		s-0.2,0.5-0.5,0.5H101.9z"/>
	<path class="st3" d="M115,95.9c-0.3,0-0.5-0.2-0.5-0.5c0-0.3,0.2-0.5,0.5-0.5h21.3l0,0c0.3,0,0.5,0.2,0.5,0.5
		c0,0.3-0.2,0.5-0.5,0.5H115z"/>
	<path class="st3" d="M138.8,95.8c-0.3,0-0.5-0.2-0.5-0.5s0.2-0.5,0.5-0.5h10.4l0,0c0.3,0,0.5,0.2,0.5,0.5s-0.2,0.5-0.5,0.5H138.8z"
		/>
	<path class="st2" d="M99.8,99.9c-0.3,0-0.5-0.2-0.5-0.5c0-0.3,0.2-0.5,0.5-0.5h5.5l0,0c0.3,0,0.5,0.2,0.5,0.5
		c0,0.3-0.2,0.5-0.5,0.5H99.8L99.8,99.9z"/>
	<path class="st3" d="M109.9,99.9c-0.3,0-0.5-0.2-0.5-0.5c0-0.3,0.2-0.5,0.5-0.5l24-0.1l0,0c0.3,0,0.5,0.2,0.5,0.5s-0.2,0.5-0.5,0.5
		C133.9,99.8,109.9,99.9,109.9,99.9z"/>
	<path class="st2" d="M100.2,103.8c-0.3,0-0.5-0.2-0.5-0.5c0-0.3,0.2-0.5,0.5-0.5h10.4l0,0c0.3,0,0.5,0.2,0.5,0.5
		c0,0.3-0.2,0.5-0.5,0.5H100.2z"/>
	<path class="st2" d="M102,107.8c-0.3,0-0.5-0.2-0.5-0.5s0.2-0.5,0.5-0.5h20.7l0,0c0.3,0,0.5,0.2,0.5,0.5s-0.2,0.5-0.5,0.5H102z"/>
	<path class="st3" d="M126.1,107.8c-0.3,0-0.5-0.2-0.5-0.5s0.2-0.5,0.5-0.5h14.4c0.3,0,0.5,0.2,0.5,0.5c0,0.3-0.2,0.5-0.5,0.5
		C140.5,107.8,126.1,107.8,126.1,107.8z"/>
	<path class="st3" d="M142.5,107.7c-0.3,0-0.5-0.2-0.5-0.5s0.2-0.5,0.5-0.5h17.8l0,0c0.3,0,0.5,0.2,0.5,0.5s-0.2,0.5-0.5,0.5H142.5
		L142.5,107.7z"/>
	<path class="st2" d="M103.3,111.8c-0.3,0-0.5-0.2-0.5-0.5s0.2-0.5,0.5-0.5l30.1-0.1l0,0c0.3,0,0.5,0.2,0.5,0.5s-0.2,0.5-0.5,0.5
		C133.4,111.7,103.3,111.8,103.3,111.8z"/>
	<path class="st3" d="M135.4,111.7c-0.3,0-0.5-0.2-0.5-0.5s0.2-0.5,0.5-0.5H149l0,0c0.3,0,0.5,0.2,0.5,0.5s-0.2,0.5-0.5,0.5H135.4z"
		/>
	<path class="st3" d="M151.2,111.7c-0.3,0-0.5-0.2-0.5-0.5s0.2-0.5,0.5-0.5l40.3-0.1l0,0c0.3,0,0.5,0.2,0.5,0.5s-0.2,0.5-0.5,0.5
		L151.2,111.7z"/>
	<path class="st2" d="M103.5,115.7c-0.3,0-0.5-0.2-0.5-0.5s0.2-0.5,0.5-0.5h14.2l0,0c0.3,0,0.5,0.2,0.5,0.5s-0.2,0.5-0.5,0.5H103.5z
		"/>
	<path class="st3" d="M120.5,115.7c-0.3,0-0.5-0.2-0.5-0.5s0.2-0.5,0.5-0.5H131l0,0c0.3,0,0.5,0.2,0.5,0.5s-0.2,0.5-0.5,0.5H120.5
		L120.5,115.7z"/>
	<path class="st3" d="M133.9,115.7c-0.3,0-0.5-0.2-0.5-0.5s0.2-0.5,0.5-0.5h10.5l0,0c0.3,0,0.5,0.2,0.5,0.5s-0.2,0.5-0.5,0.5H133.9z
		"/>
	<path class="st2" d="M103.8,119.7c-0.3,0-0.5-0.2-0.5-0.5s0.2-0.5,0.5-0.5H129l0,0c0.3,0,0.5,0.2,0.5,0.5c0,0.3-0.2,0.5-0.5,0.5
		H103.8L103.8,119.7z"/>
	<path class="st3" d="M132.1,119.6c-0.3,0-0.5-0.2-0.5-0.5s0.2-0.5,0.5-0.5h12.6l0,0c0.3,0,0.5,0.2,0.5,0.5s-0.2,0.5-0.5,0.5H132.1
		L132.1,119.6z"/>
	<path class="st2" d="M147.8,119.6c-0.3,0-0.5-0.2-0.5-0.5s0.2-0.5,0.5-0.5h19.2l0,0c0.3,0,0.5,0.2,0.5,0.5s-0.2,0.5-0.5,0.5H147.8z
		"/>
	<path class="st3" d="M169,119.6c-0.3,0-0.5-0.2-0.5-0.5s0.2-0.5,0.5-0.5h19.2c0.3,0,0.5,0.2,0.5,0.5c0,0,0,0,0,0
		c0,0.3-0.2,0.5-0.5,0.5H169z"/>
	<path class="st2" d="M110.5,123.6c-0.3,0-0.5-0.2-0.5-0.5s0.2-0.5,0.5-0.5h15l0,0c0.3,0,0.5,0.2,0.5,0.5s-0.2,0.5-0.5,0.5H110.5z"
		/>
	<path class="st3" d="M128.3,123.6c-0.3,0-0.5-0.2-0.5-0.5c0-0.3,0.2-0.5,0.5-0.5c0,0,0,0,0,0h15l0,0c0.3,0,0.5,0.2,0.5,0.5
		s-0.2,0.5-0.5,0.5H128.3L128.3,123.6z"/>
	<path class="st3" d="M146.3,123.6c-0.3,0-0.5-0.2-0.5-0.5s0.2-0.5,0.5-0.5h15l0,0c0.3,0,0.5,0.2,0.5,0.5s-0.2,0.5-0.5,0.5H146.3z"
		/>
	<path class="st3" d="M164.9,124c-0.3,0-0.5-0.2-0.5-0.5c0-0.3,0.2-0.5,0.5-0.5h15l0,0c0.3,0,0.5,0.2,0.5,0.5c0,0.3-0.2,0.5-0.5,0.5
		H164.9z"/>
	<path class="st2" d="M113.1,127.6c-0.3,0-0.5-0.2-0.5-0.5s0.2-0.5,0.5-0.5h10.4l0,0c0.3,0,0.5,0.2,0.5,0.5s-0.2,0.5-0.5,0.5H113.1z
		"/>
	<path class="st3" d="M125.9,127.6c-0.3,0-0.5-0.2-0.5-0.5c0-0.3,0.2-0.5,0.5-0.5c0,0,0,0,0,0h10.4l0,0c0.3,0,0.5,0.2,0.5,0.5
		c0,0.3-0.2,0.5-0.5,0.5H125.9z"/>
	<path class="st2" d="M160.2,127.9L160.2,127.9l-21.4-0.4c-0.3,0-0.5-0.2-0.5-0.5s0.2-0.5,0.5-0.5l0,0l21.4,0.4
		c0.3,0,0.5,0.2,0.5,0.5c0,0,0,0,0,0C160.7,127.7,160.4,127.9,160.2,127.9L160.2,127.9z"/>
	<path class="st2" d="M150.4,83.9c-0.3,0-0.5-0.2-0.5-0.5s0.2-0.5,0.5-0.5h14l0,0c0.3,0,0.5,0.2,0.5,0.5s-0.2,0.5-0.5,0.5H150.4z"/>
	<path class="st3" d="M173.6,83.9c-1.2,0.1-2.5,0-3.7-0.1c-0.3-0.1-0.4-0.4-0.3-0.6c0.1-0.3,0.3-0.4,0.6-0.4c0.6,0,9.8,0,15.9,0l0,0
		c0.3,0,0.5,0.2,0.5,0.5s-0.2,0.5-0.5,0.5C179.7,83.9,175.9,83.9,173.6,83.9z"/>
	<path class="st3" d="M136.6,99.8c-0.3,0-0.5-0.2-0.5-0.5c0-0.3,0.2-0.5,0.5-0.5h10.5l0,0c0.3,0,0.5,0.2,0.5,0.5
		c0,0.3-0.2,0.5-0.5,0.5H136.6L136.6,99.8z"/>
	<path class="st3" d="M115.7,103.8c-0.3,0-0.5-0.2-0.5-0.5c0-0.3,0.2-0.5,0.5-0.5h7.7c0.3,0,0.5,0.2,0.5,0.5c0,0.3-0.2,0.5-0.5,0.5
		c0,0,0,0,0,0H115.7z"/>
	<path class="st2" d="M126.3,103.8c-0.3,0-0.5-0.2-0.5-0.5s0.2-0.5,0.5-0.5h18.3l0,0c0.3,0,0.5,0.2,0.5,0.5c0,0.3-0.2,0.5-0.5,0.5
		c0,0,0,0,0,0H126.3L126.3,103.8z"/>
	<path class="st3" d="M148.3,103.8c-0.3,0-0.5-0.2-0.5-0.5s0.2-0.5,0.5-0.5l35.5-0.1l0,0c0.3,0,0.5,0.2,0.5,0.5s-0.2,0.5-0.5,0.5
		L148.3,103.8z"/>
	<path class="st2" d="M219.4,107.2c-0.1,0-0.3-0.1-0.4-0.2c-0.2-0.2-0.2-0.5,0.1-0.7c1.3-1.1,3.4-3.3,2.8-5.7
		c-0.5-1.3-1.3-2.4-2.4-3.2c-0.4-0.4-0.9-0.8-1.3-1.3c-2.9-3.4-3.3-8.2-0.9-12c0.2-0.2,0.5-0.3,0.7-0.1c0.2,0.2,0.2,0.4,0.1,0.6
		c-2.1,3.4-1.8,7.7,0.8,10.7c0.4,0.4,0.8,0.8,1.3,1.2c1.2,0.9,2.2,2.2,2.7,3.7c0.8,2.9-1.6,5.5-3,6.7
		C219.6,107.1,219.5,107.2,219.4,107.2z"/>
	<path class="st2" d="M233.2,106.1c-0.2,0-0.3-0.1-0.4-0.2c-0.2-0.2-0.1-0.5,0.1-0.7c0,0,0,0,0,0c1.2-0.8,1.6-2.4,1-3.8
		c-0.2-0.3-0.4-0.5-0.7-0.8l-0.3-0.3c-1.5-1.6-2.4-3.8-2.3-6.1c0-1.2,0.4-2.4,1.2-3.4c0.2-0.2,0.5-0.2,0.7,0c0,0,0,0,0,0
		c0.2,0.2,0.2,0.5,0,0.7c0,0,0,0,0,0c-0.6,0.7-1,1.7-0.9,2.7c0,2,0.7,3.9,2,5.4l0.3,0.3c0.3,0.3,0.6,0.6,0.8,0.9
		c1,1.8,0.4,4-1.2,5.1C233.4,106,233.3,106.1,233.2,106.1z"/>
	<path class="st2" d="M226.6,107.2c-0.2,0-0.3-0.1-0.4-0.2c-0.2-0.2-0.1-0.6,0.1-0.7c1-0.6,1.5-1.7,1.5-2.9
		c-0.2-1.3-0.7-2.5-1.6-3.6c-0.2-0.4-0.5-0.7-0.7-1.1c-2.3-4-2.4-8.9-0.3-13c0.1-0.2,0.4-0.3,0.7-0.2c0,0,0,0,0,0
		c0.2,0.1,0.3,0.4,0.2,0.7c-2,3.8-1.9,8.3,0.2,12c0.2,0.3,0.4,0.7,0.7,1c0.9,1.2,1.5,2.6,1.7,4.1c0,1.5-0.7,2.9-1.9,3.8
		C226.8,107.1,226.7,107.2,226.6,107.2z"/>
	<path class="st1" d="M233,125.3c-1.3,0-2.6-0.3-3.8-0.9c-0.3-0.1-0.4-0.4-0.2-0.7c0,0,0,0,0,0c0.1-0.3,0.4-0.4,0.7-0.3
		c3.7,1.7,6.8,0.4,8.3-1.6c1.1-1.3,1.1-3.2,0-4.5c-0.2-0.2-0.2-0.5,0-0.7c0,0,0,0,0,0c0.2-0.2,0.5-0.2,0.7,0c0,0,0,0,0,0
		c1.4,1.7,1.5,4.1,0.1,5.8C237.4,124.2,235.3,125.3,233,125.3z"/>
	<path class="st0" d="M220.4,130.7c-14.9,0-13.2-20.3-13.2-20.3h26.5C233.7,110.4,235.3,130.7,220.4,130.7z"/>
	<path class="st0" d="M220.4,131.2c-3.4,0.1-6.8-1.2-9.1-3.7c-5.5-5.9-4.7-16.7-4.6-17.1c0-0.3,0.2-0.5,0.5-0.5h26.5
		c0.3,0,0.5,0.2,0.5,0.5c0,0.5,0.8,11.2-4.6,17.1C227.2,130,223.9,131.3,220.4,131.2z M207.7,110.9c-0.1,2.1-0.1,11,4.4,15.9
		c4.6,4.6,12.1,4.6,16.7,0c4.6-4.9,4.5-13.8,4.4-15.9L207.7,110.9z"/>
	<path class="st0" d="M220.4,130.7c-14.9,0-13.2-20.3-13.2-20.3h26.5C233.7,110.4,235.3,130.7,220.4,130.7z"/>
	<path class="st2" d="M220.4,131.2c-3.4,0.1-6.8-1.2-9.1-3.7c-5.5-5.9-4.7-16.7-4.6-17.1c0-0.3,0.2-0.5,0.5-0.5h26.5
		c0.3,0,0.5,0.2,0.5,0.5c0,0.5,0.8,11.2-4.6,17.1C227.2,130,223.9,131.3,220.4,131.2z M207.7,110.9c-0.1,2.1-0.1,11,4.4,15.9
		c4.6,4.6,12.1,4.6,16.7,0c4.6-4.9,4.5-13.8,4.4-15.9L207.7,110.9z"/>
	<path class="st5" d="M220.4,130.7c-14.9,0-13.2-20.3-13.2-20.3h26.5C233.7,110.4,235.3,130.7,220.4,130.7z"/>
	<path class="st5" d="M220.4,131.2c-3.4,0.1-6.8-1.2-9.1-3.7c-5.5-5.9-4.7-16.7-4.6-17.1c0-0.3,0.2-0.5,0.5-0.5h26.5
		c0.3,0,0.5,0.2,0.5,0.5c0,0.5,0.8,11.2-4.6,17.1C227.2,130,223.9,131.3,220.4,131.2z M207.7,110.9c-0.1,2.1-0.1,11,4.4,15.9
		c4.6,4.6,12.1,4.6,16.7,0c4.6-4.9,4.5-13.8,4.4-15.9L207.7,110.9z"/>
	<path class="st0" d="M235.8,112.7c-0.8,1.3-3,5.8-0.4,6.5c1.6,0.4,2.3-1.1,2.9-2.2c0.5-1,0.7-2,0.9-3c1.1,1.3,0.6,7.1,3.1,7.6"/>
	<path class="st1" d="M242.3,121.9h-0.1c-2-0.4-2.4-3-2.8-5.2c0-0.3-0.1-0.6-0.1-0.9c-0.1,0.5-0.3,0.9-0.5,1.3l-0.1,0.3
		c-0.6,1-1.5,2.7-3.3,2.2c-0.6-0.1-1.2-0.6-1.4-1.2c-0.9-2.1,1.4-5.9,1.5-6.1c0.1-0.3,0.4-0.4,0.7-0.2c0.3,0.1,0.4,0.4,0.2,0.7
		c0,0,0,0,0,0.1c-0.9,1.4-1.9,4-1.4,5.1c0.1,0.3,0.4,0.5,0.7,0.6c1,0.2,1.5-0.5,2.2-1.7l0.2-0.3c0.3-0.6,0.5-1.3,0.6-1.9
		c0.1-0.3,0.1-0.6,0.2-1c0-0.2,0.2-0.3,0.4-0.4c0.2,0,0.4,0,0.5,0.2c0.5,0.9,0.8,2,0.9,3c0.3,1.8,0.7,4.1,1.9,4.4
		c0.3,0,0.5,0.3,0.4,0.6c0,0,0,0,0,0C242.8,121.7,242.5,121.9,242.3,121.9z"/>
	<path class="st2" d="M101.1,71.6c-0.3,0-0.5-0.2-0.5-0.5c0,0,0,0,0,0c0-0.3,0.2-0.5,0.5-0.5h10.4l0,0c0.3,0,0.5,0.2,0.5,0.5
		s-0.2,0.5-0.5,0.5H101.1z"/>
	<path class="st3" d="M114.2,71.6c-0.3,0-0.5-0.2-0.5-0.5s0.2-0.5,0.5-0.5h21.3l0,0c0.3,0,0.5,0.2,0.5,0.5s-0.2,0.5-0.5,0.5H114.2z"
		/>
	<path class="st3" d="M138,71.6c-0.3,0-0.5-0.2-0.5-0.5s0.2-0.5,0.5-0.5h10.4l0,0c0.3,0,0.5,0.2,0.5,0.5s-0.2,0.5-0.5,0.5H138z"/>
	<path class="st2" d="M99,75.6c-0.3,0-0.5-0.2-0.5-0.5c0-0.3,0.2-0.5,0.5-0.5h5.5l0,0c0.3,0,0.5,0.2,0.5,0.5c0,0.3-0.2,0.5-0.5,0.5
		H99L99,75.6z"/>
	<path class="st3" d="M109,75.6c-0.3,0-0.5-0.2-0.5-0.5c0-0.3,0.2-0.5,0.5-0.5l24-0.1l0,0c0.3,0,0.5,0.2,0.5,0.5s-0.2,0.5-0.5,0.5
		C133,75.5,109,75.6,109,75.6z"/>
	<path class="st2" d="M99.3,79.6c-0.3,0-0.5-0.2-0.5-0.5s0.2-0.5,0.5-0.5h10.4l0,0c0.3,0,0.5,0.2,0.5,0.5s-0.2,0.5-0.5,0.5H99.3z"/>
	<path class="st3" d="M135.8,75.5c-0.3,0-0.5-0.2-0.5-0.5s0.2-0.5,0.5-0.5h10.5l0,0c0.3,0,0.5,0.2,0.5,0.5s-0.2,0.5-0.5,0.5H135.8
		L135.8,75.5z"/>
	<path class="st3" d="M114.9,79.5c-0.3,0-0.5-0.2-0.5-0.5c0-0.3,0.2-0.5,0.5-0.5h7.7c0.3,0,0.5,0.2,0.5,0.5c0,0.3-0.2,0.5-0.5,0.5
		c0,0,0,0,0,0H114.9z"/>
	<path class="st2" d="M125.5,79.5c-0.3,0-0.5-0.2-0.5-0.5s0.2-0.5,0.5-0.5h18.3l0,0c0.3,0,0.5,0.2,0.5,0.5c0,0.3-0.2,0.5-0.5,0.5
		c0,0,0,0,0,0H125.5L125.5,79.5z"/>
</g>
</svg>
