<?xml version="1.0" encoding="UTF-8"?>
<svg id="Layer_1" xmlns="http://www.w3.org/2000/svg" version="1.1" viewBox="0 0 406 306">
  <!-- Generator: Adobe Illustrator 29.5.1, SVG Export Plug-In . SVG Version: 2.1.0 Build 141)  -->
  <g id="_32">
    <path d="M353.7,253.5H52.3c-.3,0-.5-.2-.5-.5,0-.3.2-.5.5-.5h301.4c.3,0,.5.2.5.5,0,.3-.2.5-.5.5Z" fill="#d1d3d4"/>
    <polygon points="98.4 277.2 94.4 277.2 102.5 155.4 109.2 155.4 98.4 277.2" fill="#fff"/>
    <path d="M98.5,277.7h-4.1c-.1,0-.2,0-.3-.1,0,0-.1-.2-.1-.3l8.1-121.8c0-.2.2-.4.5-.4h6.7c.1,0,.3,0,.3.2,0,0,.1.2.1.4l-10.8,121.8c0,.2-.2.4-.4.4ZM94.9,276.7h3l10.7-120.9h-5.8l-8,120.9Z" fill="#231f20"/>
    <polygon points="301 277.2 305 277.2 296.9 155.4 290.2 155.4 301 277.2" fill="#fff"/>
    <path d="M305,277.7h-4c-.2,0-.4-.2-.5-.4l-10.8-121.8c0-.1,0-.3.1-.4,0,0,.2-.2.3-.2h6.7c.2,0,.4.2.5.4l8.1,121.8c0,.3-.2.5-.4.5,0,0,0,0,0,0h0ZM301.4,276.7h3.1l-8-120.9h-5.8l10.7,120.9Z" fill="#231f20"/>
    <polygon points="205.9 277 211.6 277 228.4 202.5 220.4 202.5 205.9 277" fill="#fff"/>
    <path d="M211.6,277.4h-5.7c-.1,0-.3,0-.4-.2,0-.1-.1-.2-.1-.4l14.5-74.4c0-.2.2-.4.5-.4h8.1c.3,0,.5.2.5.5,0,0,0,0,0,0l-16.8,74.4c0,.2-.3.4-.5.4ZM206.4,276.5h4.8l16.6-73.5h-7.1l-14.3,73.5Z" fill="#231f20"/>
    <path d="M208.4,152.3s-44.3,15.6-49.6,24-7.9,83.6-7.9,83.6l24,2.5s6.5-68.5,9.9-71.6,60.8-34.9,60.8-34.9l-37.1-3.7Z" fill="#231f20"/>
    <path d="M174.8,262.9h0l-24-2.5c-.2,0-.4-.2-.4-.5.1-3,2.7-75.4,8-83.8s48.1-23.5,49.9-24.2c0,0,.1,0,.2,0l37.1,3.6c.2,0,.4.2.4.5,0,.1,0,.3-.2.3-.6.3-57.4,31.8-60.7,34.8-2.4,2.2-7.1,43.8-9.7,71.3,0,.2-.2.4-.4.4h0ZM151.2,259.5l23.1,2.4c.8-8.9,6.6-68.4,10-71.4,3.1-2.9,51-29.4,59.6-34.2l-35.5-3.5c-2.3.8-44.3,15.8-49.3,23.8s-7.6,76.9-7.9,82.9Z" fill="#231f20"/>
    <path d="M256.9,189.4c-1.1,0-57.2.5-57.2.5l26.5,59.7-23.4,9.5s-36.5-67.2-32.4-77.3,62.2-28.2,62.2-28.2l28.7,7.3s.8,28.5-4.5,28.5Z" fill="#231f20"/>
    <path d="M202.8,259.6c-.2,0-.3,0-.4-.2-1.5-2.8-36.6-67.5-32.4-77.6s60.1-27.7,62.5-28.4c0,0,.2,0,.2,0l28.7,7.3c.2,0,.3.2.3.4,0,1,.7,24-3.4,28.2-.4.4-1,.7-1.5.7l-56.5.5,26.2,59.1c0,.1,0,.2,0,.4,0,.1-.1.2-.2.2l-23.4,9.5c0,0-.1,0-.2,0ZM232.6,154.2c-3,.9-57.9,18.4-61.8,27.9-3.9,9.4,29.3,71.3,32.1,76.5l22.6-9.1-26.3-59.3c0-.1,0-.3,0-.4,0-.1.2-.2.4-.2.6,0,56.1-.6,57.2-.6.4,0,.7-.2.9-.5,3.5-3.6,3.2-24.3,3.1-27.2l-28.3-7.1Z" fill="#231f20"/>
    <path d="M196.7,121s-33.7-7.3-41.5-11.5c0,0-4.3-9.5-5.8-9.3s2.2,8.6,2.2,8.6c0,0-13.4-4.6-14.1-3.3s.7,1.8.7,1.8c0,0-1.8,0-1.5,1s.9.9.9.9c0,0-1.9.2-1.7,1.2s1.4,1,1.4,1c0,0-2.2-.2-1.3,1.2s12.4,5.5,19.1,8.5,47.4,21.8,47.4,21.8l-6-21.8Z" fill="#fff"/>
    <path d="M202.7,143.2c0,0-.1,0-.2,0-.4-.2-40.8-18.8-47.4-21.8-2.3-1-5.1-2.2-7.9-3.3-6.6-2.7-10.7-4.4-11.4-5.3-.3-.4-.4-.9-.2-1.3,0-.1.2-.3.3-.4-.2-.2-.3-.5-.3-.7,0-.3,0-.7.2-.9.2-.3.5-.4.8-.6-.1-.2-.2-.4-.2-.6,0-.4,0-.7.2-1,.2-.2.4-.3.6-.4,0,0-.1-.2-.2-.3-.2-.5-.1-1,.2-1.4.7-1.3,7.6.7,13.7,2.8-1-2.3-2.7-6.7-2-7.8.1-.2.3-.4.6-.4,1.6-.2,4.5,5.7,6.2,9.4,7.9,4.2,40.9,11.3,41.2,11.4.2,0,.3.2.3.3l6,21.8c0,.2,0,.4-.2.5,0,0-.2,0-.3,0ZM136.4,111.9c0,.1,0,.2.2.3.5.8,6.3,3.1,11,5,2.8,1.1,5.6,2.3,7.9,3.3,6.1,2.7,40.5,18.6,46.5,21.3l-5.6-20.5c-3.5-.8-33.8-7.4-41.3-11.5,0,0-.2-.1-.2-.2-1.9-4.1-4.3-8.6-5.2-9-.2.8,1.1,4.6,2.5,7.9,0,.2,0,.4,0,.5-.1.1-.3.2-.5.1-5.9-2-12.8-4-13.6-3.5,0,.2-.1.4,0,.6.1.2.3.4.6.5.2,0,.4.3.3.5,0,.2-.2.4-.5.4-.4,0-.7,0-1,.2,0,0,0,0,0,.2.1.4.3.6.4.6h0c.2,0,.5.1.5.4,0,.2-.1.5-.3.5h-.2c-.4,0-.8.2-1.1.5,0,0,0,.1,0,.2.1.4.4.6.8.6h.2c.2,0,.4.2.4.5,0,.3-.3.5-.6.4-.3,0-.6,0-.9.2h0Z" fill="#231f20"/>
    <ellipse cx="221.3" cy="57.2" rx="6.3" ry="7.7" fill="#231f20"/>
    <path d="M221.3,65.4c-3.7,0-6.7-3.7-6.7-8.1s3-8.1,6.7-8.1,6.8,3.7,6.8,8.1-3,8.1-6.8,8.1ZM221.3,50c-3.2,0-5.9,3.3-5.9,7.3s2.6,7.3,5.9,7.3,5.9-3.3,5.9-7.3-2.6-7.3-5.9-7.3Z" fill="#231f20"/>
    <path d="M270.6,89.3c-2.3-2.4-5.3-4.9-5.1-8.1,0-1.1.5-2.2.6-3.4.3-3.2-2.2-6.1-4.9-8s-5.7-3.6-7.3-6.4c-3-5.1-1-11.5-3.6-16.8-2.4-5-7.1-8.7-12.6-9.8-4.1-.8-9-.6-12.5,2-3.5,2.5-5.8,6.3-6.5,10.6-.5,3.5.1,7,.4,10.4s.1,7.2-1.8,10.1-5.1,4.6-7.9,6.5c-4.8,3.3-8.1,11.4-5.5,16.7,3.4,6.9,10.1,11.5,16.5,15.4,10,6.2,21.2,11.7,33,13.6,5,.8,10.3.9,15-1.1,12.6-5.6,10.2-23.4,2.2-31.8Z" fill="#fff"/>
    <path d="M259.7,123.2c-2.1,0-4.2-.2-6.3-.5-10.1-1.6-20.6-5.9-33.1-13.6-6.2-3.8-13.2-8.5-16.7-15.6-2.8-5.7.7-13.9,5.6-17.3.5-.4,1.1-.7,1.7-1.1,2.3-1.5,4.6-3,6.1-5.3,1.9-3,1.9-7.1,1.7-9.9,0-.8-.1-1.7-.2-2.5-.4-2.7-.4-5.4-.1-8,.7-4.4,3.1-8.3,6.7-10.9,3-2.3,7.8-3,12.9-2,5.6,1.1,10.4,4.8,12.9,10,1.3,2.6,1.5,5.5,1.7,8.3.2,3,.4,5.9,1.9,8.5,1.2,2.1,3.4,3.6,5.5,5.1.6.4,1.2.8,1.7,1.2,2.5,1.8,5.4,4.8,5.1,8.4,0,.6-.2,1.1-.3,1.6-.2.6-.2,1.1-.3,1.7-.2,2.6,1.9,4.7,4,6.8.3.3.7.7,1,1h0c5.2,5.5,7.8,14.3,6.4,21.4-.9,4.9-4.2,9.1-8.8,11.1-2.8,1.2-5.9,1.8-8.9,1.7ZM233.5,36.9c-2.8-.1-5.6.7-8,2.3-3.4,2.5-5.6,6.2-6.3,10.3-.3,2.6-.2,5.2.1,7.8,0,.8.2,1.7.2,2.5.2,2.9.3,7.1-1.8,10.4-1.6,2.5-4,4.1-6.4,5.6-.6.4-1.1.7-1.7,1.1-4.5,3-7.9,10.9-5.3,16.1,3.4,6.9,10.2,11.5,16.3,15.2,12.4,7.6,22.8,11.9,32.8,13.5,6.1,1,10.9.6,14.7-1.1,4.3-1.9,7.4-5.8,8.2-10.4,1.4-6.9-1.1-15.4-6.1-20.6-.3-.3-.6-.7-1-1-2-2-4.4-4.4-4.3-7.5,0-.6.2-1.3.3-1.9.1-.5.2-1,.3-1.5.3-3.2-2.4-5.9-4.7-7.6-.6-.4-1.1-.8-1.7-1.2-2.2-1.5-4.4-3-5.7-5.3-1.6-2.7-1.8-5.8-2-8.9-.2-2.7-.4-5.5-1.6-8-2.4-4.9-6.9-8.4-12.3-9.5-1.4-.3-2.7-.4-4.1-.4h0Z" fill="#231f20"/>
    <path d="M212.3,90.7l-20.1,27.3s1.1,3.6,10.5,24.7c8.3-4.1,21.4-26.6,21.4-26.6l-11.8-25.4Z" fill="#7cee32"/>
    <path d="M234,80.5s-18.2,2-22.5,10.8-3.1,61-3.1,61l58.6,1.3s-.3-56.8-7.8-70.5c-2.8-2.8-7.8-3.6-25.1-2.7Z" fill="#7cee32"/>
    <path d="M228.7,74.3v10.6c0,0,1,5.9,7.5,4.1,3.9-1.1,7-3.9,8.6-7.6l-.7-18.4c-.8-3.2-1.2-6.5-1-9.9-7.9-.1-14-6.1-14-6.1,0,0-2.7,4.1-3.9,5.3-.9,1-1.8,2-2.4,3.2-1.1,2-1,4.6-1,6.9,0,2.7.3,5.4.8,8,1,5,6.2,3.8,6.2,3.8Z" fill="#fff"/>
    <path d="M233.9,89.9c-1.1,0-2.1-.3-3-.8-1.4-1-2.4-2.4-2.7-4.1v-10.1c-1.4.2-2.8,0-4-.8-1.2-.8-2-2-2.2-3.4-.5-2.7-.8-5.4-.8-8.1,0-2.2-.1-4.9,1-7.1.7-1.2,1.5-2.3,2.5-3.3,1.1-1.2,3.8-5.2,3.8-5.3.1-.2.4-.3.6-.1,0,0,0,0,0,0,0,0,6.2,5.8,13.7,5.9.1,0,.2,0,.3.1,0,0,.1.2.1.3-.2,3,.1,6,.9,8.9,0,.3.1.6.2.9h0s0,.3.7,18.4c0,0,0,.1,0,.2-1.6,3.9-4.9,6.8-8.9,7.9-.8.2-1.6.4-2.4.4ZM229.1,84.9c.5,2.7,3.2,4.5,6,4,.3,0,.7-.2,1-.3,3.7-1.1,6.7-3.7,8.3-7.3,0-1.4-.7-18.2-.7-18.3,0-.3,0-.5-.2-.7-.7-2.8-1-5.8-.9-8.7-6.7-.3-12-4.5-13.5-5.8-1.1,1.7-2.3,3.4-3.6,4.9-.9.9-1.7,2-2.4,3.1-1,2-1,4.4-.9,6.6,0,2.7.3,5.3.8,7.9.2,1.2.8,2.2,1.8,2.9,1.2.6,2.6.8,3.9.6.1,0,.3,0,.4,0,.1,0,.2.2.2.4v10.6c0,0,0,0,0,0Z" fill="#231f20"/>
    <path d="M228.7,79.5s4.3.2,7.1-2.7c1.6-1.5,2.5-3.6,2.4-5.8,0,0-4.7,3.1-9.5,3.2v5.2Z" fill="#231f20"/>
    <path d="M228.9,80h-.2c-.2,0-.4-.2-.4-.4v-5.2c0-.2.1-.4.4-.5,4.7-.1,9.2-3.1,9.3-3.2.1,0,.3,0,.4,0,.1,0,.2.2.3.3.1,2.3-.8,4.6-2.5,6.2-2,1.8-4.5,2.8-7.2,2.8ZM229.1,74.7v4.3c2.4,0,4.6-.9,6.4-2.5,1.3-1.2,2.1-2.9,2.2-4.7-2.6,1.6-5.6,2.6-8.6,2.9Z" fill="#231f20"/>
    <path d="M232.4,59s-3.4,5.1-2.6,6,3.1.3,3.1.3" fill="#fff"/>
    <path d="M231.4,66c-.7,0-1.4-.2-1.9-.6-.9-1,1.2-4.5,2.6-6.5.1-.2.4-.3.6-.1.2.1.3.4.1.6-1.6,2.4-2.9,5-2.6,5.5.4.5,1.9.4,2.6.2.3,0,.5.2.5.4,0,.2,0,.4-.3.5-.5.1-1.1.2-1.6.2Z" fill="#231f20"/>
    <ellipse cx="227.6" cy="58.1" rx="1.1" ry=".6" transform="translate(160.6 283.3) rotate(-87.7)" fill="#231f20"/>
    <ellipse cx="235.7" cy="57.1" rx="1.1" ry=".6" transform="translate(169.4 290.4) rotate(-87.7)" fill="#231f20"/>
    <ellipse cx="246.1" cy="58.7" rx="6.3" ry="7.7" fill="#231f20"/>
    <path d="M246.1,66.9c-3.7,0-6.7-3.7-6.7-8.1s3-8.1,6.7-8.1,6.8,3.7,6.8,8.1-3,8.1-6.8,8.1ZM246.1,51.5c-3.2,0-5.9,3.3-5.9,7.3s2.6,7.3,5.9,7.3,5.9-3.3,5.9-7.3-2.6-7.2-5.9-7.2h0Z" fill="#231f20"/>
    <path d="M244.3,52.7c-1.1-5.4-3.3-10.4-6.4-14.9,1.5.3,3,.8,4.4,1.5,0,0,5.2,7.3,6.1,15.5l-4-2.1Z" fill="#231f20"/>
    <path d="M248.3,55.2c0,0-.1,0-.2,0l-4-2.1c-.1,0-.2-.2-.2-.3-1.1-5.3-3.3-10.3-6.3-14.8,0-.2,0-.3,0-.5,0-.2.3-.2.4-.2,1.6.3,3.1.8,4.5,1.6,0,0,.1,0,.2.1.2.3,5.3,7.5,6.1,15.7,0,.2,0,.3-.2.4,0,0-.1,0-.2,0ZM244.7,52.4l3,1.6c-1-7.2-5.2-13.6-5.8-14.4-1-.5-2-.9-3-1.2,2.7,4.3,4.7,9,5.8,13.9Z" fill="#231f20"/>
    <path d="M244.2,64.9c-.1,0-.2,0-.3-.1-2-1.9-3-3.9-2.9-6,.2-2.2,1.3-4.3,3-5.7.2-.2.5-.1.6,0,.2.2.1.5,0,.6-1.5,1.3-2.5,3.1-2.7,5.1,0,1.8.8,3.6,2.6,5.3.2.2.2.5,0,.6,0,0-.2.1-.3.1Z" fill="#fff"/>
    <path d="M230.1,68l2.7-.7s.6,4-1,4.3-1.7-3.6-1.7-3.6Z" fill="#fff"/>
    <path d="M231.7,72.1c-.3,0-.5,0-.7-.3-1.1-.8-1.2-3.5-1.3-3.8,0-.2.1-.4.3-.5l2.7-.7c.1,0,.3,0,.4,0,.1,0,.2.2.2.3.1.7.5,4.4-1.3,4.8,0,0-.2,0-.3,0ZM230.6,68.4c0,1,.4,2.4.9,2.8,0,0,.2,0,.3,0,.7-.2.8-1.9.7-3.3l-1.8.5Z" fill="#231f20"/>
    <path d="M208.2,141.4h-.1c-.2,0-.4-.3-.3-.5l9.9-45.5c0-.2.3-.4.5-.3.2,0,.4.3.3.5l-9.9,45.5c0,.2-.2.3-.4.3Z" fill="#231f20"/>
    <path d="M204.1,190.3v.8c0,6.3,5.1,11.5,11.5,11.5h56.6c6.3,0,11.5-5.1,11.5-11.5h0v-79.2c0-8.4-14.7-10-18.9-9.5v49.6s-20.3-3-28.5,10c-4.7,7.5-5.3,27.6-5.3,27.6l-26.8.5Z" fill="#fff"/>
    <path d="M272.2,203h-56.6c-6.6,0-11.9-5.3-11.9-11.9v-.8c0-.3.2-.5.4-.5l26.4-.5c.1-3,.9-20.4,5.4-27.4,7.5-11.9,25.2-10.7,28.5-10.3v-49.1c0-.2.2-.4.4-.5,3-.4,12.1.3,16.7,4.4,1.7,1.4,2.7,3.4,2.7,5.6v79.2c0,6.6-5.4,11.9-12,11.9ZM204.6,190.7v.3c0,6.1,4.9,11,11,11h56.6c6.1,0,11-4.9,11-11v-79.2c0-1.9-.9-3.7-2.4-4.9-4.2-3.6-12.4-4.4-15.6-4.2v49.2c0,.1,0,.3-.2.4,0,0-.2.1-.4.1-.2,0-20.2-2.8-28.1,9.8-4.6,7.3-5.2,27.2-5.2,27.4,0,.2-.2.5-.5.5l-26.3.5Z" fill="#231f20"/>
    <path d="M259.1,83.2s18,36,24,44.3,5.3,20.1,5.3,20.1l-17.9-1.3s-16.4-26.6-21-33.3l9.6-29.8Z" fill="#7cee32"/>
    <path d="M288.4,147.6s-6.4-11.7-14.8-13.1-43.2,3.3-43.2,3.3c0,0-5.3-2.2-7.5-1.1s-12,6.7-10.6,8.6,4.7-.8,7,0,7.3.6,10.6.8,58.9,5.3,58.6,1.4Z" fill="#fff"/>
    <path d="M277.7,149.5c-11.6,0-30.4-1.4-47-2.8h-.9c-1.1-.2-2.4-.2-3.7-.2-2.7,0-5.4-.1-7-.7-1-.2-2.1,0-3,.3-1.5.4-3.2.9-4.1-.5-.2-.3-.3-.7-.2-1,.7-2.9,10.8-8.2,10.9-8.3,2.2-1.1,7,.7,7.8,1,2.6-.4,35.1-4.7,43.2-3.3,8.5,1.4,14.8,12.9,15.1,13.3,0,0,0,.1,0,.2,0,.3,0,.5-.3.7-.9.9-5,1.2-10.9,1.2ZM218.2,144.7c.4,0,.8,0,1.1.2,1.4.5,4.1.6,6.7.6,1.4,0,2.7,0,3.8.2h.9c40.5,3.6,56,3.3,57.1,1.9-.8-1.4-6.8-11.5-14.4-12.7-8.2-1.4-42.7,3.3-43.1,3.3,0,0-.2,0-.2,0-1.4-.6-5.5-2-7.1-1.1-2.8,1.4-9.9,5.7-10.5,7.6,0,0,0,.2,0,.3.5.8,1.6.6,3.1.1.8-.3,1.6-.4,2.5-.5Z" fill="#231f20"/>
    <path d="M262,131.9c-.2,0-.3-.1-.4-.3l-12.3-26.8c-.1-.2,0-.5.1-.6s.5,0,.6.1c0,0,0,0,0,.1l12.3,26.8c.1.2,0,.5-.2.6,0,0-.1,0-.2,0Z" fill="#231f20"/>
    <path d="M179.4,208.8c-.2,0-.3-.1-.4-.3-1.2-2.6-11.5-25.7-8.9-29.2s41.2-19.1,42.9-19.8c.2,0,.5,0,.6.2,0,.2,0,.5-.3.6-11.2,4.5-40.5,16.8-42.5,19.5-1.7,2.3,4.4,18.2,9,28.3.1.2,0,.5-.2.6,0,0-.1,0-.2,0Z" fill="#fff"/>
    <path d="M226.2,249.7s4.9,9.3,4.2,9.9-36.1,17.7-34.8,14.3,7.2-14.7,7.2-14.7" fill="#fff"/>
    <path d="M196,274.7c-.2,0-.4,0-.6-.1-.3-.2-.4-.6-.2-.9,1.3-3.3,6.9-14.3,7.2-14.7.1-.2.4-.3.6-.2,0,0,0,0,0,0,.2.1.3.4.2.6,0,0,0,0,0,0,0,.1-5.7,11-7.1,14.5h0c3.6,0,31.3-13.1,33.8-14.6,0-1-2.1-5.4-4.2-9.3-.1-.2,0-.5.2-.6.2-.1.5,0,.6.2,5.1,9.6,4.4,10.2,4.1,10.4s-29.7,14.8-34.7,14.8Z" fill="#231f20"/>
    <path d="M174.8,262.4l-1.7,12.2s-40,1.3-38.5-.6,16.2-14.1,16.2-14.1" fill="#fff"/>
    <path d="M149.4,275.5c-8.2,0-14.8-.3-15.2-1.1-.1-.2,0-.5,0-.6,1.5-1.9,15.6-13.7,16.2-14.2.2-.1.5,0,.6.1.1.2.1.4,0,.6-.1.1-13.4,11.2-15.8,13.8,3,.9,24.1.5,37.5.1l1.6-11.8c0-.3.3-.4.5-.4.2,0,.4.3.4.5l-1.7,12.2c0,.2-.2.4-.4.4-6.9.2-16,.5-23.7.5Z" fill="#231f20"/>
    <polygon points="285.9 277 280.2 277 263.3 202.5 271.4 202.5 285.9 277" fill="#fff"/>
    <path d="M285.9,277.4h-5.8c-.2,0-.4-.1-.4-.4l-16.8-74.4c0-.3.1-.5.4-.6,0,0,0,0,0,0h8.1c.2,0,.4.2.5.4l14.4,74.4c0,.2-.1.5-.4.5,0,0,0,0-.1,0h0ZM280.5,276.5h4.8l-14.3-73.5h-7.1l16.6,73.5Z" fill="#231f20"/>
    <path d="M270.8,235.6c0,0-.2,0-.2,0l-44.1-25.4c-.2-.1-.3-.4-.2-.6.1-.2.4-.3.6-.2,0,0,0,0,0,0l44.1,25.4c.2.1.3.4.2.6,0,0,0,0,0,0,0,.1-.2.2-.4.2Z" fill="#231f20"/>
    <path d="M221.2,235.6c-.3,0-.5-.2-.5-.4,0-.2,0-.3.2-.4l44.1-25.4c.2-.1.5,0,.6.2,0,0,0,0,0,0,.1.2,0,.5-.2.6l-44.1,25.4c0,0-.2,0-.2,0Z" fill="#231f20"/>
    <path d="M82.1,147h235.3c2.4,0,4.3,1.9,4.3,4.3h0c0,2.4-1.9,4.3-4.3,4.3H82.1c-2.4,0-4.3-1.9-4.3-4.3h0c0-2.4,1.9-4.3,4.3-4.3Z" fill="#fff"/>
    <path d="M317.3,156H82.1c-2.6,0-4.8-2.1-4.8-4.8s2.1-4.8,4.8-4.8h235.3c2.6,0,4.8,2.1,4.8,4.8s-2.1,4.8-4.8,4.8ZM82.1,147.5c-2.1-.1-3.9,1.5-4,3.6-.1,2.1,1.5,3.9,3.6,4,.1,0,.3,0,.4,0h235.3c2.1-.1,3.7-1.9,3.6-4-.1-2-1.7-3.5-3.6-3.6H82.1Z" fill="#231f20"/>
    <path d="M191,81.5l5.7-1.9c2.1-.7,4.3.4,5,2.5l.7,2.1c.7,2.1-.4,4.3-2.5,5l-5.7,1.9h0l-3.2-9.6h0Z" fill="#fff"/>
    <path d="M194.2,91.6c-.2,0-.4-.1-.4-.3l-3.2-9.7c0-.1,0-.2,0-.3,0-.1.1-.2.3-.2l5.7-1.9c2.3-.8,4.9.4,5.7,2.8,0,0,0,0,0,0l.7,2.1c.8,2.3-.5,4.8-2.8,5.6,0,0,0,0,0,0h0l-5.7,1.9h-.1ZM191.5,81.8l2.9,8.8,5.2-1.8c1.8-.6,2.8-2.6,2.2-4.4,0,0,0,0,0,0l-.7-2.1c-.6-1.8-2.6-2.8-4.4-2.2,0,0,0,0,0,0l-5.2,1.7ZM199.9,89.2h0Z" fill="#231f20"/>
    <path d="M174.9,86.5l16-5.3h0l3.4,10.2h0l-16,5.3c-2.7.9-5.5-.6-6.4-3.2l-.2-.5c-.9-2.6.5-5.5,3.1-6.5,0,0,0,0,0,0Z" fill="#231f20"/>
    <path d="M176.6,97.4c-2.4,0-4.5-1.5-5.3-3.8l-.2-.5c-1-2.9.6-6.1,3.5-7,0,0,0,0,0,0h0l16-5.3c.2,0,.5,0,.6.3,0,0,0,0,0,0l3.4,10.1c0,.1,0,.2,0,.3,0,.1-.1.2-.3.2l-16,5.4c-.6.2-1.2.3-1.8.3ZM175,87c-2.4.8-3.8,3.5-2.9,5.9,0,0,0,0,0,0l.2.5c.8,2.4,3.4,3.8,5.9,3,0,0,0,0,0,0l15.6-5.3-3.1-9.3-15.6,5.3Z" fill="#231f20"/>
    <polygon points="171.6 92.8 169.7 93.6 170.4 95.6 172.6 94.8 171.6 92.8" fill="#231f20"/>
    <path d="M170.4,96.1c-.2,0-.4-.1-.4-.3l-.8-2c0-.2,0-.5.3-.6,0,0,0,0,0,0l2-.8c.2,0,.5,0,.6.2l1,2c0,.1,0,.3,0,.4,0,.1-.1.2-.3.2l-2.2.8h-.1ZM170.2,93.8l.5,1.2,1.3-.5-.6-1.2-1.2.5Z" fill="#231f20"/>
    <path d="M175.6,144.1h16.8c1.4,0,2.5,1.1,2.5,2.5v.5h-21.7v-.5c0-1.4,1.1-2.5,2.4-2.5Z" fill="#fff"/>
    <path d="M194.9,147.5h-21.7c-.3,0-.5-.2-.5-.4,0,0,0,0,0,0v-.5c0-1.6,1.3-2.9,2.9-2.9h16.8c1.6,0,2.9,1.3,2.9,2.9v.5c0,.3-.2.5-.5.5,0,0,0,0,0,0ZM173.6,146.6h20.8c0-1.1-.9-2-2-2h-16.8c-1.1,0-2,.9-2,2Z" fill="#231f20"/>
    <path d="M184,89.1h0c1.3,0,2.3,1,2.3,2.3h0v52.7h-4.6v-52.7c0-1.3,1-2.3,2.3-2.3h0Z" fill="#fff"/>
    <path d="M186.3,144.6h-4.6c-.3,0-.5-.2-.5-.5h0v-52.7c0-1.5,1.1-2.8,2.6-2.9,1.5,0,2.8,1.1,2.9,2.6,0,.1,0,.2,0,.3v52.7c0,.3-.2.5-.4.5,0,0,0,0,0,0ZM182.1,143.7h3.7v-52.2c0-1-.8-1.8-1.8-1.8-1,0-1.8.8-1.8,1.8v52.2Z" fill="#231f20"/>
    <path d="M186.4,130.5c-.1,0-.2,0-.3-.1-.2-.2-.2-.5,0-.6,0,0,0,0,0,0,2.1-1.7,3.5-4.3,3.7-7,0-1.9-.7-3.7-2-5-1.8-1.6-3.9-2.8-6.2-3.5-.9-.3-1.8-.5-2.7-.8-1.5-.4-3-.9-4.4-1.4-2.4-1-5.6-2.8-7-6.2-1.6-3.7-1.2-7.9,1.1-11.3.1-.2.4-.2.6-.1.2.1.2.4.1.6-2.1,3.1-2.5,7-1,10.4,1.3,3.1,4.3,4.9,6.5,5.8,1.4.5,2.9,1,4.3,1.4.9.3,1.8.5,2.7.8,2.4.7,4.7,2,6.5,3.7,1.5,1.5,2.3,3.5,2.3,5.6-.3,3-1.7,5.7-4.1,7.6,0,0-.1,0-.2.1Z" fill="#231f20"/>
    <path d="M92.2,115.2h39.3c1,0,1.9.7,2.2,1.7l7.3,26.5h25.5c.9,0,1.7.6,1.7,1.5,0,.9-.6,1.7-1.5,1.7,0,0-.2,0-.3,0h-66.9c-1,0-2-.7-2.2-1.7l-7.4-26.8c-.3-1.2.4-2.5,1.6-2.8.2,0,.4,0,.6,0Z" fill="#231f20"/>
    <path d="M166.5,147.1h-66.9c-1.2,0-2.3-.8-2.7-2l-7.4-26.8c-.4-1.5.4-3,1.9-3.4.2,0,.5-.1.8-.1h39.3c1.2,0,2.3.8,2.6,2l7.2,26.2h25.2c1.1,0,2.1.9,2.1,2.1s-.9,2.1-2.1,2.1h0ZM92.2,115.6c-.6,0-1.1.3-1.5.7-.4.5-.5,1.1-.3,1.6l7.3,26.9c.2.8,1,1.4,1.8,1.4h66.9c.6,0,1.2-.5,1.2-1.2s-.5-1.2-1.2-1.2h-25.5c-.2,0-.4-.1-.4-.3l-7.3-26.5c-.2-.8-1-1.4-1.8-1.4h-39.3Z" fill="#231f20"/>
    <path d="M139.8,143.6h-39.3c-.3,0-.5-.2-.5-.5s.2-.5.5-.5h39.3c.3,0,.5.2.5.5s-.2.5-.5.5h0Z" fill="#fff"/>
    <path d="M135.7,77.4h-59.9c-2.3,0-4.1-1.9-4.1-4.1h0v-22.9c0-2.3,1.9-4.1,4.1-4.1h59.9c2.3,0,4.1,1.9,4.1,4.1h0v22.9c0,2.3-1.9,4.1-4.1,4.1ZM75.8,47.2c-1.7,0-3.1,1.4-3.1,3.1v22.9c0,1.7,1.4,3.1,3.1,3.1h59.9c1.7,0,3.1-1.4,3.1-3.1h0v-22.9c0-1.7-1.4-3.1-3.1-3.1h-59.9Z" display="none" fill="#d1d3d4"/>
    <path d="M82.7,61.8c0-.7.1-1.4.4-2,.2-.6.6-1.1,1-1.5.4-.4,1-.8,1.6-1,1.3-.4,2.7-.4,3.9,0,.6.2,1.1.6,1.6,1,.4.4.8.9,1,1.5.5,1.3.5,2.7,0,4-.2.6-.6,1.1-1,1.5-.5.4-1,.8-1.6,1-1.3.4-2.7.4-3.9,0-.6-.2-1.1-.5-1.6-1-.4-.4-.8-.9-1-1.5-.2-.6-.4-1.3-.4-1.9ZM84.8,61.8c0,.4,0,.8.2,1.2.1.3.3.7.6.9.3.3.6.5.9.6.7.3,1.6.3,2.3,0,.3-.1.6-.3.9-.6.3-.3.5-.6.6-.9.1-.4.2-.8.2-1.2,0-.4,0-.8-.2-1.1-.1-.3-.3-.7-.6-.9-.3-.3-.6-.5-.9-.6-.7-.3-1.6-.3-2.3,0-.3.1-.6.3-.9.6-.3.3-.4.6-.6.9-.1.4-.2.7-.2,1.1Z" display="none" fill="#d1d3d4"/>
    <path d="M93.9,57.2h2.7l3.9,6.3h0v-6.3h2v9.1h-2.6l-4-6.5h0v6.5h-2v-9.1Z" display="none" fill="#d1d3d4"/>
    <path d="M111.1,57.2h1.7l4,9.1h-2.3l-.8-1.9h-3.5l-.8,1.9h-2.2l3.9-9.1ZM111.9,59.9l-1.1,2.8h2.2l-1.1-2.8Z" display="none" fill="#d1d3d4"/>
    <path d="M117.6,57.2h2v9.1h-2v-9.1Z" display="none" fill="#d1d3d4"/>
    <path d="M121.5,57.2h3.5c.4,0,.9,0,1.3.1.4,0,.8.2,1.1.5.3.2.6.5.8.8.2.4.3.9.3,1.3,0,.6-.2,1.2-.5,1.6-.4.5-.9.8-1.5.9l2.3,3.8h-2.4l-1.9-3.6h-1v3.6h-2v-9.1ZM123.5,61h1.2c.2,0,.4,0,.6,0,.2,0,.4,0,.5-.1.2,0,.3-.2.4-.3.1-.2.2-.4.2-.6,0-.2,0-.4-.1-.5,0-.1-.2-.2-.4-.3-.2,0-.3-.1-.5-.2-.2,0-.4,0-.6,0h-1.3v2Z" display="none" fill="#d1d3d4"/>
    <rect x="310.8" y="72" width="31.9" height="31.9" fill="#fff"/>
    <path d="M342.7,104.4h-31.9c-.3,0-.5-.2-.5-.5v-31.9c0-.3.2-.5.5-.5h31.9c.3,0,.5.2.5.5v31.9c0,.3-.2.5-.5.5ZM311.3,103.4h30.9v-30.9h-30.9v30.9Z" fill="#d1d3d4"/>
    <path d="M337.6,79.5h-21.7c-.3,0-.5-.2-.5-.5,0-.3.2-.5.5-.5h21.7c.3,0,.5.2.5.5,0,.3-.2.5-.5.5Z" fill="#d1d3d4"/>
    <path d="M337.6,85.5h-21.7c-.3,0-.5-.2-.5-.5,0-.3.2-.5.5-.5h21.7c.3,0,.5.2.5.5,0,.3-.2.5-.5.5Z" fill="#d1d3d4"/>
    <path d="M337.6,91.5h-21.7c-.3,0-.5-.2-.5-.5s.2-.5.5-.5h21.7c.3,0,.5.2.5.5s-.2.5-.5.5Z" fill="#d1d3d4"/>
    <path d="M330.4,97.4h-14.5c-.3,0-.5-.2-.5-.5s.2-.5.5-.5h14.5c.3,0,.5.2.5.5s-.2.5-.5.5h0Z" fill="#d1d3d4"/>
    <rect x="324.2" y="67.7" width="5" height="7.6" fill="#fff"/>
    <path d="M329.3,75.7h-5.1c-.3,0-.5-.2-.5-.5v-7.6c0-.3.2-.5.5-.5h5.1c.3,0,.5.2.5.5v7.6c0,.3-.2.5-.5.5ZM324.7,74.7h4.1v-6.5h-4.1v6.5Z" fill="#d1d3d4"/>
    <path d="M331.1,218.4c.1-1.7-.2-3.3-1-4.8-.8-1-1.5-2-2.1-3-.9-1.9-.3-4.2-.5-6.3-.2-1.8-1-3.4-2.2-4.7-1.1-1.1-2.5-1.9-3.6-3-1.7-1.9-2.2-4.6-3.2-7-1.4-3.4-3.8-6.3-7-8.2,1.9,3.8-2.4,8.7-.5,12.5.6,1.2,1.8,2,2.3,3.3,1.1,3-2.6,6.4-1.4,9.4.6,1.5,2.2,2.4,3,3.8,1,1.9.2,4.3.3,6.5.1,3,2,5.7,4.2,7.8,1.4,1.3,2.9,2.4,4.4,3.6,1.8,1.4,2.5,2.9,4.1.6,2.1-3.1,3.3-6.8,3.4-10.6Z" fill="#231f20"/>
    <path d="M333.1,220.2c-.6-2.3-1-4.9,0-7.1,1.1-2.5,3.8-4.3,4.1-7,.2-1.8-.7-3.6-.3-5.3s1.8-2.9,3-4.2c2.7-3,4.3-6.8,4.6-10.8,1.8,2.2,3.3,4.6,4.4,7.2,1.1,2.7.8,5.7-.6,8.1-.5.5-.8,1.2-1.1,1.8-.5,1.7.9,3.3,1.7,5,.9,1.9.7,4.2-.5,5.9-1.5,1.9-4.5,2.7-5.3,5.1-.2.9-.3,1.8-.3,2.7-.3,3.2-2.6,5.8-5.6,6.7-1.8.4-1.8-.3-2.1-1.8-.4-2-1.2-4-1.7-6.1Z" fill="#231f20"/>
    <path d="M327.3,203.3c-1.3-4.5-1.8-9.2-3.2-13.7-1.2-3.5-2.6-6.9-4.3-10.2l5.6,2.4c1.8.8,3.7,1.7,4.6,3.4,1.5,3-1.2,7,.4,10,.7,1,1.4,1.9,2.2,2.8,1.6,2.3,1.4,5.5.5,8.2-.4,1.1-2.1,7.1-3.6,5.5-.6-.7-.7-3.1-.9-4.1-.4-1.4-.9-2.8-1.3-4.2Z" fill="#231f20"/>
    <path d="M330.3,263.2c-1.1-7.4-4.6-33.3-4.6-33.6h1c0,.1,3.5,26.1,4.6,33.4l-1,.2Z" fill="#231f20"/>
    <path d="M331.7,270.1h-1c0-8.7,3.7-42.2,5.8-44.5l.8.7c-1.6,1.8-5.5,34.1-5.6,43.8Z" fill="#231f20"/>
    <path d="M333.6,268.5h-1c.8-18.9-3.2-58.5-3.2-58.9h1c0,.3,4,40,3.2,58.9Z" fill="#231f20"/>
    <path d="M320.7,245.4h20.8l-1.5,21.1c-.3,3.6-3.3,6.5-6.9,6.5h-4.1c-3.7,0-6.7-2.8-6.9-6.5l-1.4-21.1Z" fill="#fff"/>
    <path d="M333.2,273.5h-4.1c-3.9,0-7.2-3-7.5-7l-1.5-21.1c0-.3.2-.6.5-.6,0,0,0,0,0,0h20.8c.1,0,.3,0,.4.2.1.1.2.2.1.4l-1.5,21.1c-.3,3.9-3.5,6.9-7.4,7ZM321.3,245.9l1.4,20.5c.2,3.4,3,6,6.4,6h4.1c3.4,0,6.2-2.6,6.4-6l1.4-20.5h-19.7Z" fill="#231f20"/>
  </g>
</svg>