<svg width="2834" height="1492" viewBox="0 0 2834 1492" fill="none" xmlns="http://www.w3.org/2000/svg">
<path d="M1.68103 907.64H58.3885L113.008 1010.77H115.257L169.876 907.64H226.583L139.353 1062.5V1147H89.0717V1062.5L1.68103 907.64ZM285.663 1150.53C267.564 1150.53 251.874 1146.68 238.594 1138.97C225.421 1131.15 215.247 1120.33 208.072 1106.52C201.003 1092.6 197.469 1076.42 197.469 1058C197.469 1039.37 201.003 1023.14 208.072 1009.33C215.247 995.405 225.421 984.588 238.594 976.877C251.874 969.059 267.564 965.15 285.663 965.15C303.87 965.15 319.559 969.059 332.732 976.877C346.012 984.588 356.186 995.405 363.254 1009.33C370.43 1023.14 374.018 1039.37 374.018 1058C374.018 1076.42 370.43 1092.6 363.254 1106.52C356.186 1120.33 346.012 1131.15 332.732 1138.97C319.559 1146.68 303.87 1150.53 285.663 1150.53ZM285.984 1111.66C294.231 1111.66 301.139 1109.36 306.708 1104.75C312.277 1100.04 316.453 1093.61 319.238 1085.47C322.129 1077.33 323.575 1068.07 323.575 1057.68C323.575 1047.19 322.129 1037.92 319.238 1029.89C316.453 1021.86 312.277 1015.54 306.708 1010.93C301.139 1006.33 294.231 1004.03 285.984 1004.03C277.631 1004.03 270.616 1006.33 264.94 1010.93C259.371 1015.54 255.141 1021.86 252.249 1029.89C249.465 1037.92 248.072 1047.19 248.072 1057.68C248.072 1068.07 249.465 1077.33 252.249 1085.47C255.141 1093.61 259.371 1100.04 264.94 1104.75C270.616 1109.36 277.631 1111.66 285.984 1111.66ZM510.367 1070.69V967.399H560.007V1147H512.295V1114.39H510.367C506.298 1124.78 499.604 1133.24 490.287 1139.77C480.969 1146.2 469.564 1149.36 456.07 1149.25C444.075 1149.25 433.472 1146.57 424.262 1141.22C415.159 1135.75 408.037 1127.99 402.896 1117.92C397.863 1107.86 395.346 1095.81 395.346 1081.78V967.399H444.985V1073.1C444.985 1083.6 447.823 1091.95 453.499 1098.16C459.175 1104.27 466.726 1107.27 476.15 1107.16C482.148 1107.16 487.717 1105.82 492.857 1103.14C497.998 1100.36 502.175 1096.24 505.387 1090.77C508.707 1085.31 510.367 1078.62 510.367 1070.69ZM563.664 949.407V907.64H760.293V949.407H687.039V1147H637.079V949.407H563.664ZM871.1 1070.69V967.399H920.739V1147H873.028V1114.39H871.1C867.031 1124.78 860.337 1133.24 851.02 1139.77C841.702 1146.2 830.297 1149.36 816.802 1149.25C804.808 1149.25 794.205 1146.57 784.995 1141.22C775.892 1135.75 768.77 1127.99 763.629 1117.92C758.595 1107.86 756.079 1095.81 756.079 1081.78V967.399H805.718V1073.1C805.718 1083.6 808.556 1091.95 814.232 1098.16C819.908 1104.27 827.458 1107.27 836.883 1107.16C842.88 1107.16 848.449 1105.82 853.59 1103.14C858.731 1100.36 862.907 1096.24 866.12 1090.77C869.44 1085.31 871.1 1078.62 871.1 1070.69ZM1051.47 1149.89C1041.83 1149.89 1033.64 1148.29 1026.89 1145.07C1020.14 1141.86 1014.63 1137.84 1010.34 1133.02C1006.16 1128.1 1002.9 1123.17 1000.54 1118.24H998.293V1147H949.457V907.64H999.096V997.761H1000.54C1002.79 992.835 1006 987.855 1010.18 982.821C1014.36 977.788 1019.82 973.611 1026.57 970.291C1033.31 966.864 1041.67 965.15 1051.63 965.15C1064.8 965.15 1076.85 968.577 1087.77 975.432C1098.8 982.179 1107.64 992.406 1114.28 1006.11C1120.92 1019.82 1124.24 1036.96 1124.24 1057.52C1124.24 1077.44 1121.03 1094.31 1114.6 1108.12C1108.17 1121.83 1099.45 1132.22 1088.41 1139.29C1077.49 1146.36 1065.17 1149.89 1051.47 1149.89ZM1035.72 1110.37C1043.86 1110.37 1050.72 1108.12 1056.29 1103.63C1061.85 1099.13 1066.09 1092.92 1068.98 1084.99C1071.87 1076.96 1073.31 1067.75 1073.31 1057.36C1073.31 1046.97 1071.87 1037.87 1068.98 1030.05C1066.19 1022.13 1062.02 1015.91 1056.45 1011.42C1050.88 1006.92 1043.97 1004.67 1035.72 1004.67C1027.69 1004.67 1020.84 1006.86 1015.16 1011.26C1009.59 1015.54 1005.31 1021.64 1002.31 1029.57C999.418 1037.39 997.972 1046.65 997.972 1057.36C997.972 1067.96 999.471 1077.23 1002.47 1085.15C1005.47 1093.08 1009.75 1099.29 1015.32 1103.79C1021 1108.18 1027.8 1110.37 1035.72 1110.37ZM1227.17 1150.53C1208.75 1150.53 1192.85 1146.79 1179.46 1139.29C1166.08 1131.79 1155.79 1121.14 1148.62 1107.32C1141.55 1093.4 1138.02 1076.96 1138.02 1058C1138.02 1039.58 1141.55 1023.41 1148.62 1009.49C1155.79 995.566 1165.86 984.695 1178.82 976.877C1191.89 969.059 1207.2 965.15 1224.76 965.15C1236.65 965.15 1247.74 967.078 1258.02 970.934C1268.3 974.682 1277.3 980.358 1285.01 987.962C1292.72 995.459 1298.71 1004.94 1303 1016.4C1307.28 1027.75 1309.42 1041.08 1309.42 1056.4V1069.89H1157.78V1039.21H1285.33L1262.19 1047.24C1262.19 1038.14 1260.8 1030.21 1258.02 1023.46C1255.23 1016.72 1251.06 1011.52 1245.49 1007.88C1240.03 1004.13 1233.23 1002.26 1225.09 1002.26C1216.95 1002.26 1210.04 1004.13 1204.36 1007.88C1198.79 1011.63 1194.51 1016.72 1191.51 1023.14C1188.51 1029.57 1187.01 1036.96 1187.01 1045.31V1067C1187.01 1076.74 1188.73 1085.1 1192.15 1092.06C1195.58 1098.91 1200.35 1104.22 1206.45 1107.96C1212.66 1111.6 1219.78 1113.43 1227.82 1113.43C1233.39 1113.43 1238.42 1112.62 1242.92 1111.02C1247.42 1109.41 1251.27 1107.05 1254.48 1103.95C1257.8 1100.84 1260.27 1097.09 1261.87 1092.7L1307.82 1095.75C1305.57 1106.79 1300.86 1116.42 1293.68 1124.67C1286.61 1132.81 1277.46 1139.18 1266.21 1143.79C1254.97 1148.29 1241.95 1150.53 1227.17 1150.53ZM1502.93 1150.21C1481.72 1150.21 1462.71 1145.39 1445.9 1135.75C1429.08 1126.12 1415.8 1112.14 1406.06 1093.83C1396.31 1075.51 1391.44 1053.4 1391.44 1027.48C1391.44 1001.35 1396.31 979.126 1406.06 960.813C1415.91 942.392 1429.24 928.416 1446.06 918.885C1462.98 909.246 1481.94 904.427 1502.93 904.427C1516.85 904.427 1529.75 906.408 1541.64 910.371C1553.53 914.226 1564.02 919.902 1573.13 927.399C1582.34 934.789 1589.83 943.892 1595.62 954.708C1601.4 965.418 1605.1 977.681 1606.7 991.496H1555.62C1554.65 984.963 1552.73 979.073 1549.83 973.825C1547.05 968.577 1543.36 964.133 1538.75 960.492C1534.25 956.85 1529.06 954.066 1523.17 952.138C1517.38 950.103 1511.01 949.086 1504.05 949.086C1491.84 949.086 1481.08 952.192 1471.76 958.403C1462.55 964.508 1455.38 973.397 1450.23 985.07C1445.2 996.637 1442.68 1010.77 1442.68 1027.48C1442.68 1044.51 1445.25 1058.86 1450.4 1070.53C1455.54 1082.1 1462.71 1090.83 1471.92 1096.72C1481.13 1102.61 1491.79 1105.55 1503.89 1105.55C1510.64 1105.55 1516.9 1104.64 1522.69 1102.82C1528.47 1101 1533.61 1098.38 1538.11 1094.95C1542.61 1091.52 1546.35 1087.35 1549.35 1082.42C1552.46 1077.39 1554.55 1071.66 1555.62 1065.23H1606.7C1605.42 1076.26 1602.15 1086.87 1596.9 1097.04C1591.76 1107.21 1584.75 1116.32 1575.86 1124.35C1566.97 1132.27 1556.42 1138.59 1544.21 1143.31C1532 1147.91 1518.24 1150.21 1502.93 1150.21ZM1711.89 1150.53C1693.79 1150.53 1678.1 1146.68 1664.82 1138.97C1651.65 1131.15 1641.47 1120.33 1634.3 1106.52C1627.23 1092.6 1623.69 1076.42 1623.69 1058C1623.69 1039.37 1627.23 1023.14 1634.3 1009.33C1641.47 995.405 1651.65 984.588 1664.82 976.877C1678.1 969.059 1693.79 965.15 1711.89 965.15C1730.09 965.15 1745.78 969.059 1758.96 976.877C1772.24 984.588 1782.41 995.405 1789.48 1009.33C1796.65 1023.14 1800.24 1039.37 1800.24 1058C1800.24 1076.42 1796.65 1092.6 1789.48 1106.52C1782.41 1120.33 1772.24 1131.15 1758.96 1138.97C1745.78 1146.68 1730.09 1150.53 1711.89 1150.53ZM1712.21 1111.66C1720.45 1111.66 1727.36 1109.36 1732.93 1104.75C1738.5 1100.04 1742.68 1093.61 1745.46 1085.47C1748.35 1077.33 1749.8 1068.07 1749.8 1057.68C1749.8 1047.19 1748.35 1037.92 1745.46 1029.89C1742.68 1021.86 1738.5 1015.54 1732.93 1010.93C1727.36 1006.33 1720.45 1004.03 1712.21 1004.03C1703.85 1004.03 1696.84 1006.33 1691.16 1010.93C1685.6 1015.54 1681.36 1021.86 1678.47 1029.89C1675.69 1037.92 1674.3 1047.19 1674.3 1057.68C1674.3 1068.07 1675.69 1077.33 1678.47 1085.47C1681.36 1093.61 1685.6 1100.04 1691.16 1104.75C1696.84 1109.36 1703.85 1111.66 1712.21 1111.66ZM1872.65 1150.37C1861.3 1150.37 1851.07 1148.39 1841.97 1144.43C1832.98 1140.36 1825.91 1134.36 1820.77 1126.44C1815.63 1118.51 1813.06 1108.66 1813.06 1096.88C1813.06 1086.81 1814.88 1078.46 1818.52 1071.82C1822.16 1065.07 1827.14 1059.61 1833.46 1055.43C1839.78 1051.26 1846.95 1048.1 1854.98 1045.95C1863.02 1043.81 1871.53 1042.31 1880.53 1041.46C1890.91 1040.49 1899.27 1039.53 1905.59 1038.56C1911.91 1037.6 1916.51 1036.16 1919.4 1034.23C1922.4 1032.19 1923.9 1029.3 1923.9 1025.55V1024.75C1923.9 1017.36 1921.54 1011.63 1916.83 1007.56C1912.23 1003.49 1905.69 1001.46 1897.23 1001.46C1888.34 1001.46 1881.22 1003.44 1875.87 1007.4C1870.62 1011.26 1867.14 1016.18 1865.43 1022.18L1819.32 1018.48C1821.68 1007.56 1826.28 998.136 1833.14 990.211C1839.99 982.179 1848.83 976.021 1859.64 971.737C1870.57 967.346 1883.2 965.15 1897.55 965.15C1907.51 965.15 1917.05 966.328 1926.15 968.685C1935.25 971.041 1943.34 974.682 1950.41 979.608C1957.58 984.428 1963.26 990.693 1967.44 998.404C1971.61 1006.11 1973.7 1015.27 1973.7 1025.87V1147H1926.31V1121.94H1925.02C1922.13 1127.62 1918.28 1132.6 1913.46 1136.88C1908.64 1141.06 1902.86 1144.38 1896.11 1146.84C1889.36 1149.2 1881.54 1150.37 1872.65 1150.37ZM1886.95 1116C1894.23 1116 1900.66 1114.55 1906.23 1111.66C1911.91 1108.66 1916.3 1104.7 1919.4 1099.77C1922.62 1094.74 1924.22 1089.11 1924.22 1082.9V1063.79C1922.72 1064.75 1920.58 1065.66 1917.8 1066.52C1915.12 1067.37 1912.12 1068.12 1908.8 1068.77C1905.48 1069.41 1902.16 1070 1898.84 1070.53C1895.52 1070.96 1892.52 1071.39 1889.84 1071.82C1883.95 1072.68 1878.81 1074.07 1874.42 1076C1870.03 1077.82 1866.6 1080.33 1864.14 1083.55C1861.78 1086.65 1860.61 1090.56 1860.61 1095.27C1860.61 1102.02 1863.07 1107.16 1868 1110.69C1872.92 1114.23 1879.24 1116 1886.95 1116ZM2082.9 1150.53C2064.59 1150.53 2048.84 1146.63 2035.67 1138.81C2022.5 1130.88 2012.38 1120.01 2005.31 1106.2C1998.24 1092.27 1994.71 1076.21 1994.71 1058C1994.71 1039.58 1998.24 1023.41 2005.31 1009.49C2012.49 995.566 2022.66 984.695 2035.83 976.877C2049.01 969.059 2064.69 965.15 2082.9 965.15C2098.54 965.15 2112.19 967.988 2123.87 973.665C2135.65 979.341 2144.96 987.319 2151.82 997.601C2158.67 1007.88 2162.42 1019.98 2163.06 1033.91H2116.15C2115.3 1027.91 2113.48 1022.66 2110.69 1018.16C2107.91 1013.67 2104.21 1010.18 2099.61 1007.72C2095 1005.26 2089.65 1004.03 2083.54 1004.03C2075.83 1004.03 2069.09 1006.11 2063.3 1010.29C2057.63 1014.36 2053.18 1020.41 2049.97 1028.44C2046.86 1036.37 2045.31 1046.01 2045.31 1057.36C2045.31 1068.71 2046.86 1078.46 2049.97 1086.6C2053.18 1094.74 2057.63 1100.95 2063.3 1105.23C2069.09 1109.52 2075.83 1111.66 2083.54 1111.66C2092.11 1111.66 2099.34 1108.98 2105.23 1103.63C2111.12 1098.16 2114.76 1090.67 2116.15 1081.14H2163.06C2162.31 1094.84 2158.62 1106.95 2151.98 1117.44C2145.34 1127.83 2136.18 1135.97 2124.51 1141.86C2112.83 1147.64 2098.97 1150.53 2082.9 1150.53ZM2233.55 1043.22V1147H2183.91V907.64H2231.94V999.368H2234.19C2238.26 988.765 2244.79 980.412 2253.79 974.307C2262.89 968.203 2274.24 965.15 2287.85 965.15C2300.27 965.15 2311.14 967.881 2320.46 973.343C2329.77 978.698 2337 986.409 2342.14 996.476C2347.39 1006.54 2350.02 1018.65 2350.02 1032.78V1147H2300.22V1041.62C2300.22 1030.59 2297.38 1021.97 2291.7 1015.75C2286.13 1009.54 2278.26 1006.44 2268.09 1006.44C2261.23 1006.44 2255.24 1007.94 2250.09 1010.93C2244.95 1013.83 2240.88 1018 2237.89 1023.46C2234.99 1028.93 2233.55 1035.51 2233.55 1043.22ZM2378.57 1147V967.399H2428.21V1147H2378.57ZM2403.31 944.427C2395.92 944.427 2389.6 941.964 2384.36 937.038C2379.11 932.111 2376.48 926.167 2376.48 919.206C2376.48 912.245 2379.11 906.354 2384.36 901.535C2389.6 896.609 2395.92 894.146 2403.31 894.146C2410.81 894.146 2417.18 896.609 2422.43 901.535C2427.68 906.354 2430.3 912.245 2430.3 919.206C2430.3 926.167 2427.68 932.111 2422.43 937.038C2417.18 941.964 2410.81 944.427 2403.31 944.427ZM2506.57 1043.22V1147H2456.93V967.399H2505.77V999.368H2507.53C2511.6 988.765 2518.08 980.412 2526.97 974.307C2535.86 968.203 2547 965.15 2560.39 965.15C2572.81 965.15 2583.63 967.881 2592.84 973.343C2602.15 978.805 2609.38 986.57 2614.52 996.637C2619.66 1006.7 2622.23 1018.75 2622.23 1032.78V1147H2572.59V1041.62C2572.59 1030.69 2569.76 1022.13 2564.08 1015.91C2558.4 1009.6 2550.59 1006.44 2540.63 1006.44C2533.99 1006.44 2528.1 1007.94 2522.96 1010.93C2517.81 1013.83 2513.8 1018 2510.91 1023.46C2508.02 1028.93 2506.57 1035.51 2506.57 1043.22ZM2731.27 1218C2707.07 1218 2688.11 1213.19 2674.41 1203.55C2660.7 1194.02 2652.34 1182.13 2649.34 1167.88L2695.29 1161.78C2696.68 1165.42 2698.88 1168.79 2701.88 1171.9C2704.87 1175.01 2708.89 1177.47 2713.92 1179.29C2718.96 1181.22 2725.12 1182.18 2732.4 1182.18C2743.21 1182.18 2752.16 1179.56 2759.23 1174.31C2766.29 1169.17 2769.83 1160.44 2769.83 1148.12V1115.19H2767.74C2765.6 1120.12 2762.33 1124.83 2757.94 1129.33C2753.55 1133.83 2747.93 1137.47 2741.07 1140.25C2734.22 1143.04 2726.03 1144.43 2716.49 1144.43C2703 1144.43 2690.74 1141.32 2679.71 1135.11C2668.78 1128.79 2660 1119.15 2653.36 1106.2C2646.83 1093.24 2643.56 1076.85 2643.56 1057.04C2643.56 1036.58 2646.88 1019.56 2653.52 1005.95C2660.27 992.353 2669.16 982.179 2680.19 975.432C2691.22 968.577 2703.32 965.15 2716.49 965.15C2726.56 965.15 2734.97 966.864 2741.72 970.291C2748.57 973.611 2754.14 977.788 2758.42 982.821C2762.71 987.855 2765.92 992.835 2768.06 997.761H2769.99V967.399H2818.99V1148.93C2818.99 1164.14 2815.24 1176.88 2807.74 1187.16C2800.24 1197.44 2789.91 1205.15 2776.74 1210.29C2763.56 1215.43 2748.41 1218 2731.27 1218ZM2732.24 1107C2744.23 1107 2753.5 1102.56 2760.03 1093.67C2766.67 1084.78 2769.99 1072.46 2769.99 1056.72C2769.99 1046.22 2768.49 1037.12 2765.49 1029.41C2762.6 1021.59 2758.37 1015.54 2752.8 1011.26C2747.23 1006.86 2740.38 1004.67 2732.24 1004.67C2724.1 1004.67 2717.19 1006.92 2711.51 1011.42C2705.95 1015.81 2701.71 1021.91 2698.82 1029.73C2695.93 1037.55 2694.49 1046.54 2694.49 1056.72C2694.49 1067 2695.93 1075.94 2698.82 1083.55C2701.71 1091.04 2705.95 1096.83 2711.51 1100.9C2717.19 1104.96 2724.1 1107 2732.24 1107ZM406.468 1487L352.17 1307.4H374.178L416.749 1455.51H418.356L460.766 1307.4H482.935L524.702 1455.35H526.309L569.04 1307.4H590.888L536.751 1487H515.385L472.653 1340.01H470.565L427.834 1487H406.468ZM620.73 1487V1307.4H641.453V1487H620.73ZM631.172 1276.72C626.888 1276.72 623.194 1275.27 620.088 1272.38C617.089 1269.38 615.59 1265.79 615.59 1261.62C615.59 1257.55 617.089 1254.07 620.088 1251.17C623.194 1248.28 626.888 1246.84 631.172 1246.84C635.456 1246.84 639.097 1248.28 642.096 1251.17C645.095 1254.07 646.594 1257.55 646.594 1261.62C646.594 1265.79 645.095 1269.38 642.096 1272.38C639.097 1275.27 635.456 1276.72 631.172 1276.72ZM756.116 1307.4V1325.55H670.493V1307.4H756.116ZM697.32 1264.67H718.043V1440.09C718.043 1449.84 720.453 1457.17 725.272 1462.1C730.092 1466.92 736.785 1469.33 745.353 1469.33C747.281 1469.33 749.208 1469.22 751.136 1469.01C753.171 1468.69 755.313 1468.26 757.562 1467.72L762.06 1486.52C759.597 1487.48 756.759 1488.23 753.546 1488.77C750.333 1489.3 747.013 1489.57 743.586 1489.57C730.306 1489.57 719.275 1485.5 710.493 1477.36C701.711 1469.11 697.32 1458.35 697.32 1445.07V1264.67ZM817.124 1374.87V1487H796.401V1247.64H817.124V1335.83H819.212C823.389 1326.52 829.868 1319.07 838.65 1313.5C847.432 1307.93 858.623 1305.15 872.225 1305.15C884.327 1305.15 894.983 1307.67 904.193 1312.7C913.403 1317.63 920.579 1324.96 925.719 1334.71C930.967 1344.45 933.591 1356.5 933.591 1370.85V1487H912.707V1372.14C912.707 1357.25 908.53 1345.53 900.177 1336.96C891.93 1328.39 880.792 1324.11 866.763 1324.11C857.231 1324.11 848.717 1326.19 841.22 1330.37C833.831 1334.44 827.94 1340.28 823.549 1347.88C819.266 1355.38 817.124 1364.37 817.124 1374.87ZM1133.52 1487H1075.53V1467.4H1132.23C1152.8 1467.4 1169.98 1463.39 1183.8 1455.35C1197.72 1447.21 1208.16 1435.65 1215.13 1420.65C1222.09 1405.55 1225.57 1387.56 1225.57 1366.68C1225.57 1346.11 1222.14 1328.44 1215.29 1313.66C1208.54 1298.78 1198.53 1287.37 1185.25 1279.45C1172.07 1271.42 1155.79 1267.4 1136.41 1267.4H1074.72V1247.64H1137.7C1160.51 1247.64 1180.05 1252.41 1196.33 1261.94C1212.61 1271.47 1225.03 1285.12 1233.6 1302.9C1242.27 1320.68 1246.61 1341.94 1246.61 1366.68C1246.61 1391.84 1242.17 1413.42 1233.28 1431.42C1224.5 1449.3 1211.65 1463.06 1194.72 1472.7C1177.91 1482.23 1157.51 1487 1133.52 1487ZM1085.16 1247.64V1487H1063.32V1247.64H1085.16ZM1334.45 1491.02C1323.63 1491.02 1313.72 1488.93 1304.73 1484.75C1295.73 1480.47 1288.56 1474.31 1283.2 1466.28C1277.95 1458.14 1275.33 1448.28 1275.33 1436.72C1275.33 1427.83 1276.99 1420.39 1280.31 1414.39C1283.63 1408.39 1288.4 1403.46 1294.61 1399.61C1300.82 1395.65 1308.1 1392.54 1316.46 1390.29C1324.92 1387.94 1334.23 1386.17 1344.41 1384.99C1354.47 1383.71 1362.99 1382.63 1369.95 1381.78C1376.91 1380.81 1382.21 1379.31 1385.85 1377.28C1389.5 1375.24 1391.32 1371.98 1391.32 1367.48V1363.3C1391.32 1350.99 1387.67 1341.35 1380.39 1334.39C1373.11 1327.32 1362.67 1323.79 1349.07 1323.79C1336.11 1323.79 1325.56 1326.62 1317.42 1332.3C1309.28 1337.98 1303.6 1344.67 1300.39 1352.38L1280.47 1345.15C1284.54 1335.41 1290.16 1327.59 1297.34 1321.7C1304.51 1315.81 1312.55 1311.58 1321.44 1309.01C1330.32 1306.33 1339.32 1304.99 1348.42 1304.99C1355.28 1304.99 1362.4 1305.9 1369.79 1307.72C1377.18 1309.54 1384.09 1312.65 1390.51 1317.04C1396.94 1321.43 1402.13 1327.59 1406.09 1335.51C1410.16 1343.33 1412.2 1353.24 1412.2 1365.23V1487H1391.32V1458.57H1390.03C1387.67 1463.81 1384.03 1468.95 1379.11 1473.99C1374.18 1478.91 1368.02 1482.98 1360.63 1486.2C1353.24 1489.41 1344.51 1491.02 1334.45 1491.02ZM1337.34 1472.06C1348.37 1472.06 1357.9 1469.65 1365.93 1464.83C1374.07 1459.9 1380.34 1453.32 1384.73 1445.07C1389.12 1436.83 1391.32 1427.83 1391.32 1418.08V1392.22C1389.71 1393.72 1387.09 1395.06 1383.44 1396.24C1379.91 1397.41 1375.79 1398.43 1371.07 1399.29C1366.47 1400.14 1361.76 1400.89 1356.94 1401.54C1352.23 1402.18 1348.05 1402.72 1344.41 1403.14C1334.34 1404.43 1325.67 1406.41 1318.38 1409.09C1311.21 1411.76 1305.69 1415.41 1301.84 1420.01C1298.09 1424.62 1296.21 1430.56 1296.21 1437.84C1296.21 1448.66 1300.07 1457.07 1307.78 1463.06C1315.6 1469.06 1325.45 1472.06 1337.34 1472.06ZM1588.55 1307.4L1523.17 1487H1500.84L1435.29 1307.4H1457.95L1511.12 1459.69H1512.73L1566.06 1307.4H1588.55ZM1684.58 1490.86C1667.87 1490.86 1653.36 1486.95 1641.04 1479.13C1628.73 1471.2 1619.25 1460.28 1612.61 1446.36C1605.97 1432.43 1602.65 1416.42 1602.65 1398.32C1602.65 1380.22 1605.92 1364.16 1612.45 1350.13C1619.09 1336.1 1628.3 1325.07 1640.08 1317.04C1651.86 1309.01 1665.51 1304.99 1681.04 1304.99C1690.68 1304.99 1700.05 1306.81 1709.16 1310.45C1718.26 1313.99 1726.45 1319.39 1733.73 1326.68C1741.02 1333.96 1746.75 1343.22 1750.92 1354.47C1755.1 1365.61 1757.19 1378.89 1757.19 1394.31V1403.63H1616.95V1385.31H1745.94L1736.47 1392.38C1736.47 1379.31 1734.22 1367.64 1729.72 1357.36C1725.33 1347.08 1719.01 1338.94 1710.76 1332.94C1702.52 1326.94 1692.61 1323.95 1681.04 1323.95C1669.58 1323.95 1659.52 1327 1650.84 1333.1C1642.17 1339.1 1635.42 1347.13 1630.6 1357.2C1625.89 1367.16 1623.53 1378.08 1623.53 1389.97V1400.73C1623.53 1415.08 1626 1427.62 1630.92 1438.32C1635.96 1448.93 1643.02 1457.17 1652.13 1463.06C1661.34 1468.95 1672.15 1471.9 1684.58 1471.9C1693.04 1471.9 1700.48 1470.56 1706.91 1467.88C1713.33 1465.21 1718.74 1461.62 1723.13 1457.12C1727.52 1452.51 1730.84 1447.53 1733.09 1442.18L1752.85 1448.77C1750.07 1456.26 1745.57 1463.22 1739.36 1469.65C1733.25 1475.97 1725.54 1481.11 1716.22 1485.07C1707.01 1488.93 1696.47 1490.86 1684.58 1490.86ZM2063.62 1247.64V1487H2042.1L1900.89 1286.68H1898.8V1487H1876.96V1247.64H1898.16L2040.17 1448.28H2041.94V1247.64H2063.62ZM2112.1 1487V1307.4H2132.82V1487H2112.1ZM2122.54 1276.72C2118.26 1276.72 2114.56 1275.27 2111.46 1272.38C2108.46 1269.38 2106.96 1265.79 2106.96 1261.62C2106.96 1257.55 2108.46 1254.07 2111.46 1251.17C2114.56 1248.28 2118.26 1246.84 2122.54 1246.84C2126.83 1246.84 2130.47 1248.28 2133.47 1251.17C2136.47 1254.07 2137.96 1257.55 2137.96 1261.62C2137.96 1265.79 2136.47 1269.38 2133.47 1272.38C2130.47 1275.27 2126.83 1276.72 2122.54 1276.72ZM2247.01 1490.86C2230.94 1490.86 2216.96 1486.84 2205.08 1478.81C2193.19 1470.77 2183.98 1459.8 2177.45 1445.88C2170.91 1431.85 2167.65 1415.94 2167.65 1398.16C2167.65 1380.06 2170.97 1364.05 2177.61 1350.13C2184.25 1336.1 2193.51 1325.07 2205.4 1317.04C2217.29 1309.01 2231.05 1304.99 2246.68 1304.99C2258.68 1304.99 2269.55 1307.35 2279.29 1312.06C2289.04 1316.66 2297.07 1323.2 2303.39 1331.66C2309.82 1340.01 2313.83 1349.76 2315.44 1360.89H2294.56C2293.06 1354.15 2290.16 1347.99 2285.88 1342.42C2281.7 1336.85 2276.3 1332.41 2269.66 1329.09C2263.12 1325.66 2255.57 1323.95 2247.01 1323.95C2235.55 1323.95 2225.43 1327.05 2216.64 1333.26C2207.86 1339.47 2200.95 1348.1 2195.92 1359.13C2190.99 1370.16 2188.53 1382.96 2188.53 1397.52C2188.53 1411.98 2190.94 1424.83 2195.76 1436.08C2200.58 1447.32 2207.38 1456.1 2216.16 1462.42C2225.05 1468.74 2235.33 1471.9 2247.01 1471.9C2258.89 1471.9 2269.17 1468.53 2277.85 1461.78C2286.52 1455.03 2292.09 1445.98 2294.56 1434.63H2315.44C2313.94 1445.45 2310.08 1455.09 2303.87 1463.55C2297.77 1472.01 2289.84 1478.7 2280.1 1483.63C2270.46 1488.45 2259.43 1490.86 2247.01 1490.86ZM2368.42 1419.21L2368.09 1391.9H2372.91L2456.93 1307.4H2483.12L2400.22 1390.77L2398.29 1391.1L2368.42 1419.21ZM2349.46 1487V1247.64H2370.18V1487H2349.46ZM2461.11 1487L2388.33 1394.95L2403.27 1380.49L2487.93 1487H2461.11Z" fill="white"/>
<path d="M1417 700C1610.3 700 1767 543.3 1767 350C1767 156.7 1610.3 0 1417 0C1223.7 0 1067 156.7 1067 350C1067 543.3 1223.7 700 1417 700Z" fill="#7AF546"/>
</svg>
