<svg width="3187" height="708" viewBox="0 0 3187 708" fill="none" xmlns="http://www.w3.org/2000/svg">
<path d="M350 700C543.3 700 700 543.3 700 350C700 156.7 543.3 0 350 0C156.7 0 0 156.7 0 350C0 543.3 156.7 700 350 700Z" fill="#7AF546"/>
<path d="M398.2 265.434L199.4 460.684C196.08 463.95 191.61 465.78 186.953 465.78C182.296 465.78 177.825 463.95 174.506 460.684L89.3056 377.015C87.6426 375.38 86.3187 373.434 85.4087 371.288C84.4987 369.142 84.0197 366.837 84.0007 364.506C83.9807 362.175 84.4207 359.863 85.2947 357.701C86.1687 355.54 87.4596 353.572 89.0946 351.91C90.7286 350.248 92.6747 348.924 94.8217 348.013C96.9677 347.103 99.2716 346.625 101.604 346.605C103.935 346.585 106.247 347.025 108.408 347.899C110.57 348.773 112.538 350.065 114.2 351.699L186.953 423.143L373.328 240.096C376.688 236.795 381.222 234.964 385.932 235.005C388.264 235.026 390.569 235.506 392.716 236.417C394.863 237.329 396.809 238.654 398.444 240.318C400.079 241.982 401.369 243.951 402.243 246.114C403.116 248.276 403.555 250.59 403.535 252.922C403.514 255.254 403.034 257.56 402.123 259.706C401.211 261.853 399.886 263.8 398.222 265.434H398.2ZM611.422 240.318C609.788 238.653 607.842 237.326 605.695 236.414C603.548 235.502 601.242 235.021 598.91 235.001C596.577 234.98 594.263 235.42 592.1 236.294C589.938 237.168 587.969 238.46 586.305 240.096L399.93 423.143L358.151 382.096C354.791 378.798 350.259 376.969 345.551 377.013C340.842 377.057 336.345 378.969 333.046 382.329C329.748 385.689 327.92 390.222 327.963 394.93C328.007 399.638 329.919 404.136 333.279 407.434L387.483 460.684C390.803 463.95 395.274 465.78 399.93 465.78C404.587 465.78 409.058 463.95 412.378 460.684L611.178 265.434C612.844 263.802 614.172 261.857 615.087 259.711C616.001 257.565 616.483 255.259 616.506 252.927C616.529 250.594 616.091 248.28 615.219 246.116C614.346 243.953 613.056 241.982 611.422 240.318Z" fill="black"/>
<path d="M892.572 303.213C871.367 303.213 852.357 298.394 835.543 288.755C818.729 279.116 805.449 265.14 795.703 246.827C785.957 228.513 781.084 206.398 781.084 180.48C781.084 154.349 785.957 132.126 795.703 113.813C805.556 95.3924 818.889 81.4163 835.704 71.8848C852.625 62.2461 871.581 57.4268 892.572 57.4268C906.494 57.4268 919.399 59.408 931.287 63.3706C943.175 67.2261 953.67 72.9022 962.773 80.3989C971.984 87.7886 979.48 96.8918 985.264 107.708C991.047 118.418 994.742 130.681 996.348 144.496H945.263C944.299 137.963 942.372 132.073 939.48 126.825C936.695 121.577 933.001 117.133 928.396 113.492C923.897 109.85 918.703 107.066 912.813 105.138C907.03 103.103 900.658 102.086 893.696 102.086C881.487 102.086 870.724 105.192 861.407 111.403C852.196 117.508 845.021 126.397 839.88 138.07C834.847 149.637 832.33 163.773 832.33 180.48C832.33 197.509 834.9 211.86 840.041 223.533C845.182 235.1 852.357 243.828 861.567 249.718C870.778 255.609 881.434 258.554 893.536 258.554C900.283 258.554 906.548 257.643 912.331 255.823C918.114 254.002 923.255 251.378 927.753 247.951C932.251 244.524 935.999 240.347 938.998 235.421C942.104 230.387 944.192 224.658 945.263 218.232H996.348C995.063 229.263 991.797 239.865 986.549 250.04C981.408 260.214 974.393 269.317 965.504 277.349C956.615 285.274 946.066 291.593 933.857 296.305C921.648 300.91 907.887 303.213 892.572 303.213ZM1070.37 196.224V300H1020.73V60.6396H1068.76V152.368H1071.01C1075.08 141.765 1081.61 133.412 1090.61 127.307C1099.71 121.203 1111.06 118.15 1124.67 118.15C1137.09 118.15 1147.96 120.881 1157.28 126.343C1166.59 131.698 1173.82 139.409 1178.96 149.476C1184.21 159.543 1186.84 171.645 1186.84 185.782V300H1137.04V194.617C1137.04 183.586 1134.2 174.965 1128.52 168.753C1122.95 162.542 1115.08 159.436 1104.91 159.436C1098.05 159.436 1092.05 160.935 1086.91 163.934C1081.77 166.826 1077.7 171.002 1074.71 176.464C1071.81 181.926 1070.37 188.513 1070.37 196.224ZM1266.48 303.374C1255.13 303.374 1244.9 301.392 1235.79 297.43C1226.8 293.36 1219.73 287.363 1214.59 279.438C1209.45 271.512 1206.88 261.66 1206.88 249.879C1206.88 239.812 1208.7 231.458 1212.34 224.818C1215.98 218.071 1220.96 212.609 1227.28 208.433C1233.6 204.256 1240.77 201.097 1248.81 198.955C1256.84 196.813 1265.35 195.313 1274.35 194.457C1284.74 193.493 1293.09 192.529 1299.41 191.565C1305.73 190.601 1310.33 189.155 1313.22 187.228C1316.22 185.193 1317.72 182.301 1317.72 178.553V177.75C1317.72 170.36 1315.37 164.63 1310.65 160.561C1306.05 156.491 1299.52 154.456 1291.06 154.456C1282.17 154.456 1275.05 156.437 1269.69 160.4C1264.44 164.255 1260.96 169.182 1259.25 175.179L1213.14 171.484C1215.5 160.561 1220.1 151.136 1226.96 143.211C1233.81 135.179 1242.65 129.021 1253.47 124.737C1264.39 120.346 1277.03 118.15 1291.38 118.15C1301.34 118.15 1310.87 119.328 1319.97 121.685C1329.08 124.041 1337.16 127.682 1344.23 132.608C1351.4 137.428 1357.08 143.693 1361.26 151.404C1365.43 159.115 1367.52 168.271 1367.52 178.874V300H1320.13V274.939H1318.85C1315.96 280.616 1312.1 285.596 1307.28 289.879C1302.46 294.056 1296.68 297.376 1289.93 299.839C1283.18 302.195 1275.37 303.374 1266.48 303.374ZM1280.77 268.996C1288.06 268.996 1294.48 267.55 1300.05 264.658C1305.73 261.66 1310.12 257.697 1313.22 252.771C1316.44 247.737 1318.04 242.114 1318.04 235.903V216.786C1316.54 217.75 1314.4 218.66 1311.62 219.517C1308.94 220.374 1305.94 221.124 1302.62 221.766C1299.3 222.409 1295.98 222.998 1292.66 223.533C1289.34 223.962 1286.34 224.39 1283.67 224.818C1277.78 225.675 1272.64 227.067 1268.24 228.995C1263.85 230.816 1260.43 233.333 1257.96 236.545C1255.61 239.651 1254.43 243.56 1254.43 248.272C1254.43 255.02 1256.89 260.16 1261.82 263.694C1266.75 267.229 1273.06 268.996 1280.77 268.996ZM1445.56 196.224V300H1395.92V120.399H1444.76V152.368H1446.52C1450.59 141.765 1457.07 133.412 1465.96 127.307C1474.85 121.203 1485.99 118.15 1499.37 118.15C1511.8 118.15 1522.61 120.881 1531.82 126.343C1541.14 131.805 1548.37 139.57 1553.51 149.637C1558.65 159.704 1561.22 171.752 1561.22 185.782V300H1511.58V194.617C1511.58 183.693 1508.75 175.126 1503.07 168.914C1497.39 162.595 1489.58 159.436 1479.62 159.436C1472.98 159.436 1467.09 160.935 1461.94 163.934C1456.8 166.826 1452.79 171.002 1449.9 176.464C1447 181.926 1445.56 188.513 1445.56 196.224ZM1639.58 196.224V300H1589.94V120.399H1638.78V152.368H1640.54C1644.61 141.765 1651.09 133.412 1659.98 127.307C1668.87 121.203 1680.01 118.15 1693.4 118.15C1705.82 118.15 1716.64 120.881 1725.85 126.343C1735.16 131.805 1742.39 139.57 1747.53 149.637C1752.67 159.704 1755.24 171.752 1755.24 185.782V300H1705.6V194.617C1705.6 183.693 1702.77 175.126 1697.09 168.914C1691.41 162.595 1683.6 159.436 1673.64 159.436C1667 159.436 1661.11 160.935 1655.97 163.934C1650.82 166.826 1646.81 171.002 1643.92 176.464C1641.03 181.926 1639.58 188.513 1639.58 196.224ZM1865.73 303.534C1847.31 303.534 1831.41 299.786 1818.02 292.289C1804.63 284.792 1794.35 274.136 1787.17 260.321C1780.11 246.398 1776.57 229.959 1776.57 211.003C1776.57 192.582 1780.11 176.411 1787.17 162.488C1794.35 148.566 1804.42 137.695 1817.38 129.877C1830.44 122.059 1845.76 118.15 1863.32 118.15C1875.21 118.15 1886.29 120.078 1896.57 123.934C1906.85 127.682 1915.85 133.358 1923.56 140.962C1931.27 148.459 1937.27 157.937 1941.55 169.396C1945.84 180.748 1947.98 194.082 1947.98 209.396V222.891H1796.33V192.208H1923.88L1900.75 200.24C1900.75 191.137 1899.36 183.211 1896.57 176.464C1893.79 169.717 1889.61 164.523 1884.04 160.882C1878.58 157.133 1871.78 155.259 1863.64 155.259C1855.5 155.259 1848.59 157.133 1842.92 160.882C1837.35 164.63 1833.07 169.717 1830.07 176.143C1827.07 182.569 1825.57 189.958 1825.57 198.312V219.999C1825.57 229.745 1827.28 238.098 1830.71 245.06C1834.14 251.914 1838.9 257.215 1845.01 260.963C1851.22 264.605 1858.34 266.425 1866.37 266.425C1871.94 266.425 1876.97 265.622 1881.47 264.016C1885.97 262.409 1889.83 260.053 1893.04 256.947C1896.36 253.841 1898.82 250.093 1900.43 245.702L1946.37 248.754C1944.12 259.785 1939.41 269.424 1932.24 277.67C1925.17 285.81 1916.01 292.182 1904.77 296.787C1893.52 301.285 1880.51 303.534 1865.73 303.534ZM2018.3 60.6396V300H1968.67V60.6396H2018.3ZM2112.69 300V60.6396H2206.99C2225.09 60.6396 2240.51 63.8525 2253.25 70.2783C2266.1 76.7041 2275.9 85.8073 2282.65 97.5879C2289.51 109.261 2292.93 123.023 2292.93 138.874C2292.93 154.724 2289.51 168.379 2282.65 179.838C2275.8 191.297 2265.84 200.079 2252.77 206.184C2239.81 212.181 2224.12 215.18 2205.7 215.18H2142.57V174.537H2197.51C2207.26 174.537 2215.29 173.198 2221.61 170.521C2228.03 167.843 2232.8 163.881 2235.9 158.633C2239.12 153.385 2240.72 146.799 2240.72 138.874C2240.72 130.841 2239.12 124.148 2235.9 118.793C2232.8 113.331 2228.03 109.208 2221.61 106.423C2215.18 103.532 2207.09 102.086 2197.35 102.086H2163.13V300H2112.69ZM2245.54 300L2187.23 191.083H2241.85L2301.45 300H2245.54ZM2395.39 303.534C2376.97 303.534 2361.06 299.786 2347.67 292.289C2334.29 284.792 2324.01 274.136 2316.83 260.321C2309.76 246.398 2306.23 229.959 2306.23 211.003C2306.23 192.582 2309.76 176.411 2316.83 162.488C2324.01 148.566 2334.07 137.695 2347.03 129.877C2360.1 122.059 2375.41 118.15 2392.98 118.15C2404.86 118.15 2415.95 120.078 2426.23 123.934C2436.51 127.682 2445.51 133.358 2453.22 140.962C2460.93 148.459 2466.93 157.937 2471.21 169.396C2475.49 180.748 2477.64 194.082 2477.64 209.396V222.891H2325.99V192.208H2453.54L2430.41 200.24C2430.41 191.137 2429.01 183.211 2426.23 176.464C2423.45 169.717 2419.27 164.523 2413.7 160.882C2408.24 157.133 2401.44 155.259 2393.3 155.259C2385.16 155.259 2378.25 157.133 2372.57 160.882C2367.01 164.63 2362.72 169.717 2359.72 176.143C2356.72 182.569 2355.22 189.958 2355.22 198.312V219.999C2355.22 229.745 2356.94 238.098 2360.37 245.06C2363.79 251.914 2368.56 257.215 2374.66 260.963C2380.87 264.605 2388 266.425 2396.03 266.425C2401.6 266.425 2406.63 265.622 2411.13 264.016C2415.63 262.409 2419.48 260.053 2422.7 256.947C2426.02 253.841 2428.48 250.093 2430.09 245.702L2476.03 248.754C2473.78 259.785 2469.07 269.424 2461.89 277.67C2454.82 285.81 2445.67 292.182 2434.42 296.787C2423.18 301.285 2410.17 303.534 2395.39 303.534ZM2659.61 120.399L2596.96 300H2540.73L2478.24 120.399H2530.77L2568.52 249.076H2570.45L2607.56 120.399H2659.61ZM2674.03 300V120.399H2723.67V300H2674.03ZM2698.77 97.4272C2691.38 97.4272 2685.06 94.964 2679.81 90.0376C2674.56 85.1112 2671.94 79.1673 2671.94 72.2061C2671.94 65.2448 2674.56 59.3545 2679.81 54.5352C2685.06 49.6087 2691.38 47.1455 2698.77 47.1455C2706.27 47.1455 2712.64 49.6087 2717.89 54.5352C2723.13 59.3545 2725.76 65.2448 2725.76 72.2061C2725.76 79.1673 2723.13 85.1112 2717.89 90.0376C2712.64 94.964 2706.27 97.4272 2698.77 97.4272ZM2834.15 303.534C2815.73 303.534 2799.83 299.786 2786.44 292.289C2773.06 284.792 2762.77 274.136 2755.6 260.321C2748.53 246.398 2745 229.959 2745 211.003C2745 192.582 2748.53 176.411 2755.6 162.488C2762.77 148.566 2772.84 137.695 2785.8 129.877C2798.87 122.059 2814.18 118.15 2831.74 118.15C2843.63 118.15 2854.72 120.078 2865 123.934C2875.28 127.682 2884.28 133.358 2891.99 140.962C2899.7 148.459 2905.69 157.937 2909.98 169.396C2914.26 180.748 2916.4 194.082 2916.4 209.396V222.891H2764.76V192.208H2892.31L2869.17 200.24C2869.17 191.137 2867.78 183.211 2865 176.464C2862.21 169.717 2858.04 164.523 2852.47 160.882C2847.01 157.133 2840.21 155.259 2832.07 155.259C2823.93 155.259 2817.02 157.133 2811.34 160.882C2805.77 164.63 2801.49 169.717 2798.49 176.143C2795.49 182.569 2793.99 189.958 2793.99 198.312V219.999C2793.99 229.745 2795.71 238.098 2799.13 245.06C2802.56 251.914 2807.33 257.215 2813.43 260.963C2819.64 264.605 2826.76 266.425 2834.8 266.425C2840.37 266.425 2845.4 265.622 2849.9 264.016C2854.4 262.409 2858.25 260.053 2861.46 256.947C2864.78 253.841 2867.25 250.093 2868.85 245.702L2914.8 248.754C2912.55 259.785 2907.84 269.424 2900.66 277.67C2893.59 285.81 2884.44 292.182 2873.19 296.787C2861.95 301.285 2848.93 303.534 2834.15 303.534ZM2967.77 300L2918.94 120.399H2969.38L2997.17 241.204H2998.78L3027.85 120.399H3077.17L3106.57 240.401H3108.18L3135.49 120.399H3185.77L3136.93 300H3084.4L3053.56 187.067H3051.31L3020.46 300H2967.77ZM870.082 643.855C859.265 643.855 850.162 641.928 842.772 638.072C835.489 634.11 829.599 629.237 825.101 623.454C820.71 617.67 817.283 612.048 814.82 606.586H812.41V640H792.33V400.64H813.053V494.777H814.82C817.283 489.423 820.71 483.907 825.101 478.231C829.492 472.555 835.329 467.789 842.611 463.934C849.894 459.971 858.997 457.99 869.921 457.99C884.7 457.99 897.605 461.899 908.636 469.717C919.774 477.428 928.449 488.244 934.661 502.167C940.872 516.09 943.978 532.261 943.978 550.682C943.978 569.209 940.872 585.488 934.661 599.518C928.556 613.547 919.935 624.471 908.797 632.289C897.766 640 884.861 643.855 870.082 643.855ZM867.833 624.899C879.613 624.899 889.627 621.579 897.873 614.939C906.119 608.299 912.385 599.357 916.668 588.112C920.952 576.867 923.094 564.336 923.094 550.521C923.094 536.706 920.952 524.282 916.668 513.251C912.385 502.113 906.173 493.278 898.034 486.745C889.894 480.212 879.827 476.946 867.833 476.946C856.052 476.946 846.092 480.105 837.953 486.424C829.813 492.635 823.602 501.257 819.318 512.288C815.034 523.319 812.892 536.063 812.892 550.521C812.892 564.872 815.034 577.67 819.318 588.915C823.602 600.053 829.813 608.835 837.953 615.261C846.199 621.687 856.159 624.899 867.833 624.899ZM986.672 707.149C982.602 707.257 978.747 706.935 975.106 706.186C971.571 705.436 968.733 704.526 966.591 703.455L972.214 685.302L974.624 685.944C984.477 688.836 992.83 688.461 999.684 684.82C1006.65 681.286 1012.48 673.039 1017.19 660.081L1023.78 641.767L957.756 460.399H980.407L1033.58 612.69H1035.19L1088.52 460.399H1111.01L1035.19 668.273C1031.97 676.948 1028.01 684.177 1023.3 689.96C1018.69 695.744 1013.34 700.028 1007.23 702.812C1001.13 705.704 994.276 707.149 986.672 707.149ZM1226.6 640V400.64H1365.56V420.399H1248.45V509.717H1358.17V529.316H1248.45V620.401H1367.81V640H1226.6ZM1406.81 640V460.399H1426.89V488.191H1428.49C1432.13 479.088 1438.4 471.805 1447.29 466.343C1456.28 460.774 1466.41 457.99 1477.65 457.99C1479.36 457.99 1481.24 457.99 1483.27 457.99C1485.41 457.99 1487.18 458.043 1488.57 458.15V479.195C1487.72 479.088 1486.11 478.927 1483.75 478.713C1481.4 478.392 1478.77 478.231 1475.88 478.231C1466.67 478.231 1458.37 480.212 1450.98 484.175C1443.7 488.137 1437.97 493.599 1433.79 500.561C1429.62 507.415 1427.53 515.286 1427.53 524.175V640H1406.81ZM1513.12 640V460.399H1533.84V640H1513.12ZM1523.56 429.716C1519.27 429.716 1515.58 428.271 1512.47 425.379C1509.47 422.38 1507.97 418.792 1507.97 414.616C1507.97 410.546 1509.47 407.065 1512.47 404.174C1515.58 401.282 1519.27 399.836 1523.56 399.836C1527.84 399.836 1531.48 401.282 1534.48 404.174C1537.48 407.065 1538.98 410.546 1538.98 414.616C1538.98 418.792 1537.48 422.38 1534.48 425.379C1531.48 428.271 1527.84 429.716 1523.56 429.716ZM1596.93 572.208L1596.61 544.898H1601.43L1685.45 460.399H1711.63L1628.74 543.774L1626.81 544.095L1596.93 572.208ZM1577.98 640V400.64H1598.7V640H1577.98ZM1689.63 640L1616.85 547.951L1631.79 533.493L1716.45 640H1689.63ZM1867.71 640L1802.32 400.64H1824.49L1878.79 606.586H1880.56L1934.86 400.64H1960.24L2014.21 606.586H2016.3L2070.44 400.64H2092.61L2027.07 640H2003.61L1948.35 437.106H1946.74L1891.32 640H1867.71ZM2151.05 644.016C2140.23 644.016 2130.32 641.928 2121.33 637.751C2112.33 633.467 2105.15 627.309 2099.8 619.277C2094.55 611.138 2091.93 601.285 2091.93 589.718C2091.93 580.829 2093.59 573.386 2096.91 567.389C2100.23 561.391 2104.99 556.465 2111.21 552.609C2117.42 548.647 2124.7 545.541 2133.05 543.292C2141.51 540.936 2150.83 539.169 2161.01 537.991C2171.07 536.706 2179.59 535.635 2186.55 534.778C2193.51 533.814 2198.81 532.315 2202.45 530.28C2206.09 528.245 2207.91 524.979 2207.91 520.48V516.304C2207.91 503.988 2204.27 494.349 2196.99 487.388C2189.71 480.319 2179.27 476.785 2165.66 476.785C2152.71 476.785 2142.16 479.623 2134.02 485.299C2125.88 490.975 2120.2 497.669 2116.99 505.38L2097.07 498.151C2101.14 488.405 2106.76 480.587 2113.94 474.697C2121.11 468.806 2129.14 464.576 2138.03 462.006C2146.92 459.328 2155.92 457.99 2165.02 457.99C2171.88 457.99 2179 458.9 2186.39 460.721C2193.78 462.541 2200.68 465.647 2207.11 470.038C2213.54 474.429 2218.73 480.587 2222.69 488.512C2226.76 496.33 2228.8 506.237 2228.8 518.231V640H2207.91V611.566H2206.63C2204.27 616.814 2200.63 621.954 2195.7 626.988C2190.78 631.914 2184.62 635.984 2177.23 639.197C2169.84 642.41 2161.11 644.016 2151.05 644.016ZM2153.94 625.06C2164.97 625.06 2174.5 622.65 2182.53 617.831C2190.67 612.905 2196.94 606.318 2201.33 598.072C2205.72 589.825 2207.91 580.829 2207.91 571.083V545.22C2206.31 546.719 2203.68 548.058 2200.04 549.236C2196.51 550.414 2192.38 551.431 2187.67 552.288C2183.07 553.145 2178.36 553.895 2173.54 554.537C2168.82 555.18 2164.65 555.715 2161.01 556.144C2150.94 557.429 2142.26 559.41 2134.98 562.087C2127.81 564.765 2122.29 568.406 2118.43 573.011C2114.69 577.616 2112.81 583.56 2112.81 590.843C2112.81 601.66 2116.67 610.067 2124.38 616.064C2132.2 622.061 2142.05 625.06 2153.94 625.06ZM2293.5 400.64V640H2272.78V400.64H2293.5ZM2402.06 643.855C2387.39 643.855 2374.48 640 2363.34 632.289C2352.31 624.471 2343.69 613.547 2337.48 599.518C2331.37 585.488 2328.32 569.209 2328.32 550.682C2328.32 532.261 2331.43 516.09 2337.64 502.167C2343.85 488.244 2352.47 477.428 2363.5 469.717C2374.64 461.899 2387.55 457.99 2402.22 457.99C2413.25 457.99 2422.35 459.971 2429.53 463.934C2436.81 467.789 2442.65 472.555 2447.04 478.231C2451.54 483.907 2454.96 489.423 2457.32 494.777H2459.09V400.64H2479.81V640H2459.73V606.586H2457.32C2454.96 612.048 2451.54 617.67 2447.04 623.454C2442.54 629.237 2436.65 634.11 2429.37 638.072C2422.09 641.928 2412.98 643.855 2402.06 643.855ZM2404.47 624.899C2416.14 624.899 2426.05 621.687 2434.19 615.261C2442.33 608.835 2448.54 600.053 2452.82 588.915C2457.21 577.67 2459.41 564.872 2459.41 550.521C2459.41 536.063 2457.27 523.319 2452.98 512.288C2448.7 501.257 2442.43 492.635 2434.19 486.424C2426.05 480.105 2416.14 476.946 2404.47 476.946C2392.58 476.946 2382.51 480.212 2374.27 486.745C2366.02 493.278 2359.76 502.113 2355.47 513.251C2351.29 524.282 2349.21 536.706 2349.21 550.521C2349.21 564.336 2351.35 576.867 2355.63 588.112C2359.92 599.357 2366.13 608.299 2374.27 614.939C2382.51 621.579 2392.58 624.899 2404.47 624.899ZM2596.56 643.855C2579.85 643.855 2565.34 639.946 2553.03 632.128C2540.71 624.203 2531.23 613.279 2524.59 599.357C2517.95 585.434 2514.63 569.424 2514.63 551.324C2514.63 533.225 2517.9 517.16 2524.43 503.131C2531.07 489.101 2540.28 478.07 2552.06 470.038C2563.84 462.006 2577.5 457.99 2593.03 457.99C2602.67 457.99 2612.04 459.81 2621.14 463.452C2630.24 466.986 2638.44 472.394 2645.72 479.677C2653 486.959 2658.73 496.223 2662.91 507.468C2667.08 518.606 2669.17 531.886 2669.17 547.308V556.625H2528.93V538.312H2657.93L2648.45 545.38C2648.45 532.315 2646.2 520.641 2641.7 510.36C2637.31 500.079 2630.99 491.939 2622.75 485.942C2614.5 479.944 2604.59 476.946 2593.03 476.946C2581.57 476.946 2571.5 479.998 2562.83 486.103C2554.15 492.1 2547.4 500.132 2542.58 510.199C2537.87 520.159 2535.52 531.083 2535.52 542.971V553.734C2535.52 568.085 2537.98 580.615 2542.91 591.325C2547.94 601.927 2555.01 610.174 2564.11 616.064C2573.32 621.954 2584.14 624.899 2596.56 624.899C2605.02 624.899 2612.46 623.561 2618.89 620.883C2625.32 618.206 2630.72 614.618 2635.12 610.12C2639.51 605.515 2642.83 600.535 2645.08 595.18L2664.84 601.767C2662.05 609.263 2657.55 616.225 2651.34 622.65C2645.24 628.969 2637.53 634.11 2628.21 638.072C2619 641.928 2608.45 643.855 2596.56 643.855ZM2723.91 527.87V640H2703.19V460.399H2723.27V488.833H2725.36C2729.54 479.516 2736.07 472.073 2744.96 466.504C2753.85 460.935 2764.88 458.15 2778.05 458.15C2790.15 458.15 2800.76 460.667 2809.86 465.701C2819.07 470.734 2826.25 478.124 2831.39 487.87C2836.53 497.615 2839.1 509.61 2839.1 523.854V640H2818.37V525.139C2818.37 510.467 2814.25 498.793 2806 490.119C2797.76 481.444 2786.73 477.106 2772.91 477.106C2763.49 477.106 2755.08 479.195 2747.69 483.372C2740.3 487.441 2734.46 493.278 2730.18 500.882C2726 508.379 2723.91 517.375 2723.91 527.87Z" fill="white"/>
</svg>
