<svg width="3609" height="708" viewBox="0 0 3609 708" fill="none" xmlns="http://www.w3.org/2000/svg">
<path d="M350 700C543.3 700 700 543.3 700 350C700 156.7 543.3 0 350 0C156.7 0 0 156.7 0 350C0 543.3 156.7 700 350 700Z" fill="#7AF546"/>
<path d="M398.2 265.434L199.4 460.684C196.08 463.95 191.61 465.78 186.953 465.78C182.296 465.78 177.825 463.95 174.506 460.684L89.3056 377.015C87.6426 375.38 86.3187 373.434 85.4087 371.288C84.4987 369.142 84.0197 366.837 84.0007 364.506C83.9807 362.175 84.4207 359.863 85.2947 357.701C86.1687 355.54 87.4596 353.572 89.0946 351.91C90.7286 350.248 92.6747 348.924 94.8217 348.013C96.9677 347.103 99.2716 346.625 101.604 346.605C103.935 346.585 106.247 347.025 108.408 347.899C110.57 348.773 112.538 350.065 114.2 351.699L186.953 423.143L373.328 240.096C376.688 236.795 381.222 234.964 385.932 235.005C388.264 235.026 390.569 235.506 392.716 236.417C394.863 237.329 396.809 238.654 398.444 240.318C400.079 241.982 401.369 243.951 402.243 246.114C403.116 248.276 403.555 250.59 403.535 252.922C403.514 255.254 403.034 257.56 402.123 259.706C401.211 261.853 399.886 263.8 398.222 265.434H398.2ZM611.422 240.318C609.788 238.653 607.842 237.326 605.695 236.414C603.548 235.502 601.242 235.021 598.91 235.001C596.577 234.98 594.263 235.42 592.1 236.294C589.938 237.168 587.969 238.46 586.305 240.096L399.93 423.143L358.151 382.096C354.791 378.798 350.259 376.969 345.551 377.013C340.842 377.057 336.345 378.969 333.046 382.329C329.748 385.689 327.92 390.222 327.963 394.93C328.007 399.638 329.919 404.136 333.279 407.434L387.483 460.684C390.803 463.95 395.274 465.78 399.93 465.78C404.587 465.78 409.058 463.95 412.378 460.684L611.178 265.434C612.844 263.802 614.172 261.857 615.087 259.711C616.001 257.565 616.483 255.259 616.506 252.927C616.529 250.594 616.091 248.28 615.219 246.116C614.346 243.953 613.056 241.982 611.422 240.318Z" fill="black"/>
<path d="M892.572 303.213C871.367 303.213 852.357 298.394 835.543 288.755C818.729 279.116 805.449 265.14 795.703 246.827C785.957 228.513 781.084 206.398 781.084 180.48C781.084 154.349 785.957 132.126 795.703 113.813C805.556 95.3924 818.889 81.4163 835.704 71.8848C852.625 62.2461 871.581 57.4268 892.572 57.4268C906.494 57.4268 919.399 59.408 931.287 63.3706C943.175 67.2261 953.67 72.9022 962.773 80.3989C971.984 87.7886 979.48 96.8918 985.264 107.708C991.047 118.418 994.742 130.681 996.348 144.496H945.263C944.299 137.963 942.372 132.073 939.48 126.825C936.695 121.577 933.001 117.133 928.396 113.492C923.897 109.85 918.703 107.066 912.813 105.138C907.03 103.103 900.658 102.086 893.696 102.086C881.487 102.086 870.724 105.192 861.407 111.403C852.196 117.508 845.021 126.397 839.88 138.07C834.847 149.637 832.33 163.773 832.33 180.48C832.33 197.509 834.9 211.86 840.041 223.533C845.182 235.1 852.357 243.828 861.567 249.718C870.778 255.609 881.434 258.554 893.536 258.554C900.283 258.554 906.548 257.643 912.331 255.823C918.114 254.002 923.255 251.378 927.753 247.951C932.251 244.524 935.999 240.347 938.998 235.421C942.104 230.387 944.192 224.658 945.263 218.232H996.348C995.063 229.263 991.797 239.865 986.549 250.04C981.408 260.214 974.393 269.317 965.504 277.349C956.615 285.274 946.066 291.593 933.857 296.305C921.648 300.91 907.887 303.213 892.572 303.213ZM1070.37 196.224V300H1020.73V60.6396H1068.76V152.368H1071.01C1075.08 141.765 1081.61 133.412 1090.61 127.307C1099.71 121.203 1111.06 118.15 1124.67 118.15C1137.09 118.15 1147.96 120.881 1157.28 126.343C1166.59 131.698 1173.82 139.409 1178.96 149.476C1184.21 159.543 1186.84 171.645 1186.84 185.782V300H1137.04V194.617C1137.04 183.586 1134.2 174.965 1128.52 168.753C1122.95 162.542 1115.08 159.436 1104.91 159.436C1098.05 159.436 1092.05 160.935 1086.91 163.934C1081.77 166.826 1077.7 171.002 1074.71 176.464C1071.81 181.926 1070.37 188.513 1070.37 196.224ZM1266.48 303.374C1255.13 303.374 1244.9 301.392 1235.79 297.43C1226.8 293.36 1219.73 287.363 1214.59 279.438C1209.45 271.512 1206.88 261.66 1206.88 249.879C1206.88 239.812 1208.7 231.458 1212.34 224.818C1215.98 218.071 1220.96 212.609 1227.28 208.433C1233.6 204.256 1240.77 201.097 1248.81 198.955C1256.84 196.813 1265.35 195.313 1274.35 194.457C1284.74 193.493 1293.09 192.529 1299.41 191.565C1305.73 190.601 1310.33 189.155 1313.22 187.228C1316.22 185.193 1317.72 182.301 1317.72 178.553V177.75C1317.72 170.36 1315.37 164.63 1310.65 160.561C1306.05 156.491 1299.52 154.456 1291.06 154.456C1282.17 154.456 1275.05 156.437 1269.69 160.4C1264.44 164.255 1260.96 169.182 1259.25 175.179L1213.14 171.484C1215.5 160.561 1220.1 151.136 1226.96 143.211C1233.81 135.179 1242.65 129.021 1253.47 124.737C1264.39 120.346 1277.03 118.15 1291.38 118.15C1301.34 118.15 1310.87 119.328 1319.97 121.685C1329.08 124.041 1337.16 127.682 1344.23 132.608C1351.4 137.428 1357.08 143.693 1361.26 151.404C1365.43 159.115 1367.52 168.271 1367.52 178.874V300H1320.13V274.939H1318.85C1315.96 280.616 1312.1 285.596 1307.28 289.879C1302.46 294.056 1296.68 297.376 1289.93 299.839C1283.18 302.195 1275.37 303.374 1266.48 303.374ZM1280.77 268.996C1288.06 268.996 1294.48 267.55 1300.05 264.658C1305.73 261.66 1310.12 257.697 1313.22 252.771C1316.44 247.737 1318.04 242.114 1318.04 235.903V216.786C1316.54 217.75 1314.4 218.66 1311.62 219.517C1308.94 220.374 1305.94 221.124 1302.62 221.766C1299.3 222.409 1295.98 222.998 1292.66 223.533C1289.34 223.962 1286.34 224.39 1283.67 224.818C1277.78 225.675 1272.64 227.067 1268.24 228.995C1263.85 230.816 1260.43 233.333 1257.96 236.545C1255.61 239.651 1254.43 243.56 1254.43 248.272C1254.43 255.02 1256.89 260.16 1261.82 263.694C1266.75 267.229 1273.06 268.996 1280.77 268.996ZM1445.56 196.224V300H1395.92V120.399H1444.76V152.368H1446.52C1450.59 141.765 1457.07 133.412 1465.96 127.307C1474.85 121.203 1485.99 118.15 1499.37 118.15C1511.8 118.15 1522.61 120.881 1531.82 126.343C1541.14 131.805 1548.37 139.57 1553.51 149.637C1558.65 159.704 1561.22 171.752 1561.22 185.782V300H1511.58V194.617C1511.58 183.693 1508.75 175.126 1503.07 168.914C1497.39 162.595 1489.58 159.436 1479.62 159.436C1472.98 159.436 1467.09 160.935 1461.94 163.934C1456.8 166.826 1452.79 171.002 1449.9 176.464C1447 181.926 1445.56 188.513 1445.56 196.224ZM1639.58 196.224V300H1589.94V120.399H1638.78V152.368H1640.54C1644.61 141.765 1651.09 133.412 1659.98 127.307C1668.87 121.203 1680.01 118.15 1693.4 118.15C1705.82 118.15 1716.64 120.881 1725.85 126.343C1735.16 131.805 1742.39 139.57 1747.53 149.637C1752.67 159.704 1755.24 171.752 1755.24 185.782V300H1705.6V194.617C1705.6 183.693 1702.77 175.126 1697.09 168.914C1691.41 162.595 1683.6 159.436 1673.64 159.436C1667 159.436 1661.11 160.935 1655.97 163.934C1650.82 166.826 1646.81 171.002 1643.92 176.464C1641.03 181.926 1639.58 188.513 1639.58 196.224ZM1865.73 303.534C1847.31 303.534 1831.41 299.786 1818.02 292.289C1804.63 284.792 1794.35 274.136 1787.17 260.321C1780.11 246.398 1776.57 229.959 1776.57 211.003C1776.57 192.582 1780.11 176.411 1787.17 162.488C1794.35 148.566 1804.42 137.695 1817.38 129.877C1830.44 122.059 1845.76 118.15 1863.32 118.15C1875.21 118.15 1886.29 120.078 1896.57 123.934C1906.85 127.682 1915.85 133.358 1923.56 140.962C1931.27 148.459 1937.27 157.937 1941.55 169.396C1945.84 180.748 1947.98 194.082 1947.98 209.396V222.891H1796.33V192.208H1923.88L1900.75 200.24C1900.75 191.137 1899.36 183.211 1896.57 176.464C1893.79 169.717 1889.61 164.523 1884.04 160.882C1878.58 157.133 1871.78 155.259 1863.64 155.259C1855.5 155.259 1848.59 157.133 1842.92 160.882C1837.35 164.63 1833.07 169.717 1830.07 176.143C1827.07 182.569 1825.57 189.958 1825.57 198.312V219.999C1825.57 229.745 1827.28 238.098 1830.71 245.06C1834.14 251.914 1838.9 257.215 1845.01 260.963C1851.22 264.605 1858.34 266.425 1866.37 266.425C1871.94 266.425 1876.97 265.622 1881.47 264.016C1885.97 262.409 1889.83 260.053 1893.04 256.947C1896.36 253.841 1898.82 250.093 1900.43 245.702L1946.37 248.754C1944.12 259.785 1939.41 269.424 1932.24 277.67C1925.17 285.81 1916.01 292.182 1904.77 296.787C1893.52 301.285 1880.51 303.534 1865.73 303.534ZM2018.3 60.6396V300H1968.67V60.6396H2018.3ZM2112.69 300V60.6396H2206.99C2225.09 60.6396 2240.51 63.8525 2253.25 70.2783C2266.1 76.7041 2275.9 85.8073 2282.65 97.5879C2289.51 109.261 2292.93 123.023 2292.93 138.874C2292.93 154.724 2289.51 168.379 2282.65 179.838C2275.8 191.297 2265.84 200.079 2252.77 206.184C2239.81 212.181 2224.12 215.18 2205.7 215.18H2142.57V174.537H2197.51C2207.26 174.537 2215.29 173.198 2221.61 170.521C2228.03 167.843 2232.8 163.881 2235.9 158.633C2239.12 153.385 2240.72 146.799 2240.72 138.874C2240.72 130.841 2239.12 124.148 2235.9 118.793C2232.8 113.331 2228.03 109.208 2221.61 106.423C2215.18 103.532 2207.09 102.086 2197.35 102.086H2163.13V300H2112.69ZM2245.54 300L2187.23 191.083H2241.85L2301.45 300H2245.54ZM2395.39 303.534C2376.97 303.534 2361.06 299.786 2347.67 292.289C2334.29 284.792 2324.01 274.136 2316.83 260.321C2309.76 246.398 2306.23 229.959 2306.23 211.003C2306.23 192.582 2309.76 176.411 2316.83 162.488C2324.01 148.566 2334.07 137.695 2347.03 129.877C2360.1 122.059 2375.41 118.15 2392.98 118.15C2404.86 118.15 2415.95 120.078 2426.23 123.934C2436.51 127.682 2445.51 133.358 2453.22 140.962C2460.93 148.459 2466.93 157.937 2471.21 169.396C2475.49 180.748 2477.64 194.082 2477.64 209.396V222.891H2325.99V192.208H2453.54L2430.41 200.24C2430.41 191.137 2429.01 183.211 2426.23 176.464C2423.45 169.717 2419.27 164.523 2413.7 160.882C2408.24 157.133 2401.44 155.259 2393.3 155.259C2385.16 155.259 2378.25 157.133 2372.57 160.882C2367.01 164.63 2362.72 169.717 2359.72 176.143C2356.72 182.569 2355.22 189.958 2355.22 198.312V219.999C2355.22 229.745 2356.94 238.098 2360.37 245.06C2363.79 251.914 2368.56 257.215 2374.66 260.963C2380.87 264.605 2388 266.425 2396.03 266.425C2401.6 266.425 2406.63 265.622 2411.13 264.016C2415.63 262.409 2419.48 260.053 2422.7 256.947C2426.02 253.841 2428.48 250.093 2430.09 245.702L2476.03 248.754C2473.78 259.785 2469.07 269.424 2461.89 277.67C2454.82 285.81 2445.67 292.182 2434.42 296.787C2423.18 301.285 2410.17 303.534 2395.39 303.534ZM2659.61 120.399L2596.96 300H2540.73L2478.24 120.399H2530.77L2568.52 249.076H2570.45L2607.56 120.399H2659.61ZM2674.03 300V120.399H2723.67V300H2674.03ZM2698.77 97.4272C2691.38 97.4272 2685.06 94.964 2679.81 90.0376C2674.56 85.1112 2671.94 79.1673 2671.94 72.2061C2671.94 65.2448 2674.56 59.3545 2679.81 54.5352C2685.06 49.6087 2691.38 47.1455 2698.77 47.1455C2706.27 47.1455 2712.64 49.6087 2717.89 54.5352C2723.13 59.3545 2725.76 65.2448 2725.76 72.2061C2725.76 79.1673 2723.13 85.1112 2717.89 90.0376C2712.64 94.964 2706.27 97.4272 2698.77 97.4272ZM2834.15 303.534C2815.73 303.534 2799.83 299.786 2786.44 292.289C2773.06 284.792 2762.77 274.136 2755.6 260.321C2748.53 246.398 2745 229.959 2745 211.003C2745 192.582 2748.53 176.411 2755.6 162.488C2762.77 148.566 2772.84 137.695 2785.8 129.877C2798.87 122.059 2814.18 118.15 2831.74 118.15C2843.63 118.15 2854.72 120.078 2865 123.934C2875.28 127.682 2884.28 133.358 2891.99 140.962C2899.7 148.459 2905.69 157.937 2909.98 169.396C2914.26 180.748 2916.4 194.082 2916.4 209.396V222.891H2764.76V192.208H2892.31L2869.17 200.24C2869.17 191.137 2867.78 183.211 2865 176.464C2862.21 169.717 2858.04 164.523 2852.47 160.882C2847.01 157.133 2840.21 155.259 2832.07 155.259C2823.93 155.259 2817.02 157.133 2811.34 160.882C2805.77 164.63 2801.49 169.717 2798.49 176.143C2795.49 182.569 2793.99 189.958 2793.99 198.312V219.999C2793.99 229.745 2795.71 238.098 2799.13 245.06C2802.56 251.914 2807.33 257.215 2813.43 260.963C2819.64 264.605 2826.76 266.425 2834.8 266.425C2840.37 266.425 2845.4 265.622 2849.9 264.016C2854.4 262.409 2858.25 260.053 2861.46 256.947C2864.78 253.841 2867.25 250.093 2868.85 245.702L2914.8 248.754C2912.55 259.785 2907.84 269.424 2900.66 277.67C2893.59 285.81 2884.44 292.182 2873.19 296.787C2861.95 301.285 2848.93 303.534 2834.15 303.534ZM2967.77 300L2918.94 120.399H2969.38L2997.17 241.204H2998.78L3027.85 120.399H3077.17L3106.57 240.401H3108.18L3135.49 120.399H3185.77L3136.93 300H3084.4L3053.56 187.067H3051.31L3020.46 300H2967.77ZM870.082 643.855C859.265 643.855 850.162 641.928 842.772 638.072C835.489 634.11 829.599 629.237 825.101 623.454C820.71 617.67 817.283 612.048 814.82 606.586H812.41V640H792.33V400.64H813.053V494.777H814.82C817.283 489.423 820.71 483.907 825.101 478.231C829.492 472.555 835.329 467.789 842.611 463.934C849.894 459.971 858.997 457.99 869.921 457.99C884.7 457.99 897.605 461.899 908.636 469.717C919.774 477.428 928.449 488.244 934.661 502.167C940.872 516.09 943.978 532.261 943.978 550.682C943.978 569.209 940.872 585.488 934.661 599.518C928.556 613.547 919.935 624.471 908.797 632.289C897.766 640 884.861 643.855 870.082 643.855ZM867.833 624.899C879.613 624.899 889.627 621.579 897.873 614.939C906.119 608.299 912.385 599.357 916.668 588.112C920.952 576.867 923.094 564.336 923.094 550.521C923.094 536.706 920.952 524.282 916.668 513.251C912.385 502.113 906.173 493.278 898.034 486.745C889.894 480.212 879.827 476.946 867.833 476.946C856.052 476.946 846.092 480.105 837.953 486.424C829.813 492.635 823.602 501.257 819.318 512.288C815.034 523.319 812.892 536.063 812.892 550.521C812.892 564.872 815.034 577.67 819.318 588.915C823.602 600.053 829.813 608.835 837.953 615.261C846.199 621.687 856.159 624.899 867.833 624.899ZM986.672 707.149C982.602 707.257 978.747 706.935 975.106 706.186C971.571 705.436 968.733 704.526 966.591 703.455L972.214 685.302L974.624 685.944C984.477 688.836 992.83 688.461 999.684 684.82C1006.65 681.286 1012.48 673.039 1017.19 660.081L1023.78 641.767L957.756 460.399H980.407L1033.58 612.69H1035.19L1088.52 460.399H1111.01L1035.19 668.273C1031.97 676.948 1028.01 684.177 1023.3 689.96C1018.69 695.744 1013.34 700.028 1007.23 702.812C1001.13 705.704 994.276 707.149 986.672 707.149ZM1296.8 640H1238.81V620.401H1295.52C1316.08 620.401 1333.27 616.385 1347.08 608.353C1361.01 600.214 1371.45 588.647 1378.41 573.654C1385.37 558.553 1388.85 540.561 1388.85 519.677C1388.85 499.115 1385.42 481.444 1378.57 466.665C1371.82 451.778 1361.81 440.372 1348.53 432.447C1335.36 424.415 1319.08 420.399 1299.69 420.399H1238.01V400.64H1300.98C1323.79 400.64 1343.34 405.405 1359.61 414.937C1375.89 424.469 1388.32 438.123 1396.88 455.901C1405.56 473.679 1409.9 494.938 1409.9 519.677C1409.9 544.845 1405.45 566.425 1396.56 584.417C1387.78 602.302 1374.93 616.064 1358.01 625.703C1341.19 635.234 1320.79 640 1296.8 640ZM1248.45 400.64V640H1226.6V400.64H1248.45ZM1497.73 644.016C1486.91 644.016 1477.01 641.928 1468.01 637.751C1459.02 633.467 1451.84 627.309 1446.49 619.277C1441.24 611.138 1438.61 601.285 1438.61 589.718C1438.61 580.829 1440.27 573.386 1443.59 567.389C1446.91 561.391 1451.68 556.465 1457.89 552.609C1464.1 548.647 1471.39 545.541 1479.74 543.292C1488.2 540.936 1497.52 539.169 1507.69 537.991C1517.76 536.706 1526.27 535.635 1533.23 534.778C1540.19 533.814 1545.5 532.315 1549.14 530.28C1552.78 528.245 1554.6 524.979 1554.6 520.48V516.304C1554.6 503.988 1550.96 494.349 1543.68 487.388C1536.39 480.319 1525.95 476.785 1512.35 476.785C1499.39 476.785 1488.84 479.623 1480.7 485.299C1472.56 490.975 1466.89 497.669 1463.67 505.38L1443.75 498.151C1447.82 488.405 1453.45 480.587 1460.62 474.697C1467.8 468.806 1475.83 464.576 1484.72 462.006C1493.61 459.328 1502.6 457.99 1511.71 457.99C1518.56 457.99 1525.68 458.9 1533.07 460.721C1540.46 462.541 1547.37 465.647 1553.8 470.038C1560.22 474.429 1565.42 480.587 1569.38 488.512C1573.45 496.33 1575.48 506.237 1575.48 518.231V640H1554.6V611.566H1553.31C1550.96 616.814 1547.32 621.954 1542.39 626.988C1537.46 631.914 1531.31 635.984 1523.92 639.197C1516.53 642.41 1507.8 644.016 1497.73 644.016ZM1500.62 625.06C1511.65 625.06 1521.18 622.65 1529.22 617.831C1537.36 612.905 1543.62 606.318 1548.01 598.072C1552.4 589.825 1554.6 580.829 1554.6 571.083V545.22C1552.99 546.719 1550.37 548.058 1546.73 549.236C1543.19 550.414 1539.07 551.431 1534.36 552.288C1529.75 553.145 1525.04 553.895 1520.22 554.537C1515.51 555.18 1511.33 555.715 1507.69 556.144C1497.62 557.429 1488.95 559.41 1481.67 562.087C1474.49 564.765 1468.98 568.406 1465.12 573.011C1461.37 577.616 1459.5 583.56 1459.5 590.843C1459.5 601.66 1463.35 610.067 1471.06 616.064C1478.88 622.061 1488.73 625.06 1500.62 625.06ZM1751.83 460.399L1686.45 640H1664.12L1598.58 460.399H1621.23L1674.4 612.69H1676.01L1729.34 460.399H1751.83ZM1847.86 643.855C1831.15 643.855 1816.64 639.946 1804.33 632.128C1792.01 624.203 1782.53 613.279 1775.89 599.357C1769.25 585.434 1765.93 569.424 1765.93 551.324C1765.93 533.225 1769.2 517.16 1775.73 503.131C1782.37 489.101 1791.58 478.07 1803.36 470.038C1815.14 462.006 1828.8 457.99 1844.33 457.99C1853.97 457.99 1863.34 459.81 1872.44 463.452C1881.54 466.986 1889.74 472.394 1897.02 479.677C1904.3 486.959 1910.03 496.223 1914.21 507.468C1918.38 518.606 1920.47 531.886 1920.47 547.308V556.625H1780.23V538.312H1909.23L1899.75 545.38C1899.75 532.315 1897.5 520.641 1893 510.36C1888.61 500.079 1882.29 491.939 1874.05 485.942C1865.8 479.944 1855.89 476.946 1844.33 476.946C1832.87 476.946 1822.8 479.998 1814.13 486.103C1805.45 492.1 1798.7 500.132 1793.88 510.199C1789.17 520.159 1786.82 531.083 1786.82 542.971V553.734C1786.82 568.085 1789.28 580.615 1794.21 591.325C1799.24 601.927 1806.31 610.174 1815.41 616.064C1824.62 621.954 1835.44 624.899 1847.86 624.899C1856.32 624.899 1863.76 623.561 1870.19 620.883C1876.62 618.206 1882.02 614.618 1886.42 610.12C1890.81 605.515 1894.13 600.535 1896.38 595.18L1916.13 601.767C1913.35 609.263 1908.85 616.225 1902.64 622.65C1896.54 628.969 1888.83 634.11 1879.51 638.072C1870.3 641.928 1859.75 643.855 1847.86 643.855ZM2226.91 400.64V640H2205.38L2064.17 439.676H2062.09V640H2040.24V400.64H2061.44L2203.45 601.285H2205.22V400.64H2226.91ZM2275.38 640V460.399H2296.11V640H2275.38ZM2285.83 429.716C2281.54 429.716 2277.85 428.271 2274.74 425.379C2271.74 422.38 2270.24 418.792 2270.24 414.616C2270.24 410.546 2271.74 407.065 2274.74 404.174C2277.85 401.282 2281.54 399.836 2285.83 399.836C2290.11 399.836 2293.75 401.282 2296.75 404.174C2299.75 407.065 2301.25 410.546 2301.25 414.616C2301.25 418.792 2299.75 422.38 2296.75 425.379C2293.75 428.271 2290.11 429.716 2285.83 429.716ZM2410.29 643.855C2394.22 643.855 2380.25 639.839 2368.36 631.807C2356.47 623.775 2347.26 612.798 2340.73 598.875C2334.2 584.845 2330.93 568.942 2330.93 551.164C2330.93 533.064 2334.25 517.053 2340.89 503.131C2347.53 489.101 2356.79 478.07 2368.68 470.038C2380.57 462.006 2394.33 457.99 2409.97 457.99C2421.96 457.99 2432.83 460.346 2442.58 465.058C2452.32 469.663 2460.36 476.196 2466.67 484.657C2473.1 493.01 2477.12 502.756 2478.72 513.894H2457.84C2456.34 507.147 2453.45 500.989 2449.16 495.42C2444.99 489.851 2439.58 485.406 2432.94 482.086C2426.41 478.659 2418.86 476.946 2410.29 476.946C2398.83 476.946 2388.71 480.052 2379.93 486.263C2371.14 492.475 2364.24 501.096 2359.2 512.127C2354.28 523.158 2351.81 535.956 2351.81 550.521C2351.81 564.979 2354.22 577.831 2359.04 589.076C2363.86 600.321 2370.66 609.103 2379.44 615.421C2388.33 621.74 2398.61 624.899 2410.29 624.899C2422.18 624.899 2432.46 621.526 2441.13 614.779C2449.81 608.032 2455.38 598.982 2457.84 587.63H2478.72C2477.22 598.447 2473.37 608.085 2467.16 616.546C2461.05 625.007 2453.13 631.7 2443.38 636.626C2433.74 641.446 2422.71 643.855 2410.29 643.855ZM2531.7 572.208L2531.38 544.898H2536.2L2620.21 460.399H2646.4L2563.51 543.774L2561.58 544.095L2531.7 572.208ZM2512.74 640V400.64H2533.47V640H2512.74ZM2624.39 640L2551.62 547.951L2566.56 533.493L2651.22 640H2624.39ZM2749.3 640V400.64H2799.74V499.436H2902.55V400.64H2952.99V640H2902.55V541.043H2799.74V640H2749.3ZM2983.16 640V400.64H3077.46C3095.56 400.64 3110.98 403.853 3123.72 410.278C3136.57 416.704 3146.37 425.807 3153.12 437.588C3159.97 449.261 3163.4 463.023 3163.4 478.874C3163.4 494.724 3159.97 508.379 3153.12 519.838C3146.27 531.297 3136.31 540.079 3123.24 546.184C3110.28 552.181 3094.59 555.18 3076.17 555.18H3013.04V514.537H3067.98C3077.72 514.537 3085.76 513.198 3092.07 510.521C3098.5 507.843 3103.27 503.881 3106.37 498.633C3109.58 493.385 3111.19 486.799 3111.19 478.874C3111.19 470.841 3109.58 464.148 3106.37 458.793C3103.27 453.331 3098.5 449.208 3092.07 446.423C3085.65 443.532 3077.56 442.086 3067.82 442.086H3033.6V640H2983.16ZM3116.01 640L3057.7 531.083H3112.32L3171.92 640H3116.01ZM3187.78 640V400.64H3282.08C3300.18 400.64 3315.6 404.12 3328.35 411.082C3341.2 417.936 3351 427.467 3357.74 439.676C3364.6 451.885 3368.02 465.968 3368.02 481.926C3368.02 497.776 3364.6 511.752 3357.74 523.854C3350.89 535.956 3340.93 545.434 3327.86 552.288C3314.9 559.035 3299.22 562.409 3280.79 562.409H3220.71V521.926H3272.6C3282.35 521.926 3290.38 520.213 3296.7 516.786C3303.12 513.359 3307.89 508.646 3311 502.649C3314.21 496.652 3315.82 489.744 3315.82 481.926C3315.82 473.894 3314.21 466.932 3311 461.042C3307.89 455.045 3303.12 450.386 3296.7 447.066C3290.27 443.746 3282.19 442.086 3272.44 442.086H3238.22V640H3187.78ZM3432.89 400.64L3490.56 582.489H3492.81L3550.8 400.64H3606.71L3524.29 640H3459.07L3376.5 400.64H3432.89Z" fill="white"/>
</svg>
